<svg width="25" height="25" viewBox="0 0 25 25" fill="none" xmlns="http://www.w3.org/2000/svg">
<path d="M14.4531 16.7963L3.90625 16.7963" stroke="#41413E" stroke-width="2" stroke-linecap="round" stroke-linejoin="round"/>
<path d="M21.0938 16.7963L18.3594 16.7963" stroke="#41413E" stroke-width="2" stroke-linecap="round" stroke-linejoin="round"/>
<path d="M16.4062 18.7494C17.4849 18.7494 18.3594 17.8749 18.3594 16.7963C18.3594 15.7176 17.4849 14.8431 16.4062 14.8431C15.3276 14.8431 14.4531 15.7176 14.4531 16.7963C14.4531 17.8749 15.3276 18.7494 16.4062 18.7494Z" stroke="#41413E" stroke-width="2" stroke-linecap="round" stroke-linejoin="round"/>
<path d="M8.20312 8.20245L3.90625 8.20239" stroke="#41413E" stroke-width="2" stroke-linecap="round" stroke-linejoin="round"/>
<path d="M21.0938 8.20239L12.1094 8.20245" stroke="#41413E" stroke-width="2" stroke-linecap="round" stroke-linejoin="round"/>
<path d="M10.1562 10.1556C11.2349 10.1556 12.1094 9.2812 12.1094 8.20251C12.1094 7.12383 11.2349 6.24939 10.1562 6.24939C9.07757 6.24939 8.20312 7.12383 8.20312 8.20251C8.20312 9.2812 9.07757 10.1556 10.1562 10.1556Z" stroke="#41413E" stroke-width="2" stroke-linecap="round" stroke-linejoin="round"/>
</svg>
