<svg width="54" height="54" viewBox="0 0 54 54" fill="none" xmlns="http://www.w3.org/2000/svg">
<path d="M17.3237 31.742C15.9259 29.3857 15.4364 26.6002 15.9471 23.9086C16.4578 21.217 17.9334 18.8044 20.097 17.1238C22.2607 15.4432 24.9634 14.6103 27.6976 14.7814C30.4319 14.9525 33.0097 16.1159 34.9469 18.0531C36.8841 19.9903 38.0475 22.568 38.2186 25.3023C38.3898 28.0366 37.5568 30.7393 35.8762 32.9029C34.1957 35.0665 31.7831 36.5422 29.0914 37.0529C26.3998 37.5636 23.6144 37.0741 21.2581 35.6764L21.2581 35.6762L17.3726 36.7864C17.2118 36.8323 17.0417 36.8344 16.8799 36.7925C16.718 36.7506 16.5704 36.6661 16.4521 36.5479C16.3339 36.4297 16.2495 36.282 16.2075 36.1201C16.1656 35.9583 16.1677 35.7882 16.2136 35.6274L17.3238 31.7419L17.3237 31.742Z" stroke="#9D9B98" stroke-width="2" stroke-linecap="round" stroke-linejoin="round"/>
<path d="M27 27.4062C27.7767 27.4062 28.4062 26.7767 28.4062 26C28.4062 25.2233 27.7767 24.5938 27 24.5938C26.2233 24.5938 25.5938 25.2233 25.5938 26C25.5938 26.7767 26.2233 27.4062 27 27.4062Z" fill="#9D9B98"/>
<path d="M21.375 27.4062C22.1517 27.4062 22.7812 26.7767 22.7812 26C22.7812 25.2233 22.1517 24.5938 21.375 24.5938C20.5983 24.5938 19.9688 25.2233 19.9688 26C19.9688 26.7767 20.5983 27.4062 21.375 27.4062Z" fill="#9D9B98"/>
<path d="M32.625 27.4062C33.4017 27.4062 34.0312 26.7767 34.0312 26C34.0312 25.2233 33.4017 24.5938 32.625 24.5938C31.8483 24.5938 31.2188 25.2233 31.2188 26C31.2188 26.7767 31.8483 27.4062 32.625 27.4062Z" fill="#9D9B98"/>
<circle cx="27" cy="27" r="26.5" stroke="#9D9B98"/>
</svg>
