<svg width="25" height="25" viewBox="0 0 25 25" fill="none" xmlns="http://www.w3.org/2000/svg">
<path d="M4.4364 17.2849C3.27162 15.3214 2.86371 13.0002 3.28925 10.7572C3.7148 8.51415 4.94453 6.50363 6.74754 5.10314C8.55055 3.70265 10.8028 3.00853 13.0814 3.15112C15.3599 3.2937 17.5081 4.26319 19.1224 5.87753C20.7368 7.49187 21.7063 9.64001 21.8489 11.9186C21.9915 14.1971 21.2974 16.4494 19.8969 18.2524C18.4964 20.0554 16.4859 21.2852 14.2429 21.7107C11.9999 22.1363 9.67864 21.7284 7.71509 20.5636L7.71511 20.5635L4.47717 21.4886C4.3432 21.5269 4.20144 21.5287 4.06657 21.4937C3.9317 21.4588 3.80863 21.3884 3.71011 21.2899C3.61159 21.1914 3.54121 21.0683 3.50626 20.9334C3.47131 20.7985 3.47307 20.6568 3.51135 20.5228L4.43647 17.2849L4.4364 17.2849Z" stroke="#666666" stroke-width="1.6" stroke-linecap="round" stroke-linejoin="round"/>
<path d="M9.375 10.9375H15.625" stroke="#666666" stroke-width="1.6" stroke-linecap="round" stroke-linejoin="round"/>
<path d="M9.375 14.0625H15.625" stroke="#666666" stroke-width="1.6" stroke-linecap="round" stroke-linejoin="round"/>
</svg>
