<svg width="80" height="80" viewBox="0 0 80 80" fill="none" xmlns="http://www.w3.org/2000/svg">
<g clip-path="url(#clip0_6344_2737)">
<path d="M40 80C62.0914 80 80 62.0914 80 40C80 17.9086 62.0914 0 40 0C17.9086 0 0 17.9086 0 40C0 62.0914 17.9086 80 40 80Z" fill="#FF891D"/>
<path d="M62.6988 29.8565L34.4878 58.0694C34.2872 58.28 34.0459 58.4477 33.7785 58.5622C33.5112 58.6768 33.2234 58.7359 32.9325 58.7359C32.6417 58.7359 32.3539 58.6768 32.0865 58.5622C31.8192 58.4477 31.5779 58.28 31.3773 58.0694L17.3076 43.9997C16.8954 43.5872 16.6639 43.0279 16.6641 42.4447C16.6642 41.8616 16.896 41.3024 17.3085 40.8901C17.721 40.4779 18.2803 40.2464 18.8635 40.2466C19.4466 40.2467 20.0058 40.4785 20.4181 40.891L32.9317 53.4046L59.5149 26.8213C59.7153 26.6105 59.9566 26.4426 60.2239 26.3279C60.4913 26.2132 60.7792 26.1541 61.0701 26.1541C61.361 26.1541 61.6489 26.2132 61.9163 26.3279C62.1836 26.4426 62.4249 26.6105 62.6253 26.8213C63.588 27.5618 63.588 28.9726 62.6988 29.8565Z" fill="white"/>
</g>
<defs>
<clipPath id="clip0_6344_2737">
<rect width="80" height="80" fill="white"/>
</clipPath>
</defs>
</svg>
