<svg width="25" height="25" viewBox="0 0 25 25" fill="none" xmlns="http://www.w3.org/2000/svg">
<path d="M12.1563 2C10.1475 2 8.18393 2.59565 6.51374 3.71164C4.84356 4.82762 3.54181 6.41381 2.7731 8.26962C2.0044 10.1254 1.80327 12.1675 2.19515 14.1376C2.58704 16.1078 3.55432 17.9174 4.9747 19.3378C6.39508 20.7582 8.20475 21.7255 10.1749 22.1173C12.145 22.5092 14.1871 22.3081 16.0429 21.5394C17.8987 20.7707 19.4849 19.4689 20.6009 17.7988C21.7169 16.1286 22.3125 14.165 22.3125 12.1562C22.3094 9.4636 21.2384 6.88213 19.3344 4.97813C17.4304 3.07414 14.8489 2.00311 12.1563 2ZM16.9933 10.3778L11.2636 15.8466C11.1179 15.9852 10.9245 16.0625 10.7235 16.0625C10.5224 16.0625 10.329 15.9852 10.1833 15.8466L7.31922 13.1122C7.16959 12.9689 7.08297 12.772 7.07838 12.5649C7.07379 12.3577 7.15162 12.1572 7.29476 12.0074C7.4379 11.8576 7.63465 11.7707 7.8418 11.7659C8.04894 11.761 8.24955 11.8386 8.39954 11.9815L10.7235 14.2009L15.913 9.24716C16.063 9.10421 16.2636 9.02664 16.4707 9.03149C16.6779 9.03634 16.8746 9.12321 17.0178 9.27302C17.1609 9.42284 17.2387 9.62334 17.2341 9.83049C17.2295 10.0376 17.1429 10.2345 16.9933 10.3778Z" fill="#76C03F"/>
</svg>
