<svg width="119" height="119" viewBox="0 0 119 119" fill="none" xmlns="http://www.w3.org/2000/svg">
<path d="M25.3074 93.4151C21.0412 89.1489 23.8708 80.1923 21.6994 74.9442C19.4484 69.5038 11.1885 65.1252 11.1885 59.3289C11.1885 53.5326 19.4484 49.1541 21.6994 43.7138C23.8708 38.4657 21.0412 29.5092 25.3074 25.243C29.5735 20.9769 38.5301 23.8065 43.7782 21.635C49.2186 19.384 53.5972 11.1241 59.3935 11.1241C65.1898 11.1241 69.5683 19.3841 75.0086 21.6351C80.2567 23.8065 89.2132 20.9769 93.4794 25.243C97.7455 29.5092 94.916 38.4658 97.0874 43.7138C99.3384 49.1542 107.598 53.5329 107.598 59.3292C107.598 65.1254 99.3383 69.504 97.0874 74.9443C94.9159 80.1924 97.7455 89.1489 93.4794 93.4151C89.2133 97.6812 80.2567 94.8516 75.0086 97.0231C69.5682 99.274 65.1895 107.534 59.3932 107.534C53.597 107.534 49.2184 99.274 43.7781 97.023C38.53 94.8516 29.5735 97.6812 25.3074 93.4151Z" stroke="#FF7910" stroke-width="3.05143" stroke-linecap="round" stroke-linejoin="round"/>
<path d="M80.4572 48.205L53.2646 74.1614L39.6685 61.1832" stroke="#FF7910" stroke-width="3.05143" stroke-linecap="round" stroke-linejoin="round"/>
</svg>
