<svg width="25" height="25" viewBox="0 0 25 25" fill="none" xmlns="http://www.w3.org/2000/svg">
<path d="M12.5 2.34375C10.4913 2.34375 8.52768 2.9394 6.85749 4.05539C5.18731 5.17137 3.88556 6.75756 3.11685 8.61337C2.34815 10.4692 2.14702 12.5113 2.5389 14.4814C2.93079 16.4515 3.89807 18.2612 5.31845 19.6816C6.73883 21.1019 8.5485 22.0692 10.5186 22.4611C12.4887 22.853 14.5308 22.6519 16.3866 21.8832C18.2424 21.1144 19.8286 19.8127 20.9446 18.1425C22.0606 16.4723 22.6563 14.5087 22.6563 12.5C22.6531 9.80735 21.5821 7.22588 19.6781 5.32188C17.7741 3.41789 15.1927 2.34686 12.5 2.34375ZM17.9688 13.2812H12.5C12.3974 13.2813 12.2958 13.2611 12.201 13.2219C12.1062 13.1827 12.02 13.1251 11.9474 13.0526C11.8749 12.98 11.8173 12.8939 11.7781 12.799C11.7389 12.7042 11.7187 12.6026 11.7188 12.5V7.03125C11.7188 6.82405 11.8011 6.62534 11.9476 6.47882C12.0941 6.33231 12.2928 6.25 12.5 6.25C12.7072 6.25 12.9059 6.33231 13.0524 6.47882C13.1989 6.62534 13.2813 6.82405 13.2813 7.03125V11.7188H17.9688C18.176 11.7188 18.3747 11.8011 18.5212 11.9476C18.6677 12.0941 18.75 12.2928 18.75 12.5C18.75 12.7072 18.6677 12.9059 18.5212 13.0524C18.3747 13.1989 18.176 13.2812 17.9688 13.2812Z" fill="#41413E"/>
</svg>
