<svg width="119" height="80" viewBox="0 0 119 80" fill="none" xmlns="http://www.w3.org/2000/svg">
<g clip-path="url(#clip0_3074_268)">
<path d="M36.8595 77.9116C34.9525 76.532 33.4726 75.2585 32.3131 73.6969C30.6116 71.4222 29.5933 68.7151 29.3762 65.8891C29.3381 65.3963 29.3419 64.9074 28.9948 64.4829C25.7986 60.7647 25.894 56.6864 27.8506 52.5058C28.3808 51.3688 28.4418 50.4856 27.8697 49.3562C26.8666 47.3701 38.3048 45.0695 37.5 43C37.1682 42.1586 24.4103 42.204 23.5712 42.2116C19.3146 42.2533 15.0619 42.2344 10.8054 42.2306C7.21249 42.2306 5.33594 40.3354 5.33594 36.7575V13.8419C5.33594 10.6353 7.28114 8.62274 10.5231 8.61137C19.9033 8.58863 29.2834 8.58863 38.6636 8.61137C41.9857 8.61137 43.9003 10.5861 43.9041 13.9177C43.9041 21.2858 43.9041 28.6515 43.9041 36.0146C43.9041 36.3519 43.7745 36.7234 44.1292 37.1517C46.2002 34.2446 49.1676 33.6685 52.4744 33.8277C54.6637 33.9338 56.8645 33.8504 59.0614 33.8504C62.1737 33.8504 65.7399 36.5035 66.4303 39.638C66.6708 40.5131 66.5686 41.4463 66.1442 42.2495C64.4126 45.5015 62.7496 48.7876 61.0752 52.0699C60.8434 52.5119 60.6666 52.9803 60.5489 53.4647C60.0607 55.591 60.8426 56.6523 63.0052 56.6978C72.159 56.9063 78.5248 52.574 82.5181 44.5691C85.0946 39.432 86.7885 33.9029 87.5299 28.2106C88.0104 24.4999 87.6481 20.6794 87.6939 16.9081C87.6939 16.1501 87.2286 16.2714 86.7938 16.2714C84.3222 16.2714 81.8354 16.2714 79.3791 16.2714C79.1083 16.2714 78.8337 16.2714 78.5591 16.2714C77.8382 16.2714 77.228 16.0061 77.2661 15.1988C77.3043 14.3914 77.9031 14.2095 78.6354 14.2133C82.48 14.2133 86.3246 14.183 90.1654 14.2436C91.2143 14.2436 91.4011 13.9707 91.569 12.9246C91.9504 10.4269 89.9785 9.71811 88.6283 8.51282C88.121 8.06179 87.8197 8.70233 87.4841 8.89184C86.6024 9.41748 85.5753 9.6509 84.5513 9.55837C83.5273 9.46584 82.5594 9.05217 81.7875 8.37711C81.0157 7.70205 80.4798 6.80059 80.2574 5.80301C80.0349 4.80543 80.1374 3.76339 80.55 2.82751C80.9603 1.90999 81.649 1.14291 82.5197 0.633641C83.3904 0.124375 84.3996 -0.101586 85.406 -0.0126083C86.4123 0.0763696 87.3655 0.47583 88.1321 1.12986C88.8987 1.78388 89.4402 2.65974 89.681 3.63482C89.7878 4.0707 89.948 4.60133 89.7993 4.97277C89.2272 6.36757 90.0701 7.05359 91.0236 7.73582C91.1597 7.85706 91.3023 7.97094 91.4508 8.07695C93.2548 9.07378 93.9681 10.5595 93.6439 12.5987C93.5676 13.0876 93.3387 13.9252 93.8689 14.092C94.6088 14.3308 95.4823 14.164 96.2985 14.1678C96.3366 14.1678 96.3786 14.1223 96.4129 14.0958C97.0041 13.5727 96.4434 9.51722 95.734 9.16852C93.4188 8.03146 92.3623 5.93168 92.9268 3.56659C93.2025 2.5145 93.8279 1.58588 94.7015 0.931475C95.5751 0.277065 96.6457 -0.0647163 97.7394 -0.0383791C98.8331 -0.012042 99.8857 0.380866 100.726 1.07656C101.567 1.77225 102.146 2.72988 102.371 3.79401C102.851 5.98096 101.688 8.12243 99.4108 9.20643C99.0294 9.38078 98.648 9.44142 98.648 10.0024C98.6709 11.1824 98.6709 12.3637 98.648 13.5462C98.648 14.1185 98.9455 14.2209 99.4108 14.2133C100.555 14.2133 101.699 14.2436 102.843 14.2133C103.82 14.1792 104.312 14.5923 104.312 15.555C104.312 19.0117 104.312 22.4684 104.312 25.9213C104.346 26.9394 103.98 27.9307 103.29 28.6843C102.588 29.3893 102.527 30.0715 102.763 30.9888C103.736 35.0519 104.648 39.1301 105.548 43.2084C105.994 45.2286 105.071 46.3695 103.015 46.4453C102.512 46.4438 102.008 46.4729 101.509 46.5324C99.3307 46.8887 99.4718 46.3391 100.364 48.6436C100.677 49.4547 101.268 49.2235 101.833 49.1856C107.058 48.8066 111.452 50.5235 114.949 54.4085C119.294 59.2296 120.022 66.4841 116.757 72.1997C115.126 75.0191 112.644 77.2573 109.663 78.5973C106.681 79.9374 103.351 80.3114 100.143 79.6665C93.7507 78.3664 88.7237 73.0601 87.938 66.6888C87.2209 60.9656 89.1203 56.243 93.579 52.5399C94.2007 52.0244 93.9871 49.955 93.2663 49.6821C92.8467 49.5267 92.595 49.9133 92.328 50.1218C87.5222 53.8741 85.0812 58.7748 85.0812 64.8657C85.0812 66.4576 84.9248 66.685 83.3229 66.685C76.0494 66.685 68.7759 66.7077 61.4986 66.6547C60.5107 66.6547 60.1827 66.9541 59.973 67.8675C59.2285 71.2966 57.3219 74.3677 54.5719 76.5671C51.8219 78.7666 48.3953 79.961 44.8653 79.9507C39.6018 79.9773 34.3422 79.9507 29.0787 79.9507C28.3159 79.9507 27.4921 79.9811 27.4806 78.9463C27.4692 77.9116 28.2434 77.8699 29.033 77.8737C31.4816 77.9192 33.9684 77.9116 36.8595 77.9116ZM63.8672 42.0069C57.2344 42.0069 50.8992 42.0069 44.5258 42.0069C42.6894 41.9768 40.8733 42.3932 39.2357 43.2198C34.1324 45.7971 30.8142 49.9664 28.9986 55.2954C27.9116 58.483 28.6554 61.3901 31.1765 63.7628C31.4802 64.0643 31.8433 64.3003 32.2429 64.4562C32.6426 64.612 33.0703 64.6843 33.4993 64.6686C40.132 64.6307 46.7609 64.6686 53.3936 64.6686C62.7687 64.6686 72.1438 64.6686 81.5188 64.6686C82.1825 64.6686 82.9262 64.9225 82.972 63.6794C83.1982 58.6395 85.3196 53.8675 88.9168 50.3077C92.5139 46.7478 97.3247 44.6593 102.397 44.4554C103.339 44.4175 103.648 44.209 103.393 43.1743C102.443 39.2931 101.596 35.3892 100.723 31.4891C100.586 30.8561 100.341 30.6363 99.6282 30.6477C96.6125 30.7108 93.5943 30.7108 90.5735 30.6477C89.5742 30.6287 89.1852 30.9016 88.964 31.9174C87.9418 36.6324 86.542 41.2413 84.3565 45.5621C80.0008 54.1925 73.1011 58.79 63.2378 58.7976C58.9698 58.7976 57.5548 55.8033 58.6952 52.3087C58.8473 51.8809 59.0322 51.4652 59.2483 51.0655C60.7472 48.113 62.2538 45.1718 63.8672 42.0069ZM24.6086 40.1687C29.2288 40.1687 33.8476 40.1687 38.4653 40.1687C40.788 40.1687 41.7606 39.1832 41.7644 36.8371C41.7644 29.2036 41.7644 21.5701 41.7644 13.9366C41.7644 11.7231 40.7537 10.7036 38.4957 10.7036C29.1715 10.7036 19.8435 10.7036 10.5117 10.7036C8.22322 10.7036 7.41083 11.526 7.40702 13.8419C7.40702 21.5208 7.40702 29.1998 7.40702 36.8788C7.40702 39.2363 8.36434 40.1649 10.752 40.1687H24.6086ZM89.8298 63.3496C89.7726 71.8776 95.7645 77.9154 103.225 77.9078C106.785 77.8917 110.192 76.4711 112.698 73.9584C115.203 71.4457 116.602 68.0468 116.586 64.5094C116.57 60.972 115.14 57.5859 112.611 55.096C110.083 52.606 106.663 51.2162 103.103 51.2323C101.501 51.2323 101.501 51.2323 102.111 52.6498C102.431 53.3015 102.716 53.9695 102.966 54.6511C103.244 55.5418 103.759 55.8753 104.72 56.0042C108.469 56.5196 111.318 59.5101 111.913 63.3913C112.171 65.2042 111.844 67.0516 110.979 68.6682C110.115 70.2849 108.756 71.5876 107.1 72.3893C105.424 73.1959 103.535 73.4562 101.701 73.1329C99.8679 72.8096 98.184 71.9193 96.8897 70.5889C94.2579 67.7917 93.457 63.4406 95.6463 60.4198C97.0499 58.4792 96.7905 57.0541 95.7912 55.3295C95.6984 55.1726 95.623 55.0061 95.5662 54.833C95.3259 54.0409 95.0055 53.9726 94.3647 54.5525C91.4012 57.2057 89.906 60.4804 89.8145 63.3534L89.8298 63.3496ZM89.8298 22.4153C89.8298 24.1853 89.8298 25.9592 89.8298 27.7216C89.8298 28.2901 89.8717 28.6616 90.5926 28.654C93.5142 28.6237 96.4434 28.7033 99.365 28.6161C101.154 28.5593 102.172 27.3805 102.187 25.5839C102.21 22.8133 102.187 20.0426 102.21 17.2758C102.21 16.5177 102.05 16.2638 101.249 16.2714C97.7745 16.3131 94.3037 16.3207 90.8291 16.2714C89.9175 16.2714 89.7802 16.5973 89.8031 17.3819C89.845 19.042 89.8069 20.7249 89.8069 22.4039L89.8298 22.4153ZM34.2926 66.7002H33.0759C31.4816 66.7002 31.4816 66.7002 31.8974 68.2163C32.6699 70.9245 34.2848 73.3206 36.5108 75.0616C38.7368 76.8025 41.4599 77.7992 44.2905 77.909C47.1211 78.0188 49.9141 77.236 52.2699 75.6727C54.6256 74.1094 56.4235 71.8457 57.4061 69.2055C58.3291 66.7002 58.3291 66.7001 55.6325 66.7039C55.4496 66.7153 55.2662 66.7153 55.0833 66.7039C53.9124 66.5334 53.2907 66.9048 52.7643 68.1063C51.3264 71.3849 48.6603 73.1549 45.0369 73.2496C41.4135 73.3444 38.6178 71.6956 37.0693 68.4815C36.3522 66.9806 35.6352 66.3136 34.2926 66.7002ZM98.0301 60.579C97.1017 61.6728 96.5736 63.0469 96.5321 64.4773C96.4905 65.9077 96.9379 67.3098 97.8012 68.455C98.6738 69.668 99.9318 70.5538 101.373 70.9699C102.813 71.386 104.353 71.3081 105.744 70.7488C107.135 70.1894 108.296 69.1812 109.04 67.8865C109.784 66.5917 110.068 65.0858 109.846 63.6111C109.465 60.8405 107.195 58.5095 104.541 58.2404C105.033 59.3775 105.51 60.4312 105.96 61.5076C106.787 63.4823 106.108 65.438 104.339 66.2377C102.493 67.0678 100.574 66.2378 99.6587 64.191C99.1209 62.9971 98.587 61.8032 98.0301 60.579ZM45.1704 39.801H64.2829C63.1921 37.2957 61.4223 35.9843 58.8249 35.9312C56.0279 35.8782 53.2309 35.8782 50.4339 35.9312C47.8899 35.9805 46.0782 37.3374 45.1704 39.801ZM97.149 47.5369C96.2107 47.5065 95.0589 48.5033 95.3411 49.1515C97.4262 53.9347 99.5189 58.7167 101.619 63.4974C101.955 64.2555 102.557 64.6762 103.374 64.3578C104.19 64.0394 104.464 63.3041 104.095 62.4627C102.004 57.6794 99.9092 52.8987 97.8089 48.1205C97.6868 47.8325 97.622 47.4762 97.149 47.5369ZM38.6483 66.757C39.2166 69.2927 42.2298 71.2598 44.7967 71.2332C47.6763 71.2029 50.2318 69.3798 50.9831 66.757H38.6483ZM84.8943 7.48946C85.2606 7.50573 85.6264 7.44685 85.9687 7.31649C86.3111 7.18613 86.6228 6.9871 86.8844 6.73178C87.1459 6.47646 87.3518 6.17034 87.4891 5.83249C87.6264 5.49465 87.6922 5.13232 87.6824 4.76809C87.6743 4.0591 87.3929 3.38019 86.8962 2.87112C86.3996 2.36206 85.7254 2.06158 85.0126 2.03156C84.2746 2.04119 83.5693 2.33498 83.045 2.85106C82.5206 3.36714 82.2183 4.06524 82.2016 4.79841C82.2142 5.5056 82.5014 6.18056 83.0033 6.68211C83.5052 7.18366 84.1827 7.47294 84.8943 7.48946ZM100.307 4.92349C100.327 4.56065 100.273 4.1976 100.15 3.85549C100.027 3.51339 99.8362 3.1991 99.5894 2.93096C99.3427 2.66282 99.0446 2.44619 98.7127 2.29372C98.3808 2.14125 98.0217 2.056 97.6563 2.04293C96.9423 2.04748 96.2556 2.31579 95.7297 2.79567C95.2038 3.27555 94.8763 3.93269 94.811 4.63923C94.7871 5.35015 95.0397 6.0429 95.5162 6.57365C95.9928 7.1044 96.6568 7.43237 97.3703 7.48946C97.7354 7.52607 98.1041 7.48749 98.4536 7.37613C98.803 7.26477 99.1256 7.08303 99.4012 6.84224C99.6768 6.60145 99.8994 6.30679 100.055 5.97666C100.211 5.64653 100.297 5.28802 100.307 4.92349Z" fill="#FF7910"/>
<path d="M77.6057 79.9811C74.4476 79.9811 71.2908 79.9811 68.1353 79.9811C67.3305 79.9811 66.4495 80.0342 66.4571 78.9123C66.4571 77.8813 67.3 77.9003 68.059 77.9003C74.5099 77.9003 80.9596 77.9003 87.408 77.9003C88.1708 77.9003 88.9946 77.9003 89.0175 78.9123C89.0404 80.0493 88.1517 79.9887 87.3469 79.9849L77.6057 79.9811Z" fill="#FF7910"/>
<path d="M7.01047 64.4981C5.14537 64.4981 3.27646 64.4981 1.40755 64.4981C0.644732 64.4981 -0.0112948 64.3768 0.00014747 63.4482C0.00014747 62.5954 0.640924 62.4779 1.34272 62.4779C5.07673 62.4779 8.81073 62.4779 12.5486 62.4779C13.3114 62.4779 13.8911 62.7243 13.8225 63.5164C13.7652 64.2062 13.2618 64.5436 12.4761 64.5208C10.6568 64.464 8.83361 64.4981 7.01047 64.4981Z" fill="#FF7910"/>
<path d="M15.4241 51.236H11.3049C10.565 51.236 9.84412 51.1034 9.83649 50.2013C9.82886 49.2993 10.4734 49.1401 11.2591 49.1439C14.1401 49.1666 17.0197 49.1666 19.8981 49.1439C20.6876 49.1439 21.3093 49.3372 21.3017 50.2241C21.2941 51.111 20.6304 51.2247 19.9439 51.2285C18.4411 51.2474 16.9307 51.2398 15.4241 51.236Z" fill="#FF7910"/>
<path d="M61.5442 13.6789H66.0716C66.7963 13.6789 67.3531 13.8987 67.3341 14.7439C67.3341 15.502 66.8001 15.7332 66.1326 15.737C63.1144 15.737 60.0974 15.737 57.0818 15.737C56.399 15.737 55.8689 15.4224 55.8574 14.725C55.8574 13.9442 56.4181 13.6637 57.1542 13.6675C58.6188 13.6827 60.0834 13.6789 61.5442 13.6789Z" fill="#FF7910"/>
<path d="M16.8584 57.9258C15.4433 57.9258 14.0283 57.9258 12.6171 57.9258C11.9153 57.9258 11.4233 57.634 11.3813 56.948C11.3394 56.2619 11.8504 55.8829 12.5255 55.8791C15.3963 55.8564 18.2683 55.8564 21.1416 55.8791C21.8167 55.8791 22.2858 56.2127 22.2858 56.9442C22.2858 57.6757 21.7747 57.941 21.092 57.941L16.8584 57.9258Z" fill="#FF7910"/>
<path d="M67.4906 8.24744C68.6768 8.24744 69.863 8.24744 71.053 8.24744C71.7777 8.24744 72.3765 8.4559 72.4222 9.24426C72.468 10.0326 71.8692 10.3472 71.1521 10.351C68.6882 10.351 66.2218 10.351 63.7528 10.351C63.1044 10.351 62.5361 10.1274 62.5322 9.36555C62.5284 8.60372 63.0281 8.25502 63.7871 8.2626C65.0229 8.27397 66.2548 8.24744 67.4906 8.24744Z" fill="#FF7910"/>
<path d="M21.7021 62.4741C22.3848 62.4741 23.0637 62.4741 23.7465 62.4741C23.8838 62.4589 24.0228 62.4742 24.1534 62.519C24.284 62.5638 24.4029 62.637 24.5015 62.7332C24.6001 62.8293 24.6759 62.9461 24.7234 63.075C24.771 63.204 24.789 63.3418 24.7763 63.4785C24.79 63.6151 24.7725 63.753 24.7252 63.8819C24.6779 64.0109 24.6019 64.1276 24.503 64.2234C24.404 64.3192 24.2846 64.3915 24.1537 64.4352C24.0227 64.4788 23.8835 64.4925 23.7465 64.4753C22.2895 64.4753 20.8363 64.4753 19.3831 64.4753C18.7233 64.4753 18.2999 64.1456 18.2732 63.5353C18.2545 63.3872 18.2705 63.2367 18.3201 63.0958C18.3696 62.9548 18.4514 62.8272 18.5589 62.7229C18.6664 62.6187 18.7968 62.5405 18.9398 62.4947C19.0828 62.4489 19.2346 62.4367 19.3831 62.4589C20.1574 62.4741 20.9279 62.4741 21.7021 62.4741Z" fill="#FF7910"/>
<path d="M6.22432 57.9258H4.86268C4.22191 57.9258 3.79092 57.6226 3.76422 56.9821C3.7449 56.8454 3.75565 56.7061 3.79571 56.5739C3.83578 56.4417 3.90421 56.3197 3.99629 56.2163C4.08837 56.1129 4.20191 56.0306 4.32909 55.975C4.45628 55.9194 4.59409 55.8919 4.73301 55.8943C5.77426 55.8526 6.82313 55.8526 7.86438 55.8943C8.00348 55.8864 8.14256 55.91 8.27121 55.9631C8.39985 56.0163 8.51473 56.0977 8.6072 56.2013C8.69967 56.3048 8.76736 56.4279 8.80517 56.5611C8.84298 56.6944 8.84994 56.8344 8.82554 56.9707C8.82393 57.1074 8.79326 57.2422 8.73556 57.3663C8.67786 57.4904 8.59442 57.601 8.49071 57.6909C8.387 57.7807 8.26537 57.8477 8.13377 57.8876C8.00216 57.9274 7.86357 57.9392 7.72707 57.9221L6.22432 57.9258Z" fill="#FF7910"/>
<path d="M46.883 45.6985C46.8766 45.951 46.7771 46.1924 46.6034 46.3769C46.4297 46.5613 46.194 46.676 45.9409 46.6992C41.5089 47.1237 38.6941 49.8488 36.4056 53.3169L36.1844 53.658C35.803 54.2455 35.2919 54.4729 34.6778 54.0787C34.0638 53.6845 34.1095 53.1008 34.4528 52.5247C35.212 51.2284 36.1264 50.0283 37.1761 48.9505C39.4073 46.6764 41.9971 45.0731 45.2467 44.7017C46.0782 44.6069 46.7342 44.7169 46.883 45.6985Z" fill="#FF7910"/>
<path d="M93.0566 35.5029C92.4501 38.3379 91.6797 41.1237 90.1426 43.6367C89.8222 44.1597 89.3417 44.3947 88.7505 44.0536C88.1021 43.6935 88.0372 43.1705 88.3691 42.5602C89.607 40.2895 90.4759 37.8386 90.9436 35.2982C91.0847 34.6273 91.4699 34.2066 92.1717 34.3052C92.8163 34.3961 93.0871 34.8661 93.0566 35.5029Z" fill="#FF7910"/>
<path d="M24.5246 32.7398H12.041C11.6291 32.7398 11.2172 32.7398 10.8053 32.7171C10.1149 32.6716 9.66105 32.3153 9.68393 31.6104C9.67857 31.4713 9.70448 31.3328 9.75978 31.2049C9.81507 31.077 9.89834 30.963 10.0036 30.8712C10.1088 30.7793 10.2333 30.7119 10.368 30.6739C10.5027 30.6359 10.6443 30.6282 10.7824 30.6514C11.6635 30.7348 11.8809 30.371 11.9953 29.5409C12.8344 23.5561 16.6256 19.5992 22.5985 18.4242C23.2164 18.3029 23.6207 18.2006 23.5673 17.4539C23.5357 17.3043 23.5409 17.1494 23.5824 17.0022C23.6238 16.855 23.7004 16.7199 23.8055 16.6084C23.9107 16.4968 24.0413 16.4121 24.1864 16.3613C24.3315 16.3106 24.4868 16.2953 24.639 16.3169C24.7791 16.3133 24.9183 16.3409 25.0462 16.3977C25.1742 16.4546 25.2877 16.5392 25.3784 16.6453C25.4691 16.7515 25.5348 16.8765 25.5705 17.0112C25.6063 17.1459 25.6112 17.2868 25.5849 17.4236C25.5086 18.1589 25.8863 18.2802 26.5232 18.4015C32.538 19.5385 36.3865 23.6016 37.176 29.6167C37.2523 30.189 37.2523 30.7083 38.0723 30.6249C38.8923 30.5415 39.5026 30.8334 39.4683 31.7089C39.4339 32.5844 38.7054 32.7209 37.9655 32.7209L24.5246 32.7398ZM24.4788 30.6325C27.7246 30.6325 30.9628 30.6325 34.2201 30.6325C34.8646 30.6325 35.2041 30.5908 35.1431 29.7683C34.7617 24.6515 29.9826 20.3345 24.6352 20.2928C19.3527 20.27 14.566 24.462 14.0473 29.5182C13.9443 30.4847 14.2914 30.6552 15.1495 30.6287C18.258 30.606 21.3703 30.6363 24.4788 30.6363V30.6325Z" fill="#FF7910"/>
<path d="M21.9848 23.7191C21.9707 23.9229 21.9053 24.1199 21.7947 24.2921C21.6841 24.4643 21.5318 24.6061 21.3517 24.7046C20.4371 25.3092 19.658 26.0951 19.0632 27.0128C18.6818 27.623 18.1707 28.0021 17.4765 27.5586C16.7824 27.1152 16.9197 26.5087 17.3087 25.8985C18.0556 24.6963 19.0759 23.685 20.2875 22.9459C21.1075 22.4608 21.9848 22.8891 21.9848 23.7191Z" fill="#FF7910"/>
</g>
<defs>
<clipPath id="clip0_3074_268">
<rect width="118.737" height="80" fill="white"/>
</clipPath>
</defs>
</svg>
