<svg width="45" height="44" viewBox="0 0 45 44" fill="none" xmlns="http://www.w3.org/2000/svg">
<path fill-rule="evenodd" clip-rule="evenodd" d="M9.77999 3.80614C14.145 0.838744 19.4313 -0.46047 24.6745 0.145535C29.9177 0.751539 34.7683 3.22237 38.3413 7.10723C41.9143 10.9921 43.9715 16.032 44.1377 21.3075C44.3038 26.583 42.5678 31.7424 39.2463 35.8444C35.9249 39.9464 31.2394 42.7176 26.0447 43.6523C20.85 44.587 15.4924 43.6231 10.9494 40.9362C6.40633 38.2494 2.98066 34.0188 1.29736 29.0163C-0.385929 24.0138 -0.214637 18.5728 1.77999 13.6861C3.42143 9.68035 6.20321 6.24485 9.77999 3.80614ZM16.22 31.0661L30.94 16.3261C31.0727 16.1701 31.1438 15.9709 31.14 15.7661C31.1349 15.5556 31.049 15.355 30.9001 15.2061C30.7511 15.0571 30.5506 14.9712 30.34 14.9661C30.1352 14.9623 29.936 15.0334 29.78 15.1661L15.06 29.8861C14.9824 29.9654 14.9212 30.0592 14.88 30.1621C14.8388 30.2651 14.8184 30.3752 14.82 30.4861C14.8188 30.594 14.8395 30.701 14.8807 30.8007C14.922 30.9003 14.9829 30.9906 15.06 31.0661C15.1361 31.1423 15.2266 31.2028 15.3261 31.244C15.4256 31.2853 15.5323 31.3065 15.64 31.3065C15.7477 31.3065 15.8544 31.2853 15.9539 31.244C16.0534 31.2028 16.1438 31.1423 16.22 31.0661ZM14 17.7861C13.9857 18.2653 14.0705 18.7422 14.2492 19.187C14.4279 19.6318 14.6965 20.0349 15.0382 20.371C15.38 20.7071 15.7875 20.969 16.2352 21.1402C16.6829 21.3115 17.1612 21.3884 17.64 21.3661C18.5952 21.3507 19.5071 20.9643 20.1826 20.2888C20.8582 19.6132 21.2445 18.7014 21.26 17.7461C21.2822 17.2673 21.2053 16.7891 21.0341 16.3414C20.8628 15.8936 20.6009 15.4861 20.2648 15.1444C19.9287 14.8026 19.5256 14.534 19.0808 14.3554C18.636 14.1767 18.1591 14.0918 17.68 14.1061C16.704 14.1061 15.768 14.4939 15.0778 15.184C14.3877 15.8741 14 16.8101 14 17.7861ZM15.8 18.5661C15.6857 18.3225 15.6308 18.0551 15.64 17.7861C15.633 17.5173 15.6878 17.2505 15.8 17.0061C15.8963 16.7565 16.0466 16.5311 16.24 16.3461C16.4303 16.1593 16.6543 16.01 16.9 15.9061C17.1466 15.8011 17.4119 15.7467 17.68 15.7461C17.9481 15.7467 18.2133 15.8011 18.46 15.9061C18.7072 16.0073 18.9316 16.1569 19.12 16.3461C19.3129 16.5357 19.4689 16.7595 19.58 17.0061C19.6782 17.2542 19.7258 17.5194 19.72 17.7861C19.7258 18.0529 19.6782 18.3181 19.58 18.5661C19.3525 19.0613 18.9552 19.4586 18.46 19.6861C18.2119 19.7844 17.9467 19.832 17.68 19.8261C17.4132 19.832 17.148 19.7844 16.9 19.6861C16.6534 19.5751 16.4295 19.4191 16.24 19.2261C16.0421 19.0449 15.8912 18.8185 15.8 18.5661ZM31.56 30.1061C31.8183 29.6275 31.9667 29.0974 31.9943 28.5542C32.022 28.011 31.9283 27.4685 31.72 26.9661C31.5395 26.5149 31.2671 26.1063 30.92 25.7661C30.5797 25.4227 30.1747 25.15 29.7285 24.964C29.2822 24.7779 28.8035 24.6821 28.32 24.6821C27.8365 24.6821 27.3578 24.7779 26.9115 24.964C26.4653 25.15 26.0603 25.4227 25.72 25.7661C25.2802 26.1872 24.9623 26.7193 24.8 27.3061C24.6161 27.8841 24.582 28.4992 24.7009 29.094C24.8198 29.6887 25.0879 30.2434 25.48 30.7061C25.8616 31.1681 26.3486 31.5317 26.9 31.7661C27.7441 32.1179 28.689 32.1428 29.5505 31.8359C30.412 31.5291 31.1284 30.9124 31.56 30.1061ZM30.2 27.5861C30.3102 27.8311 30.3649 28.0975 30.36 28.3661C30.3617 28.7012 30.2791 29.0313 30.12 29.3261C29.9629 29.617 29.7361 29.8644 29.46 30.0461C29.1805 30.2372 28.857 30.3542 28.52 30.3861C28.1936 30.4102 27.8659 30.3624 27.56 30.2461C27.2501 30.1115 26.976 29.906 26.76 29.6461C26.5495 29.3919 26.4052 29.0896 26.34 28.7661C26.2493 28.4458 26.2493 28.1065 26.34 27.7861C26.4316 27.4619 26.6035 27.1661 26.84 26.9261C27.0284 26.7369 27.2528 26.5873 27.5 26.4861C27.7466 26.3811 28.0119 26.3267 28.28 26.3261C28.5481 26.3267 28.8133 26.3811 29.06 26.4861C29.3057 26.59 29.5296 26.7393 29.72 26.9261C29.9306 27.1282 30.0944 27.374 30.2 27.6461V27.5861Z" fill="#76C03F"/>
</svg>
