<svg width="144" height="186" viewBox="0 0 144 186" fill="none" xmlns="http://www.w3.org/2000/svg">
<g clip-path="url(#clip0_4961_1131)">
<path d="M2.97005 21.3598C2.97005 21.3598 -0.149946 66.9798 0.530054 154.82C0.530054 154.82 26.75 173.54 50.24 185.46C50.24 185.46 100.62 175.24 143.17 155.84C143.17 155.84 144.53 41.4598 139.09 13.8398C139.09 13.8398 62.53 30.6698 48.53 34.6098L2.97005 21.3598Z" fill="#F4F4F4"/>
<path d="M2.53005 21.6099C2.42005 23.3099 2.33004 25.0099 2.23004 26.7199C1.96338 31.7999 1.73005 36.8799 1.53005 41.9599C1.19671 50.3266 0.933379 58.6999 0.740046 67.0799C0.446712 78.6999 0.24671 90.3266 0.140043 101.96C-0.0132899 116.847 -0.0432901 131.737 0.0500432 146.63C0.0500432 148.703 0.0500432 150.773 0.0500432 152.84C0.0500432 153.35 0.0500432 153.84 0.0500432 154.37C0.020199 154.599 0.020199 154.831 0.0500432 155.06C0.0500432 155.06 0.150044 155.12 0.180044 155.16C0.835469 155.73 1.54945 156.23 2.31005 156.65C5.77005 159.057 9.26338 161.423 12.79 163.75C23.9518 171.243 35.4903 178.158 47.36 184.47C48.0694 184.937 48.8271 185.326 49.62 185.63C49.89 185.7 49.62 185.68 49.8 185.68C49.9566 185.669 50.1111 185.639 50.26 185.59L52.4501 185.12C55.41 184.453 58.3667 183.787 61.32 183.12C71.84 180.593 82.28 177.757 92.64 174.61C106.25 170.48 119.71 165.84 132.85 160.39C136.15 159.017 139.427 157.593 142.68 156.12C142.99 155.99 143.282 155.822 143.55 155.62V152.24C143.55 149.14 143.573 146.033 143.62 142.92C143.62 138.293 143.62 133.667 143.62 129.04C143.62 123.313 143.62 117.587 143.62 111.86C143.62 105.433 143.57 99.0066 143.47 92.5799C143.39 85.9133 143.28 79.2766 143.14 72.6699C143 66.2299 142.813 59.7932 142.58 53.3599C142.367 47.5066 142.087 41.6666 141.74 35.8399C141.44 31.0799 141.09 26.3199 140.56 21.5799C140.36 19.7299 140.12 17.8699 139.83 16.0299C139.77 15.6399 139.7 15.2499 139.64 14.8699C139.58 14.4899 139.59 13.8699 139.43 13.7399C139.27 13.6099 139.33 13.7399 139.12 13.7399C138.331 13.8692 137.55 14.0428 136.78 14.2599L132.37 15.2599L118.84 18.2599C112.987 19.5599 107.14 20.8666 101.3 22.1799C95.0134 23.5932 88.7267 25.0133 82.44 26.4399C76.7067 27.7733 70.98 29.1066 65.26 30.4399C60.97 31.4399 56.69 32.4399 52.43 33.5399L50.24 34.1099C49.7868 34.2901 49.3133 34.4143 48.83 34.4799C48.0323 34.3469 47.2534 34.1186 46.51 33.7999L33.76 30.0899L17.23 25.2699L5.12005 21.7399L3.29005 21.2099C3.06005 21.1399 2.64005 21.7699 2.42005 21.7099L9.42005 23.7099L24.91 28.2199L40.5 32.7599L45.79 34.3099C46.5024 34.6096 47.2475 34.8244 48.01 34.9499C48.5276 34.8779 49.0347 34.7435 49.5201 34.5499C50.2601 34.3499 50.99 34.1599 51.73 33.9799C53.66 33.4899 55.58 32.9799 57.51 32.5499C62.6434 31.3099 67.7867 30.0999 72.94 28.9199C79.0534 27.5066 85.17 26.1099 91.29 24.7299L109.86 20.5599L125.79 16.9699L136.16 14.6799C136.907 14.4599 137.669 14.2928 138.44 14.1799C138.74 14.1799 138.61 14.0399 138.74 14.3299C138.965 15.0948 139.1 15.8836 139.14 16.6799C139.78 20.7399 140.14 24.8399 140.5 28.9399C140.93 34.2799 141.24 39.6399 141.5 44.9999C141.793 51.2132 142.023 57.4299 142.19 63.6499C142.38 70.2499 142.51 76.8399 142.62 83.4299C142.73 90.0199 142.8 96.5599 142.85 103.13C142.897 109.237 142.923 115.343 142.93 121.45C142.93 126.69 142.93 131.93 142.93 137.17C142.93 141.06 142.93 144.95 142.87 148.84L142.81 155.25C142.81 155.53 142.81 155.8 142.81 156.08L143.68 155.58C130.411 161.54 116.812 166.739 102.95 171.15C91.5767 174.83 80.0867 178.13 68.48 181.05C62.75 182.5 56.9901 183.89 51.2001 185.05C51.0637 185.095 50.9229 185.125 50.78 185.14C50.6 185.14 51.19 185.3 50.49 185.02C49.63 184.67 48.8 184.15 47.98 183.72C44.84 182.067 41.73 180.36 38.65 178.6C32.65 175.19 26.85 171.6 21.07 167.93C16.4634 164.99 11.9034 161.99 7.39004 158.93L3.17005 156.03L1.87005 155.11C1.61202 154.976 1.3732 154.808 1.16004 154.61C1.16004 154.61 1.06004 154.61 1.04004 154.53C0.994777 154.245 0.994777 153.955 1.04004 153.67C1.04004 153.1 1.04004 152.54 1.04004 151.97C1.04004 149.903 1.04004 147.833 1.04004 145.76C1.04004 141.72 1.04004 137.68 1.04004 133.64C1.04004 126.2 1.06005 118.767 1.10005 111.34C1.18005 98.9266 1.34671 86.5166 1.60005 74.1099C1.78671 64.9499 2.04338 55.7832 2.37005 46.6099C2.59005 40.7199 2.83005 34.8399 3.13005 28.9499C3.25005 26.4399 3.54004 23.8899 3.55004 21.3799C3.54474 21.28 3.54474 21.1799 3.55004 21.0799C3.39004 21.2799 2.55005 21.4099 2.53005 21.6099Z" fill="#BFBFBF"/>
<path d="M2.96997 21.36C2.96997 21.36 42.75 6.36 97.22 0.25C97.22 0.25 110.49 2.3 139.09 13.87L48.53 34.64L2.96997 21.36Z" fill="#F4F4F4"/>
<path d="M2.53003 21.6097C5.88003 20.3497 9.30003 19.2497 12.71 18.1697C21.87 15.2697 31.15 12.7397 40.49 10.4797C54.1034 7.19307 67.8467 4.5264 81.72 2.47974C85.72 1.89974 89.6967 1.36977 93.65 0.889771L96.52 0.549744C96.86 0.549744 96.69 0.549744 96.83 0.549744C96.97 0.549744 97.09 0.549751 97.21 0.619751C99.03 0.949751 100.83 1.37978 102.63 1.83978C112.971 4.579 123.133 7.95202 133.06 11.9398C134.93 12.6698 136.8 13.4098 138.65 14.1598L139.52 13.6598L134.19 14.8198L120.48 17.9698L101.97 22.2098L82.04 26.8198L64.33 30.8198L52.24 33.5998L49.4 34.2498C49.0696 34.3441 48.7168 34.323 48.4 34.1898L35.92 30.5497L16.79 25.0098L4.05003 21.2897L3.40003 21.1097C3.17003 21.0397 2.75003 21.6697 2.53003 21.6097L11.71 24.2798L30.56 29.8198L45.85 34.2798L47.58 34.7897C47.7521 34.8548 47.9294 34.905 48.11 34.9398C48.6552 34.8748 49.1917 34.7508 49.71 34.5698L59.94 32.2198L76.63 28.3998L96.29 23.8198L115.45 19.4197L130.62 15.9398L138.31 14.1797L138.65 14.0998C138.84 14.0998 139.38 13.5398 139.52 13.5998C128.52 9.02982 117.257 5.12281 105.79 1.89978C103.48 1.26978 101.16 0.689788 98.79 0.219788C98.4182 0.125783 98.0408 0.0556184 97.66 0.00976562C97.52 0.00976562 97.73 0.00976562 97.36 0.00976562L94.23 0.379761C92.23 0.619761 90.2634 0.869761 88.33 1.12976C74.0234 3.04976 59.8234 5.64641 45.73 8.91974C35.73 11.2197 25.8467 13.8664 16.08 16.8597C13.18 17.7531 10.29 18.6865 7.41003 19.6598C6.12003 20.0998 4.80003 20.5098 3.53003 21.0298L3.37003 21.0898C3.09003 21.2198 2.84003 21.4897 2.53003 21.6097Z" fill="#BFBFBF"/>
<path d="M77.1 38.04C77.1 38.04 95.1 30.89 107.4 30.55C119.7 30.21 120.4 37.55 116.29 39.64C112.18 41.73 95.39 44.0001 85.29 47.9101C74.72 52.0001 65.87 42.82 77.1 38.04Z" fill="#F4F4F4"/>
<path d="M76.67 38.2901C81.9958 36.1992 87.4503 34.4523 93 33.0601C97.2516 31.9028 101.605 31.1593 106 30.8402C109.48 30.6502 113.94 30.7802 116.64 33.3502C117.382 33.9823 117.868 34.8635 118.006 35.8283C118.144 36.7932 117.925 37.7753 117.39 38.5902C117.087 38.9696 116.734 39.306 116.34 39.5902C116.13 39.7602 117.17 39.1702 116.53 39.4602L116.26 39.5802C116 39.6902 115.74 39.7902 115.47 39.8802C114.06 40.3702 112.61 40.7302 111.16 41.0802C102.76 43.0802 94.1 44.4502 85.99 47.5302C82.38 48.9002 77.99 49.3301 74.61 47.0401C74.0394 46.6886 73.5453 46.2259 73.157 45.6797C72.7688 45.1334 72.4943 44.5146 72.35 43.8601C72.2776 43.1688 72.3703 42.4702 72.6207 41.8217C72.871 41.1732 73.2718 40.5935 73.79 40.1302C74.6177 39.3308 75.5923 38.6992 76.66 38.2702C76.96 38.1402 77.22 37.9002 77.52 37.7702C74.88 38.9102 70.6 41.2002 71.57 44.7702C72.5 48.1602 76.93 49.2701 79.97 49.1801C82.2143 48.9824 84.4141 48.4358 86.49 47.5601C88.69 46.7901 90.94 46.1401 93.19 45.5601C97.73 44.3701 102.33 43.4102 106.91 42.3902C108.76 41.9702 110.62 41.5501 112.46 41.0601C113.633 40.7885 114.775 40.3999 115.87 39.9002C116.843 39.4807 117.693 38.8198 118.34 37.9801C118.872 37.1615 119.065 36.1686 118.88 35.2102C118.29 32.2802 114.88 31.0302 112.3 30.5902C107.76 29.8102 102.95 30.5902 98.49 31.5102C91.4638 32.982 84.5731 35.0392 77.89 37.6602L77.52 37.8001C77.23 37.9101 76.97 38.1701 76.67 38.2901Z" fill="#BFBFBF"/>
<path d="M49.2199 14.5498C49.2199 14.5498 66.4799 10.7298 71.6799 9.10983C79.4599 6.68983 86.3799 12.9899 80.3799 16.4099C74.6799 19.6399 64.3799 21.1898 51.5999 23.7398C39.5799 26.1498 40.1899 16.2998 49.2199 14.5498Z" fill="white"/>
<path d="M48.79 14.8202C53.01 13.8869 57.22 12.9202 61.42 11.9202C64.2 11.2502 66.99 10.5802 69.75 9.82021C71.157 9.3334 72.6119 8.99816 74.09 8.82021C75.8813 8.68757 77.6757 9.03264 79.29 9.82021C80.5439 10.3623 81.5424 11.3644 82.08 12.6202C82.264 13.2009 82.2669 13.8238 82.0882 14.4061C81.9096 14.9884 81.5579 15.5026 81.08 15.8802C80.9154 16.0245 80.7417 16.1582 80.56 16.2802C80.56 16.2802 80.11 16.5802 80.41 16.3902C80.71 16.2002 80.41 16.3902 80.41 16.3902C80.04 16.5802 79.68 16.7602 79.31 16.9302C78.62 17.2502 77.92 17.5302 77.22 17.7902C75.5799 18.3803 73.9111 18.8877 72.22 19.3102C68.01 20.4002 63.72 21.2102 59.45 22.0302C56.96 22.5102 54.45 23.0302 51.98 23.4902C50.2922 23.8646 48.5499 23.9256 46.84 23.6702C44.95 23.3302 43 22.1402 43.08 19.9902C43.1362 19.053 43.4861 18.1573 44.08 17.4302C44.4113 16.9923 44.7979 16.599 45.23 16.2602L45.58 15.9902C45.58 15.9902 46.16 15.6102 45.88 15.7802C45.6 15.9502 46.21 15.6202 46.25 15.6002L46.78 15.3802C47.433 15.1371 48.1054 14.9498 48.79 14.8202C49.1 14.7602 49.35 14.3802 49.66 14.3202C48.2515 14.6115 46.9002 15.1317 45.66 15.8602C44.6176 16.4078 43.7039 17.1715 42.98 18.1002C41.84 19.6602 41.64 21.8102 43.24 23.1002C44.2673 23.8681 45.5078 24.2979 46.79 24.3302C48.8446 24.3918 50.8978 24.1663 52.89 23.6602C57.79 22.6602 62.72 21.8102 67.6 20.7302C71.2744 20.0227 74.8665 18.9404 78.32 17.5002C80.39 16.5602 84.02 14.9102 82.95 12.0402C82.3182 10.7021 81.1874 9.66476 79.8 9.15023C77.9933 8.38504 76.0099 8.13577 74.07 8.4302C72.6897 8.6742 71.3268 9.00825 69.99 9.4302C68.58 9.8102 67.17 10.1702 65.76 10.5202C60.53 11.8102 55.27 13.0102 50.01 14.1802L49.7 14.2502C49.34 14.3702 49.09 14.7302 48.79 14.8202Z" fill="#BFBFBF"/>
<path d="M48.53 38.04C48.53 38.04 51.94 109.87 51.26 182.04L48.53 38.04Z" fill="#F4F4F4"/>
<path d="M48.1 38.2897C48.22 40.8497 48.3333 43.4098 48.44 45.9698C48.72 52.9431 48.9766 59.9164 49.21 66.8898C49.5566 77.1964 49.8533 87.5131 50.1 97.8398C50.4 110.44 50.62 123.043 50.76 135.65C50.9133 149.47 50.95 163.293 50.87 177.12C50.87 178.84 50.87 180.57 50.87 182.29C50.87 182.13 51.73 181.97 51.73 181.79C51.8566 167.89 51.8566 153.993 51.73 140.1C51.61 127.293 51.4066 114.483 51.12 101.67C50.88 91.0031 50.5866 80.3364 50.24 69.6697C50 62.2297 49.73 54.7931 49.43 47.3597L49.11 40.8198L49.02 38.8798C49.0759 38.5488 49.0759 38.2107 49.02 37.8798C49.015 37.8399 49.015 37.7996 49.02 37.7598C49.02 37.9098 48.14 38.0998 48.15 38.2598L48.1 38.2897Z" fill="#BFBFBF"/>
<path d="M27.79 146.6C27.79 146.6 41.79 164.3 46.85 173.82L27.79 146.6Z" fill="#F4F4F4"/>
<path d="M27.35 146.82C29.05 148.97 30.71 151.15 32.35 153.34C35.68 157.77 38.95 162.26 42.01 166.87C43.57 169.21 45.09 171.58 46.42 174.06C46.42 174.06 47.29 173.57 47.28 173.56C44.688 168.939 41.8021 164.49 38.64 160.24C35.8333 156.3 32.95 152.423 29.99 148.61C29.41 147.84 28.82 147.08 28.22 146.32C28.22 146.32 27.38 146.85 27.35 146.82Z" fill="#BFBFBF"/>
<path d="M17.79 142.7L6.45002 148.07L4.79002 148.82C4.34002 149.04 4.79002 149.28 5.08002 149.13L16.46 143.82L18.06 143.06C18.51 142.85 18.06 142.6 17.77 142.75L17.79 142.7Z" fill="#BFBFBF"/>
<path d="M24.38 34.6401C24.38 34.6401 23.38 115.28 24.38 139.45V34.6401Z" fill="#F4F4F4"/>
<path d="M23.95 34.8901C23.95 37.6201 23.88 40.3601 23.85 43.0901C23.7767 49.9301 23.7133 56.7701 23.66 63.6101C23.5933 72.5234 23.5433 81.4335 23.51 90.3401C23.4767 99.2468 23.4767 108.18 23.51 117.14C23.51 124.05 23.61 130.97 23.85 137.89C23.85 138.49 23.85 139.1 23.92 139.7C23.92 139.56 24.79 139.36 24.78 139.2C24.51 132.68 24.45 126.14 24.4 119.61C24.32 110.81 24.32 102.01 24.34 93.2202C24.34 84.2002 24.3866 75.1802 24.48 66.1602C24.5333 58.9602 24.5967 51.7568 24.67 44.5501C24.67 42.2801 24.72 40.0101 24.74 37.7301V35.6002C24.7899 35.2419 24.7899 34.8784 24.74 34.5201C24.7349 34.477 24.7349 34.4333 24.74 34.3901C24.74 34.5501 23.88 34.7101 23.88 34.8901H23.95Z" fill="#BFBFBF"/>
<path d="M96.4399 32.25V44.71C96.4399 44.55 97.31 44.38 97.31 44.21V31.75C97.31 31.91 96.4399 32.08 96.4399 32.25Z" fill="#BFBFBF"/>
<path d="M96.4399 0.540039V23.54C96.4399 23.38 97.31 23.21 97.31 23.04V0.0400391C97.31 0.200039 96.4399 0.370039 96.4399 0.540039Z" fill="#BFBFBF"/>
<path d="M115.165 112.374C121.758 101.522 120.019 88.4226 111.283 83.1147C102.546 77.8068 90.1189 82.3007 83.5264 93.1521C76.9338 104.003 78.6721 117.103 87.4089 122.411C96.1457 127.719 108.573 123.225 115.165 112.374Z" fill="#F4F4F4"/>
<path fill-rule="evenodd" clip-rule="evenodd" d="M83.74 93.282C77.1914 104.061 78.9607 116.986 87.5386 122.198C96.1165 127.409 108.403 123.023 114.951 112.244C121.5 101.465 119.731 88.5399 111.153 83.3285C102.575 78.1172 90.2885 82.5031 83.74 93.282ZM87.279 122.625C78.3833 117.22 76.6761 103.946 83.3127 93.0224C89.9492 82.0986 102.517 77.4968 111.412 82.9012C120.308 88.3056 122.015 101.58 115.379 112.504C108.742 123.427 96.1747 128.029 87.279 122.625Z" fill="#BFBFBF"/>
</g>
<defs>
<clipPath id="clip0_4961_1131">
<rect width="143.75" height="185.68" fill="white"/>
</clipPath>
</defs>
</svg>
