<svg width="154" height="186" viewBox="0 0 154 186" fill="none" xmlns="http://www.w3.org/2000/svg">
<g clip-path="url(#clip0_4961_1084)">
<path d="M51.4165 0.285645C41.3445 0.285645 31.4987 3.27234 23.1242 8.86803C14.7496 14.4637 8.22248 22.4171 4.3681 31.7224C0.513724 41.0277 -0.494785 51.2669 1.47016 61.1454C3.4351 71.0238 8.28522 80.0978 15.4072 87.2197C22.5291 94.3417 31.6031 99.1918 41.4815 101.157C51.36 103.122 61.5993 102.113 70.9045 98.2589C80.2098 94.4045 88.1632 87.8773 93.7589 79.5027C99.3546 71.1282 102.341 61.2825 102.341 51.2105C102.341 37.7044 96.976 24.7514 87.4257 15.2012C77.8755 5.65093 64.9225 0.285645 51.4165 0.285645ZM51.4165 95.1837C42.7207 95.1905 34.2182 92.6182 26.9845 87.7922C19.7507 82.9663 14.1107 76.1035 10.7777 68.0718C7.44475 60.0401 6.56858 51.2003 8.26006 42.6706C9.95153 34.1409 14.1346 26.3044 20.2803 20.1524C26.426 14.0003 34.2581 9.80905 42.786 8.1087C51.314 6.40835 60.1546 7.27534 68.1898 10.5999C76.2249 13.9245 83.0936 19.5574 87.9271 26.7861C92.7606 34.0148 95.3417 42.5147 95.344 51.2105C95.3319 62.856 90.6995 74.0209 82.4638 82.2545C74.2281 90.4881 63.062 95.1174 51.4165 95.1265V95.1837Z" fill="#F4F4F4"/>
<path d="M51.8966 0C41.4912 0.0800227 31.3425 3.23883 22.7297 9.0782C13.9057 14.9412 7.12984 23.4104 3.34607 33.306C-0.437697 43.2016 -1.04098 54.0309 1.62019 64.2856C4.28137 74.5402 10.0745 83.7095 18.1927 90.5165C26.311 97.3234 36.35 101.429 46.9116 102.261C57.2932 102.969 67.6522 100.591 76.6866 95.4283C85.721 90.2652 93.0275 82.5467 97.6877 73.243C101.174 66.0805 102.932 58.2006 102.821 50.2356C102.711 42.2707 100.735 34.4426 97.0515 27.3795C93.3682 20.3165 88.0805 14.2153 81.6126 9.56564C75.1448 4.91597 67.677 1.84736 59.8086 0.606009C57.1904 0.204066 54.5455 0.00145893 51.8966 0C51.565 0 51.2335 0.571675 50.9133 0.571675C61.2684 0.565025 71.3793 3.71601 79.8973 9.6043C88.4153 15.4926 94.9352 23.8382 98.5875 33.5278C102.24 43.2175 102.851 53.7904 100.339 63.8362C97.8265 73.8819 92.311 82.9229 84.5278 89.7529C76.5029 96.7534 66.4174 100.951 55.7954 101.712C45.4517 102.511 35.1107 100.131 26.157 94.8904C17.2034 89.6498 10.0643 81.799 5.69571 72.3891C1.32712 62.9791 -0.062511 52.4592 1.71283 42.2376C3.48818 32.0161 8.34376 22.5809 15.6295 15.1952C19.2826 11.4206 23.5316 8.27241 28.2064 5.87683C32.9095 3.54197 37.947 1.95279 43.1385 1.16624C45.6927 0.777602 48.2726 0.582666 50.8561 0.58312C51.2563 0.571686 51.5879 0 51.8966 0Z" fill="#BFBFBF"/>
<path d="M51.8966 94.8751C42.9782 94.8786 34.2697 92.1688 26.9279 87.1056C19.586 82.0424 13.9582 74.8656 10.7919 66.5281C7.62567 58.1906 7.07083 49.0872 9.20105 40.4269C11.3313 31.7666 16.0458 23.9593 22.7183 18.0419C26.2062 14.9258 30.2056 12.4349 34.5406 10.6788C43.8978 6.93025 54.2588 6.51036 63.8887 9.48943C73.5186 12.4685 81.8326 18.6656 87.4386 27.0431C93.0446 35.4206 95.6021 45.4698 94.683 55.5079C93.7639 65.5461 89.4239 74.9637 82.3898 82.1838C79.1948 85.5033 75.4652 88.2629 71.3564 90.3474C67.3444 92.3393 63.0477 93.697 58.6195 94.372C56.3947 94.7112 54.1471 94.8794 51.8966 94.8751C51.565 94.8751 51.2335 95.4467 50.9134 95.4467C59.8776 95.3801 68.6245 92.6804 76.067 87.6833C83.7334 82.6475 89.6332 75.3404 92.9404 66.785C96.2476 58.2295 96.7966 48.854 94.5106 39.971C92.2246 31.088 87.2181 23.1422 80.1919 17.246C73.1657 11.3497 64.4716 7.79821 55.3267 7.08863C46.3889 6.50946 37.4773 8.56149 29.6929 12.9911C21.9085 17.4208 15.5924 24.034 11.5249 32.0136C8.47683 38.1902 6.92225 44.9964 6.98647 51.8838C7.0507 58.7712 8.73193 65.5472 11.8947 71.6658C15.0575 77.7845 19.6133 83.0745 25.1951 87.1099C30.777 91.1452 37.2287 93.8128 44.0304 94.8979C46.2994 95.2569 48.5932 95.4366 50.8905 95.4353C51.2563 95.4582 51.5879 94.8751 51.8966 94.8751Z" fill="#BFBFBF"/>
<path d="M86.2886 97.5962L86.22 97.6877L85.8999 97.985L85.2024 98.591C84.5164 99.1626 83.4302 100.043 81.7152 101.404C81.5094 101.564 81.315 101.712 81.1207 101.838L85.1338 98.4995C84.9166 98.6024 85.1338 98.4995 85.1338 98.4995L86.0599 97.882L86.2657 97.7106C86.2883 97.7052 86.3118 97.7052 86.3343 97.7106L86.2886 97.5962Z" fill="#F4F4F4"/>
<path d="M85.797 97.8823C85.717 98.0538 85.4883 98.191 85.3511 98.3168C85.2139 98.4426 84.9051 98.7055 84.6765 98.8999L83.7504 99.6659L82.447 100.718C81.8524 101.187 81.3036 101.701 80.629 102.124L81.6123 101.564L83.7275 99.7918L85.1338 98.6484L85.534 98.3168C85.534 98.3168 85.6026 98.3168 85.614 98.2482C85.6255 98.1796 85.4997 98.2482 85.4883 98.2482C85.4768 98.2482 86.0142 97.8709 86.1056 97.8137L86.6888 97.3907L85.7169 97.9509H85.797C85.797 97.9509 85.9342 97.8709 85.9456 97.8709L86.2886 97.6651L86.6431 97.4593C86.6431 97.4593 86.7574 97.3792 86.7917 97.3792H86.6773C86.5058 97.4593 86.3458 97.5622 86.1857 97.6537C85.9676 97.7775 85.7576 97.915 85.5569 98.0653C85.3739 98.2139 85.1453 98.3511 84.9395 98.4883C84.8247 98.5541 84.714 98.6266 84.6079 98.7056C84.6079 98.7056 84.4707 98.7856 84.5278 98.8313C84.585 98.877 84.6308 98.7627 84.6308 98.8313C84.59 98.8718 84.5439 98.9065 84.4936 98.9342L81.6237 101.335L80.6633 102.136C80.7977 102.038 80.9436 101.957 81.0978 101.895C81.2693 101.793 81.4637 101.69 81.6352 101.575C82.2412 101.175 82.7785 100.695 83.3502 100.249L84.7336 99.1057L85.7055 98.3054L86.3687 97.7337C86.5518 97.6115 86.7107 97.4564 86.8374 97.2764L86.6888 97.3564L86.3343 97.5508L85.9799 97.7566C85.9799 97.7566 85.8084 97.848 85.797 97.8823Z" fill="#BFBFBF"/>
<path d="M86.2772 97.7566L85.8999 97.9853L85.2024 98.5913C84.5164 99.163 83.4302 100.043 81.7152 101.404C81.5094 101.564 81.315 101.713 81.1207 101.838L85.1338 98.4998L85.3167 98.3512L85.9799 97.8024L86.1857 97.6309L86.2772 97.7566Z" fill="#F4F4F4"/>
<path d="M86.7002 97.5048C86.3115 97.722 85.9113 97.9507 85.5569 98.1908C85.342 98.3464 85.1393 98.5185 84.9509 98.7053C84.6079 99.0026 84.2535 99.2884 83.899 99.5742L82.5499 100.718C81.9325 101.209 81.3265 101.747 80.6634 102.181L81.6466 101.621L85.6484 98.2823L86.7231 97.4019L85.7284 97.9735C85.7551 98.0181 85.7857 98.0602 85.8198 98.0993C85.8198 98.1564 86.7688 97.4819 86.8145 97.5276C86.7804 97.4885 86.7498 97.4464 86.7231 97.4019C86.7231 97.4019 85.8085 97.9049 85.7284 97.9735L81.418 101.552L80.6519 102.192C80.7863 102.095 80.9322 102.014 81.0864 101.952C81.2579 101.849 81.4523 101.747 81.6238 101.632C82.1726 101.266 82.6871 100.832 83.2016 100.409L84.5278 99.357L85.4883 98.5681L85.9685 98.1565L86.2886 97.882C86.332 97.8412 86.3778 97.803 86.4258 97.7677H86.483C86.7688 97.5848 86.563 97.6991 85.8884 98.1107L86.563 97.722C86.563 97.722 86.8832 97.4133 86.7002 97.5048Z" fill="#BFBFBF"/>
<path d="M144.565 176.305C144.565 176.305 144.565 176.419 144.348 176.659C144.229 176.813 144.09 176.952 143.936 177.071C142.9 177.902 141.777 178.619 140.586 179.209L143.776 176.922L144.565 176.328V176.305Z" fill="#F4F4F4"/>
<path d="M144.073 176.533C144.078 176.568 144.078 176.602 144.073 176.636C144.073 176.716 143.913 176.808 143.891 176.888L144.508 176.522C144.306 176.627 144.111 176.745 143.925 176.876C143.84 176.944 143.764 177.021 143.696 177.105C143.559 177.242 143.41 177.357 143.273 177.482C143.136 177.608 142.713 177.906 142.416 178.1L141.833 178.466C141.761 178.527 141.68 178.578 141.592 178.614L141.707 178.546L141.501 178.66C141.501 178.66 141.112 178.82 141.112 178.877C141.161 178.833 141.214 178.795 141.272 178.763L144.108 176.682C144.211 176.614 144.256 176.545 144.348 176.488L145.057 175.95L144.062 176.522C144.062 176.522 145.045 175.939 145.057 175.95C145.057 175.95 144.142 176.465 144.062 176.522L142.862 177.448L140.712 179.015L140.095 179.472C141.158 178.9 142.21 178.329 143.227 177.643C143.513 177.46 143.788 177.265 144.062 177.059C144.346 176.861 144.604 176.626 144.828 176.362L144.199 176.728C144.469 176.617 144.714 176.454 144.92 176.248C144.987 176.177 145.034 176.091 145.057 175.996L144.908 176.076L144.554 176.27L144.199 176.476C144.199 176.476 144.073 176.511 144.073 176.533Z" fill="#BFBFBF"/>
<path d="M144.691 176.419C144.584 176.493 144.469 176.554 144.348 176.602C144.229 176.756 144.09 176.894 143.936 177.014C142.9 177.845 141.777 178.562 140.586 179.152L143.776 176.865L144.542 176.305L144.691 176.419Z" fill="#F4F4F4"/>
<path d="M144.211 176.693C144.931 176.328 145.137 176.202 144.851 176.316H144.771L144.416 176.522L143.993 176.762C143.993 176.762 143.856 176.831 143.856 176.853L144.474 176.488C144.21 176.61 143.967 176.772 143.753 176.968C143.62 177.113 143.474 177.247 143.319 177.368C143.113 177.539 142.896 177.711 142.679 177.86C142.461 178.008 142.027 178.294 141.695 178.5L141.421 178.648C141.299 178.699 141.184 178.765 141.078 178.843C141.364 178.603 141.666 178.381 141.981 178.18L143.422 177.128C143.72 176.945 144.003 176.739 144.268 176.51L143.273 177.082C143.387 177.082 143.548 176.933 143.65 176.876C143.753 176.819 144.062 176.648 144.256 176.522L144.451 176.373L145.045 175.95L144.051 176.522L144.176 176.693C144.176 176.693 145.148 176.099 145.171 176.122L145.045 175.95C144.704 176.123 144.372 176.314 144.051 176.522L143.285 177.082L144.279 176.51C144.219 176.52 144.163 176.548 144.119 176.59L143.696 176.831C143.541 176.911 143.392 177.003 143.25 177.105L143.136 177.185L142.45 177.688L140.541 179.083L140.06 179.437C141.124 178.866 142.187 178.294 143.193 177.608C143.483 177.425 143.757 177.231 144.016 177.025C144.307 176.83 144.568 176.595 144.794 176.328L144.165 176.693L144.611 176.442C144.611 176.442 144.794 176.362 144.805 176.316L143.811 176.888C144.003 176.8 144.19 176.701 144.371 176.59L145.125 176.145C144.942 176.305 144.508 176.51 144.211 176.693Z" fill="#BFBFBF"/>
<path d="M90.5533 94.7721L86.3001 97.6076C86.2031 97.6642 86.1112 97.7293 86.0256 97.802L85.1681 98.5109L81.155 101.849C76.1929 105.119 77.1761 95.1723 77.1761 95.1723L81.155 92.5426L85.3168 89.0439C85.3168 89.0439 95.0924 90.9305 90.5533 94.7721Z" fill="#F4F4F4"/>
<path d="M91.0564 94.4863C90.7127 94.6435 90.3836 94.831 90.0731 95.0465L85.8198 97.882L86.8032 97.3218C86.4716 97.3218 85.8885 97.8134 85.6598 97.9964C85.4311 98.1793 84.9966 98.5337 84.6765 98.8081L82.3898 100.729L81.0178 101.872L80.7205 102.135C80.4918 102.341 80.3089 102.135 81.0864 101.929C80.9263 101.929 80.7548 102.078 80.5947 102.124C80.1918 102.272 79.7485 102.268 79.3485 102.112C78.9484 101.956 78.6191 101.659 78.4224 101.278C77.4734 99.6657 77.5534 97.3904 77.6449 95.561C77.6162 95.3486 77.6162 95.1332 77.6449 94.9208C77.702 94.8064 78.0565 94.6234 78.2166 94.5205L81.2808 92.4969C81.9333 92.029 82.5593 91.5251 83.1559 90.9876L85.797 88.7695L84.8023 89.3412C86.3079 89.6157 87.7693 90.0926 89.147 90.7589C90.0003 91.097 90.711 91.7188 91.1593 92.5197C91.5824 93.5258 90.8049 94.4406 90.0846 95.0694C90.3704 94.8293 90.7934 94.7378 91.0793 94.4977C91.4075 94.2658 91.6802 93.9639 91.8779 93.614C92.0756 93.2641 92.1933 92.8748 92.2226 92.474C92.1851 92.1693 92.0831 91.876 91.9235 91.6138C91.7638 91.3516 91.55 91.1264 91.2965 90.9533C90.0491 90.0528 88.6278 89.422 87.1233 89.1011C86.7062 88.933 86.2673 88.8252 85.8198 88.781C85.3933 88.8823 84.9997 89.0908 84.6765 89.3869C83.3959 90.3359 82.2183 91.4564 80.9949 92.4854C80.0131 93.2336 78.9942 93.932 77.9422 94.5778L76.9703 95.218C76.8788 95.218 76.6502 95.3666 76.593 95.4695C76.5359 95.5724 76.593 96.1327 76.5358 96.3385C76.4558 98.0421 76.2958 103.336 79.2113 102.764C80.6901 102.26 82.0269 101.409 83.1101 100.283C84.2534 99.3112 85.3968 98.2479 86.6431 97.3561L85.6826 97.9278C87.5234 96.9445 89.2385 95.6411 90.9763 94.4977L90.0045 95.058C90.1417 95.1266 90.9878 94.4177 91.0564 94.4863Z" fill="#BFBFBF"/>
<path d="M147.698 173.812L144.542 176.213L143.753 176.808L140.563 179.094C136.55 181.175 114.484 150.179 102.341 133.543C90.1989 116.907 81.1093 101.77 81.1093 101.77C81.3036 101.644 81.498 101.495 81.7038 101.335C83.4188 99.9744 84.505 99.0483 85.191 98.5224L85.8884 97.9164L86.2658 97.6877C87.0089 97.1847 88.1637 96.4072 89.9588 95.1495C90.176 95.0009 90.3704 94.8408 90.5419 94.7036C91.0221 95.2296 102.707 108.047 114.941 124.099C127.426 140.575 150.888 170.588 147.698 173.812Z" fill="#F4F4F4"/>
<path d="M147.206 174.098L143.548 176.876L141.958 178.019C141.295 178.431 140.664 178.894 140.072 179.403L141.044 178.843C139.9 179.369 138.345 177.894 137.614 177.288C135.592 175.532 133.711 173.621 131.988 171.571C126.752 165.603 121.95 159.246 117.205 152.889C112.46 146.532 107.612 139.82 102.833 133.28C96.735 124.896 90.9001 116.309 85.3282 107.521C84.1848 105.623 82.9386 103.725 81.7838 101.804C81.7838 101.804 81.5895 101.564 81.6009 101.506C81.7881 101.347 81.9868 101.202 82.1954 101.072L83.03 100.397L84.4592 99.254L85.3853 98.4995L85.8542 98.1107L86.1514 97.8477C86.1514 97.8477 86.5287 97.5162 86.2657 97.6991C86.8146 97.2989 87.4091 96.9559 87.9922 96.5558C89.0212 95.8583 90.0731 95.1837 91.0449 94.4062L90.0502 94.9779C93.3202 98.568 96.4987 102.25 99.6315 105.954C105.668 113.1 111.442 120.44 117.113 127.872C121.687 133.852 126.26 139.832 130.731 145.891C134.915 151.608 139.088 157.325 142.839 163.282C144.181 165.337 145.384 167.48 146.44 169.696C146.932 170.759 147.755 172.326 147.446 173.549C147.401 173.723 147.314 173.883 147.195 174.018C147.446 173.755 147.927 173.709 148.19 173.446C148.91 172.68 148.19 171.159 147.949 170.325C147.105 168.286 146.088 166.324 144.908 164.459C141.409 158.628 137.396 153.026 133.383 147.595C128.878 141.432 124.236 135.361 119.663 129.301C114.141 122.052 108.561 114.849 102.719 107.852C99.0141 103.393 95.2296 98.9911 91.3422 94.6921L91.0793 94.4062C90.7317 94.5676 90.3989 94.7588 90.0846 94.9779C88.9412 95.8812 87.7178 96.6586 86.5287 97.4704C86.3572 97.5848 86.1743 97.6876 86.0142 97.8134C85.8542 97.9392 86.2772 97.6762 86.0142 97.8134L85.7284 97.9849C85.3691 98.2293 85.0289 98.5007 84.7108 98.7967C83.8419 99.5285 82.95 100.237 82.0582 100.935C81.7152 101.221 81.3722 101.495 81.0178 101.758C80.9492 101.758 80.6405 102.01 80.629 102.044C80.6176 102.078 80.7091 102.158 80.7205 102.192C80.8473 102.474 81.0087 102.739 81.2007 102.981L82.0582 104.376C82.9729 105.901 83.899 107.379 84.8366 108.812C91.0335 118.565 97.6535 128.021 104.445 137.396C110.162 145.274 115.878 153.152 121.847 160.858C124.579 164.402 127.358 167.901 130.285 171.297C132.277 173.742 134.485 176.004 136.882 178.054C137.527 178.631 138.271 179.088 139.077 179.403C139.866 179.654 140.426 179.266 141.089 178.82C143.09 177.459 144.931 175.961 146.806 174.498L148.167 173.469C147.938 173.755 147.504 173.869 147.206 174.098Z" fill="#BFBFBF"/>
<path d="M147.698 173.812C146.79 174.784 145.782 175.658 144.691 176.419C144.584 176.493 144.469 176.554 144.348 176.602C144.188 176.711 144.003 176.778 143.811 176.796L144.599 176.202L147.698 173.812Z" fill="#F4F4F4"/>
<path d="M147.206 174.098C146.546 174.774 145.851 175.415 145.125 176.019C144.908 176.202 144.679 176.373 144.439 176.545L144.279 176.648C143.913 176.888 145.217 176.122 144.828 176.328L144.211 176.671L143.959 176.819C143.959 176.819 143.856 176.819 143.856 176.888L144.474 176.522C145.045 176.202 144.542 176.522 144.359 176.522C144.176 176.522 144.279 176.522 144.268 176.522C144.256 176.522 144.268 176.522 144.268 176.522C144.339 176.458 144.416 176.401 144.497 176.35L144.805 176.122L145.285 175.756L147.504 174.075L148.178 173.561C147.869 173.789 147.481 173.904 147.183 174.132L143.605 176.853C143.502 176.934 143.388 177.002 143.296 177.082H143.239H143.365C143.541 177.037 143.71 176.968 143.868 176.876L144.394 176.568L144.68 176.408C144.68 176.408 144.817 176.339 144.828 176.316L143.833 176.888C144.185 176.724 144.524 176.537 144.851 176.328L145.32 176.03C145.571 175.859 145.8 175.687 146.029 175.504C146.783 174.887 147.492 174.212 148.178 173.526L148.03 173.606L147.675 173.801C147.509 173.883 147.352 173.983 147.206 174.098Z" fill="#BFBFBF"/>
<path d="M148.944 182.478C148.944 182.478 144.176 186.949 141.066 184.765C137.957 182.581 140.38 179.391 140.563 179.128C141.754 178.539 142.877 177.822 143.913 176.99C144.068 176.871 144.206 176.733 144.325 176.579C144.446 176.531 144.561 176.47 144.668 176.396C145.759 175.635 146.767 174.761 147.675 173.789C147.675 173.789 151.78 172.268 152.946 175.87C153.918 178.843 150.225 181.598 148.944 182.478Z" fill="#F4F4F4"/>
<path d="M148.453 182.765C147.837 183.311 147.18 183.808 146.486 184.251C146.177 184.457 146.966 184.011 146.406 184.251C146.212 184.342 146.017 184.445 145.811 184.525C145.475 184.671 145.127 184.789 144.771 184.88C144.088 185.083 143.364 185.111 142.667 184.96C141.904 184.774 141.228 184.332 140.751 183.708C140.275 183.084 140.027 182.315 140.049 181.53C140.11 180.557 140.47 179.627 141.078 178.866L140.106 179.426C141.829 178.617 143.427 177.566 144.851 176.305L143.856 176.876C145.493 176.023 146.964 174.885 148.201 173.515L147.206 174.087C148.921 173.458 151.151 173.664 152.134 175.379C153.838 178.351 150.728 181.221 148.464 182.742C148.693 182.593 149.139 182.387 149.424 182.193C151.711 180.672 154.787 177.848 153.163 174.876C152.633 174.089 151.838 173.52 150.922 173.272C150.007 173.024 149.033 173.114 148.178 173.526C147.408 173.937 146.716 174.479 146.132 175.127C145.504 175.738 144.819 176.285 144.085 176.762L145.011 176.225C144.691 176.373 144.394 176.556 144.096 176.728C143.837 176.918 143.592 177.128 143.365 177.357C142.569 177.98 141.72 178.531 140.826 179.003C140.409 179.17 140.057 179.467 139.82 179.849C139.473 180.422 139.233 181.054 139.111 181.713C139.042 182.165 139.064 182.626 139.175 183.069C139.287 183.513 139.486 183.929 139.761 184.295C140.035 184.66 140.381 184.967 140.776 185.197C141.171 185.427 141.608 185.576 142.061 185.634C143.7 185.667 145.306 185.165 146.635 184.205C147.66 183.64 148.619 182.961 149.493 182.182C149.173 182.445 148.727 182.513 148.453 182.765Z" fill="#BFBFBF"/>
<path d="M147.698 173.812C146.79 174.784 145.782 175.658 144.691 176.419C144.584 176.493 144.469 176.554 144.348 176.602C144.229 176.756 144.091 176.894 143.936 177.013L143.776 176.819L144.565 176.224L147.698 173.812Z" fill="#F4F4F4"/>
<path d="M147.206 174.098C146.546 174.774 145.851 175.415 145.125 176.019C144.908 176.202 144.68 176.373 144.439 176.545L144.279 176.648C143.913 176.888 145.217 176.122 144.828 176.328L144.211 176.671L143.959 176.819C143.959 176.819 143.856 176.819 143.856 176.888L144.474 176.522C144.238 176.628 144.019 176.766 143.822 176.934C143.696 177.059 143.57 177.197 143.433 177.311L144.428 176.739C144.428 176.739 144.268 176.602 144.268 176.545C144.268 176.488 144.268 176.488 144.336 176.453L144.885 176.042L145.331 175.699L147.549 174.018L148.201 173.526C147.892 173.755 147.504 173.869 147.206 174.098C146.132 174.91 145.068 175.733 143.993 176.533L143.41 176.979C143.41 176.979 143.273 177.059 143.262 177.094C143.25 177.128 143.399 177.277 143.433 177.311C143.775 177.138 144.107 176.947 144.428 176.739C144.579 176.617 144.717 176.479 144.84 176.328L144.211 176.693L144.657 176.442C144.657 176.442 144.84 176.362 144.851 176.316L143.856 176.888C144.207 176.724 144.547 176.537 144.874 176.328L145.343 176.03C145.594 175.859 145.823 175.687 146.052 175.504C146.806 174.887 147.515 174.212 148.201 173.526L148.052 173.606L147.698 173.801C147.524 173.882 147.359 173.982 147.206 174.098Z" fill="#BFBFBF"/>
<path d="M17.0016 58.7451C17.0356 59.9913 17.1617 61.2334 17.3789 62.461C17.8434 65.4081 18.6651 68.2877 19.8257 71.0361C21.32 74.6537 23.5243 77.935 26.3085 80.686C29.825 84.0076 34.1361 86.3698 38.8282 87.5461C45.5054 89.2954 52.5484 88.9982 59.3399 87.8663C60.4146 87.6833 61.4779 87.4775 62.5413 87.2602C62.8957 87.1916 63.1815 86.7572 63.536 86.6886C56.4586 88.1635 49.0269 88.861 41.8809 87.4432C36.946 86.5397 32.3294 84.3732 28.4809 81.1548C25.4676 78.5213 23.0409 75.2843 21.3578 71.6535C20.0288 68.8127 19.0756 65.811 18.5223 62.7239C18.3279 61.7178 18.1907 60.7002 18.0878 59.6827C18.0878 59.3625 18.0306 59.031 18.0192 58.7108C18.0192 58.6194 18.0192 58.2878 18.0192 58.2078C18.0192 58.1277 18.0192 58.2078 18.0192 58.1392C18.0192 58.3221 17.0245 58.5165 17.0245 58.7108L17.0016 58.7451Z" fill="#BFBFBF"/>
</g>
<defs>
<clipPath id="clip0_4961_1084">
<rect width="153.609" height="185.68" fill="white"/>
</clipPath>
</defs>
</svg>
