<svg width="103" height="186" viewBox="0 0 103 186" fill="none" xmlns="http://www.w3.org/2000/svg">
<g clip-path="url(#clip0_4961_1076)">
<path d="M101.394 47.5172C92.9178 0.363159 50.4118 0.249039 50.4118 0.249039C50.4118 0.249039 9.75242 0.0415421 1.27611 47.1956C-7.2002 94.3496 51.3351 156.869 51.3351 156.869V157.19C51.3351 157.19 109.87 94.6816 101.394 47.5172ZM32.7537 86.1326C26.3823 82.454 21.2445 76.969 17.9899 70.3709C14.7354 63.7729 13.5101 56.358 14.469 49.0637C15.4279 41.7693 18.5279 34.923 23.3772 29.3903C28.2264 23.8575 34.6072 19.8867 41.7129 17.9797C48.8185 16.0728 56.33 16.3154 63.2978 18.6769C70.2657 21.0383 76.3769 25.4126 80.8591 31.2467C85.3412 37.0808 87.993 44.1129 88.4792 51.4539C88.9655 58.7949 87.2643 66.1153 83.5908 72.4896C81.1509 76.7258 77.9 80.4395 74.024 83.4186C70.1481 86.3977 65.723 88.5837 61.0017 89.8517C56.2804 91.1197 51.3556 91.4448 46.5086 90.8085C41.6616 90.1721 36.9876 88.5867 32.7537 86.143V86.1326Z" fill="#F4F4F4"/>
<path d="M101.84 47.2683C99.6096 34.9532 94.4221 23.1051 85.2403 14.4005C78.901 8.49683 71.2206 4.224 62.8616 1.95062C58.9774 0.77551 54.9555 0.116224 50.8993 -0.0102539C47.5284 0.0574805 44.1791 0.545435 40.929 1.44226C33.1371 3.41608 25.8847 7.10605 19.7019 12.2425C10.3645 20.0237 4.66866 31.0315 1.83631 42.6826C0.308013 48.8282 -0.265843 55.1722 0.134839 61.4923C0.591257 67.6392 1.722 73.7174 3.50669 79.6173C7.13791 91.9946 12.896 103.708 19.4737 114.778C25.2818 124.483 31.7067 133.805 38.7088 142.686C42.4438 147.459 46.3032 152.148 50.4013 156.63C50.6918 156.952 50.8889 157.045 50.8889 157.481C50.8889 157.367 51.6775 157.076 51.7812 156.962C53.7732 154.835 55.6718 152.615 57.5497 150.385C62.2875 144.761 66.8041 138.958 71.0993 132.976C76.8424 125.044 82.0917 116.766 86.8173 108.19C91.903 99.1474 96.0138 89.5904 99.0805 79.6795C101.84 70.3421 103.417 60.4859 102.349 50.7542C102.214 49.5923 102.048 48.4303 101.84 47.2787C101.84 47.3824 100.917 47.6729 100.948 47.7974C102.649 57.3838 101.581 67.24 99.1738 76.6085C96.458 86.634 92.601 96.3149 87.6784 105.461C83.0323 114.255 77.8165 122.735 72.0642 130.849C67.6237 137.177 62.9342 143.319 57.9958 149.275C56.4395 151.142 54.8591 152.996 53.2544 154.835C52.5074 155.676 51.6878 156.475 50.9823 157.346L50.8889 157.46L51.7812 156.942C51.7812 156.495 51.5529 156.371 51.2521 156.039C50.7022 155.437 50.1523 154.825 49.6128 154.213C47.5932 151.917 45.615 149.586 43.6784 147.22C37.176 139.319 31.1148 131.066 25.5223 122.497C18.5325 111.998 12.6233 100.82 7.88491 89.1311C3.43407 77.7913 0.290459 65.5282 1.00633 53.2546C1.45674 46.5633 2.92254 39.9794 5.35342 33.729C7.42833 28.1491 10.3885 22.9399 14.1202 18.3015C19.9059 11.2037 27.6087 5.91726 36.3122 3.07107C40.6224 1.57849 45.128 0.725604 49.6854 0.539584C52.48 0.550681 55.2644 0.877844 57.9854 1.51483C65.6384 3.04042 72.8827 6.16585 79.2436 10.6863C88.2539 17.3885 94.9315 26.7516 98.3335 37.4536C99.4497 40.8456 100.323 44.3126 100.948 47.8285C100.927 47.6729 101.861 47.3928 101.84 47.2683Z" fill="#BFBFBF"/>
<path d="M33.1998 85.9046C28.2897 83.0759 24.0907 79.1628 20.9231 74.4642C17.7555 69.7655 15.7031 64.4054 14.9224 58.7927C14.1418 53.1801 14.6536 47.4633 16.4187 42.0786C18.1838 36.6938 21.1556 31.7834 25.1073 27.722C27.8027 24.9001 30.9607 22.5597 34.4448 20.802C37.7996 19.1582 41.38 18.0218 45.0687 17.4301C53.5112 16.0971 62.1552 17.7106 69.5482 21.9997C76.9412 26.2888 82.6325 32.9919 85.6657 40.9827C88.6989 48.9734 88.8891 57.7647 86.2043 65.8792C83.5196 73.9937 78.1236 80.9367 70.923 85.5415C67.6172 87.5885 63.9908 89.065 60.1953 89.9093C52.918 91.5914 45.3035 91.053 38.3354 88.3635C36.5655 87.6669 34.8491 86.8417 33.1998 85.8942C33.0442 85.8009 32.4424 86.496 32.2972 86.413C39.0945 90.3209 46.9493 91.9907 54.7485 91.1855C62.0278 90.3592 68.9329 87.521 74.6891 82.9893C80.8664 78.1586 85.3598 71.5002 87.5281 63.9641C89.6965 56.4281 89.4288 48.3996 86.7635 41.0247C84.0981 33.6498 79.1712 27.3053 72.686 22.8968C66.2008 18.4882 58.4887 16.241 50.6504 16.4757C43.3179 16.7732 36.2171 19.1282 30.16 23.2712C25.3251 26.5181 21.3193 30.8538 18.4644 35.93C15.6094 41.0062 13.985 46.6814 13.7217 52.4993C13.4583 58.3173 14.5634 64.116 16.948 69.4293C19.3326 74.7427 22.9303 79.4226 27.4521 83.093C28.9802 84.3215 30.5999 85.4314 32.2972 86.413C32.4528 86.496 33.0546 85.8009 33.1998 85.9046Z" fill="#BFBFBF"/>
<path d="M51.3351 185.4C71.132 185.4 87.1805 180.183 87.1805 173.749C87.1805 167.314 71.132 162.098 51.3351 162.098C31.5383 162.098 15.4897 167.314 15.4897 173.749C15.4897 180.183 31.5383 185.4 51.3351 185.4Z" fill="#F4F4F4"/>
<path d="M86.7343 174.008C86.7343 177.525 82.6466 179.59 79.9387 180.711C74.4538 182.8 68.701 184.102 62.8512 184.58C55.6424 185.322 48.3765 185.322 41.1677 184.58C35.2141 184.127 29.3557 182.828 23.7689 180.721C21.8654 180.003 20.0787 179.006 18.4673 177.764C17.2984 176.915 16.4415 175.704 16.0292 174.32C15.3133 171.145 18.6229 168.696 20.9988 167.524C26.041 165.055 31.768 163.914 37.3082 163.177C44.5005 162.238 51.771 162.051 59.0022 162.617C65.1589 162.961 71.2447 164.105 77.1064 166.02C79.2031 166.708 81.2067 167.652 83.072 168.831C84.4292 169.632 85.5469 170.782 86.309 172.162C86.579 172.726 86.7241 173.342 86.7343 173.967C86.7343 173.801 87.6369 173.625 87.6266 173.448C87.6266 169.91 83.3936 167.742 80.6339 166.528C75.0243 164.259 69.1011 162.859 63.0691 162.378C55.4833 161.551 47.8301 161.551 40.2443 162.378C34.3306 163.032 28.2301 164.121 22.7625 166.528C21.0015 167.282 19.3366 168.243 17.8033 169.392C16.5373 170.244 15.5946 171.497 15.1266 172.95C14.2862 176.332 17.9174 178.771 20.4489 180.088C25.5119 182.713 31.353 183.885 36.9554 184.653C44.4832 185.661 52.0984 185.845 59.6661 185.203C65.9701 184.831 72.1903 183.573 78.1439 181.468C80.092 180.727 81.9589 179.789 83.7152 178.667C85.1382 177.861 86.3202 176.69 87.1389 175.274C87.4347 174.688 87.591 174.042 87.5954 173.386C87.6266 173.656 86.7343 173.832 86.7343 174.008Z" fill="#BFBFBF"/>
<path d="M49.2497 3.42383C47.4976 3.64256 45.7638 3.98932 44.0623 4.46132C39.9117 5.49046 35.8889 6.97988 32.0689 8.90182C26.9293 11.4167 22.2225 14.7331 18.125 18.7268C13.183 23.6843 9.40218 29.6762 7.0549 36.2708C3.89055 45.0791 3.18505 54.593 3.83867 63.8785C3.94242 65.2895 4.0773 66.6901 4.23292 68.1011C4.23292 67.9663 5.15629 67.7276 5.13554 67.5824C4.09804 58.0997 4.24332 48.3369 6.87855 39.1032C8.78266 32.3 12.154 25.9965 16.7555 20.6359C20.5535 16.2667 25.126 12.6368 30.2429 9.92893C34.0757 7.9091 38.123 6.32561 42.3089 5.20828C43.6473 4.85554 44.996 4.54435 46.3551 4.29535C46.9776 4.18123 47.6624 4.16043 48.2745 3.99444H48.3575C48.6687 3.99444 48.9489 3.50681 49.2497 3.47569V3.42383Z" fill="#BFBFBF"/>
<path d="M18.955 174.008C20.4882 175.316 22.2044 176.393 24.049 177.204C29.313 179.664 34.9457 181.241 40.7216 181.873C45.8018 182.484 50.9257 182.651 56.0349 182.371C56.3462 182.371 56.6367 181.873 56.9376 181.852C48.7969 182.395 40.6218 181.631 32.7225 179.59C28.7128 178.565 24.8944 176.901 21.4138 174.662C20.8613 174.31 20.3375 173.914 19.8472 173.479C19.7746 173.407 19.0172 174.06 18.955 173.998V174.008Z" fill="#BFBFBF"/>
</g>
<defs>
<clipPath id="clip0_4961_1076">
<rect width="102.681" height="185.68" fill="white"/>
</clipPath>
</defs>
</svg>
