<svg width="555" height="503" viewBox="0 0 555 503" fill="none" xmlns="http://www.w3.org/2000/svg">
<g clip-path="url(#clip0_3456_291)">
<path d="M329.047 339.103C378.352 311.208 395.837 248.851 368.099 199.824C340.362 150.797 277.907 133.665 228.602 161.56C179.296 189.454 161.812 251.812 189.549 300.839C217.286 349.866 279.741 366.997 329.047 339.103Z" stroke="#F5F4F2" stroke-width="5" stroke-miterlimit="10"/>
<path d="M355.856 386.49C431.481 343.705 458.299 248.061 415.756 172.863C373.212 97.6642 277.417 71.3879 201.792 114.173C126.167 156.958 99.3489 252.602 141.892 327.801C184.436 402.999 280.231 429.275 355.856 386.49Z" stroke="#F5F4F2" stroke-width="5" stroke-miterlimit="10"/>
<path d="M159.912 317.606C142.171 286.247 137.684 249.084 147.439 214.293C157.194 179.502 180.392 149.933 211.929 132.091" stroke="#F5F4F2" stroke-width="5" stroke-miterlimit="10"/>
<path d="M186.304 351.022C179.785 345.058 173.864 338.476 168.624 331.368" stroke="#F5F4F2" stroke-width="5" stroke-miterlimit="10"/>
<path d="M95.195 317.4C111.31 308.283 113.293 281.304 99.6231 257.143C85.9535 232.981 61.8081 220.784 45.6929 229.902C29.5777 239.019 27.5952 265.997 41.2648 290.159C54.9345 314.321 79.0798 326.517 95.195 317.4Z" stroke="#F5F4F2" stroke-width="5" stroke-miterlimit="10"/>
<path d="M101.947 313.54L89.9945 320.301L161.203 460.395L185.351 446.733L101.947 313.54Z" stroke="#F5F4F2" stroke-width="5" stroke-miterlimit="10"/>
<path d="M430.082 111.888L418.16 118.633L496.229 270.854L520.347 257.209L430.082 111.888Z" stroke="#F5F4F2" stroke-width="5" stroke-miterlimit="10"/>
<path d="M355.424 56.1914L382.371 103.821C382.371 103.821 399.436 129.146 424.102 115.191" stroke="#F5F4F2" stroke-width="5" stroke-miterlimit="10"/>
<path d="M407.593 26.677L434.54 74.3069C434.54 74.3069 447.461 102.056 422.825 115.994" stroke="#F5F4F2" stroke-width="5" stroke-miterlimit="10"/>
<path d="M390.458 36.3711L420.68 89.7916" stroke="#F5F4F2" stroke-width="5" stroke-miterlimit="10"/>
<path d="M372.682 46.4277L402.904 99.8483" stroke="#F5F4F2" stroke-width="5" stroke-miterlimit="10"/>
</g>
<defs>
<clipPath id="clip0_3456_291">
<rect width="455.586" height="319.879" fill="white" transform="translate(0 224.334) rotate(-29.499)"/>
</clipPath>
</defs>
</svg>
