<svg width="243" height="163" viewBox="0 0 243 163" fill="none" xmlns="http://www.w3.org/2000/svg">
<g clip-path="url(#clip0_4999_817)">
<path d="M56.094 99.8521C56.094 99.8521 90.0608 110.718 69.7628 116.575C51.2495 121.925 42.9684 125.25 45.2299 130.655C47.4914 136.061 53.1563 142.061 94.6725 137.569C136.189 133.077 145.235 133.066 141.465 143.558C137.696 154.05 145.19 162.119 169.69 162.89C194.411 163.683 205.087 160.38 214.221 151.44C224.509 141.367 219.509 134.707 218.379 126.461C217.248 118.215 247.124 120.527 242.523 108.175C227.724 68.3552 4.1018 78.9459 56.094 99.8521Z" fill="#BFBFBF"/>
<path d="M129.005 8.11328L15.2208 10.3151C15.2208 10.3151 0.51001 18.748 0.51001 50.7843C0.51001 82.8207 14.6555 85.0776 14.6555 85.0776L129.005 103.628V8.11328Z" fill="#F4F4F4"/>
<path d="M129.482 7.83887L124.227 7.93794L110.547 8.21317L91.3245 8.58747L69.5077 9.01681L48.2009 9.43516L30.1311 9.79848L18.491 10.0297H15.9413C15.3746 10.1267 14.8476 10.3826 14.4226 10.7673C11.5345 12.8874 9.13785 15.5978 7.39415 18.7158C2.95985 26.0368 1.01989 34.6679 0.310401 43.1009C-0.227416 49.1923 -0.14947 55.3219 0.543159 61.3979C0.989436 65.7053 2.00324 69.9359 3.55852 73.9812C5.22139 78.0876 7.83762 82.2821 11.8618 84.4729C12.821 84.9879 13.8643 85.3308 14.9436 85.4857L23.6016 86.8949L39.3544 89.4489L59.4973 92.7516L81.17 96.2635L101.512 99.5663L117.919 102.263L127.287 103.783L128.528 103.981C128.871 103.844 129.192 103.659 129.482 103.43V9.28105C129.537 8.85346 129.537 8.42056 129.482 7.99298C129.476 7.94175 129.476 7.8901 129.482 7.83887C129.482 8.01501 128.528 8.19116 128.528 8.38932V100.062C128.456 101.301 128.456 102.543 128.528 103.783V103.937L129.482 103.386L121.921 102.164L102.765 99.0598L77.2678 94.9314L50.9613 90.671L28.7897 87.071L16.2961 85.0343C14.658 84.8078 13.097 84.2005 11.7398 83.2618C5.64265 79.0564 3.19269 70.9868 2.02868 64.1061C0.874722 56.9202 0.643777 49.6179 1.34137 42.3743C1.79098 36.4348 3.06301 30.5853 5.12159 24.991C7.16137 19.6736 10.2543 14.125 14.9214 10.6242L15.4646 10.2499C15.8083 10.0077 15.4646 10.2498 15.2429 10.3599L14.7551 10.6351L17.8037 10.5691L26.0737 10.415L38.3346 10.1728L53.2449 9.87551L69.6408 9.54526L86.1142 9.22598L101.546 8.91773L114.538 8.66455L123.917 8.47738C125.369 8.47738 126.899 8.54345 128.351 8.38932H128.551C128.85 8.37831 129.171 7.83887 129.482 7.83887Z" fill="#BFBFBF"/>
<path d="M157.739 4.46956C157.739 4.46956 152.529 0.847549 140.08 0.275079C127.63 -0.297392 114.039 25.2326 113.141 48.825C112.709 59.9992 108.652 102.912 136.244 111.808C136.962 112.027 137.71 112.139 138.461 112.138C142.197 112.138 153.737 111.973 156.354 110.586C162.229 107.492 184.667 16.1392 157.739 4.46956Z" fill="#F4F4F4"/>
<path d="M158.194 4.19453C157.437 3.70853 156.631 3.30264 155.788 2.98353C153.321 1.97009 150.748 1.23164 148.117 0.781723C146.121 0.434653 144.108 0.192114 142.086 0.0551215C140.761 -0.0973197 139.42 -0.056538 138.106 0.176205C135.95 0.726239 133.926 1.69948 132.153 3.03856C126.943 6.69357 123.285 12.4953 120.558 18.0769C117.061 25.2258 114.665 32.8558 113.452 40.7115C112.822 45.3739 112.452 50.0672 112.343 54.7701C112.166 59.0416 112.099 63.3131 112.254 67.5736C112.4 72.6513 112.952 77.7095 113.906 82.7001C114.832 87.8097 116.505 92.7575 118.873 97.3861C121.158 101.87 124.515 105.729 128.65 108.626C130.898 110.197 133.388 111.394 136.022 112.171C137.402 112.441 138.812 112.519 140.213 112.402C141.621 112.402 143.04 112.402 144.448 112.303C147.416 112.252 150.378 112.013 153.316 111.588C154.706 111.459 156.033 110.952 157.152 110.124C157.606 109.672 157.981 109.147 158.26 108.571C158.747 107.657 159.18 106.716 159.557 105.753C160.695 102.869 161.683 99.9298 162.517 96.9458C163.681 92.9495 164.734 88.9092 165.61 84.8358C166.719 80.1129 167.595 75.346 168.382 70.5241C169.213 65.4709 169.9 60.3957 170.388 55.2985C170.876 50.2013 171.175 45.1702 171.186 40.095C171.242 35.4841 170.975 30.8749 170.388 26.3007C169.897 22.3187 168.906 18.4132 167.439 14.6751C166.251 11.5767 164.354 8.79523 161.897 6.55045C160.798 5.58926 159.556 4.80204 158.216 4.21654C158.017 4.12847 157.451 4.85507 157.263 4.76699C160.039 6.04999 162.389 8.09332 164.036 10.6568C165.949 13.6704 167.335 16.9829 168.138 20.4549C169.145 24.5839 169.769 28.796 170 33.0382C170.272 37.8344 170.272 42.6419 170 47.4381C169.756 52.4912 169.28 57.5224 168.648 62.5425C168.016 67.5626 167.229 72.3846 166.298 77.2616C165.47 81.6652 164.509 86.0688 163.415 90.4725C162.517 94.0944 161.52 97.6944 160.367 101.25C159.625 103.707 158.702 106.106 157.606 108.428C157.31 109.106 156.938 109.748 156.498 110.344C156.365 110.498 156.11 110.652 156.01 110.817C156.01 110.817 157.119 110.256 156.631 110.432L156.354 110.542C156.154 110.616 155.951 110.678 155.744 110.729C155.21 110.867 154.67 110.977 154.125 111.059C151.23 111.467 148.313 111.698 145.39 111.753C143.993 111.808 142.607 111.83 141.222 111.852C139.882 111.959 138.534 111.9 137.209 111.676C134.61 110.976 132.15 109.84 129.936 108.318C127.88 106.943 126.016 105.303 124.393 103.441C121.152 99.6221 118.69 95.2137 117.143 90.4614C115.499 85.5973 114.395 80.5694 113.851 75.4671C113.328 70.7148 113.095 65.9356 113.152 61.1553C113.152 57.5664 113.33 53.9995 113.507 50.4215C113.629 47.8894 113.74 45.3684 114.039 42.8473C114.523 38.8567 115.309 34.908 116.389 31.0346C118.287 23.8395 121.333 16.9931 125.413 10.7559C127.068 8.22264 129.046 5.91346 131.3 3.88628C133.061 2.19984 135.274 1.05317 137.674 0.583568C139.193 0.418381 140.728 0.440565 142.241 0.64962C144.146 0.81053 146.041 1.07143 147.917 1.43125C150.362 1.8838 152.751 2.59231 155.046 3.54497C155.82 3.83777 156.562 4.20657 157.263 4.64588C157.396 4.84404 158.094 4.11747 158.194 4.19453Z" fill="#BFBFBF"/>
<path d="M169.701 5.03096L150.511 4.13923C149.305 4.07804 148.109 4.39793 147.097 5.053C141.975 8.42177 126.766 20.862 125.036 50.9717C123.507 77.3164 126.799 95.6024 139.049 106.876C144.026 111.444 154.868 110.233 164.967 110.916" fill="#F4F4F4"/>
<path d="M170.189 4.75599L160.799 4.31563C157.54 4.16151 154.281 3.96334 151.01 3.86426C149.032 3.96112 147.143 4.713 145.645 6.00002C144.598 6.75091 143.592 7.55567 142.63 8.411C139.757 10.9813 137.221 13.8995 135.08 17.0972C132.013 21.6777 129.624 26.6716 127.985 31.9263C125.826 39.078 124.626 46.4812 124.416 53.9444C123.979 61.4286 124.153 68.9357 124.937 76.3919C125.535 82.4869 127.029 88.4621 129.371 94.1274C131.465 99.0876 134.607 103.544 138.583 107.195C140.878 109.254 144.071 109.98 147.053 110.377C150.853 110.771 154.672 110.962 158.493 110.949C160.478 110.949 162.462 111.059 164.446 111.191C164.757 111.191 165.111 110.619 165.411 110.641C161.442 110.377 157.473 110.41 153.516 110.245C150.106 110.254 146.712 109.776 143.439 108.825C142.085 108.388 140.826 107.705 139.725 106.81C138.738 105.949 137.812 105.022 136.954 104.036C135.201 102.06 133.659 99.9087 132.353 97.6173C129.599 92.5955 127.697 87.1577 126.721 81.5221C125.52 74.6643 124.985 67.7075 125.125 60.748C125.016 52.9905 125.718 45.2426 127.22 37.629C128.481 31.7543 130.575 26.0868 133.439 20.7962C135.51 16.9832 138.07 13.4529 141.055 10.2935C142.938 8.29404 145.035 6.50373 147.308 4.95414C147.388 4.88921 147.473 4.83036 147.563 4.77803C147.285 4.92115 147.829 4.77801 147.906 4.68994C148.17 4.60323 148.441 4.53698 148.716 4.49178C149.172 4.40772 149.638 4.37813 150.101 4.40369L151.21 4.45876L156.653 4.71198L168.448 5.26243H169.18C169.501 5.26243 169.834 4.70097 170.144 4.71198L170.189 4.75599Z" fill="#BFBFBF"/>
<path d="M199.4 59.504C198.014 88.755 181.807 111.775 163.194 110.905C144.581 110.036 132.697 85.7495 134.027 56.4985C135.357 27.2474 149.547 4.09541 168.204 4.96513C186.862 5.83484 200.785 30.2529 199.4 59.504Z" fill="#F4F4F4"/>
<path d="M198.923 59.779C198.551 70.213 196.007 80.4574 191.451 89.8667C189.48 93.8405 186.994 97.5415 184.057 100.876C181.453 103.932 178.275 106.456 174.701 108.307C171.508 109.873 167.983 110.653 164.422 110.58C160.862 110.508 157.372 109.584 154.247 107.889C147.286 104.057 142.663 97.0226 139.703 89.8667C136.007 80.4233 134.225 70.3482 134.459 60.2194C134.384 49.6539 136.263 39.1645 140.002 29.2729C143.04 21.5666 147.607 13.8602 154.513 9.01627C157.469 6.95917 160.902 5.67905 164.491 5.29524C168.05 4.93917 171.642 5.45317 174.956 6.79245C182.372 9.76489 187.826 16.2382 191.496 23.0969C196.027 31.9629 198.551 41.7062 198.89 51.6433C199.023 54.3405 199.023 57.0488 198.89 59.746C198.89 59.5588 199.832 59.4047 199.843 59.1955C200.47 48.5073 198.788 37.8094 194.91 27.8197C191.762 20.1134 186.817 12.4071 179.479 8.00345C176.376 6.07454 172.841 4.93838 169.189 4.69634C165.537 4.45429 161.882 5.11389 158.549 6.6163C151.299 9.91902 145.966 16.018 142.208 22.8877C137.231 31.9812 134.725 42.3297 133.794 52.6121C132.689 63.4217 133.659 74.3414 136.654 84.7916C139.082 92.8172 143.139 100.964 149.902 106.259C152.746 108.535 156.113 110.077 159.703 110.75C163.292 111.422 166.993 111.203 170.477 110.112C177.96 107.734 184.09 102.153 188.458 95.8006C194.245 87.4227 197.559 77.4486 199.045 67.4633C199.444 64.7111 199.71 61.9478 199.843 59.1735C199.865 59.4157 198.934 59.5698 198.923 59.779Z" fill="#BFBFBF"/>
<path d="M177.04 94.6776C176.399 96.483 175.211 98.047 173.639 99.1548C172.066 100.263 170.188 100.86 168.26 100.865C161.475 100.865 157.174 95.2501 157.174 93.2794C157.174 91.3088 161.42 81.4667 166.231 79.2209C171.042 76.975 176.197 88.7767 177.04 94.6776Z" fill="#F4F4F4"/>
<path d="M176.574 94.9531C176.251 95.8707 175.779 96.7297 175.177 97.4962C174.612 98.2558 173.936 98.9274 173.171 99.4889C173.06 99.5659 172.938 99.632 172.827 99.72C172.384 100.061 173.492 99.3897 172.971 99.6319C172.694 99.7641 172.417 99.8962 172.129 100.006C171.506 100.238 170.859 100.401 170.2 100.491C165.577 101.151 160.079 98.5751 158.005 94.2485C157.791 93.6662 157.703 93.0455 157.747 92.427C157.791 91.8085 157.966 91.2063 158.26 90.6596C159.071 88.4886 160.107 86.4076 161.353 84.4505C162.012 83.4096 162.753 82.423 163.57 81.5001C163.937 81.0832 164.329 80.6897 164.746 80.3221C164.927 80.1489 165.12 79.9872 165.322 79.8377L165.666 79.5735C166.242 79.1772 165.854 79.5735 165.555 79.5735C165.987 79.5074 166.342 79.2212 166.808 79.1882C167.183 79.1734 167.557 79.2218 167.916 79.3313C168.758 79.6291 169.517 80.1193 170.133 80.7625C171.946 82.7084 173.362 84.9853 174.302 87.467C175.352 89.8494 176.097 92.3533 176.519 94.9201C176.519 94.799 177.494 94.5127 177.472 94.3696C177.069 91.9192 176.366 89.5271 175.377 87.2468C174.461 84.8371 173.134 82.6025 171.453 80.6413C170.266 79.3423 168.537 78.1313 166.719 78.946C164.764 79.8837 163.071 81.2822 161.786 83.0193C160.192 85.1086 158.873 87.3912 157.861 89.8119C157.473 90.6745 157.15 91.5651 156.897 92.4761C156.696 93.0271 156.665 93.625 156.808 94.1935C157.57 96.128 158.933 97.7708 160.699 98.8833C163.099 100.61 166.056 101.394 169.003 101.085C170.888 100.836 172.67 100.085 174.161 98.9127C175.651 97.7403 176.796 96.1897 177.472 94.4247C177.45 94.6559 176.652 94.6889 176.574 94.9531Z" fill="#BFBFBF"/>
<path d="M179.7 18.4069C182.058 20.0082 184.067 22.0635 185.609 24.4509C190.221 30.9242 192.482 38.8287 193.369 46.6121C194.158 53.9372 194.054 61.33 193.059 68.6302C193.059 68.4211 193.99 68.3 194.023 68.0798C195.42 56.7625 195.409 44.8177 191.606 33.9517C189.879 28.5528 186.872 23.6447 182.838 19.64C182.159 18.9811 181.417 18.3911 180.62 17.8785C180.465 17.7904 179.811 18.517 179.667 18.429L179.7 18.4069Z" fill="#BFBFBF"/>
<path d="M106.833 8.54297C106.833 8.54297 86.4801 46.8545 100.914 99.1145L29.089 87.2907C29.089 87.2907 12.3052 39.3573 37.2149 9.9191L106.833 8.54297Z" fill="#F4F4F4"/>
<path d="M106.357 8.81785C105.625 10.183 105.016 11.6142 104.428 13.0343C102.836 16.9028 101.467 20.8577 100.326 24.8801C98.6028 30.9464 97.3173 37.1272 96.4795 43.3753C95.418 51.2956 95.0471 59.2922 95.3709 67.2759C95.7725 76.8175 97.1316 86.2956 99.4283 95.5692C99.7498 96.8462 100.082 98.1233 100.437 99.3893L101.39 98.8389L95.8476 97.9251L82.0458 95.6572L64.3086 92.7288L46.8153 89.8445L33.9003 87.7197L30.4416 87.1472C30.1312 87.1472 29.7542 87.1473 29.588 86.883C29.4519 86.5914 29.3514 86.2846 29.2886 85.9693C29.1002 85.3858 28.9228 84.8023 28.7565 84.2078C28.2096 82.3363 27.7145 80.4501 27.2711 78.5492C25.8771 72.6311 24.9285 66.6183 24.4331 60.5604C23.7649 52.9294 24.0479 45.2457 25.2756 37.6836C26.5772 29.5404 29.5262 21.7433 33.9447 14.7627C35.1095 12.9807 36.383 11.2711 37.7582 9.64353L36.7937 10.194L43.7001 10.0619L60.3288 9.73162L80.4162 9.33528L97.8319 8.994L103.519 8.8839C104.432 8.92059 105.346 8.90222 106.257 8.82887H106.379C106.701 8.82887 107.011 8.28943 107.332 8.27842L103.696 8.35549L94.2513 8.54263L81.1701 8.79585L66.7586 9.08206L53.2782 9.3463L42.902 9.55547L39.5762 9.62153C39.022 9.62153 38.4677 9.62153 37.8691 9.62153C37.7016 9.63336 37.5405 9.69046 37.4034 9.78666C36.2247 10.6516 35.2395 11.75 34.51 13.0123C32.5538 15.6892 30.8539 18.542 29.4327 21.5333C26.7555 27.3061 24.9441 33.4371 24.0562 39.7313C23.1903 45.6642 22.9155 51.6675 23.2358 57.654C23.4915 62.8555 24.0989 68.0341 25.0539 73.1547C25.708 76.7547 26.5172 80.3216 27.5038 83.8445C27.781 84.8023 28.0581 85.7491 28.3575 86.6959C28.424 86.883 28.5016 87.4335 28.6568 87.5656C29.0146 87.6837 29.3884 87.7468 29.7654 87.7528L32.4703 88.1931L41.7269 89.7234L54.4977 91.8261L68.6321 94.149L82.201 96.3508L93.187 98.1673L99.6057 99.2682L100.459 99.4003C100.795 99.2488 101.114 99.0644 101.413 98.8499C98.806 89.4128 97.168 79.7379 96.5238 69.9731C96.0006 61.8062 96.2046 53.6093 97.1335 45.478C97.866 39.0057 99.0777 32.5957 100.759 26.3002C101.908 21.967 103.319 17.7062 104.982 13.5407C105.47 12.3298 105.98 11.1298 106.523 9.9408C106.689 9.5775 106.856 9.22521 107.033 8.83989C107.033 8.71879 107.299 8.44356 107.299 8.31145C107.295 8.28594 107.295 8.25988 107.299 8.23438C107.199 8.54263 106.501 8.54263 106.357 8.81785Z" fill="#BFBFBF"/>
<path d="M83.9888 52.0715C84.8299 38.8309 75.4118 27.4646 62.9528 26.684C50.4938 25.9034 39.7119 36.0041 38.8707 49.2447C38.0296 62.4852 47.4477 73.8515 59.9067 74.6321C72.3657 75.4127 83.1476 65.312 83.9888 52.0715Z" fill="#F4F4F4"/>
<path d="M83.5534 51.6213C83.1765 61.056 77.3564 70.6008 67.9557 73.4522C63.4812 74.8066 58.6826 74.6635 54.2981 73.0449C50.0296 71.4325 46.3537 68.5728 43.7555 64.8431C41.0178 60.8451 39.4818 56.1561 39.3267 51.3237C39.1716 46.4913 40.4039 41.7147 42.8797 37.5517C45.2333 33.4767 48.8549 30.2702 53.2005 28.4142C57.5707 26.6814 62.3938 26.426 66.9247 27.6876C76.0483 30.2527 82.4448 38.6966 83.4092 47.8782C83.546 49.121 83.5942 50.3718 83.5534 51.6213C83.5534 51.4341 84.5068 51.269 84.5068 51.0708C84.8283 41.1627 79.2077 31.3426 69.6851 27.7316C65.0845 25.9975 60.0231 25.8886 55.3512 27.4233C51.091 28.8528 47.2914 31.3836 44.343 34.7554C41.0669 38.6428 39.0314 43.4114 38.4963 48.4527C37.9612 53.494 38.9508 58.5794 41.3388 63.0597C43.6208 67.2903 47.1796 70.7051 51.5155 72.8247C55.9513 74.9416 60.9865 75.4743 65.7718 74.3329C70.3523 73.1599 74.5031 70.7192 77.7413 67.2948C80.9794 63.8705 83.1718 59.6034 84.0633 54.99C84.3113 53.6967 84.4596 52.3865 84.5068 51.0708C84.4957 51.28 83.5534 51.4451 83.5534 51.6213Z" fill="#BFBFBF"/>
</g>
<defs>
<clipPath id="clip0_4999_817">
<rect width="243" height="163" fill="white"/>
</clipPath>
</defs>
</svg>
