<?xml version="1.0" encoding="utf-8"?>
<!-- Generator: Adobe Illustrator 26.2.1, SVG Export Plug-In . SVG Version: 6.00 Build 0)  -->
<svg version="1.1" id="Layer_1" xmlns="http://www.w3.org/2000/svg" xmlns:xlink="http://www.w3.org/1999/xlink" x="0px" y="0px"
	 viewBox="0 0 454.4 340.1" style="enable-background:new 0 0 454.4 340.1;" xml:space="preserve">
<g>
	<path d="M454.4,276.3c-0.5-9.1-7.8-15.9-17.4-16H177.7c-3.7-11.7-9.7-21.2-18.2-28.7c-11-10-23.2-15.4-36.4-16
		c-32.4-1.5-54.5,13.5-65.7,44.8h-0.2c-4.4,0-8.9,0-13.3,0c-8.8,0-17.9-0.1-26.7,0c-9.8,0-17.1,7.2-17.3,17.1
		c-0.1,4.9,1.6,9.4,4.8,12.6c3.4,3.4,8.2,5.3,13.5,5.3c13.1,0.1,26.4,0.1,39.2,0.1c9,27,27.8,42.3,54.5,44.4
		c2.1,0.2,4.1,0.2,6.1,0.2c14.5,0,27.1-4,37.3-12c9.7-7.6,17.2-18.5,22.2-32.7h255.1c0.4,0,0.8,0,1.2,0c1.4,0,3,0,4.7-0.2
		C448.6,294.1,455,286.3,454.4,276.3z M145,277.6c-0.1,16-11.3,27.3-27.3,27.4c-7.6,0.1-14.3-2.5-19.4-7.6c-5.2-5.2-8.1-12.4-8.1-20
		c0-7.3,3.1-14.5,8.5-19.8c5-4.8,11.4-7.5,18.1-7.5c0.2,0,0.4,0,0.7,0h0.4c7.2,0,14.2,2.9,19.3,8C140.9,261.8,145,268,145,277.6z"/>
</g>
<g>
	<path d="M449.8,50.4c-3.2-3.4-7.9-5.3-13-5.3c-13.4-0.1-26.4-0.1-39.7,0c-8.2-28.1-33.9-46.5-63.3-45.1
		c-25.6,1.2-49.9,20.4-56.4,44.7c0,0.1-0.1,0.2-0.1,0.4H22.1c-0.5,0-1,0-1.5,0c-1.2,0-2.5,0-3.9,0C8.1,45.7,1.2,51.9,0.3,59.8
		c-1.1,9.9,3.9,17.5,13.1,19.8l0,0c2.5,0.6,4.8,0.6,6.6,0.5c0.4,0,0.8,0,1.2,0h255.4c0.2,0,0.3,0,0.5,0c10.1,31.1,35.5,43.7,56.8,45
		c1.2,0.1,2.5,0.1,3.7,0.1c11.9,0,23.1-3.4,33.5-10.1c12.8-8.2,21.6-20,26.2-35c0.1,0,0.2,0,0.3,0c4.2,0,8.4,0,12.6,0
		c8.4,0,17.2,0,25.8,0c10.4-0.2,17.8-6.7,18.3-16.2C454.6,58.7,453,53.9,449.8,50.4z M356.9,43.8c5.1,5.2,7.8,11.8,7.5,18.4l0,0.3
		l0,0.3c0.3,6.9-2.4,13.8-7.4,19c-5.1,5.3-12,8.3-19.6,8.4h-0.1c-15.2,0-27.2-12-27.3-27.4c-0.2-14.7,12.3-27.4,27.1-27.6
		C344.1,35.1,351.5,38.3,356.9,43.8z"/>
</g>
</svg>
