<?xml version="1.0" encoding="utf-8"?>
<!-- Generator: Adobe Illustrator 26.2.1, SVG Export Plug-In . SVG Version: 6.00 Build 0)  -->
<svg version="1.1" id="Layer_1" xmlns="http://www.w3.org/2000/svg" xmlns:xlink="http://www.w3.org/1999/xlink" x="0px" y="0px"
	 viewBox="0 0 439.3 245" style="enable-background:new 0 0 439.3 245;" xml:space="preserve">
<path d="M383.8,65.7c-3.5,15-11.3,27.2-24.4,35.6c-9.9,6.4-20.8,9.5-32.7,8.8c-19.4-1.2-43.5-13.3-51.4-44.4c-2-1.2-4.2-0.6-6.3-0.6
	c-85.1,0-170.3,0-255.4,0c-2,0-4,0.2-6-0.3c-5.5-1.4-8.2-5.6-7.5-11.7c0.5-4.3,4.5-7.7,9.4-8c1.7-0.1,3.3,0,5,0c85,0,170,0,254.9,0
	c6,0,6,0,7.6-5.9c5.8-21.6,27.5-38.2,49.5-39.2c26.7-1.3,49.8,16.2,56.3,41.5c0.9,3.4,2.6,3.6,5.3,3.6c13.7-0.1,27.3-0.1,41,0
	c6.6,0,10.5,4.3,10.1,10.8c-0.3,5.6-4.4,9.1-10.9,9.2c-12.8,0.1-25.7,0-38.5,0C388.1,65.2,386.2,64.9,383.8,65.7z M364.3,54.9
	c0.7-18.8-16.6-35-34.9-34.8c-19.2,0.3-34.7,16.3-34.5,35.2c0.2,18.8,14.9,34.9,35,34.8C350.8,89.9,365,72.5,364.3,54.9z"/>
<path d="M164.4,180.2c2.6,0,4.6,0,6.5,0c84.6,0,169.2,0,253.9,0c1.5,0,3,0,4.5,0c5.7,0.1,9.7,3.8,10,9c0.4,5.9-3.2,10.3-9.2,11
	c-1.6,0.2-3.3,0.1-5,0.1c-84.8,0-169.6,0-254.4,0c-2,0-4,0-6.1,0c-8.8,29.8-28.2,46.8-59.6,44.5c-26.4-2-42.4-18.6-49.4-44
	c-1.7-0.9-3.5-0.4-5.3-0.4c-13.2,0-26.3,0-39.5-0.1c-6.8,0-11-4.2-10.9-10.3c0.1-5.7,4-9.7,9.8-9.7c13.3-0.1,26.7,0,40,0
	c1.8,0,3.6,0,5.6,0c9-29.9,27.9-46.3,59.9-44.8c12.2,0.6,22.7,5.9,31.7,14.1C156.1,157.7,161.5,168,164.4,180.2z M110.2,155.2
	c-19.4-0.5-34.9,16-35,34.7c-0.1,18.2,13.5,35.3,35,35.1c19.8-0.2,34.6-14.6,34.7-34.9C145,168.3,127.4,155.1,110.2,155.2z"/>
</svg>
