<svg width="25" height="25" viewBox="0 0 25 25" fill="none" xmlns="http://www.w3.org/2000/svg">
<path d="M23.4346 20.3125H21.8721V11.2831C21.8719 11.0654 21.8263 10.8502 21.7382 10.6511C21.6502 10.4521 21.5216 10.2736 21.3607 10.127L13.5475 3.02391C13.2606 2.76111 12.8856 2.61535 12.4964 2.61537C12.1073 2.61539 11.7323 2.76118 11.4454 3.02401L3.63343 10.127C3.47252 10.2735 3.34394 10.4521 3.25589 10.6511C3.16785 10.8502 3.12227 11.0654 3.12207 11.2831V20.3125H1.55957C1.35237 20.3125 1.15366 20.3948 1.00714 20.5413C0.86063 20.6878 0.77832 20.8866 0.77832 21.0938C0.77832 21.301 0.86063 21.4997 1.00714 21.6462C1.15366 21.7927 1.35237 21.875 1.55957 21.875H23.4346C23.6418 21.875 23.8405 21.7927 23.987 21.6462C24.1335 21.4997 24.2158 21.301 24.2158 21.0938C24.2158 20.8866 24.1335 20.6878 23.987 20.5413C23.8405 20.3948 23.6418 20.3125 23.4346 20.3125H23.4346ZM14.8403 20.3117H14.059V20.3125H10.934V20.3117H10.1528V15.6242C10.1528 15.417 10.2351 15.2183 10.3816 15.0718C10.5281 14.9253 10.7268 14.8429 10.934 14.8429H14.059C14.2662 14.8429 14.4649 14.9253 14.6114 15.0718C14.7579 15.2183 14.8402 15.417 14.8403 15.6242V20.3117Z" fill="#41413E"/>
</svg>
