<svg width="25" height="25" viewBox="0 0 25 25" fill="none" xmlns="http://www.w3.org/2000/svg">
<path d="M21.0938 21.0939V11.2832C21.0938 11.1744 21.071 11.0667 21.027 10.9672C20.9829 10.8676 20.9186 10.7784 20.838 10.7051L13.025 3.60211C12.8812 3.47136 12.6938 3.39892 12.4994 3.39893C12.3051 3.39893 12.1177 3.47139 11.9739 3.60214L4.16192 10.7051C4.08139 10.7784 4.01705 10.8676 3.97302 10.9672C3.92899 11.0667 3.90625 11.1743 3.90625 11.2832V21.0939" stroke="#666666" stroke-width="1.6" stroke-linecap="round" stroke-linejoin="round"/>
<path d="M1.5625 21.0938H23.4375" stroke="#666666" stroke-width="1.6" stroke-linecap="round" stroke-linejoin="round"/>
<path d="M14.8438 21.093V15.6243C14.8438 15.4171 14.7614 15.2184 14.6149 15.0718C14.4684 14.9253 14.2697 14.843 14.0625 14.843H10.9375C10.7303 14.843 10.5316 14.9253 10.3851 15.0718C10.2386 15.2184 10.1562 15.4171 10.1562 15.6243V21.093" stroke="#666666" stroke-width="1.6" stroke-linecap="round" stroke-linejoin="round"/>
</svg>
