<svg width="25" height="25" viewBox="0 0 25 25" fill="none" xmlns="http://www.w3.org/2000/svg">
<path d="M8.59375 6.25H21.0938" stroke="#9D9B98" stroke-width="2" stroke-linecap="round" stroke-linejoin="round"/>
<path d="M8.59442 12.5H21.0938" stroke="#9D9B98" stroke-width="2" stroke-linecap="round" stroke-linejoin="round"/>
<path d="M8.59442 18.75H21.0938" stroke="#9D9B98" stroke-width="2" stroke-linecap="round" stroke-linejoin="round"/>
<path d="M4.29688 7.42188C4.94408 7.42188 5.46875 6.89721 5.46875 6.25C5.46875 5.60279 4.94408 5.07812 4.29688 5.07812C3.64967 5.07812 3.125 5.60279 3.125 6.25C3.125 6.89721 3.64967 7.42188 4.29688 7.42188Z" fill="#9D9B98"/>
<path d="M4.29688 13.6719C4.94408 13.6719 5.46875 13.1472 5.46875 12.5C5.46875 11.8528 4.94408 11.3281 4.29688 11.3281C3.64967 11.3281 3.125 11.8528 3.125 12.5C3.125 13.1472 3.64967 13.6719 4.29688 13.6719Z" fill="#9D9B98"/>
<path d="M4.29688 19.9219C4.94408 19.9219 5.46875 19.3972 5.46875 18.75C5.46875 18.1028 4.94408 17.5781 4.29688 17.5781C3.64967 17.5781 3.125 18.1028 3.125 18.75C3.125 19.3972 3.64967 19.9219 4.29688 19.9219Z" fill="#9D9B98"/>
</svg>
