<svg width="25" height="25" viewBox="0 0 25 25" fill="none" xmlns="http://www.w3.org/2000/svg">
<path d="M12.5 1.5625C10.2216 1.56508 8.03724 2.47133 6.42616 4.08241C4.81507 5.69349 3.90883 7.87784 3.90625 10.1562C3.90625 17.5098 11.7188 23.0664 12.0508 23.3008C12.1838 23.3894 12.3401 23.4367 12.5 23.4367C12.6599 23.4367 12.8162 23.3894 12.9492 23.3008C13.2813 23.0664 21.0938 17.5098 21.0938 10.1562C21.0912 7.87784 20.1849 5.69349 18.5738 4.08241C16.9628 2.47133 14.7784 1.56508 12.5 1.5625ZM12.5 7.03125C13.1181 7.03125 13.7223 7.21453 14.2362 7.55791C14.7501 7.90129 15.1506 8.38934 15.3871 8.96036C15.6236 9.53138 15.6855 10.1597 15.565 10.7659C15.4444 11.3721 15.1467 11.9289 14.7097 12.366C14.2727 12.803 13.7158 13.1006 13.1097 13.2212C12.5035 13.3418 11.8751 13.2799 11.3041 13.0434C10.7331 12.8069 10.245 12.4063 9.90166 11.8924C9.55828 11.3785 9.375 10.7743 9.375 10.1562C9.375 9.32745 9.70424 8.53259 10.2903 7.94654C10.8763 7.36049 11.6712 7.03125 12.5 7.03125Z" fill="#41413E"/>
</svg>
