<svg width="26" height="26" viewBox="0 0 26 26" fill="none" xmlns="http://www.w3.org/2000/svg">
<path d="M4.875 4.0625L21.125 21.9375" stroke="#999999" stroke-width="2" stroke-linecap="round" stroke-linejoin="round"/>
<path d="M10.8804 5.8371C11.5823 5.73763 12.2903 5.68781 12.9992 5.68802C16.9127 5.67944 20.6707 7.21934 23.4529 9.97159" stroke="#999999" stroke-width="2" stroke-linecap="round" stroke-linejoin="round"/>
<path d="M2.54553 9.97118C3.92518 8.60634 5.55951 7.52583 7.35569 6.79102" stroke="#999999" stroke-width="2" stroke-linecap="round" stroke-linejoin="round"/>
<path d="M15.4496 10.8628C17.1699 11.2928 18.7439 12.1751 20.0084 13.4183" stroke="#999999" stroke-width="2" stroke-linecap="round" stroke-linejoin="round"/>
<path d="M5.98999 13.4184C7.35925 12.0723 9.08898 11.1514 10.9702 10.7671" stroke="#999999" stroke-width="2" stroke-linecap="round" stroke-linejoin="round"/>
<path d="M9.43719 16.8658C10.3531 15.9915 11.5585 15.4844 12.824 15.441C14.0895 15.3976 15.3267 15.821 16.3004 16.6305" stroke="#999999" stroke-width="2" stroke-linecap="round" stroke-linejoin="round"/>
<path d="M13 21.5312C13.6731 21.5312 14.2188 20.9856 14.2188 20.3125C14.2188 19.6394 13.6731 19.0938 13 19.0938C12.3269 19.0938 11.7812 19.6394 11.7812 20.3125C11.7812 20.9856 12.3269 21.5312 13 21.5312Z" fill="#999999"/>
</svg>
