<svg width="80" height="80" viewBox="0 0 80 80" fill="none" xmlns="http://www.w3.org/2000/svg">
<path d="M40 80C62.0914 80 80 62.0914 80 40C80 17.9086 62.0914 0 40 0C17.9086 0 0 17.9086 0 40C0 62.0914 17.9086 80 40 80Z" fill="#FF891D"/>
<path d="M62.6991 29.8565L34.4881 58.0693C34.2875 58.28 34.0462 58.4476 33.7788 58.5622C33.5115 58.6768 33.2237 58.7358 32.9328 58.7358C32.642 58.7358 32.3542 58.6768 32.0868 58.5622C31.8195 58.4476 31.5782 58.28 31.3776 58.0693L17.3079 43.9997C16.8957 43.5872 16.6642 43.0279 16.6644 42.4447C16.6645 41.8615 16.8963 41.3023 17.3088 40.8901C17.7213 40.4779 18.2806 40.2464 18.8638 40.2465C19.4469 40.2467 20.0062 40.4785 20.4184 40.891L32.932 53.4045L59.5152 26.8213C59.7156 26.6105 59.9569 26.4426 60.2242 26.3279C60.4916 26.2132 60.7795 26.154 61.0704 26.154C61.3613 26.154 61.6492 26.2132 61.9166 26.3279C62.1839 26.4426 62.4252 26.6105 62.6256 26.8213C63.5883 27.5617 63.5883 28.9725 62.6991 29.8565Z" fill="white"/>
</svg>
