<svg width="25" height="25" viewBox="0 0 25 25" fill="none" xmlns="http://www.w3.org/2000/svg">
<path d="M13 1C10.8244 1 8.69767 1.64514 6.88873 2.85383C5.07979 4.06253 3.66989 5.78049 2.83733 7.79048C2.00477 9.80047 1.78693 12.0122 2.21137 14.146C2.6358 16.2798 3.68345 18.2398 5.22183 19.7782C6.76021 21.3165 8.72022 22.3642 10.854 22.7886C12.9878 23.2131 15.1995 22.9952 17.2095 22.1627C19.2195 21.3301 20.9375 19.9202 22.1462 18.1113C23.3549 16.3023 24 14.1756 24 12C23.9966 9.08365 22.8366 6.28772 20.7745 4.22555C18.7123 2.16338 15.9163 1.00337 13 1Z" fill="#41413E"/>
<path d="M17.4733 9.11048L10.1099 16.4776C10.0317 16.5532 9.92722 16.5955 9.81845 16.5955C9.70969 16.5955 9.60518 16.5532 9.52698 16.4776C9.45017 16.4 9.40707 16.2952 9.40707 16.186C9.40707 16.0767 9.45017 15.9719 9.52698 15.8943L16.8904 8.52725C16.9699 8.46199 17.0708 8.42863 17.1735 8.43368C17.2762 8.43872 17.3733 8.48181 17.446 8.55455C17.5187 8.6273 17.5618 8.7245 17.5668 8.82725C17.5719 8.93 17.5385 9.03096 17.4733 9.11048ZM9.53721 11.1467C9.1931 10.7998 9 10.3308 9 9.84207C9 9.35332 9.1931 8.88439 9.53721 8.53748C9.88394 8.1932 10.3526 8 10.8411 8C11.3296 8 11.7983 8.1932 12.1451 8.53748C12.4653 8.88851 12.6379 9.34952 12.6271 9.82464C12.6163 10.2998 12.4228 10.7524 12.0869 11.0885C11.751 11.4245 11.2986 11.6181 10.8237 11.6289C10.3488 11.6398 9.88806 11.467 9.53721 11.1467ZM9.81845 9.84207C9.81817 9.97636 9.84472 10.1093 9.89652 10.2332C9.94833 10.3571 10.0244 10.4694 10.1201 10.5634C10.2147 10.6584 10.3271 10.7338 10.4508 10.7852C10.5745 10.8366 10.7072 10.8631 10.8411 10.8631C10.9751 10.8631 11.1078 10.8366 11.2315 10.7852C11.3552 10.7338 11.4676 10.6584 11.5621 10.5634C11.6577 10.4692 11.7336 10.3569 11.7853 10.233C11.8371 10.1092 11.8638 9.97631 11.8638 9.84207C11.8638 9.70783 11.8371 9.57493 11.7853 9.4511C11.7336 9.32726 11.6577 9.21495 11.5621 9.12071C11.4679 9.02512 11.3557 8.94921 11.2319 8.8974C11.1081 8.84558 10.9753 8.8189 10.8411 8.8189C10.707 8.8189 10.5741 8.84558 10.4504 8.8974C10.3266 8.94921 10.2143 9.02512 10.1201 9.12071C10.0244 9.21478 9.94833 9.32705 9.89652 9.45092C9.84472 9.5748 9.81817 9.70779 9.81845 9.84207ZM18 15.1628C17.9992 15.4653 17.924 15.763 17.7809 16.0296C17.6379 16.2961 17.4314 16.5233 17.1797 16.691C16.928 16.8588 16.6389 16.9619 16.338 16.9913C16.037 17.0207 15.7334 16.9754 15.4541 16.8595C15.1747 16.7437 14.9282 16.5607 14.7363 16.3269C14.5445 16.093 14.4131 15.8155 14.3539 15.5188C14.2947 15.2221 14.3095 14.9154 14.3969 14.6257C14.4844 14.3361 14.6418 14.0725 14.8552 13.8582C15.2019 13.5139 15.6706 13.3207 16.1591 13.3207C16.6476 13.3207 17.1163 13.5139 17.4631 13.8582C17.6341 14.0295 17.7696 14.2329 17.8617 14.4568C17.9539 14.6807 18.0009 14.9206 18 15.1628ZM17.1818 15.1628C17.1821 15.0285 17.1556 14.8955 17.1038 14.7716C17.052 14.6477 16.9759 14.5355 16.8801 14.4414C16.7859 14.3458 16.6737 14.2699 16.5499 14.2181C16.4261 14.1663 16.2933 14.1396 16.1591 14.1396C16.025 14.1396 15.8921 14.1663 15.7684 14.2181C15.6446 14.2699 15.5323 14.3458 15.4381 14.4414C15.3214 14.5603 15.2357 14.7061 15.1885 14.866C15.1412 15.0258 15.1339 15.1948 15.1673 15.3582C15.2006 15.5215 15.2734 15.6741 15.3795 15.8027C15.4855 15.9312 15.6215 16.0318 15.7755 16.0955C15.9294 16.1591 16.0967 16.184 16.2625 16.168C16.4283 16.1519 16.5876 16.0953 16.7265 16.0032C16.8654 15.9111 16.9795 15.7863 17.0589 15.6398C17.1383 15.4932 17.1805 15.3294 17.1818 15.1628Z" fill="white"/>
</svg>
