<svg width="25" height="25" viewBox="0 0 25 25" fill="none" xmlns="http://www.w3.org/2000/svg">
<path d="M21.6769 15.4714L17.1029 13.5111C16.8641 13.4083 16.6034 13.3669 16.3444 13.3907C16.0855 13.4145 15.8367 13.5027 15.6206 13.6473L13.175 15.2775C11.6803 14.5505 10.4706 13.3461 9.73701 11.8546L9.7372 11.8545L11.3617 9.37223C11.5031 9.15674 11.5889 8.90956 11.6114 8.6528C11.6339 8.39604 11.5924 8.13771 11.4906 7.9009L9.52854 3.32298C9.39498 3.01223 9.16436 2.75311 8.8712 2.5844C8.57804 2.4157 8.23812 2.34649 7.90234 2.38714C6.58287 2.55679 5.37029 3.201 4.49113 4.19942C3.61196 5.19784 3.12635 6.48217 3.125 7.8125C3.125 15.5666 9.43336 21.875 17.1875 21.875C18.5178 21.8736 19.8022 21.388 20.8006 20.5088C21.799 19.6297 22.4432 18.4171 22.6129 17.0976C22.6534 16.7618 22.5841 16.4219 22.4154 16.1288C22.2467 15.8356 21.9876 15.605 21.6769 15.4714Z" fill="#41413E"/>
</svg>
