<svg width="110" height="21" viewBox="0 0 110 21" fill="none" xmlns="http://www.w3.org/2000/svg">
<path d="M10.4453 12.7119V15.7733C10.4453 17.279 9.99112 18.3741 9.08267 19.0586C8.17423 19.743 7.02934 20.0853 5.648 20.0853C3.86845 20.0853 2.57422 19.5066 1.76533 18.3493C2.53689 18.7101 3.55111 18.8906 4.808 18.8906C5.48 18.8906 6.08356 18.7101 6.61867 18.3493C7.16623 18.0008 7.44 17.4408 7.44 16.6693V16.0159C6.74312 16.3146 5.95289 16.4639 5.06934 16.4639C3.99911 16.4639 3.17156 16.2088 2.58667 15.6986C2.00178 15.1759 1.70933 14.4355 1.70933 13.4772V9.03458C1.70933 8.18836 1.31733 7.6968 0.533333 7.55991L4.62134 7.54125V13.3839C4.62134 14.7155 5.16889 15.3813 6.264 15.3813C6.69956 15.3813 7.09156 15.2879 7.44 15.1013L7.53334 7.54125H10.4453V12.7119ZM7.45867 4.36791L4.11734 5.82391H4.024L6.56267 2.93058C6.91112 2.55724 7.27823 2.37058 7.664 2.37058C7.87556 2.37058 8.06223 2.45769 8.22401 2.63191C8.38578 2.79369 8.46667 2.98035 8.46667 3.19191C8.46667 3.70213 8.13067 4.09413 7.45867 4.36791ZM21.7476 11.8346C21.7476 13.3155 21.256 14.4915 20.2729 15.3626C19.3022 16.2213 18.064 16.6506 16.5582 16.6506C15.0773 16.6506 13.8889 16.2337 12.9929 15.3999C12.1093 14.5537 11.6676 13.3964 11.6676 11.9279C11.6676 10.4719 12.1467 9.31458 13.1049 8.45591C14.0631 7.5848 15.2827 7.14925 16.7636 7.14925C18.2445 7.14925 19.4454 7.56613 20.3662 8.39991C21.2871 9.22125 21.7476 10.3661 21.7476 11.8346ZM16.7076 15.9413C17.952 15.9413 18.5742 14.591 18.5742 11.8906C18.5742 9.19014 17.9831 7.83991 16.8009 7.83991C16.4027 7.83991 16.0667 7.97058 15.7929 8.23191C15.5191 8.49325 15.32 8.84169 15.1956 9.27725C15.0836 9.7128 15.0027 10.1172 14.9529 10.4906C14.9156 10.8515 14.8969 11.231 14.8969 11.6292C14.8969 11.9528 14.8969 12.2141 14.8969 12.4132C14.9093 12.5999 14.928 12.8924 14.9529 13.2906C14.9902 13.6888 15.0462 14.0186 15.1209 14.2799C15.1956 14.5288 15.2951 14.7964 15.4196 15.0826C15.544 15.3688 15.7182 15.5866 15.9422 15.7359C16.1662 15.8728 16.4214 15.9413 16.7076 15.9413ZM28.6787 13.4586V10.0986C28.6787 8.89147 28.2059 8.28791 27.2601 8.28791C26.725 8.28791 26.2894 8.60525 25.9534 9.23991C25.6299 9.87458 25.4681 10.8266 25.4681 12.0959C25.4681 14.311 26.0219 15.4186 27.1294 15.4186C27.5774 15.4186 27.9445 15.2568 28.2307 14.9333C28.5294 14.5973 28.6787 14.1057 28.6787 13.4586ZM28.8841 15.5493H28.8467C28.237 16.2337 27.3285 16.5759 26.1214 16.5759C24.9143 16.5759 23.9747 16.1964 23.3027 15.4373C22.6432 14.6657 22.3134 13.5644 22.3134 12.1332C22.3134 10.7892 22.7054 9.6568 23.4894 8.73591C24.2859 7.81502 25.3499 7.35458 26.6814 7.35458C27.565 7.35458 28.2183 7.5288 28.6414 7.87725H28.6787V5.43191C28.6787 4.62302 28.293 4.13146 27.5214 3.95724H31.5908V13.9999C31.5908 14.4106 31.709 14.7341 31.9454 14.9706C32.1943 15.207 32.5116 15.3253 32.8974 15.3253C33.1214 15.3253 33.3952 15.2879 33.7188 15.2133C33.5072 15.6488 33.1401 15.9786 32.6174 16.2026C32.1072 16.4141 31.5721 16.5199 31.0121 16.5199C29.9543 16.5199 29.245 16.1964 28.8841 15.5493ZM39.0316 13.6452L39.0503 9.70658C39.0503 9.14658 38.9196 8.72969 38.6583 8.45591C38.3969 8.18213 38.0796 8.04525 37.7063 8.04525C36.4867 8.04525 35.8769 9.38302 35.8769 12.0586C35.8769 14.2986 36.4369 15.4186 37.5569 15.4186C38.0174 15.4186 38.3783 15.263 38.6396 14.9519C38.9134 14.6408 39.0441 14.2053 39.0316 13.6452ZM39.3303 15.5493H39.2929C38.6085 16.2337 37.6441 16.5759 36.3996 16.5759C35.2547 16.5759 34.3525 16.2026 33.6929 15.4559C33.0458 14.6968 32.7223 13.6141 32.7223 12.2079C32.7223 10.727 33.1578 9.52614 34.0289 8.60525C34.9125 7.67191 36.1694 7.20525 37.7996 7.20525C39.4423 7.20525 40.8361 7.6408 41.9809 8.51191V14.0746C41.9809 14.4853 42.0992 14.8026 42.3356 15.0266C42.5721 15.2506 42.8956 15.3626 43.3063 15.3626C43.6423 15.3626 43.9098 15.3253 44.1089 15.2506C43.9223 15.6613 43.5801 15.9786 43.0823 16.2026C42.5969 16.4266 42.0805 16.5386 41.5329 16.5386C40.4876 16.5386 39.7534 16.2088 39.3303 15.5493Z" fill="#FF7910"/>
<path d="M51.5225 7.62597C51.306 7.58609 51.0753 7.56615 50.8303 7.56615C50.1923 7.56615 49.6511 7.7456 49.2068 8.10449C48.7682 8.45768 48.4548 8.97322 48.2668 9.65112V16H47.25V6.75439H48.2498L48.2668 8.22411C48.808 7.13036 49.6768 6.58349 50.8731 6.58349C51.1579 6.58349 51.3829 6.62052 51.5481 6.69457L51.5225 7.62597ZM56.5554 16.1709C55.7693 16.1709 55.0572 15.9772 54.4192 15.5898C53.7869 15.2025 53.2941 14.6641 52.9409 13.9749C52.5877 13.2799 52.4111 12.5023 52.4111 11.6421V11.2747C52.4111 10.386 52.582 9.58561 52.9238 8.87353C53.2713 8.16145 53.7527 7.60318 54.3679 7.19872C54.9832 6.78857 55.6497 6.58349 56.3674 6.58349C57.4897 6.58349 58.3783 6.96801 59.0335 7.73705C59.6943 8.5004 60.0247 9.54573 60.0247 10.873V11.4456H53.428V11.6421C53.428 12.6903 53.7271 13.5647 54.3252 14.2654C54.929 14.9604 55.6867 15.3079 56.5982 15.3079C57.145 15.3079 57.6264 15.2082 58.0422 15.0088C58.4638 14.8094 58.8455 14.4904 59.1873 14.0518L59.8281 14.5388C59.0762 15.6269 57.9853 16.1709 56.5554 16.1709ZM56.3674 7.45507C55.5984 7.45507 54.949 7.73705 54.4192 8.30102C53.8951 8.86498 53.5761 9.62263 53.4622 10.574H59.0078V10.4629C58.9793 9.57421 58.7258 8.85074 58.2473 8.29247C57.7688 7.73421 57.1422 7.45507 56.3674 7.45507ZM67.5528 13.6501C67.5528 13.1431 67.3477 12.7358 66.9375 12.4282C66.5331 12.1206 65.9207 11.8813 65.1004 11.7104C64.28 11.5339 63.642 11.3345 63.1863 11.1123C62.7363 10.8844 62.4002 10.6081 62.178 10.2834C61.9615 9.95873 61.8533 9.56567 61.8533 9.10424C61.8533 8.37507 62.1581 7.77408 62.7676 7.30126C63.3771 6.82275 64.1576 6.58349 65.1089 6.58349C66.14 6.58349 66.966 6.83984 67.5869 7.35253C68.2136 7.85953 68.5269 8.52319 68.5269 9.3435H67.5015C67.5015 8.80232 67.2736 8.35229 66.8179 7.9934C66.3679 7.63451 65.7982 7.45507 65.1089 7.45507C64.4367 7.45507 63.8955 7.60603 63.4854 7.90795C63.0809 8.20418 62.8787 8.59155 62.8787 9.07006C62.8787 9.53149 63.0467 9.89038 63.3828 10.1467C63.7246 10.3974 64.3427 10.6281 65.2371 10.8389C66.1371 11.0496 66.8093 11.2747 67.2537 11.5139C67.7037 11.7532 68.037 12.0408 68.2534 12.3769C68.4699 12.7131 68.5781 13.1204 68.5781 13.5989C68.5781 14.3793 68.262 15.0031 67.6297 15.4702C67.003 15.9373 66.1827 16.1709 65.1687 16.1709C64.0921 16.1709 63.2176 15.9117 62.5454 15.3933C61.8789 14.8692 61.5457 14.2084 61.5457 13.4109H62.5711C62.6109 14.009 62.8616 14.4762 63.323 14.8123C63.7901 15.1427 64.4054 15.3079 65.1687 15.3079C65.8808 15.3079 66.4562 15.1512 66.8948 14.8379C67.3334 14.5246 67.5528 14.1287 67.5528 13.6501ZM72.4746 4.38744V6.75439H74.3887V7.59179H72.4746V13.7527C72.4746 14.2654 72.5658 14.6471 72.7481 14.8977C72.9361 15.1484 73.2465 15.2737 73.6795 15.2737C73.8504 15.2737 74.1267 15.2452 74.5083 15.1882L74.551 16.0256C74.2833 16.1225 73.9187 16.1709 73.4573 16.1709C72.7566 16.1709 72.2468 15.9687 71.9278 15.5642C71.6087 15.1541 71.4492 14.5531 71.4492 13.7612V7.59179H69.7488V6.75439H71.4492V4.38744H72.4746ZM75.773 11.2405C75.773 10.3518 75.9439 9.55143 76.2857 8.83935C76.6332 8.12727 77.1202 7.5747 77.7469 7.18163C78.3792 6.78287 79.0941 6.58349 79.8916 6.58349C81.1221 6.58349 82.119 7.01643 82.8824 7.88232C83.6457 8.74251 84.0274 9.88468 84.0274 11.3088V11.5225C84.0274 12.4168 83.8536 13.2229 83.5061 13.9407C83.1643 14.6527 82.6801 15.2025 82.0535 15.5898C81.4269 15.9772 80.7119 16.1709 79.9087 16.1709C78.6839 16.1709 77.687 15.7408 76.918 14.8806C76.1546 14.0147 75.773 12.8697 75.773 11.4456V11.2405ZM76.7984 11.5225C76.7984 12.6276 77.0832 13.5362 77.6529 14.2483C78.2282 14.9547 78.9802 15.3079 79.9087 15.3079C80.8316 15.3079 81.5778 14.9547 82.1475 14.2483C82.7229 13.5362 83.0105 12.5991 83.0105 11.437V11.2405C83.0105 10.5341 82.8795 9.88753 82.6175 9.30078C82.3554 8.71402 81.988 8.26114 81.5152 7.94213C81.0423 7.61742 80.5012 7.45507 79.8916 7.45507C78.9802 7.45507 78.2368 7.81396 77.6614 8.53173C77.086 9.24381 76.7984 10.1781 76.7984 11.3345V11.5225ZM90.419 7.62597C90.2025 7.58609 89.9718 7.56615 89.7268 7.56615C89.0888 7.56615 88.5476 7.7456 88.1033 8.10449C87.6647 8.45768 87.3514 8.97322 87.1634 9.65112V16H86.1465V6.75439H87.1463L87.1634 8.22411C87.7045 7.13036 88.5733 6.58349 89.7696 6.58349C90.0544 6.58349 90.2794 6.62052 90.4446 6.69457L90.419 7.62597ZM97.5369 16C97.4344 15.7095 97.3689 15.2794 97.3404 14.7097C96.9815 15.1768 96.5229 15.5386 95.9646 15.7949C95.4121 16.0456 94.8253 16.1709 94.2044 16.1709C93.3157 16.1709 92.5951 15.9231 92.0425 15.4275C91.4956 14.9319 91.2222 14.3053 91.2222 13.5476C91.2222 12.6475 91.5953 11.9355 92.3416 11.4114C93.0935 10.8873 94.1389 10.6252 95.4776 10.6252H97.3318V9.57421C97.3318 8.91341 97.1268 8.39501 96.7166 8.01904C96.3121 7.63736 95.7197 7.44653 94.9393 7.44653C94.2272 7.44653 93.6376 7.62882 93.1705 7.9934C92.7033 8.35798 92.4698 8.79662 92.4698 9.30932L91.4444 9.30078C91.4444 8.56591 91.7862 7.93074 92.4698 7.39526C93.1534 6.85408 93.9936 6.58349 94.9905 6.58349C96.0216 6.58349 96.8334 6.84268 97.4258 7.36108C98.024 7.87377 98.3316 8.59155 98.3487 9.5144V13.8894C98.3487 14.7838 98.4427 15.4531 98.6307 15.8975V16H97.5369ZM94.324 15.2651C95.0076 15.2651 95.6171 15.0999 96.1526 14.7695C96.6938 14.4391 97.0869 13.9976 97.3318 13.4451V11.4114H95.5032C94.4835 11.4228 93.686 11.6108 93.1106 11.9753C92.5353 12.3342 92.2476 12.8298 92.2476 13.4622C92.2476 13.9805 92.4384 14.4106 92.8201 14.7524C93.2075 15.0942 93.7088 15.2651 94.324 15.2651ZM102.057 6.75439L102.091 8.3352C102.439 7.76554 102.872 7.33259 103.39 7.03637C103.909 6.73445 104.481 6.58349 105.108 6.58349C106.099 6.58349 106.837 6.86262 107.321 7.42089C107.805 7.97916 108.05 8.81656 108.056 9.9331V16H107.039V9.92456C107.033 9.09855 106.857 8.48331 106.509 8.07885C106.167 7.67439 105.618 7.47216 104.86 7.47216C104.228 7.47216 103.666 7.67154 103.177 8.07031C102.692 8.46337 102.333 8.99601 102.1 9.66821V16H101.083V6.75439H102.057Z" fill="#FF7910"/>
</svg>
