<svg width="25" height="25" viewBox="0 0 25 25" fill="none" xmlns="http://www.w3.org/2000/svg">
<path d="M5.5 8C6.88071 8 8 6.88071 8 5.5C8 4.11929 6.88071 3 5.5 3C4.11929 3 3 4.11929 3 5.5C3 6.88071 4.11929 8 5.5 8Z" fill="#20201F"/>
<path d="M5.5 15C6.88071 15 8 13.8807 8 12.5C8 11.1193 6.88071 10 5.5 10C4.11929 10 3 11.1193 3 12.5C3 13.8807 4.11929 15 5.5 15Z" fill="#20201F"/>
<path d="M19.5 8C20.8807 8 22 6.88071 22 5.5C22 4.11929 20.8807 3 19.5 3C18.1193 3 17 4.11929 17 5.5C17 6.88071 18.1193 8 19.5 8Z" fill="#20201F"/>
<path d="M12.5 8C13.8807 8 15 6.88071 15 5.5C15 4.11929 13.8807 3 12.5 3C11.1193 3 10 4.11929 10 5.5C10 6.88071 11.1193 8 12.5 8Z" fill="#20201F"/>
<path d="M12.5 15C13.8807 15 15 13.8807 15 12.5C15 11.1193 13.8807 10 12.5 10C11.1193 10 10 11.1193 10 12.5C10 13.8807 11.1193 15 12.5 15Z" fill="#20201F"/>
<path d="M12.5 22C13.8807 22 15 20.8807 15 19.5C15 18.1193 13.8807 17 12.5 17C11.1193 17 10 18.1193 10 19.5C10 20.8807 11.1193 22 12.5 22Z" fill="#20201F"/>
<path d="M19.5 15C20.8807 15 22 13.8807 22 12.5C22 11.1193 20.8807 10 19.5 10C18.1193 10 17 11.1193 17 12.5C17 13.8807 18.1193 15 19.5 15Z" fill="#20201F"/>
<path d="M5.5 22C6.88071 22 8 20.8807 8 19.5C8 18.1193 6.88071 17 5.5 17C4.11929 17 3 18.1193 3 19.5C3 20.8807 4.11929 22 5.5 22Z" fill="#20201F"/>
<path d="M19.5 22C20.8807 22 22 20.8807 22 19.5C22 18.1193 20.8807 17 19.5 17C18.1193 17 17 18.1193 17 19.5C17 20.8807 18.1193 22 19.5 22Z" fill="#20201F"/>
</svg>
