<svg width="22" height="22" viewBox="0 0 22 22" fill="none" xmlns="http://www.w3.org/2000/svg">
<path d="M20.5534 8.37128C20.4675 8.10179 20.3025 7.86443 20.0797 7.69018C19.8569 7.51592 19.5868 7.41285 19.3046 7.39441L14.2007 7.03723L12.3074 2.26971C12.2049 2.00614 12.0252 1.77967 11.7919 1.61997C11.5585 1.46028 11.2823 1.3748 10.9995 1.37476H10.9982C10.7158 1.37526 10.4402 1.46095 10.2074 1.62062C9.9745 1.7803 9.79524 2.00652 9.69302 2.26971L7.77151 7.06475L2.69583 7.39441C2.4136 7.41284 2.14348 7.51591 1.92072 7.69017C1.69795 7.86443 1.53288 8.10179 1.44705 8.37128C1.35649 8.64459 1.35033 8.93883 1.42937 9.21569C1.5084 9.49256 1.66897 9.73921 1.89016 9.92352L5.79495 13.2241L4.63345 17.7928C4.55339 18.1006 4.56811 18.4254 4.67569 18.7246C4.78326 19.0238 4.97868 19.2836 5.23635 19.47C5.48513 19.651 5.78263 19.7529 6.09014 19.7625C6.39764 19.772 6.70091 19.6888 6.96047 19.5237L10.9888 16.9717C10.9942 16.9677 10.9995 16.965 11.0116 16.9717L15.3461 19.7177C15.5814 19.8681 15.8566 19.9439 16.1357 19.9353C16.4148 19.9266 16.6848 19.834 16.9104 19.6694C17.1439 19.5006 17.321 19.2653 17.4185 18.9942C17.516 18.7231 17.5294 18.4289 17.4569 18.15L16.2229 13.1589L20.1103 9.92352C20.3314 9.73921 20.492 9.49256 20.571 9.21569C20.6501 8.93883 20.6439 8.64459 20.5534 8.37128Z" fill="#41413E"/>
</svg>
