<svg width="120" height="120" viewBox="0 0 120 120" fill="none" xmlns="http://www.w3.org/2000/svg">
<path d="M61.8071 92.1153L85.3275 107.613C88.334 109.594 92.0667 106.648 91.1746 102.998L84.379 75.1964C84.1877 74.4221 84.2103 73.6073 84.4444 72.8458C84.6785 72.0842 85.1145 71.4069 85.7023 70.8916L106.794 52.6345C109.565 50.2356 108.135 45.4523 104.574 45.212L77.03 43.3528C76.2881 43.2977 75.5766 43.0245 74.9782 42.5651C74.3798 42.1057 73.9192 41.4789 73.65 40.7578L63.3772 13.8534C63.0979 13.088 62.6014 12.429 61.9536 11.964C61.3057 11.499 60.5372 11.25 59.75 11.25C58.9628 11.25 58.1943 11.499 57.5465 11.964C56.8986 12.429 56.4021 13.088 56.1228 13.8534L45.85 40.7578C45.5809 41.4789 45.1203 42.1057 44.5219 42.5651C43.9235 43.0245 43.2119 43.2977 42.47 43.3528L14.9258 45.212C11.3652 45.4523 9.93476 50.2356 12.7061 52.6345L33.7977 70.8916C34.3855 71.4069 34.8215 72.0842 35.0556 72.8458C35.2897 73.6073 35.3123 74.4221 35.121 75.1964L28.8189 100.979C27.7483 105.359 32.2276 108.894 35.8354 106.517L57.6929 92.1153C58.3077 91.7084 59.0213 91.4922 59.75 91.4922C60.4787 91.4922 61.1923 91.7084 61.8071 92.1153Z" fill="#FF7910"/>
</svg>
