<svg width="183" height="27" viewBox="0 0 183 27" fill="none" xmlns="http://www.w3.org/2000/svg">
<g clip-path="url(#clip0_3687_453)">
<path d="M14.9 15.4V20C14.9 22.3 14.2 23.9 12.9 24.9C11.5 25.9 9.8 26.4 7.7 26.4C5 26.4 3.1 25.5 1.9 23.8C3.1 24.3 4.6 24.6 6.5 24.6C7.5 24.6 8.4 24.3 9.2 23.8C10 23.3 10.4 22.4 10.4 21.3V20.3C9.4 20.7 8.2 21 6.8 21C5.2 21 4 20.6 3.1 19.9C2.2 19.1 1.8 18 1.8 16.6V9.9C1.8 8.6 1.2 7.9 0 7.7H6.1V16.5C6.1 18.5 6.9 19.5 8.6 19.5C9.3 19.5 9.8 19.4 10.4 19.1L10.5 7.8H14.9V15.4ZM10.4 2.9L5.4 5.1H5.2L9 0.8C9.5 0.2 10.1 0 10.7 0C11 0 11.3 0.1 11.5 0.4C11.7 0.6 11.9 0.9 11.9 1.2C11.9 1.9 11.4 2.4 10.4 2.9Z" fill="#41413E"/>
<path d="M31.8 14.1C31.8 16.3 31.1 18.1 29.6 19.4C28.1 20.7 26.3 21.3 24 21.3C21.8 21.3 20 20.7 18.7 19.4C17.4 18.1 16.7 16.4 16.7 14.2C16.7 12 17.4 10.3 18.9 9C20.3 7.7 22.2 7 24.4 7C26.6 7 28.4 7.6 29.8 8.9C31.1 10.1 31.8 11.8 31.8 14.1ZM24.3 20.2C26.2 20.2 27.1 18.2 27.1 14.1C27.1 10 26.2 8 24.4 8C23.8 8 23.3 8.2 22.9 8.6C22.5 9 22.2 9.5 22 10.2C21.8 10.9 21.7 11.5 21.6 12C21.5 12.5 21.5 13.1 21.5 13.7C21.5 14.2 21.5 14.6 21.5 14.9C21.5 15.2 21.5 15.6 21.6 16.2C21.7 16.8 21.7 17.3 21.9 17.7C22 18.1 22.2 18.5 22.3 18.9C22.5 19.3 22.7 19.7 23.1 19.9C23.4 20.1 23.8 20.2 24.3 20.2Z" fill="#41413E"/>
<path d="M42.2 16.5V11.5C42.2 9.70001 41.5 8.80001 40.1 8.80001C39.3 8.80001 38.6 9.30001 38.1 10.2C37.6 11.2 37.4 12.6 37.4 14.5C37.4 17.8 38.2 19.5 39.9 19.5C40.6 19.5 41.1 19.3 41.6 18.8C42 18.2 42.2 17.5 42.2 16.5ZM42.5 19.6C41.5 20.6 40.2 21.1 38.4 21.1C36.6 21.1 35.2 20.5 34.2 19.4C33.2 18.2 32.7 16.6 32.7 14.4C32.7 12.4 33.3 10.7 34.5 9.30001C35.7 7.90001 37.3 7.20001 39.3 7.20001C40.6 7.20001 41.6 7.50001 42.2 8.00001H42.3V4.40001C42.3 3.20001 41.7 2.40001 40.6 2.20001H46.7V17.3C46.7 17.9 46.9 18.4 47.2 18.8C47.6 19.2 48 19.3 48.6 19.3C48.9 19.3 49.3 19.2 49.8 19.1C49.5 19.8 48.9 20.2 48.1 20.6C47.3 20.9 46.5 21.1 45.7 21.1C44.1 21.1 43.1 20.6 42.5 19.6Z" fill="#41413E"/>
<path d="M57.7 16.8V10.9C57.7 10.1 57.5 9.4 57.1 9C56.7 8.6 56.2 8.4 55.7 8.4C53.9 8.4 53 10.4 53 14.4C53 17.8 53.8 19.4 55.5 19.4C56.2 19.4 56.7 19.2 57.1 18.7C57.6 18.3 57.8 17.6 57.7 16.8ZM58.2 19.6C57.1 20.6 55.7 21.1 53.8 21.1C52.1 21.1 50.7 20.5 49.7 19.4C48.7 18.3 48.2 16.6 48.2 14.5C48.2 12.3 48.9 10.5 50.2 9.1C51.5 7.7 53.4 7 55.9 7C58.4 7 60.5 7.7 62.2 9V17.3C62.2 17.9 62.4 18.4 62.7 18.7C63.1 19 63.5 19.2 64.2 19.2C64.7 19.2 65.1 19.1 65.4 19C65.1 19.6 64.6 20.1 63.9 20.4C63.2 20.7 62.4 20.9 61.6 20.9C59.9 21.1 58.8 20.6 58.2 19.6Z" fill="#41413E"/>
<path d="M73.7 14.8C73.7 16.5 72.4 17.8 70.7 17.8C69 17.8 67.7 16.5 67.7 14.8C67.7 13.1 69 11.8 70.7 11.8C72.4 11.8 73.7 13.1 73.7 14.8Z" fill="#FF891D"/>
<path d="M86.2 6.89999V8.39999H85.9C85.7 8.39999 85.6 8.39999 85.5 8.39999C84 8.39999 82.7 8.79999 81.7 9.69999C80.7 10.6 80.2 11.7 80.2 13V21H78.8V7.09999H80.2V9.59999C80.5 9.09999 81 8.59999 81.6 8.09999C82.5 7.29999 84 6.79999 85.7 6.79999L86.2 6.89999Z" fill="#41413E"/>
<path d="M99.3 9C98 7.6 96.3 7 94.3 7C92.3 7 90.7 7.7 89.3 9C88 10.4 87.3 12.1 87.3 14.1C87.3 16.1 88 17.8 89.3 19.2C90.7 20.5 92.4 21.2 94.5 21.2C97 21.2 99.3 20 100.6 17.9L100.7 17.7L99.4 17.2L99.3 17.3C98.3 19 96.7 19.8 94.5 19.8C92.9 19.8 91.5 19.3 90.4 18.2C89.4 17.2 88.8 15.9 88.7 14.4H101.2V14.3C101.2 14.2 101.2 14.1 101.2 14C101.3 12 100.6 10.3 99.3 9ZM94.3 8.3C95.8 8.3 97.1 8.8 98.1 9.8C99.1 10.7 99.7 11.9 99.9 13.3H88.8C89 11.9 89.5 10.8 90.6 9.8C91.5 8.7 92.8 8.3 94.3 8.3Z" fill="#41413E"/>
<path d="M113.5 17.3C113.5 18.4 113 19.4 112.1 20.1C111.2 20.8 110 21.1 108.6 21.1C106 21.1 104 19.8 103.6 17.9V17.7L104.9 17.4V17.6C105.2 18.9 106.7 19.8 108.6 19.8C110.7 19.8 112.2 18.8 112.2 17.3C112.2 16.3 111.6 15.5 110.2 15.1L106.5 13.7C104.8 13.1 104 12 104 10.5C104 8.39996 105.9 6.89996 108.6 6.89996C111 6.89996 112.8 7.99996 113.2 9.79996V9.99996L111.9 10.3V10.1C111.6 8.89996 110.3 8.19996 108.6 8.19996C106.7 8.19996 105.4 9.19996 105.4 10.5C105.4 11.4 105.9 12.1 107 12.5L110.8 13.9C112.6 14.6 113.5 15.7 113.5 17.3Z" fill="#41413E"/>
<path d="M119.1 8.39999V17.1C119.1 18.5 120 19.6 121.2 19.6H123.3V20.9H121.1C120.1 20.9 119.3 20.5 118.7 19.8C118 19.1 117.7 18.2 117.7 17.1V8.39999H115.2V7.09999H117.7V4.29999H119.1V7.09999H123.3V8.39999H119.1Z" fill="#41413E"/>
<path d="M137.6 9C136.2 7.6 134.5 7 132.5 7C130.5 7 128.8 7.7 127.4 9C126.1 10.3 125.4 12 125.4 14.1C125.4 16.1 126.1 17.8 127.4 19.2C128.8 20.5 130.5 21.2 132.5 21.2C134.5 21.2 136.2 20.5 137.6 19.2C139 17.9 139.6 16.1 139.6 14.1C139.6 12 138.9 10.3 137.6 9ZM132.5 19.8C130.9 19.8 129.5 19.2 128.4 18.2C127.3 17.1 126.8 15.8 126.8 14.1C126.8 12.4 127.3 11.1 128.4 10C129.5 8.9 130.9 8.4 132.5 8.4C134.1 8.4 135.5 8.9 136.6 10C137.7 11.1 138.2 12.5 138.2 14.1C138.2 15.7 137.6 17.1 136.6 18.2C135.5 19.2 134.1 19.8 132.5 19.8Z" fill="#41413E"/>
<path d="M150.4 6.89999V8.39999H150C149.9 8.39999 149.7 8.39999 149.6 8.39999C148.1 8.39999 146.8 8.79999 145.8 9.69999C144.8 10.6 144.3 11.7 144.3 13V21H142.9V7.09999H144.3V9.59999C144.6 9.09999 145.1 8.59999 145.7 8.09999C146.6 7.29999 148.1 6.79999 149.8 6.79999L150.4 6.89999Z" fill="#41413E"/>
<path d="M164.1 7.09996V9.89996C162.8 7.99996 160.8 6.89996 158.4 6.89996C156.4 6.89996 154.8 7.59996 153.5 8.89996C152.2 10.2 151.5 12 151.5 14C151.5 16 152.2 17.7 153.5 19.1C154.8 20.4 156.4 21.1 158.4 21.1C160.8 21.1 162.8 20 164.1 18.1V20.9H165.5V7.09996H164.1ZM158.5 19.8C156.9 19.8 155.6 19.3 154.5 18.2C153.4 17.1 152.9 15.7 152.9 14.1C152.9 12.5 153.4 11.1 154.5 9.99996C155.6 8.89996 156.9 8.39996 158.5 8.39996C160.1 8.39996 161.4 8.89996 162.5 9.99996C163.6 11.1 164.1 12.5 164.1 14.1C164.1 15.7 163.6 17.1 162.5 18.2C161.3 19.2 160 19.8 158.5 19.8Z" fill="#41413E"/>
<path d="M182.4 12.6V20.9H181V12.8C181 11.5 180.6 10.4 179.7 9.59996C178.9 8.69996 177.8 8.29996 176.5 8.29996C175 8.29996 173.8 8.79996 172.7 9.59996C171.7 10.5 171.2 11.6 171.2 12.9V21H169.8V7.09996H171.2V9.59996C171.5 9.09996 172 8.59996 172.6 8.09996C173.5 7.29996 175 6.89996 176.7 6.89996C178.3 6.89996 179.7 7.39996 180.8 8.49996C181.8 9.59996 182.4 11 182.4 12.6Z" fill="#41413E"/>
</g>
<defs>
<clipPath id="clip0_3687_453">
<rect width="182.4" height="26.4" fill="white"/>
</clipPath>
</defs>
</svg>
