<svg width="206" height="36" viewBox="0 0 206 36" fill="none" xmlns="http://www.w3.org/2000/svg">
<path d="M83.0737 16.8281C83.0737 15.2185 83.6811 13.9126 84.896 12.8496C86.1108 11.7866 87.6293 11.24 89.4212 11.24C89.573 11.24 89.7856 11.2704 90.0589 11.3007V9.99479H89.6337C87.6597 9.99479 85.9893 10.5718 84.9871 11.4222C83.9849 12.2726 83.4382 12.9711 83.0737 13.7304V10.2074H81.8589V26H83.0737V16.8281ZM107.594 18.377C107.624 18.3163 107.624 18.2252 107.624 18.1037C107.624 15.7955 106.865 13.8822 105.347 12.3333C103.828 10.7844 101.945 9.99479 99.6674 9.99479C97.3896 9.99479 95.5066 10.7844 93.9577 12.3333C92.4392 13.8822 91.68 15.7955 91.68 18.1037C91.68 20.4118 92.4696 22.3556 94.0185 23.9044C95.5977 25.4533 97.5718 26.2126 99.9407 26.2126C102.887 26.2126 105.438 24.7852 106.896 22.477L105.711 22.0518C104.405 24.0563 102.461 25.0585 99.9407 25.0585C97.9666 25.0585 96.2963 24.4207 94.9903 23.1756C93.6844 21.9 92.9859 20.2904 92.9251 18.377H107.594ZM92.9555 17.3141C93.1074 15.5222 93.8363 14.0644 95.0814 12.9104C96.3266 11.7259 97.8451 11.1489 99.637 11.1489C101.429 11.1489 102.947 11.7259 104.193 12.9104C105.468 14.0644 106.197 15.5222 106.349 17.3141H92.9555ZM121.531 13.2141C121.076 11.2704 119.071 9.99479 116.399 9.99479C113.362 9.99479 111.175 11.6044 111.175 14.0037C111.175 15.6741 112.116 16.8281 113.999 17.5267L118.312 19.1667C119.922 19.7437 120.742 20.6548 120.742 21.9607C120.742 23.783 118.889 25.0889 116.338 25.0889C113.939 25.0889 112.208 23.9652 111.873 22.3556L110.719 22.6289C111.175 24.7852 113.331 26.2126 116.338 26.2126C117.948 26.2126 119.284 25.8178 120.347 25.0281C121.41 24.2385 121.926 23.2059 121.926 21.9304C121.926 20.1385 120.893 18.863 118.859 18.1037L114.364 16.4941C113.028 15.9778 112.359 15.1274 112.359 13.9429C112.359 12.3333 114.06 11.1185 116.338 11.1185C118.433 11.1185 120.043 12.0904 120.377 13.5178L121.531 13.2141ZM124.37 11.3311H127.255V21.7481C127.255 22.9326 127.62 23.9652 128.348 24.7852C129.077 25.6052 129.988 26 131.051 26H133.36V24.8156H131.112C129.624 24.8156 128.47 23.4489 128.47 21.657V11.3311H133.39V10.2074H128.47V6.98812H127.255V10.2074H124.37V11.3311ZM138.506 23.9044C140.055 25.4533 141.998 26.2126 144.306 26.2126C146.615 26.2126 148.528 25.4533 150.077 23.9044C151.626 22.3556 152.415 20.4118 152.415 18.1037C152.415 15.7955 151.626 13.8822 150.077 12.3333C148.528 10.7844 146.615 9.99479 144.306 9.99479C141.998 9.99479 140.055 10.7844 138.506 12.3333C136.957 13.8822 136.198 15.7955 136.198 18.1037C136.198 20.4118 136.957 22.3556 138.506 23.9044ZM139.386 13.1837C140.692 11.8778 142.332 11.2096 144.306 11.2096C146.28 11.2096 147.89 11.8778 149.196 13.1837C150.502 14.4896 151.17 16.1296 151.17 18.1037C151.17 20.0778 150.502 21.7178 149.196 23.0237C147.89 24.3296 146.28 24.9978 144.306 24.9978C142.332 24.9978 140.692 24.3296 139.386 23.0237C138.08 21.7178 137.443 20.0778 137.443 18.1037C137.443 16.1296 138.08 14.4896 139.386 13.1837ZM158.051 16.8281C158.051 15.2185 158.658 13.9126 159.873 12.8496C161.088 11.7866 162.606 11.24 164.398 11.24C164.55 11.24 164.763 11.2704 165.036 11.3007V9.99479H164.611C162.637 9.99479 160.966 10.5718 159.964 11.4222C158.962 12.2726 158.415 12.9711 158.051 13.7304V10.2074H156.836V26H158.051V16.8281ZM174.492 9.99479C172.275 9.99479 170.392 10.7844 168.904 12.3333C167.416 13.8822 166.657 15.7955 166.657 18.1037C166.657 20.4118 167.416 22.3556 168.904 23.9044C170.392 25.4533 172.275 26.2126 174.492 26.2126C177.438 26.2126 179.99 24.6637 181.326 22.2037V26H182.541V10.2074H181.326V14.0037C179.99 11.5437 177.438 9.99479 174.492 9.99479ZM179.352 13.1837C180.627 14.4896 181.265 16.1296 181.265 18.1037C181.265 20.0778 180.627 21.7178 179.352 23.0237C178.076 24.3296 176.497 24.9978 174.584 24.9978C172.67 24.9978 171.091 24.3296 169.815 23.0237C168.54 21.7178 167.902 20.0778 167.902 18.1037C167.902 16.1296 168.54 14.4896 169.815 13.1837C171.091 11.8778 172.67 11.2096 174.584 11.2096C176.497 11.2096 178.076 11.8778 179.352 13.1837ZM188.066 26H189.281V16.7674C189.281 15.1578 189.889 13.8518 191.103 12.7889C192.318 11.7259 193.837 11.1792 195.629 11.1792C197.178 11.1792 198.483 11.6955 199.516 12.7585C200.579 13.8215 201.095 15.1274 201.095 16.6763V26H202.31V16.4637C202.31 14.6111 201.703 13.0622 200.458 11.8474C199.212 10.6022 197.694 9.99479 195.841 9.99479C193.898 9.99479 192.227 10.5415 191.225 11.3918C190.223 12.2422 189.676 12.9407 189.281 13.7V10.2074H188.066V26Z" fill="#41413E"/>
<path d="M84.896 12.8496L85.0388 13.0129L84.896 12.8496ZM90.0589 11.3007L90.035 11.5163L90.2759 11.5431V11.3007H90.0589ZM90.0589 9.99479H90.2759V9.77786H90.0589V9.99479ZM84.9871 11.4222L84.8467 11.2568L84.9871 11.4222ZM83.0737 13.7304H82.8568L83.2693 13.8242L83.0737 13.7304ZM83.0737 10.2074H83.2907V9.99045H83.0737V10.2074ZM81.8589 10.2074V9.99045H81.642V10.2074H81.8589ZM81.8589 26H81.642V26.2169H81.8589V26ZM83.0737 26V26.2169H83.2907V26H83.0737ZM83.2907 16.8281C83.2907 15.2826 83.8699 14.0357 85.0388 13.0129L84.7531 12.6864C83.4924 13.7895 82.8568 15.1544 82.8568 16.8281H83.2907ZM85.0388 13.0129C86.2103 11.9878 87.6766 11.4569 89.4212 11.4569V11.023C87.582 11.023 86.0113 11.5855 84.7531 12.6864L85.0388 13.0129ZM89.4212 11.4569C89.557 11.4569 89.7479 11.4844 90.035 11.5163L90.0829 11.0851C89.8233 11.0563 89.589 11.023 89.4212 11.023V11.4569ZM90.2759 11.3007V9.99479H89.842V11.3007H90.2759ZM90.0589 9.77786H89.6337V10.2117H90.0589V9.77786ZM89.6337 9.77786C87.6228 9.77786 85.898 10.3648 84.8467 11.2568L85.1274 11.5876C86.0806 10.7788 87.6965 10.2117 89.6337 10.2117V9.77786ZM84.8467 11.2568C83.8281 12.1211 83.2592 12.8427 82.8782 13.6365L83.2693 13.8242C83.6172 13.0995 84.1416 12.4241 85.1274 11.5876L84.8467 11.2568ZM83.2907 13.7304V10.2074H82.8568V13.7304H83.2907ZM83.0737 9.99045H81.8589V10.4243H83.0737V9.99045ZM81.642 10.2074V26H82.0759V10.2074H81.642ZM81.8589 26.2169H83.0737V25.7831H81.8589V26.2169ZM83.2907 26V16.8281H82.8568V26H83.2907ZM107.594 18.377V18.594H107.728L107.788 18.474L107.594 18.377ZM105.347 12.3333L105.192 12.4852L105.347 12.3333ZM93.9577 12.3333L93.8043 12.1799L93.8028 12.1814L93.9577 12.3333ZM94.0185 23.9044L93.8651 24.0578L93.8666 24.0593L94.0185 23.9044ZM106.896 22.477L107.079 22.5929L107.223 22.3642L106.969 22.2729L106.896 22.477ZM105.711 22.0518L105.784 21.8477L105.623 21.7897L105.529 21.9334L105.711 22.0518ZM94.9903 23.1756L94.8387 23.3308L94.8406 23.3326L94.9903 23.1756ZM92.9251 18.377V18.1601H92.7012L92.7083 18.3839L92.9251 18.377ZM92.9555 17.3141L92.7394 17.2957L92.7194 17.531H92.9555V17.3141ZM95.0814 12.9104L95.2289 13.0695L95.231 13.0675L95.0814 12.9104ZM104.193 12.9104L104.043 13.0676L104.047 13.0712L104.193 12.9104ZM106.349 17.3141V17.531H106.585L106.565 17.2957L106.349 17.3141ZM107.788 18.474C107.822 18.4071 107.832 18.3369 107.837 18.2812C107.842 18.2247 107.841 18.1616 107.841 18.1037H107.407C107.407 18.1672 107.407 18.2104 107.404 18.2451C107.401 18.2805 107.397 18.2862 107.4 18.28L107.788 18.474ZM107.841 18.1037C107.841 15.7423 107.062 13.7734 105.502 12.1814L105.192 12.4852C106.668 13.991 107.407 15.8487 107.407 18.1037H107.841ZM105.502 12.1814C103.941 10.5897 102.002 9.77786 99.6674 9.77786V10.2117C101.889 10.2117 103.715 10.9791 105.192 12.4852L105.502 12.1814ZM99.6674 9.77786C97.3327 9.77786 95.3943 10.5899 93.8043 12.1799L94.1111 12.4867C95.6189 10.9789 97.4465 10.2117 99.6674 10.2117V9.77786ZM93.8028 12.1814C92.2421 13.7734 91.463 15.7423 91.463 18.1037H91.8969C91.8969 15.8487 92.6363 13.991 94.1126 12.4852L93.8028 12.1814ZM91.463 18.1037C91.463 20.4666 92.2736 22.4663 93.8651 24.0578L94.1719 23.751C92.6656 22.2448 91.8969 20.3571 91.8969 18.1037H91.463ZM93.8666 24.0593C95.4902 25.6517 97.5205 26.4295 99.9407 26.4295V25.9957C97.6231 25.9957 95.7053 25.255 94.1704 23.7496L93.8666 24.0593ZM99.9407 26.4295C102.959 26.4295 105.58 24.9657 107.079 22.5929L106.712 22.3612C105.295 24.6047 102.814 25.9957 99.9407 25.9957V26.4295ZM106.969 22.2729L105.784 21.8477L105.638 22.256L106.822 22.6812L106.969 22.2729ZM105.529 21.9334C104.267 23.8717 102.394 24.8416 99.9407 24.8416V25.2754C102.529 25.2754 104.544 24.2409 105.893 22.1703L105.529 21.9334ZM99.9407 24.8416C98.017 24.8416 96.4019 24.2217 95.14 23.0186L94.8406 23.3326C96.1907 24.6198 97.9163 25.2754 99.9407 25.2754V24.8416ZM95.1419 23.0204C93.8777 21.7855 93.201 20.2298 93.142 18.3701L92.7083 18.3839C92.7708 20.351 93.4911 22.0145 94.8388 23.3307L95.1419 23.0204ZM92.9251 18.594H107.594V18.1601H92.9251V18.594ZM93.1717 17.3324C93.319 15.5942 94.0235 14.1866 95.2289 13.0695L94.934 12.7512C93.649 13.9422 92.8958 15.4503 92.7394 17.2957L93.1717 17.3324ZM95.231 13.0675C96.433 11.9241 97.8968 11.3658 99.637 11.3658V10.9319C97.7935 10.9319 96.2203 11.5277 94.9319 12.7532L95.231 13.0675ZM99.637 11.3658C101.377 11.3658 102.841 11.9241 104.043 13.0675L104.342 12.7532C103.054 11.5277 101.48 10.9319 99.637 10.9319V11.3658ZM104.047 13.0712C105.281 14.1879 105.985 15.5945 106.133 17.3324L106.565 17.2957C106.409 15.4499 105.655 13.941 104.338 12.7495L104.047 13.0712ZM106.349 17.0971H92.9555V17.531H106.349V17.0971ZM121.531 13.2141L121.586 13.4238L121.791 13.3701L121.742 13.1646L121.531 13.2141ZM113.999 17.5267L114.076 17.3239L114.075 17.3233L113.999 17.5267ZM118.312 19.1667L118.235 19.3695L118.239 19.3709L118.312 19.1667ZM111.873 22.3556L112.086 22.3115L112.041 22.093L111.823 22.1445L111.873 22.3556ZM110.719 22.6289L110.669 22.4178L110.463 22.4666L110.507 22.6737L110.719 22.6289ZM120.347 25.0281L120.217 24.854L120.347 25.0281ZM118.859 18.1037L118.934 17.9004L118.932 17.8995L118.859 18.1037ZM114.364 16.4941L114.286 16.6965L114.291 16.6983L114.364 16.4941ZM120.377 13.5178L120.166 13.5672L120.217 13.7843L120.432 13.7275L120.377 13.5178ZM121.742 13.1646C121.255 11.0866 119.129 9.77786 116.399 9.77786V10.2117C119.013 10.2117 120.896 11.4541 121.32 13.2636L121.742 13.1646ZM116.399 9.77786C114.844 9.77786 113.489 10.1897 112.517 10.9267C111.541 11.6668 110.958 12.7311 110.958 14.0037H111.392C111.392 12.8771 111.903 11.9369 112.779 11.2724C113.66 10.6047 114.916 10.2117 116.399 10.2117V9.77786ZM110.958 14.0037C110.958 14.8827 111.207 15.6383 111.712 16.2657C112.215 16.8898 112.958 17.3719 113.924 17.73L114.075 17.3233C113.157 16.9829 112.489 16.5387 112.05 15.9936C111.614 15.4517 111.392 14.795 111.392 14.0037H110.958ZM113.922 17.7294L118.235 19.3694L118.389 18.9639L114.076 17.3239L113.922 17.7294ZM118.239 19.3709C119.023 19.6519 119.593 20.0072 119.967 20.4334C120.337 20.8551 120.525 21.3578 120.525 21.9607H120.959C120.959 21.2577 120.736 20.652 120.293 20.1473C119.855 19.6473 119.211 19.2585 118.385 18.9625L118.239 19.3709ZM120.525 21.9607C120.525 22.7901 120.106 23.5105 119.371 24.0312C118.633 24.5541 117.579 24.872 116.338 24.872V25.3058C117.648 25.3058 118.796 24.9707 119.622 24.3851C120.451 23.7973 120.959 22.9536 120.959 21.9607H120.525ZM116.338 24.872C113.991 24.872 112.39 23.778 112.086 22.3115L111.661 22.3996C112.025 24.1523 113.886 25.3058 116.338 25.3058V24.872ZM111.823 22.1445L110.669 22.4178L110.769 22.84L111.923 22.5666L111.823 22.1445ZM110.507 22.6737C110.992 24.9672 113.272 26.4295 116.338 26.4295V25.9957C113.391 25.9957 111.358 24.6031 110.932 22.584L110.507 22.6737ZM116.338 26.4295C117.984 26.4295 119.368 26.0253 120.476 25.2023L120.217 24.854C119.199 25.6103 117.911 25.9957 116.338 25.9957V26.4295ZM120.476 25.2023C121.593 24.3724 122.143 23.2757 122.143 21.9304H121.709C121.709 23.1361 121.226 24.1046 120.217 24.854L120.476 25.2023ZM122.143 21.9304C122.143 20.9897 121.871 20.1737 121.324 19.4939C120.781 18.8172 119.977 18.2893 118.934 17.9004L118.783 18.3069C119.775 18.6773 120.505 19.1669 120.986 19.7657C121.465 20.3615 121.709 21.0792 121.709 21.9304H122.143ZM118.932 17.8995L114.437 16.2898L114.291 16.6983L118.785 18.3079L118.932 17.8995ZM114.442 16.2917C113.799 16.0432 113.334 15.7211 113.031 15.335C112.73 14.9518 112.576 14.4915 112.576 13.9429H112.142C112.142 14.5789 112.323 15.136 112.69 15.6031C113.055 16.0673 113.593 16.4286 114.286 16.6964L114.442 16.2917ZM112.576 13.9429C112.576 13.2221 112.955 12.5768 113.62 12.1039C114.287 11.6297 115.236 11.3354 116.338 11.3354V10.9016C115.162 10.9016 114.122 11.2148 113.369 11.7503C112.614 12.2872 112.142 13.0541 112.142 13.9429H112.576ZM116.338 11.3354C118.385 11.3354 119.865 12.2814 120.166 13.5672L120.588 13.4683C120.221 11.8993 118.481 10.9016 116.338 10.9016V11.3354ZM120.432 13.7275L121.586 13.4238L121.476 13.0043L120.322 13.308L120.432 13.7275ZM124.37 11.3311H124.153V11.548H124.37V11.3311ZM127.255 11.3311H127.472V11.1142H127.255V11.3311ZM128.348 24.7852L128.511 24.6411L128.348 24.7852ZM133.36 26V26.2169H133.576V26H133.36ZM133.36 24.8156H133.576V24.5986H133.36V24.8156ZM128.47 11.3311V11.1142H128.253V11.3311H128.47ZM133.39 11.3311V11.548H133.607V11.3311H133.39ZM133.39 10.2074H133.607V9.99045H133.39V10.2074ZM128.47 10.2074H128.253V10.4243H128.47V10.2074ZM128.47 6.98812H128.687V6.77119H128.47V6.98812ZM127.255 6.98812V6.77119H127.038V6.98812H127.255ZM127.255 10.2074V10.4243H127.472V10.2074H127.255ZM124.37 10.2074V9.99045H124.153V10.2074H124.37ZM124.37 11.548H127.255V11.1142H124.37V11.548ZM127.038 11.3311V21.7481H127.472V11.3311H127.038ZM127.038 21.7481C127.038 22.9796 127.418 24.0652 128.186 24.9293L128.511 24.6411C127.821 23.8651 127.472 22.8856 127.472 21.7481H127.038ZM128.186 24.9293C128.957 25.7963 129.927 26.2169 131.051 26.2169V25.7831C130.049 25.7831 129.198 25.414 128.511 24.6411L128.186 24.9293ZM131.051 26.2169H133.36V25.7831H131.051V26.2169ZM133.576 26V24.8156H133.143V26H133.576ZM133.36 24.5986H131.112V25.0325H133.36V24.5986ZM131.112 24.5986C129.778 24.5986 128.687 23.3663 128.687 21.657H128.253C128.253 23.5314 129.47 25.0325 131.112 25.0325V24.5986ZM128.687 21.657V11.3311H128.253V21.657H128.687ZM128.47 11.548H133.39V11.1142H128.47V11.548ZM133.607 11.3311V10.2074H133.173V11.3311H133.607ZM133.39 9.99045H128.47V10.4243H133.39V9.99045ZM128.687 10.2074V6.98812H128.253V10.2074H128.687ZM128.47 6.77119H127.255V7.20505H128.47V6.77119ZM127.038 6.98812V10.2074H127.472V6.98812H127.038ZM127.255 9.99045H124.37V10.4243H127.255V9.99045ZM124.153 10.2074V11.3311H124.587V10.2074H124.153ZM138.506 23.9044L138.659 23.751L138.506 23.9044ZM150.077 23.9044L149.923 23.751L150.077 23.9044ZM150.077 12.3333L149.923 12.4867L150.077 12.3333ZM138.506 12.3333L138.659 12.4867H138.659L138.506 12.3333ZM139.386 13.1837L139.54 13.3371L139.386 13.1837ZM149.196 13.1837L149.043 13.3371L149.196 13.1837ZM149.196 23.0237L149.043 22.8703L149.196 23.0237ZM139.386 23.0237L139.54 22.8703L139.386 23.0237ZM138.352 24.0578C139.945 25.6508 141.946 26.4295 144.306 26.4295V25.9957C142.051 25.9957 140.164 25.2559 138.659 23.751L138.352 24.0578ZM144.306 26.4295C146.668 26.4295 148.638 25.6502 150.23 24.0578L149.923 23.751C148.418 25.2565 146.561 25.9957 144.306 25.9957V26.4295ZM150.23 24.0578C151.822 22.4663 152.632 20.4666 152.632 18.1037H152.198C152.198 20.3571 151.43 22.2448 149.923 23.751L150.23 24.0578ZM152.632 18.1037C152.632 15.7399 151.821 13.7708 150.23 12.1799L149.923 12.4867C151.43 13.9936 152.198 15.8512 152.198 18.1037H152.632ZM150.23 12.1799C148.639 10.589 146.67 9.77786 144.306 9.77786V10.2117C146.559 10.2117 148.417 10.9798 149.923 12.4867L150.23 12.1799ZM144.306 9.77786C141.944 9.77786 139.944 10.5884 138.352 12.1799L138.659 12.4867C140.165 10.9804 142.053 10.2117 144.306 10.2117V9.77786ZM138.352 12.1799C136.76 13.7723 135.981 15.7421 135.981 18.1037H136.414C136.414 15.849 137.154 13.9921 138.659 12.4867L138.352 12.1799ZM135.981 18.1037C135.981 20.4644 136.759 22.4649 138.352 24.0578L138.659 23.751C137.154 22.2462 136.414 20.3593 136.414 18.1037H135.981ZM139.54 13.3371C140.803 12.074 142.387 11.4265 144.306 11.4265V10.9927C142.278 10.9927 140.582 11.6815 139.233 13.0303L139.54 13.3371ZM144.306 11.4265C146.225 11.4265 147.779 12.0733 149.043 13.3371L149.349 13.0303C148.001 11.6822 146.336 10.9927 144.306 10.9927V11.4265ZM149.043 13.3371C150.306 14.6002 150.953 16.184 150.953 18.1037H151.387C151.387 16.0752 150.698 14.379 149.349 13.0303L149.043 13.3371ZM150.953 18.1037C150.953 20.0233 150.306 21.6072 149.043 22.8703L149.349 23.1771C150.698 21.8283 151.387 20.1322 151.387 18.1037H150.953ZM149.043 22.8703C147.779 24.1341 146.225 24.7808 144.306 24.7808V25.2147C146.336 25.2147 148.001 24.5251 149.349 23.1771L149.043 22.8703ZM144.306 24.7808C142.387 24.7808 140.803 24.1334 139.54 22.8703L139.233 23.1771C140.582 24.5258 142.278 25.2147 144.306 25.2147V24.7808ZM139.54 22.8703C138.278 21.6089 137.66 20.0259 137.66 18.1037H137.226C137.226 20.1296 137.883 21.8266 139.233 23.1771L139.54 22.8703ZM137.66 18.1037C137.66 16.1815 138.278 14.5985 139.54 13.3371L139.233 13.0303C137.883 14.3808 137.226 16.0778 137.226 18.1037H137.66ZM159.873 12.8496L160.016 13.0129L159.873 12.8496ZM165.036 11.3007L165.012 11.5163L165.253 11.5431V11.3007H165.036ZM165.036 9.99479H165.253V9.77786H165.036V9.99479ZM159.964 11.4222L159.824 11.2568L159.964 11.4222ZM158.051 13.7304H157.834L158.246 13.8242L158.051 13.7304ZM158.051 10.2074H158.268V9.99045H158.051V10.2074ZM156.836 10.2074V9.99045H156.619V10.2074H156.836ZM156.836 26H156.619V26.2169H156.836V26ZM158.051 26V26.2169H158.268V26H158.051ZM158.268 16.8281C158.268 15.2826 158.847 14.0357 160.016 13.0129L159.73 12.6864C158.469 13.7895 157.834 15.1544 157.834 16.8281H158.268ZM160.016 13.0129C161.187 11.9878 162.654 11.4569 164.398 11.4569V11.023C162.559 11.023 160.988 11.5855 159.73 12.6864L160.016 13.0129ZM164.398 11.4569C164.534 11.4569 164.725 11.4844 165.012 11.5163L165.06 11.0851C164.8 11.0563 164.566 11.023 164.398 11.023V11.4569ZM165.253 11.3007V9.99479H164.819V11.3007H165.253ZM165.036 9.77786H164.611V10.2117H165.036V9.77786ZM164.611 9.77786C162.6 9.77786 160.875 10.3648 159.824 11.2568L160.104 11.5876C161.058 10.7788 162.673 10.2117 164.611 10.2117V9.77786ZM159.824 11.2568C158.805 12.1211 158.236 12.8427 157.855 13.6365L158.246 13.8242C158.594 13.0995 159.119 12.4241 160.104 11.5876L159.824 11.2568ZM158.268 13.7304V10.2074H157.834V13.7304H158.268ZM158.051 9.99045H156.836V10.4243H158.051V9.99045ZM156.619 10.2074V26H157.053V10.2074H156.619ZM156.836 26.2169H158.051V25.7831H156.836V26.2169ZM158.268 26V16.8281H157.834V26H158.268ZM168.904 12.3333L169.061 12.4836L168.904 12.3333ZM168.904 23.9044L169.061 23.7541L168.904 23.9044ZM181.326 22.2037H181.543L181.135 22.1002L181.326 22.2037ZM181.326 26H181.109V26.2169H181.326V26ZM182.541 26V26.2169H182.758V26H182.541ZM182.541 10.2074H182.758V9.99045H182.541V10.2074ZM181.326 10.2074V9.99045H181.109V10.2074H181.326ZM181.326 14.0037L181.135 14.1072L181.543 14.0037H181.326ZM179.352 13.1837L179.197 13.3353L179.352 13.1837ZM179.352 23.0237L179.197 22.8721L179.352 23.0237ZM169.815 23.0237L169.971 22.8721L169.815 23.0237ZM169.815 13.1837L169.971 13.3353L169.815 13.1837ZM174.492 9.77786C172.218 9.77786 170.278 10.5902 168.748 12.183L169.061 12.4836C170.507 10.9787 172.333 10.2117 174.492 10.2117V9.77786ZM168.748 12.183C167.219 13.7745 166.44 15.7426 166.44 18.1037H166.874C166.874 15.8485 167.613 13.9899 169.061 12.4836L168.748 12.183ZM166.44 18.1037C166.44 20.464 167.218 22.4627 168.748 24.0547L169.061 23.7541C167.614 22.2484 166.874 20.3597 166.874 18.1037H166.44ZM168.748 24.0547C170.28 25.6491 172.221 26.4295 174.492 26.4295V25.9957C172.33 25.9957 170.505 25.2575 169.061 23.7541L168.748 24.0547ZM174.492 26.4295C177.517 26.4295 180.142 24.8377 181.516 22.3072L181.135 22.1002C179.837 24.4897 177.36 25.9957 174.492 25.9957V26.4295ZM181.109 22.2037V26H181.543V22.2037H181.109ZM181.326 26.2169H182.541V25.7831H181.326V26.2169ZM182.758 26V10.2074H182.324V26H182.758ZM182.541 9.99045H181.326V10.4243H182.541V9.99045ZM181.109 10.2074V14.0037H181.543V10.2074H181.109ZM181.516 13.9001C180.142 11.3697 177.517 9.77786 174.492 9.77786V10.2117C177.36 10.2117 179.837 11.7177 181.135 14.1072L181.516 13.9001ZM179.197 13.3353C180.429 14.5972 181.048 16.1812 181.048 18.1037H181.482C181.482 16.078 180.825 14.382 179.507 13.0321L179.197 13.3353ZM181.048 18.1037C181.048 20.0262 180.429 21.6102 179.197 22.8721L179.507 23.1753C180.825 21.8253 181.482 20.1293 181.482 18.1037H181.048ZM179.197 22.8721C177.963 24.1353 176.44 24.7808 174.584 24.7808V25.2147C176.554 25.2147 178.19 24.5239 179.507 23.1753L179.197 22.8721ZM174.584 24.7808C172.727 24.7808 171.204 24.1353 169.971 22.8721L169.66 23.1753C170.978 24.5239 172.613 25.2147 174.584 25.2147V24.7808ZM169.971 22.8721C168.738 21.6102 168.119 20.0262 168.119 18.1037H167.685C167.685 20.1293 168.342 21.8253 169.66 23.1753L169.971 22.8721ZM168.119 18.1037C168.119 16.1812 168.738 14.5972 169.971 13.3353L169.66 13.0321C168.342 14.382 167.685 16.078 167.685 18.1037H168.119ZM169.971 13.3353C171.204 12.0721 172.727 11.4265 174.584 11.4265V10.9927C172.613 10.9927 170.978 11.6835 169.66 13.0321L169.971 13.3353ZM174.584 11.4265C176.44 11.4265 177.963 12.0721 179.197 13.3353L179.507 13.0321C178.19 11.6835 176.554 10.9927 174.584 10.9927V11.4265ZM188.066 26H187.849V26.2169H188.066V26ZM189.281 26V26.2169H189.498V26H189.281ZM191.103 12.7889L190.961 12.6256L191.103 12.7889ZM199.516 12.7585L199.36 12.9097L199.363 12.9119L199.516 12.7585ZM201.095 26H200.878V26.2169H201.095V26ZM202.31 26V26.2169H202.527V26H202.31ZM200.458 11.8474L200.304 12.0008L200.306 12.0027L200.458 11.8474ZM191.225 11.3918L191.085 11.2264V11.2264L191.225 11.3918ZM189.281 13.7H189.064L189.474 13.8001L189.281 13.7ZM189.281 10.2074H189.498V9.99045H189.281V10.2074ZM188.066 10.2074V9.99045H187.849V10.2074H188.066ZM188.066 26.2169H189.281V25.7831H188.066V26.2169ZM189.498 26V16.7674H189.064V26H189.498ZM189.498 16.7674C189.498 15.2219 190.077 13.9749 191.246 12.9521L190.961 12.6256C189.7 13.7287 189.064 15.0936 189.064 16.7674H189.498ZM191.246 12.9521C192.418 11.9271 193.884 11.3962 195.629 11.3962V10.9623C193.789 10.9623 192.219 11.5247 190.961 12.6256L191.246 12.9521ZM195.629 11.3962C197.124 11.3962 198.372 11.8924 199.36 12.9097L199.672 12.6073C198.595 11.4987 197.231 10.9623 195.629 10.9623V11.3962ZM199.363 12.9119C200.382 13.9317 200.878 15.1814 200.878 16.6763H201.312C201.312 15.0734 200.776 13.7112 199.669 12.6051L199.363 12.9119ZM200.878 16.6763V26H201.312V16.6763H200.878ZM201.095 26.2169H202.31V25.7831H201.095V26.2169ZM202.527 26V16.4637H202.093V26H202.527ZM202.527 16.4637C202.527 14.5588 201.9 12.9519 200.609 11.6921L200.306 12.0027C201.505 13.1725 202.093 14.6634 202.093 16.4637H202.527ZM200.611 11.694C199.323 10.4056 197.748 9.77786 195.841 9.77786V10.2117C197.64 10.2117 199.102 10.7988 200.304 12.0008L200.611 11.694ZM195.841 9.77786C193.863 9.77786 192.137 10.3332 191.085 11.2264L191.365 11.5572C192.317 10.7498 193.932 10.2117 195.841 10.2117V9.77786ZM191.085 11.2264C190.065 12.0913 189.499 12.8111 189.089 13.5999L189.474 13.8001C189.853 13.0703 190.38 12.3931 191.365 11.5572L191.085 11.2264ZM189.498 13.7V10.2074H189.064V13.7H189.498ZM189.281 9.99045H188.066V10.4243H189.281V9.99045ZM187.849 10.2074V26H188.283V10.2074H187.849Z" fill="#41413E"/>
<path d="M16.3674 20.3625V25.3433C16.3674 27.7932 15.6284 29.5749 14.1504 30.6885C12.6724 31.8021 10.8096 32.3588 8.56223 32.3588C5.66692 32.3588 3.56124 31.4174 2.24519 29.5344C3.5005 30.1216 5.15062 30.4151 7.19556 30.4151C8.2889 30.4151 9.27088 30.1216 10.1415 29.5344C11.0324 28.9675 11.4778 28.0564 11.4778 26.8011V25.7381C10.344 26.224 9.05828 26.467 7.62075 26.467C5.87951 26.467 4.53309 26.0519 3.58148 25.2218C2.62988 24.3714 2.15408 23.1667 2.15408 21.6077V14.3796C2.15408 13.0028 1.5163 12.203 0.24074 11.9803L6.89186 11.9499V21.4559C6.89186 23.6223 7.78273 24.7055 9.56446 24.7055C10.2731 24.7055 10.9109 24.5537 11.4778 24.2499L11.6296 11.9499H16.3674V20.3625ZM11.5082 6.78696L6.07186 9.15585H5.92001L10.0504 4.44844C10.6173 3.84103 11.2146 3.53733 11.8422 3.53733C12.1864 3.53733 12.4901 3.67905 12.7533 3.96251C13.0166 4.22572 13.1482 4.52943 13.1482 4.87362C13.1482 5.70375 12.6015 6.34153 11.5082 6.78696ZM34.756 18.9351C34.756 21.3445 33.9562 23.2578 32.3567 24.6751C30.7775 26.0722 28.7629 26.7707 26.313 26.7707C23.9036 26.7707 21.9701 26.0924 20.5123 24.7359C19.0747 23.3591 18.356 21.4761 18.356 19.087C18.356 16.7181 19.1355 14.8351 20.6945 13.4381C22.2535 12.0208 24.2377 11.3122 26.6471 11.3122C29.0565 11.3122 31.0103 11.9904 32.5086 13.347C34.0069 14.6833 34.756 16.546 34.756 18.9351ZM26.556 25.6166C28.5807 25.6166 29.593 23.4198 29.593 19.0262C29.593 14.6327 28.6313 12.4359 26.7078 12.4359C26.0599 12.4359 25.5133 12.6485 25.0678 13.0736C24.6224 13.4988 24.2985 14.0657 24.096 14.7744C23.9138 15.483 23.7822 16.141 23.7012 16.7485C23.6404 17.3356 23.6101 17.9531 23.6101 18.6011C23.6101 19.1275 23.6101 19.5527 23.6101 19.8766C23.6303 20.1803 23.6607 20.6561 23.7012 21.304C23.7619 21.9519 23.853 22.4885 23.9745 22.9136C24.096 23.3186 24.258 23.7539 24.4604 24.2196C24.6629 24.6853 24.9464 25.0396 25.3108 25.2825C25.6752 25.5053 26.0903 25.6166 26.556 25.6166ZM46.0329 21.5774V16.1107C46.0329 14.1467 45.2635 13.1647 43.7248 13.1647C42.8541 13.1647 42.1455 13.681 41.5988 14.7136C41.0724 15.7462 40.8092 17.2951 40.8092 19.3603C40.8092 22.9643 41.7102 24.7662 43.5122 24.7662C44.2411 24.7662 44.8383 24.503 45.304 23.9766C45.7899 23.4299 46.0329 22.6302 46.0329 21.5774ZM46.367 24.9788H46.3062C45.3141 26.0924 43.8361 26.6492 41.8722 26.6492C39.9082 26.6492 38.3796 26.0317 37.2862 24.7966C36.2131 23.5413 35.6766 21.7495 35.6766 19.4211C35.6766 17.2344 36.3144 15.3919 37.5899 13.8936C38.8857 12.3954 40.6169 11.6462 42.7833 11.6462C44.2208 11.6462 45.2838 11.9297 45.9722 12.4966H46.0329V8.51807C46.0329 7.20202 45.4053 6.40227 44.1499 6.11881H50.7707V22.4581C50.7707 23.1262 50.963 23.6527 51.3477 24.0374C51.7527 24.422 52.269 24.6144 52.8966 24.6144C53.2611 24.6144 53.7065 24.5537 54.2329 24.4322C53.8887 25.1408 53.2914 25.6774 52.4411 26.0418C51.6109 26.386 50.7403 26.5581 49.8292 26.5581C48.1082 26.5581 46.9541 26.0317 46.367 24.9788ZM62.8769 21.8811L62.9072 15.4729C62.9072 14.5618 62.6946 13.8835 62.2695 13.4381C61.8443 12.9926 61.328 12.7699 60.7206 12.7699C58.7364 12.7699 57.7443 14.9465 57.7443 19.2996C57.7443 22.944 58.6554 24.7662 60.4776 24.7662C61.2267 24.7662 61.8139 24.5132 62.2391 24.007C62.6845 23.5008 62.8971 22.7922 62.8769 21.8811ZM63.3628 24.9788H63.3021C62.1885 26.0924 60.6193 26.6492 58.5946 26.6492C56.7319 26.6492 55.264 26.0418 54.1909 24.827C53.1381 23.5919 52.6117 21.8304 52.6117 19.5425C52.6117 17.1331 53.3203 15.1793 54.7376 13.681C56.1751 12.1625 58.2201 11.4033 60.8724 11.4033C63.545 11.4033 65.8127 12.1119 67.6754 13.5292V22.5796C67.6754 23.2477 67.8677 23.764 68.2524 24.1285C68.6371 24.4929 69.1635 24.6751 69.8317 24.6751C70.3784 24.6751 70.8137 24.6144 71.1376 24.4929C70.8339 25.1611 70.2771 25.6774 69.4672 26.0418C68.6776 26.4062 67.8374 26.5885 66.9465 26.5885C65.2458 26.5885 64.0512 26.0519 63.3628 24.9788Z" fill="#41413E"/>
<path d="M14.1504 30.6885L14.2809 30.8617L14.1504 30.6885ZM2.24519 29.5344L2.3371 29.3379L1.60329 28.9947L2.06738 29.6587L2.24519 29.5344ZM10.1415 29.5344L10.025 29.3513L10.0202 29.3545L10.1415 29.5344ZM11.4778 25.7381H11.6947V25.4091L11.3923 25.5387L11.4778 25.7381ZM3.58149 25.2218L3.43693 25.3836L3.43888 25.3853L3.58149 25.2218ZM0.24074 11.9803L0.239749 11.7634L0.203427 12.194L0.24074 11.9803ZM6.89186 11.9499H7.10879V11.732L6.89087 11.733L6.89186 11.9499ZM11.4778 24.2499L11.5802 24.4412L11.6931 24.3807L11.6947 24.2526L11.4778 24.2499ZM11.6296 11.9499V11.733H11.4154L11.4127 11.9473L11.6296 11.9499ZM16.3674 11.9499H16.5844V11.733H16.3674V11.9499ZM11.5082 6.78696L11.4263 6.586L11.4215 6.58809L11.5082 6.78696ZM6.07186 9.15585V9.37278H6.11707L6.15852 9.35472L6.07186 9.15585ZM5.92001 9.15585L5.75694 9.01278L5.44107 9.37278H5.92001V9.15585ZM10.0504 4.44844L9.89172 4.30035L9.88732 4.30536L10.0504 4.44844ZM12.7533 3.96251L12.5943 4.11022L12.6 4.11591L12.7533 3.96251ZM16.1505 20.3625V25.3433H16.5844V20.3625H16.1505ZM16.1505 25.3433C16.1505 27.749 15.4268 29.4552 14.0199 30.5152L14.2809 30.8617C15.83 29.6946 16.5844 27.8373 16.5844 25.3433H16.1505ZM14.0199 30.5152C12.5869 31.5948 10.7729 32.1419 8.56223 32.1419V32.5758C10.8464 32.5758 12.7578 32.0093 14.2809 30.8617L14.0199 30.5152ZM8.56223 32.1419C5.7171 32.1419 3.68791 31.2199 2.42299 29.4101L2.06738 29.6587C3.43456 31.6148 5.61674 32.5758 8.56223 32.5758V32.1419ZM2.15328 29.7309C3.44771 30.3364 5.13272 30.6321 7.19556 30.6321V30.1982C5.16853 30.1982 3.55328 29.9068 2.3371 29.3379L2.15328 29.7309ZM7.19556 30.6321C8.33024 30.6321 9.35481 30.3266 10.2628 29.7143L10.0202 29.3545C9.18695 29.9165 8.24756 30.1982 7.19556 30.1982V30.6321ZM10.258 29.7174C11.224 29.1027 11.6947 28.1143 11.6947 26.8011H11.2609C11.2609 27.9985 10.8407 28.8323 10.025 29.3514L10.258 29.7174ZM11.6947 26.8011V25.7381H11.2609V26.8011H11.6947ZM11.3923 25.5387C10.2896 26.0113 9.03371 26.2501 7.62075 26.2501V26.6839C9.08286 26.6839 10.3983 26.4367 11.5632 25.9375L11.3923 25.5387ZM7.62075 26.2501C5.91207 26.2501 4.62341 25.8428 3.72409 25.0583L3.43888 25.3853C4.44277 26.261 5.84695 26.6839 7.62075 26.6839V26.2501ZM3.72603 25.06C2.83049 24.2598 2.37101 23.1198 2.37101 21.6077H1.93714C1.93714 23.2137 2.42926 24.4831 3.43694 25.3836L3.72603 25.06ZM2.37101 21.6077V14.3796H1.93714V21.6077H2.37101ZM2.37101 14.3796C2.37101 13.659 2.204 13.0616 1.84535 12.6119C1.48535 12.1605 0.953694 11.8846 0.278052 11.7666L0.203427 12.194C0.803342 12.2987 1.22835 12.5341 1.50614 12.8824C1.78527 13.2324 1.93714 13.7234 1.93714 14.3796H2.37101ZM0.24173 12.1972L6.89285 12.1669L6.89087 11.733L0.239749 11.7634L0.24173 12.1972ZM6.67493 11.9499V21.4559H7.10879V11.9499H6.67493ZM6.67493 21.4559C6.67493 22.5633 6.90177 23.4342 7.39246 24.0309C7.88983 24.6357 8.62775 24.9224 9.56446 24.9224V24.4886C8.71943 24.4886 8.12105 24.2338 7.72756 23.7553C7.32738 23.2687 7.10879 22.5148 7.10879 21.4559H6.67493ZM9.56446 24.9224C10.3051 24.9224 10.9787 24.7634 11.5802 24.4412L11.3754 24.0587C10.8431 24.3439 10.2411 24.4886 9.56446 24.4886V24.9224ZM11.6947 24.2526L11.8466 11.9526L11.4127 11.9473L11.2609 24.2473L11.6947 24.2526ZM11.6296 12.1669H16.3674V11.733H11.6296V12.1669ZM16.1505 11.9499V20.3625H16.5844V11.9499H16.1505ZM11.4215 6.58809L5.9852 8.95698L6.15852 9.35472L11.5948 6.98583L11.4215 6.58809ZM6.07186 8.93892H5.92001V9.37278H6.07186V8.93892ZM6.08307 9.29893L10.2134 4.59151L9.88732 4.30536L5.75694 9.01278L6.08307 9.29893ZM10.209 4.59645C10.7488 4.0181 11.2924 3.75426 11.8422 3.75426V3.32039C11.1367 3.32039 10.4858 3.66396 9.89179 4.30042L10.209 4.59645ZM11.8422 3.75426C12.1183 3.75426 12.3666 3.86482 12.5944 4.11012L12.9123 3.8149C12.6137 3.49329 12.2545 3.32039 11.8422 3.32039V3.75426ZM12.6 4.11591C12.8261 4.34209 12.9312 4.59194 12.9312 4.87362H13.3651C13.3651 4.46692 13.207 4.10935 12.9067 3.80912L12.6 4.11591ZM12.9312 4.87362C12.9312 5.5785 12.4788 6.15727 11.4263 6.58606L11.59 6.98786C12.7242 6.52578 13.3651 5.829 13.3651 4.87362H12.9312ZM32.3567 24.6751L32.5005 24.8376L32.5006 24.8375L32.3567 24.6751ZM20.5123 24.7359L20.3622 24.8926L20.3645 24.8947L20.5123 24.7359ZM20.6945 13.4381L20.8393 13.5996L20.8404 13.5986L20.6945 13.4381ZM32.5086 13.347L32.363 13.5078L32.3642 13.5089L32.5086 13.347ZM24.096 14.7744L23.8873 14.7148L23.8859 14.7204L24.096 14.7744ZM23.7012 16.7485L23.486 16.7198L23.4854 16.7261L23.7012 16.7485ZM23.6101 19.8766H23.3931V19.8838L23.3936 19.891L23.6101 19.8766ZM23.7012 21.304L23.4846 21.3176L23.4852 21.3243L23.7012 21.304ZM23.9745 22.9136L23.7659 22.9732L23.7667 22.976L23.9745 22.9136ZM24.4604 24.2196L24.2615 24.3061L24.2615 24.3061L24.4604 24.2196ZM25.3108 25.2825L25.1904 25.4632L25.1977 25.4676L25.3108 25.2825ZM34.5391 18.9351C34.5391 21.2912 33.7597 23.1422 32.2129 24.5128L32.5006 24.8375C34.1528 23.3735 34.9729 21.3978 34.9729 18.9351H34.5391ZM32.213 24.5127C30.6797 25.869 28.7191 26.5538 26.313 26.5538V26.9876C28.8068 26.9876 30.8752 26.2753 32.5005 24.8376L32.213 24.5127ZM26.313 26.5538C23.9463 26.5538 22.0696 25.8887 20.6601 24.5771L20.3645 24.8947C21.8705 26.2961 23.861 26.9876 26.313 26.9876V26.5538ZM20.6623 24.5792C19.2759 23.2514 18.5729 21.4297 18.5729 19.087H18.139C18.139 21.5225 18.8736 23.4668 20.3622 24.8925L20.6623 24.5792ZM18.5729 19.087C18.5729 16.7707 19.3325 14.9499 20.8393 13.5996L20.5497 13.2765C18.9385 14.7204 18.139 16.6654 18.139 19.087H18.5729ZM20.8404 13.5986C22.3538 12.2228 24.2834 11.5291 26.6471 11.5291V11.0952C24.192 11.0952 22.1533 11.8188 20.5486 13.2776L20.8404 13.5986ZM26.6471 11.5291C29.0136 11.5291 30.912 12.1941 32.363 13.5078L32.6542 13.1862C31.1086 11.7868 29.0994 11.0952 26.6471 11.0952V11.5291ZM32.3642 13.5089C33.8075 14.7962 34.5391 16.595 34.5391 18.9351H34.9729C34.9729 16.497 34.2062 14.5704 32.653 13.1851L32.3642 13.5089ZM26.556 25.8335C27.1039 25.8335 27.5922 25.684 28.0118 25.3805C28.4292 25.0786 28.7665 24.6333 29.0308 24.0598C29.5568 22.9184 29.81 21.2329 29.81 19.0262H29.3761C29.3761 21.2132 29.1231 22.8229 28.6368 23.8782C28.3948 24.4032 28.0994 24.7817 27.7576 25.0289C27.4179 25.2746 27.0204 25.3997 26.556 25.3997V25.8335ZM29.81 19.0262C29.81 16.8203 29.5695 15.1365 29.0705 13.9965C28.8198 13.424 28.4995 12.9782 28.1015 12.6752C27.7007 12.37 27.2331 12.2189 26.7078 12.2189V12.6528C27.1443 12.6528 27.5182 12.7763 27.8387 13.0204C28.162 13.2665 28.4428 13.6445 28.673 14.1705C29.1357 15.2272 29.3761 16.8386 29.3761 19.0262H29.81ZM26.7078 12.2189C26.0074 12.2189 25.4061 12.4508 24.9181 12.9167L25.2176 13.2306C25.6204 12.8461 26.1125 12.6528 26.7078 12.6528V12.2189ZM24.9181 12.9167C24.4397 13.3733 24.0984 13.9764 23.8874 14.7148L24.3046 14.834C24.4985 14.1551 24.8051 13.6243 25.2176 13.2306L24.9181 12.9167ZM23.8859 14.7204C23.7019 15.4358 23.5685 16.1024 23.4861 16.7198L23.9162 16.7771C23.9959 16.1797 24.1256 15.5302 24.3061 14.8284L23.8859 14.7204ZM23.4854 16.7261C23.4238 17.3214 23.3931 17.9464 23.3931 18.6011H23.827C23.827 17.9599 23.857 17.3498 23.917 16.7708L23.4854 16.7261ZM23.3931 18.6011C23.3931 18.6021 23.3931 18.6031 23.3931 18.6041C23.3931 18.6052 23.3931 18.6062 23.3931 18.6072C23.3931 18.6082 23.3931 18.6093 23.3931 18.6103C23.3931 18.6113 23.3931 18.6123 23.3931 18.6134C23.3931 18.6144 23.3931 18.6154 23.3931 18.6164C23.3931 18.6175 23.3931 18.6185 23.3931 18.6195C23.3931 18.6205 23.3931 18.6216 23.3931 18.6226C23.3931 18.6236 23.3931 18.6246 23.3931 18.6257C23.3931 18.6267 23.3931 18.6277 23.3931 18.6287C23.3931 18.6297 23.3931 18.6308 23.3931 18.6318C23.3931 18.6328 23.3931 18.6338 23.3931 18.6348C23.3931 18.6359 23.3931 18.6369 23.3931 18.6379C23.3931 18.6389 23.3931 18.6399 23.3931 18.641C23.3931 18.642 23.3931 18.643 23.3931 18.644C23.3931 18.645 23.3931 18.646 23.3931 18.6471C23.3931 18.6481 23.3931 18.6491 23.3931 18.6501C23.3931 18.6511 23.3931 18.6521 23.3931 18.6532C23.3931 18.6542 23.3931 18.6552 23.3931 18.6562C23.3931 18.6572 23.3931 18.6582 23.3931 18.6592C23.3931 18.6603 23.3931 18.6613 23.3931 18.6623C23.3931 18.6633 23.3931 18.6643 23.3931 18.6653C23.3931 18.6663 23.3931 18.6673 23.3931 18.6683C23.3931 18.6694 23.3931 18.6704 23.3931 18.6714C23.3931 18.6724 23.3931 18.6734 23.3931 18.6744C23.3931 18.6754 23.3931 18.6764 23.3931 18.6774C23.3931 18.6784 23.3931 18.6795 23.3931 18.6805C23.3931 18.6815 23.3931 18.6825 23.3931 18.6835C23.3931 18.6845 23.3931 18.6855 23.3931 18.6865C23.3931 18.6875 23.3931 18.6885 23.3931 18.6895C23.3931 18.6905 23.3931 18.6915 23.3931 18.6925C23.3931 18.6935 23.3931 18.6946 23.3931 18.6956C23.3931 18.6966 23.3931 18.6976 23.3931 18.6986C23.3931 18.6996 23.3931 18.7006 23.3931 18.7016C23.3931 18.7026 23.3931 18.7036 23.3931 18.7046C23.3931 18.7056 23.3931 18.7066 23.3931 18.7076C23.3931 18.7086 23.3931 18.7096 23.3931 18.7106C23.3931 18.7116 23.3931 18.7126 23.3931 18.7136C23.3931 18.7146 23.3931 18.7156 23.3931 18.7166C23.3931 18.7176 23.3931 18.7186 23.3931 18.7196C23.3931 18.7206 23.3931 18.7216 23.3931 18.7226C23.3931 18.7236 23.3931 18.7246 23.3931 18.7256C23.3931 18.7266 23.3931 18.7276 23.3931 18.7286C23.3931 18.7296 23.3931 18.7305 23.3931 18.7315C23.3931 18.7325 23.3931 18.7335 23.3931 18.7345C23.3931 18.7355 23.3931 18.7365 23.3931 18.7375C23.3931 18.7385 23.3931 18.7395 23.3931 18.7405C23.3931 18.7415 23.3931 18.7425 23.3931 18.7435C23.3931 18.7445 23.3931 18.7454 23.3931 18.7464C23.3931 18.7474 23.3931 18.7484 23.3931 18.7494C23.3931 18.7504 23.3931 18.7514 23.3931 18.7524C23.3931 18.7534 23.3931 18.7544 23.3931 18.7553C23.3931 18.7563 23.3931 18.7573 23.3931 18.7583C23.3931 18.7593 23.3931 18.7603 23.3931 18.7613C23.3931 18.7623 23.3931 18.7632 23.3931 18.7642C23.3931 18.7652 23.3931 18.7662 23.3931 18.7672C23.3931 18.7682 23.3931 18.7692 23.3931 18.7701C23.3931 18.7711 23.3931 18.7721 23.3931 18.7731C23.3931 18.7741 23.3931 18.7751 23.3931 18.7761C23.3931 18.777 23.3931 18.778 23.3931 18.779C23.3931 18.78 23.3931 18.781 23.3931 18.7819C23.3931 18.7829 23.3931 18.7839 23.3931 18.7849C23.3931 18.7859 23.3931 18.7869 23.3931 18.7878C23.3931 18.7888 23.3931 18.7898 23.3931 18.7908C23.3931 18.7918 23.3931 18.7927 23.3931 18.7937C23.3931 18.7947 23.3931 18.7957 23.3931 18.7966C23.3931 18.7976 23.3931 18.7986 23.3931 18.7996C23.3931 18.8006 23.3931 18.8015 23.3931 18.8025C23.3931 18.8035 23.3931 18.8045 23.3931 18.8054C23.3931 18.8064 23.3931 18.8074 23.3931 18.8084C23.3931 18.8093 23.3931 18.8103 23.3931 18.8113C23.3931 18.8123 23.3931 18.8132 23.3931 18.8142C23.3931 18.8152 23.3931 18.8162 23.3931 18.8171C23.3931 18.8181 23.3931 18.8191 23.3931 18.82C23.3931 18.821 23.3931 18.822 23.3931 18.823C23.3931 18.8239 23.3931 18.8249 23.3931 18.8259C23.3931 18.8268 23.3931 18.8278 23.3931 18.8288C23.3931 18.8298 23.3931 18.8307 23.3931 18.8317C23.3931 18.8327 23.3931 18.8336 23.3931 18.8346C23.3931 18.8356 23.3931 18.8365 23.3931 18.8375C23.3931 18.8385 23.3931 18.8394 23.3931 18.8404C23.3931 18.8414 23.3931 18.8423 23.3931 18.8433C23.3931 18.8443 23.3931 18.8452 23.3931 18.8462C23.3931 18.8472 23.3931 18.8481 23.3931 18.8491C23.3931 18.85 23.3931 18.851 23.3931 18.852C23.3931 18.8529 23.3931 18.8539 23.3931 18.8549C23.3931 18.8558 23.3931 18.8568 23.3931 18.8577C23.3931 18.8587 23.3931 18.8597 23.3931 18.8606C23.3931 18.8616 23.3931 18.8626 23.3931 18.8635C23.3931 18.8645 23.3931 18.8654 23.3931 18.8664C23.3931 18.8674 23.3931 18.8683 23.3931 18.8693C23.3931 18.8702 23.3931 18.8712 23.3931 18.8721C23.3931 18.8731 23.3931 18.8741 23.3931 18.875C23.3931 18.876 23.3931 18.8769 23.3931 18.8779C23.3931 18.8788 23.3931 18.8798 23.3931 18.8808C23.3931 18.8817 23.3931 18.8827 23.3931 18.8836C23.3931 18.8846 23.3931 18.8855 23.3931 18.8865C23.3931 18.8874 23.3931 18.8884 23.3931 18.8893C23.3931 18.8903 23.3931 18.8913 23.3931 18.8922C23.3931 18.8932 23.3931 18.8941 23.3931 18.8951C23.3931 18.896 23.3931 18.897 23.3931 18.8979C23.3931 18.8989 23.3931 18.8998 23.3931 18.9008C23.3931 18.9017 23.3931 18.9027 23.3931 18.9036C23.3931 18.9046 23.3931 18.9055 23.3931 18.9065C23.3931 18.9074 23.3931 18.9084 23.3931 18.9093C23.3931 18.9103 23.3931 18.9112 23.3931 18.9121C23.3931 18.9131 23.3931 18.914 23.3931 18.915C23.3931 18.9159 23.3931 18.9169 23.3931 18.9178C23.3931 18.9188 23.3931 18.9197 23.3931 18.9207C23.3931 18.9216 23.3931 18.9226 23.3931 18.9235C23.3931 18.9244 23.3931 18.9254 23.3931 18.9263C23.3931 18.9273 23.3931 18.9282 23.3931 18.9292C23.3931 18.9301 23.3931 18.931 23.3931 18.932C23.3931 18.9329 23.3931 18.9339 23.3931 18.9348C23.3931 18.9357 23.3931 18.9367 23.3931 18.9376C23.3931 18.9386 23.3931 18.9395 23.3931 18.9404C23.3931 18.9414 23.3931 18.9423 23.3931 18.9433C23.3931 18.9442 23.3931 18.9451 23.3931 18.9461C23.3931 18.947 23.3931 18.948 23.3931 18.9489C23.3931 18.9498 23.3931 18.9508 23.3931 18.9517C23.3931 18.9526 23.3931 18.9536 23.3931 18.9545C23.3931 18.9554 23.3931 18.9564 23.3931 18.9573C23.3931 18.9582 23.3931 18.9592 23.3931 18.9601C23.3931 18.961 23.3931 18.962 23.3931 18.9629C23.3931 18.9638 23.3931 18.9648 23.3931 18.9657C23.3931 18.9666 23.3931 18.9676 23.3931 18.9685C23.3931 18.9694 23.3931 18.9704 23.3931 18.9713C23.3931 18.9722 23.3931 18.9732 23.3931 18.9741C23.3931 18.975 23.3931 18.976 23.3931 18.9769C23.3931 18.9778 23.3931 18.9787 23.3931 18.9797C23.3931 18.9806 23.3931 18.9815 23.3931 18.9825C23.3931 18.9834 23.3931 18.9843 23.3931 18.9852C23.3931 18.9862 23.3931 18.9871 23.3931 18.988C23.3931 18.9889 23.3931 18.9899 23.3931 18.9908C23.3931 18.9917 23.3931 18.9926 23.3931 18.9936C23.3931 18.9945 23.3931 18.9954 23.3931 18.9963C23.3931 18.9973 23.3931 18.9982 23.3931 18.9991C23.3931 19 23.3931 19.001 23.3931 19.0019C23.3931 19.0028 23.3931 19.0037 23.3931 19.0046C23.3931 19.0056 23.3931 19.0065 23.3931 19.0074C23.3931 19.0083 23.3931 19.0093 23.3931 19.0102C23.3931 19.0111 23.3931 19.012 23.3931 19.0129C23.3931 19.0139 23.3931 19.0148 23.3931 19.0157C23.3931 19.0166 23.3931 19.0175 23.3931 19.0184C23.3931 19.0194 23.3931 19.0203 23.3931 19.0212C23.3931 19.0221 23.3931 19.023 23.3931 19.0239C23.3931 19.0249 23.3931 19.0258 23.3931 19.0267C23.3931 19.0276 23.3931 19.0285 23.3931 19.0294C23.3931 19.0304 23.3931 19.0313 23.3931 19.0322C23.3931 19.0331 23.3931 19.034 23.3931 19.0349C23.3931 19.0358 23.3931 19.0367 23.3931 19.0377C23.3931 19.0386 23.3931 19.0395 23.3931 19.0404C23.3931 19.0413 23.3931 19.0422 23.3931 19.0431C23.3931 19.044 23.3931 19.0449 23.3931 19.0459C23.3931 19.0468 23.3931 19.0477 23.3931 19.0486C23.3931 19.0495 23.3931 19.0504 23.3931 19.0513C23.3931 19.0522 23.3931 19.0531 23.3931 19.054C23.3931 19.0549 23.3931 19.0559 23.3931 19.0568C23.3931 19.0577 23.3931 19.0586 23.3931 19.0595C23.3931 19.0604 23.3931 19.0613 23.3931 19.0622C23.3931 19.0631 23.3931 19.064 23.3931 19.0649C23.3931 19.0658 23.3931 19.0667 23.3931 19.0676C23.3931 19.0685 23.3931 19.0694 23.3931 19.0703C23.3931 19.0712 23.3931 19.0721 23.3931 19.073C23.3931 19.0739 23.3931 19.0748 23.3931 19.0757C23.3931 19.0766 23.3931 19.0776 23.3931 19.0785C23.3931 19.0794 23.3931 19.0803 23.3931 19.0812C23.3931 19.0821 23.3931 19.083 23.3931 19.0839C23.3931 19.0848 23.3931 19.0856 23.3931 19.0865C23.3931 19.0874 23.3931 19.0883 23.3931 19.0892C23.3931 19.0901 23.3931 19.091 23.3931 19.0919C23.3931 19.0928 23.3931 19.0937 23.3931 19.0946C23.3931 19.0955 23.3931 19.0964 23.3931 19.0973C23.3931 19.0982 23.3931 19.0991 23.3931 19.1C23.3931 19.1009 23.3931 19.1018 23.3931 19.1027C23.3931 19.1036 23.3931 19.1045 23.3931 19.1054C23.3931 19.1062 23.3931 19.1071 23.3931 19.108C23.3931 19.1089 23.3931 19.1098 23.3931 19.1107C23.3931 19.1116 23.3931 19.1125 23.3931 19.1134C23.3931 19.1143 23.3931 19.1152 23.3931 19.1161C23.3931 19.1169 23.3931 19.1178 23.3931 19.1187C23.3931 19.1196 23.3931 19.1205 23.3931 19.1214C23.3931 19.1223 23.3931 19.1232 23.3931 19.1241C23.3931 19.1249 23.3931 19.1258 23.3931 19.1267C23.3931 19.1276 23.3931 19.1285 23.3931 19.1294C23.3931 19.1303 23.3931 19.1311 23.3931 19.132C23.3931 19.1329 23.3931 19.1338 23.3931 19.1347C23.3931 19.1356 23.3931 19.1365 23.3931 19.1373C23.3931 19.1382 23.3931 19.1391 23.3931 19.14C23.3931 19.1409 23.3931 19.1418 23.3931 19.1426C23.3931 19.1435 23.3931 19.1444 23.3931 19.1453C23.3931 19.1462 23.3931 19.147 23.3931 19.1479C23.3931 19.1488 23.3931 19.1497 23.3931 19.1506C23.3931 19.1514 23.3931 19.1523 23.3931 19.1532C23.3931 19.1541 23.3931 19.155 23.3931 19.1558C23.3931 19.1567 23.3931 19.1576 23.3931 19.1585C23.3931 19.1594 23.3931 19.1602 23.3931 19.1611C23.3931 19.162 23.3931 19.1629 23.3931 19.1637C23.3931 19.1646 23.3931 19.1655 23.3931 19.1664C23.3931 19.1672 23.3931 19.1681 23.3931 19.169C23.3931 19.1699 23.3931 19.1707 23.3931 19.1716C23.3931 19.1725 23.3931 19.1734 23.3931 19.1742C23.3931 19.1751 23.3931 19.176 23.3931 19.1768C23.3931 19.1777 23.3931 19.1786 23.3931 19.1795C23.3931 19.1803 23.3931 19.1812 23.3931 19.1821C23.3931 19.1829 23.3931 19.1838 23.3931 19.1847C23.3931 19.1856 23.3931 19.1864 23.3931 19.1873C23.3931 19.1882 23.3931 19.189 23.3931 19.1899C23.3931 19.1908 23.3931 19.1916 23.3931 19.1925C23.3931 19.1934 23.3931 19.1942 23.3931 19.1951C23.3931 19.196 23.3931 19.1968 23.3931 19.1977C23.3931 19.1986 23.3931 19.1994 23.3931 19.2003C23.3931 19.2012 23.3931 19.202 23.3931 19.2029C23.3931 19.2038 23.3931 19.2046 23.3931 19.2055C23.3931 19.2064 23.3931 19.2072 23.3931 19.2081C23.3931 19.2089 23.3931 19.2098 23.3931 19.2107C23.3931 19.2115 23.3931 19.2124 23.3931 19.2132C23.3931 19.2141 23.3931 19.215 23.3931 19.2158C23.3931 19.2167 23.3931 19.2176 23.3931 19.2184C23.3931 19.2193 23.3931 19.2201 23.3931 19.221C23.3931 19.2218 23.3931 19.2227 23.3931 19.2236C23.3931 19.2244 23.3931 19.2253 23.3931 19.2261C23.3931 19.227 23.3931 19.2279 23.3931 19.2287C23.3931 19.2296 23.3931 19.2304 23.3931 19.2313C23.3931 19.2321 23.3931 19.233 23.3931 19.2338C23.3931 19.2347 23.3931 19.2356 23.3931 19.2364C23.3931 19.2373 23.3931 19.2381 23.3931 19.239C23.3931 19.2398 23.3931 19.2407 23.3931 19.2415C23.3931 19.2424 23.3931 19.2432 23.3931 19.2441C23.3931 19.2449 23.3931 19.2458 23.3931 19.2466C23.3931 19.2475 23.3931 19.2483 23.3931 19.2492C23.3931 19.25 23.3931 19.2509 23.3931 19.2517C23.3931 19.2526 23.3931 19.2534 23.3931 19.2543C23.3931 19.2551 23.3931 19.256 23.3931 19.2568C23.3931 19.2577 23.3931 19.2585 23.3931 19.2594C23.3931 19.2602 23.3931 19.2611 23.3931 19.2619C23.3931 19.2628 23.3931 19.2636 23.3931 19.2645C23.3931 19.2653 23.3931 19.2662 23.3931 19.267C23.3931 19.2678 23.3931 19.2687 23.3931 19.2695C23.3931 19.2704 23.3931 19.2712 23.3931 19.2721C23.3931 19.2729 23.3931 19.2738 23.3931 19.2746C23.3931 19.2754 23.3931 19.2763 23.3931 19.2771C23.3931 19.278 23.3931 19.2788 23.3931 19.2796C23.3931 19.2805 23.3931 19.2813 23.3931 19.2822C23.3931 19.283 23.3931 19.2839 23.3931 19.2847C23.3931 19.2855 23.3931 19.2864 23.3931 19.2872C23.3931 19.288 23.3931 19.2889 23.3931 19.2897C23.3931 19.2906 23.3931 19.2914 23.3931 19.2922C23.3931 19.2931 23.3931 19.2939 23.3931 19.2948C23.3931 19.2956 23.3931 19.2964 23.3931 19.2973C23.3931 19.2981 23.3931 19.2989 23.3931 19.2998C23.3931 19.3006 23.3931 19.3014 23.3931 19.3023C23.3931 19.3031 23.3931 19.3039 23.3931 19.3048C23.3931 19.3056 23.3931 19.3064 23.3931 19.3073C23.3931 19.3081 23.3931 19.3089 23.3931 19.3098C23.3931 19.3106 23.3931 19.3114 23.3931 19.3123C23.3931 19.3131 23.3931 19.3139 23.3931 19.3148C23.3931 19.3156 23.3931 19.3164 23.3931 19.3172C23.3931 19.3181 23.3931 19.3189 23.3931 19.3197C23.3931 19.3206 23.3931 19.3214 23.3931 19.3222C23.3931 19.323 23.3931 19.3239 23.3931 19.3247C23.3931 19.3255 23.3931 19.3264 23.3931 19.3272C23.3931 19.328 23.3931 19.3288 23.3931 19.3297C23.3931 19.3305 23.3931 19.3313 23.3931 19.3321C23.3931 19.333 23.3931 19.3338 23.3931 19.3346C23.3931 19.3354 23.3931 19.3363 23.3931 19.3371C23.3931 19.3379 23.3931 19.3387 23.3931 19.3396C23.3931 19.3404 23.3931 19.3412 23.3931 19.342C23.3931 19.3428 23.3931 19.3437 23.3931 19.3445C23.3931 19.3453 23.3931 19.3461 23.3931 19.3469C23.3931 19.3478 23.3931 19.3486 23.3931 19.3494C23.3931 19.3502 23.3931 19.351 23.3931 19.3519C23.3931 19.3527 23.3931 19.3535 23.3931 19.3543C23.3931 19.3551 23.3931 19.356 23.3931 19.3568C23.3931 19.3576 23.3931 19.3584 23.3931 19.3592C23.3931 19.36 23.3931 19.3609 23.3931 19.3617C23.3931 19.3625 23.3931 19.3633 23.3931 19.3641C23.3931 19.3649 23.3931 19.3657 23.3931 19.3666C23.3931 19.3674 23.3931 19.3682 23.3931 19.369C23.3931 19.3698 23.3931 19.3706 23.3931 19.3714C23.3931 19.3723 23.3931 19.3731 23.3931 19.3739C23.3931 19.3747 23.3931 19.3755 23.3931 19.3763C23.3931 19.3771 23.3931 19.3779 23.3931 19.3787C23.3931 19.3796 23.3931 19.3804 23.3931 19.3812C23.3931 19.382 23.3931 19.3828 23.3931 19.3836C23.3931 19.3844 23.3931 19.3852 23.3931 19.386C23.3931 19.3868 23.3931 19.3876 23.3931 19.3885C23.3931 19.3893 23.3931 19.3901 23.3931 19.3909C23.3931 19.3917 23.3931 19.3925 23.3931 19.3933C23.3931 19.3941 23.3931 19.3949 23.3931 19.3957C23.3931 19.3965 23.3931 19.3973 23.3931 19.3981C23.3931 19.3989 23.3931 19.3997 23.3931 19.4005C23.3931 19.4013 23.3931 19.4021 23.3931 19.4029C23.3931 19.4037 23.3931 19.4045 23.3931 19.4053C23.3931 19.4062 23.3931 19.407 23.3931 19.4078C23.3931 19.4086 23.3931 19.4094 23.3931 19.4102C23.3931 19.411 23.3931 19.4118 23.3931 19.4126C23.3931 19.4134 23.3931 19.4142 23.3931 19.415C23.3931 19.4158 23.3931 19.4165 23.3931 19.4173C23.3931 19.4181 23.3931 19.4189 23.3931 19.4197C23.3931 19.4205 23.3931 19.4213 23.3931 19.4221C23.3931 19.4229 23.3931 19.4237 23.3931 19.4245C23.3931 19.4253 23.3931 19.4261 23.3931 19.4269C23.3931 19.4277 23.3931 19.4285 23.3931 19.4293C23.3931 19.4301 23.3931 19.4309 23.3931 19.4317C23.3931 19.4325 23.3931 19.4333 23.3931 19.434C23.3931 19.4348 23.3931 19.4356 23.3931 19.4364C23.3931 19.4372 23.3931 19.438 23.3931 19.4388C23.3931 19.4396 23.3931 19.4404 23.3931 19.4412C23.3931 19.442 23.3931 19.4428 23.3931 19.4435C23.3931 19.4443 23.3931 19.4451 23.3931 19.4459C23.3931 19.4467 23.3931 19.4475 23.3931 19.4483C23.3931 19.4491 23.3931 19.4498 23.3931 19.4506C23.3931 19.4514 23.3931 19.4522 23.3931 19.453C23.3931 19.4538 23.3931 19.4546 23.3931 19.4554C23.3931 19.4561 23.3931 19.4569 23.3931 19.4577C23.3931 19.4585 23.3931 19.4593 23.3931 19.4601C23.3931 19.4608 23.3931 19.4616 23.3931 19.4624C23.3931 19.4632 23.3931 19.464 23.3931 19.4648C23.3931 19.4655 23.3931 19.4663 23.3931 19.4671C23.3931 19.4679 23.3931 19.4687 23.3931 19.4695C23.3931 19.4702 23.3931 19.471 23.3931 19.4718C23.3931 19.4726 23.3931 19.4734 23.3931 19.4741C23.3931 19.4749 23.3931 19.4757 23.3931 19.4765C23.3931 19.4773 23.3931 19.478 23.3931 19.4788C23.3931 19.4796 23.3931 19.4804 23.3931 19.4811C23.3931 19.4819 23.3931 19.4827 23.3931 19.4835C23.3931 19.4842 23.3931 19.485 23.3931 19.4858C23.3931 19.4866 23.3931 19.4874 23.3931 19.4881C23.3931 19.4889 23.3931 19.4897 23.3931 19.4904C23.3931 19.4912 23.3931 19.492 23.3931 19.4928C23.3931 19.4935 23.3931 19.4943 23.3931 19.4951C23.3931 19.4959 23.3931 19.4966 23.3931 19.4974C23.3931 19.4982 23.3931 19.4989 23.3931 19.4997C23.3931 19.5005 23.3931 19.5013 23.3931 19.502C23.3931 19.5028 23.3931 19.5036 23.3931 19.5043C23.3931 19.5051 23.3931 19.5059 23.3931 19.5066C23.3931 19.5074 23.3931 19.5082 23.3931 19.509C23.3931 19.5097 23.3931 19.5105 23.3931 19.5113C23.3931 19.512 23.3931 19.5128 23.3931 19.5136C23.3931 19.5143 23.3931 19.5151 23.3931 19.5159C23.3931 19.5166 23.3931 19.5174 23.3931 19.5181C23.3931 19.5189 23.3931 19.5197 23.3931 19.5204C23.3931 19.5212 23.3931 19.522 23.3931 19.5227C23.3931 19.5235 23.3931 19.5243 23.3931 19.525C23.3931 19.5258 23.3931 19.5265 23.3931 19.5273C23.3931 19.5281 23.3931 19.5288 23.3931 19.5296C23.3931 19.5304 23.3931 19.5311 23.3931 19.5319C23.3931 19.5326 23.3931 19.5334 23.3931 19.5342C23.3931 19.5349 23.3931 19.5357 23.3931 19.5364C23.3931 19.5372 23.3931 19.5379 23.3931 19.5387C23.3931 19.5395 23.3931 19.5402 23.3931 19.541C23.3931 19.5417 23.3931 19.5425 23.3931 19.5432C23.3931 19.544 23.3931 19.5448 23.3931 19.5455C23.3931 19.5463 23.3931 19.547 23.3931 19.5478C23.3931 19.5485 23.3931 19.5493 23.3931 19.55C23.3931 19.5508 23.3931 19.5515 23.3931 19.5523C23.3931 19.5531 23.3931 19.5538 23.3931 19.5546C23.3931 19.5553 23.3931 19.5561 23.3931 19.5568C23.3931 19.5576 23.3931 19.5583 23.3931 19.5591C23.3931 19.5598 23.3931 19.5606 23.3931 19.5613C23.3931 19.5621 23.3931 19.5628 23.3931 19.5636C23.3931 19.5643 23.3931 19.5651 23.3931 19.5658C23.3931 19.5666 23.3931 19.5673 23.3931 19.5681C23.3931 19.5688 23.3931 19.5696 23.3931 19.5703C23.3931 19.5711 23.3931 19.5718 23.3931 19.5725C23.3931 19.5733 23.3931 19.574 23.3931 19.5748C23.3931 19.5755 23.3931 19.5763 23.3931 19.577C23.3931 19.5778 23.3931 19.5785 23.3931 19.5793C23.3931 19.58 23.3931 19.5807 23.3931 19.5815C23.3931 19.5822 23.3931 19.583 23.3931 19.5837C23.3931 19.5845 23.3931 19.5852 23.3931 19.5859C23.3931 19.5867 23.3931 19.5874 23.3931 19.5882C23.3931 19.5889 23.3931 19.5896 23.3931 19.5904C23.3931 19.5911 23.3931 19.5919 23.3931 19.5926C23.3931 19.5933 23.3931 19.5941 23.3931 19.5948C23.3931 19.5956 23.3931 19.5963 23.3931 19.597C23.3931 19.5978 23.3931 19.5985 23.3931 19.5992C23.3931 19.6 23.3931 19.6007 23.3931 19.6015C23.3931 19.6022 23.3931 19.6029 23.3931 19.6037C23.3931 19.6044 23.3931 19.6051 23.3931 19.6059C23.3931 19.6066 23.3931 19.6073 23.3931 19.6081C23.3931 19.6088 23.3931 19.6095 23.3931 19.6103C23.3931 19.611 23.3931 19.6117 23.3931 19.6125C23.3931 19.6132 23.3931 19.6139 23.3931 19.6147C23.3931 19.6154 23.3931 19.6161 23.3931 19.6169C23.3931 19.6176 23.3931 19.6183 23.3931 19.619C23.3931 19.6198 23.3931 19.6205 23.3931 19.6212C23.3931 19.622 23.3931 19.6227 23.3931 19.6234C23.3931 19.6242 23.3931 19.6249 23.3931 19.6256C23.3931 19.6263 23.3931 19.6271 23.3931 19.6278C23.3931 19.6285 23.3931 19.6292 23.3931 19.63C23.3931 19.6307 23.3931 19.6314 23.3931 19.6321C23.3931 19.6329 23.3931 19.6336 23.3931 19.6343C23.3931 19.635 23.3931 19.6358 23.3931 19.6365C23.3931 19.6372 23.3931 19.6379 23.3931 19.6387C23.3931 19.6394 23.3931 19.6401 23.3931 19.6408C23.3931 19.6416 23.3931 19.6423 23.3931 19.643C23.3931 19.6437 23.3931 19.6444 23.3931 19.6452C23.3931 19.6459 23.3931 19.6466 23.3931 19.6473C23.3931 19.648 23.3931 19.6488 23.3931 19.6495C23.3931 19.6502 23.3931 19.6509 23.3931 19.6516C23.3931 19.6524 23.3931 19.6531 23.3931 19.6538C23.3931 19.6545 23.3931 19.6552 23.3931 19.6559C23.3931 19.6567 23.3931 19.6574 23.3931 19.6581C23.3931 19.6588 23.3931 19.6595 23.3931 19.6602C23.3931 19.661 23.3931 19.6617 23.3931 19.6624C23.3931 19.6631 23.3931 19.6638 23.3931 19.6645C23.3931 19.6652 23.3931 19.666 23.3931 19.6667C23.3931 19.6674 23.3931 19.6681 23.3931 19.6688C23.3931 19.6695 23.3931 19.6702 23.3931 19.6709C23.3931 19.6717 23.3931 19.6724 23.3931 19.6731C23.3931 19.6738 23.3931 19.6745 23.3931 19.6752C23.3931 19.6759 23.3931 19.6766 23.3931 19.6773C23.3931 19.678 23.3931 19.6788 23.3931 19.6795C23.3931 19.6802 23.3931 19.6809 23.3931 19.6816C23.3931 19.6823 23.3931 19.683 23.3931 19.6837C23.3931 19.6844 23.3931 19.6851 23.3931 19.6858C23.3931 19.6865 23.3931 19.6872 23.3931 19.6879C23.3931 19.6887 23.3931 19.6894 23.3931 19.6901C23.3931 19.6908 23.3931 19.6915 23.3931 19.6922C23.3931 19.6929 23.3931 19.6936 23.3931 19.6943C23.3931 19.695 23.3931 19.6957 23.3931 19.6964C23.3931 19.6971 23.3931 19.6978 23.3931 19.6985C23.3931 19.6992 23.3931 19.6999 23.3931 19.7006C23.3931 19.7013 23.3931 19.702 23.3931 19.7027C23.3931 19.7034 23.3931 19.7041 23.3931 19.7048C23.3931 19.7055 23.3931 19.7062 23.3931 19.7069C23.3931 19.7076 23.3931 19.7083 23.3931 19.709C23.3931 19.7097 23.3931 19.7104 23.3931 19.7111C23.3931 19.7118 23.3931 19.7125 23.3931 19.7132C23.3931 19.7139 23.3931 19.7146 23.3931 19.7153C23.3931 19.716 23.3931 19.7166 23.3931 19.7173C23.3931 19.718 23.3931 19.7187 23.3931 19.7194C23.3931 19.7201 23.3931 19.7208 23.3931 19.7215C23.3931 19.7222 23.3931 19.7229 23.3931 19.7236C23.3931 19.7243 23.3931 19.725 23.3931 19.7257C23.3931 19.7263 23.3931 19.727 23.3931 19.7277C23.3931 19.7284 23.3931 19.7291 23.3931 19.7298C23.3931 19.7305 23.3931 19.7312 23.3931 19.7319C23.3931 19.7326 23.3931 19.7332 23.3931 19.7339C23.3931 19.7346 23.3931 19.7353 23.3931 19.736C23.3931 19.7367 23.3931 19.7374 23.3931 19.7381C23.3931 19.7387 23.3931 19.7394 23.3931 19.7401C23.3931 19.7408 23.3931 19.7415 23.3931 19.7422C23.3931 19.7429 23.3931 19.7435 23.3931 19.7442C23.3931 19.7449 23.3931 19.7456 23.3931 19.7463C23.3931 19.747 23.3931 19.7477 23.3931 19.7483C23.3931 19.749 23.3931 19.7497 23.3931 19.7504C23.3931 19.7511 23.3931 19.7517 23.3931 19.7524C23.3931 19.7531 23.3931 19.7538 23.3931 19.7545C23.3931 19.7551 23.3931 19.7558 23.3931 19.7565C23.3931 19.7572 23.3931 19.7579 23.3931 19.7585C23.3931 19.7592 23.3931 19.7599 23.3931 19.7606C23.3931 19.7613 23.3931 19.7619 23.3931 19.7626C23.3931 19.7633 23.3931 19.764 23.3931 19.7646C23.3931 19.7653 23.3931 19.766 23.3931 19.7667C23.3931 19.7674 23.3931 19.768 23.3931 19.7687C23.3931 19.7694 23.3931 19.7701 23.3931 19.7707C23.3931 19.7714 23.3931 19.7721 23.3931 19.7728C23.3931 19.7734 23.3931 19.7741 23.3931 19.7748C23.3931 19.7754 23.3931 19.7761 23.3931 19.7768C23.3931 19.7775 23.3931 19.7781 23.3931 19.7788C23.3931 19.7795 23.3931 19.7801 23.3931 19.7808C23.3931 19.7815 23.3931 19.7822 23.3931 19.7828C23.3931 19.7835 23.3931 19.7842 23.3931 19.7848C23.3931 19.7855 23.3931 19.7862 23.3931 19.7868C23.3931 19.7875 23.3931 19.7882 23.3931 19.7888C23.3931 19.7895 23.3931 19.7902 23.3931 19.7908C23.3931 19.7915 23.3931 19.7922 23.3931 19.7928C23.3931 19.7935 23.3931 19.7942 23.3931 19.7948C23.3931 19.7955 23.3931 19.7962 23.3931 19.7968C23.3931 19.7975 23.3931 19.7982 23.3931 19.7988C23.3931 19.7995 23.3931 19.8002 23.3931 19.8008C23.3931 19.8015 23.3931 19.8021 23.3931 19.8028C23.3931 19.8035 23.3931 19.8041 23.3931 19.8048C23.3931 19.8055 23.3931 19.8061 23.3931 19.8068C23.3931 19.8074 23.3931 19.8081 23.3931 19.8088C23.3931 19.8094 23.3931 19.8101 23.3931 19.8107C23.3931 19.8114 23.3931 19.812 23.3931 19.8127C23.3931 19.8134 23.3931 19.814 23.3931 19.8147C23.3931 19.8153 23.3931 19.816 23.3931 19.8167C23.3931 19.8173 23.3931 19.818 23.3931 19.8186C23.3931 19.8193 23.3931 19.8199 23.3931 19.8206C23.3931 19.8212 23.3931 19.8219 23.3931 19.8226C23.3931 19.8232 23.3931 19.8239 23.3931 19.8245C23.3931 19.8252 23.3931 19.8258 23.3931 19.8265C23.3931 19.8271 23.3931 19.8278 23.3931 19.8284C23.3931 19.8291 23.3931 19.8297 23.3931 19.8304C23.3931 19.831 23.3931 19.8317 23.3931 19.8323C23.3931 19.833 23.3931 19.8336 23.3931 19.8343C23.3931 19.8349 23.3931 19.8356 23.3931 19.8362C23.3931 19.8369 23.3931 19.8375 23.3931 19.8382C23.3931 19.8388 23.3931 19.8395 23.3931 19.8401C23.3931 19.8408 23.3931 19.8414 23.3931 19.8421C23.3931 19.8427 23.3931 19.8434 23.3931 19.844C23.3931 19.8447 23.3931 19.8453 23.3931 19.8459C23.3931 19.8466 23.3931 19.8472 23.3931 19.8479C23.3931 19.8485 23.3931 19.8492 23.3931 19.8498C23.3931 19.8505 23.3931 19.8511 23.3931 19.8517C23.3931 19.8524 23.3931 19.853 23.3931 19.8537C23.3931 19.8543 23.3931 19.8549 23.3931 19.8556C23.3931 19.8562 23.3931 19.8569 23.3931 19.8575C23.3931 19.8582 23.3931 19.8588 23.3931 19.8594C23.3931 19.8601 23.3931 19.8607 23.3931 19.8613C23.3931 19.862 23.3931 19.8626 23.3931 19.8633C23.3931 19.8639 23.3931 19.8645 23.3931 19.8652C23.3931 19.8658 23.3931 19.8665 23.3931 19.8671C23.3931 19.8677 23.3931 19.8684 23.3931 19.869C23.3931 19.8696 23.3931 19.8703 23.3931 19.8709C23.3931 19.8715 23.3931 19.8722 23.3931 19.8728C23.3931 19.8734 23.3931 19.8741 23.3931 19.8747C23.3931 19.8753 23.3931 19.876 23.3931 19.8766H23.827C23.827 19.876 23.827 19.8753 23.827 19.8747C23.827 19.8741 23.827 19.8734 23.827 19.8728C23.827 19.8722 23.827 19.8715 23.827 19.8709C23.827 19.8703 23.827 19.8696 23.827 19.869C23.827 19.8684 23.827 19.8677 23.827 19.8671C23.827 19.8665 23.827 19.8658 23.827 19.8652C23.827 19.8645 23.827 19.8639 23.827 19.8633C23.827 19.8626 23.827 19.862 23.827 19.8613C23.827 19.8607 23.827 19.8601 23.827 19.8594C23.827 19.8588 23.827 19.8582 23.827 19.8575C23.827 19.8569 23.827 19.8562 23.827 19.8556C23.827 19.8549 23.827 19.8543 23.827 19.8537C23.827 19.853 23.827 19.8524 23.827 19.8517C23.827 19.8511 23.827 19.8505 23.827 19.8498C23.827 19.8492 23.827 19.8485 23.827 19.8479C23.827 19.8472 23.827 19.8466 23.827 19.8459C23.827 19.8453 23.827 19.8447 23.827 19.844C23.827 19.8434 23.827 19.8427 23.827 19.8421C23.827 19.8414 23.827 19.8408 23.827 19.8401C23.827 19.8395 23.827 19.8388 23.827 19.8382C23.827 19.8375 23.827 19.8369 23.827 19.8362C23.827 19.8356 23.827 19.8349 23.827 19.8343C23.827 19.8336 23.827 19.833 23.827 19.8323C23.827 19.8317 23.827 19.831 23.827 19.8304C23.827 19.8297 23.827 19.8291 23.827 19.8284C23.827 19.8278 23.827 19.8271 23.827 19.8265C23.827 19.8258 23.827 19.8252 23.827 19.8245C23.827 19.8239 23.827 19.8232 23.827 19.8226C23.827 19.8219 23.827 19.8212 23.827 19.8206C23.827 19.8199 23.827 19.8193 23.827 19.8186C23.827 19.818 23.827 19.8173 23.827 19.8167C23.827 19.816 23.827 19.8153 23.827 19.8147C23.827 19.814 23.827 19.8134 23.827 19.8127C23.827 19.812 23.827 19.8114 23.827 19.8107C23.827 19.8101 23.827 19.8094 23.827 19.8088C23.827 19.8081 23.827 19.8074 23.827 19.8068C23.827 19.8061 23.827 19.8055 23.827 19.8048C23.827 19.8041 23.827 19.8035 23.827 19.8028C23.827 19.8021 23.827 19.8015 23.827 19.8008C23.827 19.8002 23.827 19.7995 23.827 19.7988C23.827 19.7982 23.827 19.7975 23.827 19.7968C23.827 19.7962 23.827 19.7955 23.827 19.7948C23.827 19.7942 23.827 19.7935 23.827 19.7928C23.827 19.7922 23.827 19.7915 23.827 19.7908C23.827 19.7902 23.827 19.7895 23.827 19.7888C23.827 19.7882 23.827 19.7875 23.827 19.7868C23.827 19.7862 23.827 19.7855 23.827 19.7848C23.827 19.7842 23.827 19.7835 23.827 19.7828C23.827 19.7822 23.827 19.7815 23.827 19.7808C23.827 19.7801 23.827 19.7795 23.827 19.7788C23.827 19.7781 23.827 19.7775 23.827 19.7768C23.827 19.7761 23.827 19.7754 23.827 19.7748C23.827 19.7741 23.827 19.7734 23.827 19.7728C23.827 19.7721 23.827 19.7714 23.827 19.7707C23.827 19.7701 23.827 19.7694 23.827 19.7687C23.827 19.768 23.827 19.7674 23.827 19.7667C23.827 19.766 23.827 19.7653 23.827 19.7646C23.827 19.764 23.827 19.7633 23.827 19.7626C23.827 19.7619 23.827 19.7613 23.827 19.7606C23.827 19.7599 23.827 19.7592 23.827 19.7585C23.827 19.7579 23.827 19.7572 23.827 19.7565C23.827 19.7558 23.827 19.7551 23.827 19.7545C23.827 19.7538 23.827 19.7531 23.827 19.7524C23.827 19.7517 23.827 19.7511 23.827 19.7504C23.827 19.7497 23.827 19.749 23.827 19.7483C23.827 19.7477 23.827 19.747 23.827 19.7463C23.827 19.7456 23.827 19.7449 23.827 19.7442C23.827 19.7435 23.827 19.7429 23.827 19.7422C23.827 19.7415 23.827 19.7408 23.827 19.7401C23.827 19.7394 23.827 19.7387 23.827 19.7381C23.827 19.7374 23.827 19.7367 23.827 19.736C23.827 19.7353 23.827 19.7346 23.827 19.7339C23.827 19.7332 23.827 19.7326 23.827 19.7319C23.827 19.7312 23.827 19.7305 23.827 19.7298C23.827 19.7291 23.827 19.7284 23.827 19.7277C23.827 19.727 23.827 19.7263 23.827 19.7257C23.827 19.725 23.827 19.7243 23.827 19.7236C23.827 19.7229 23.827 19.7222 23.827 19.7215C23.827 19.7208 23.827 19.7201 23.827 19.7194C23.827 19.7187 23.827 19.718 23.827 19.7173C23.827 19.7166 23.827 19.716 23.827 19.7153C23.827 19.7146 23.827 19.7139 23.827 19.7132C23.827 19.7125 23.827 19.7118 23.827 19.7111C23.827 19.7104 23.827 19.7097 23.827 19.709C23.827 19.7083 23.827 19.7076 23.827 19.7069C23.827 19.7062 23.827 19.7055 23.827 19.7048C23.827 19.7041 23.827 19.7034 23.827 19.7027C23.827 19.702 23.827 19.7013 23.827 19.7006C23.827 19.6999 23.827 19.6992 23.827 19.6985C23.827 19.6978 23.827 19.6971 23.827 19.6964C23.827 19.6957 23.827 19.695 23.827 19.6943C23.827 19.6936 23.827 19.6929 23.827 19.6922C23.827 19.6915 23.827 19.6908 23.827 19.6901C23.827 19.6894 23.827 19.6887 23.827 19.6879C23.827 19.6872 23.827 19.6865 23.827 19.6858C23.827 19.6851 23.827 19.6844 23.827 19.6837C23.827 19.683 23.827 19.6823 23.827 19.6816C23.827 19.6809 23.827 19.6802 23.827 19.6795C23.827 19.6788 23.827 19.678 23.827 19.6773C23.827 19.6766 23.827 19.6759 23.827 19.6752C23.827 19.6745 23.827 19.6738 23.827 19.6731C23.827 19.6724 23.827 19.6717 23.827 19.6709C23.827 19.6702 23.827 19.6695 23.827 19.6688C23.827 19.6681 23.827 19.6674 23.827 19.6667C23.827 19.666 23.827 19.6652 23.827 19.6645C23.827 19.6638 23.827 19.6631 23.827 19.6624C23.827 19.6617 23.827 19.661 23.827 19.6602C23.827 19.6595 23.827 19.6588 23.827 19.6581C23.827 19.6574 23.827 19.6567 23.827 19.6559C23.827 19.6552 23.827 19.6545 23.827 19.6538C23.827 19.6531 23.827 19.6524 23.827 19.6516C23.827 19.6509 23.827 19.6502 23.827 19.6495C23.827 19.6488 23.827 19.648 23.827 19.6473C23.827 19.6466 23.827 19.6459 23.827 19.6452C23.827 19.6444 23.827 19.6437 23.827 19.643C23.827 19.6423 23.827 19.6416 23.827 19.6408C23.827 19.6401 23.827 19.6394 23.827 19.6387C23.827 19.6379 23.827 19.6372 23.827 19.6365C23.827 19.6358 23.827 19.635 23.827 19.6343C23.827 19.6336 23.827 19.6329 23.827 19.6321C23.827 19.6314 23.827 19.6307 23.827 19.63C23.827 19.6292 23.827 19.6285 23.827 19.6278C23.827 19.6271 23.827 19.6263 23.827 19.6256C23.827 19.6249 23.827 19.6242 23.827 19.6234C23.827 19.6227 23.827 19.622 23.827 19.6212C23.827 19.6205 23.827 19.6198 23.827 19.619C23.827 19.6183 23.827 19.6176 23.827 19.6169C23.827 19.6161 23.827 19.6154 23.827 19.6147C23.827 19.6139 23.827 19.6132 23.827 19.6125C23.827 19.6117 23.827 19.611 23.827 19.6103C23.827 19.6095 23.827 19.6088 23.827 19.6081C23.827 19.6073 23.827 19.6066 23.827 19.6059C23.827 19.6051 23.827 19.6044 23.827 19.6037C23.827 19.6029 23.827 19.6022 23.827 19.6015C23.827 19.6007 23.827 19.6 23.827 19.5992C23.827 19.5985 23.827 19.5978 23.827 19.597C23.827 19.5963 23.827 19.5956 23.827 19.5948C23.827 19.5941 23.827 19.5933 23.827 19.5926C23.827 19.5919 23.827 19.5911 23.827 19.5904C23.827 19.5896 23.827 19.5889 23.827 19.5882C23.827 19.5874 23.827 19.5867 23.827 19.5859C23.827 19.5852 23.827 19.5845 23.827 19.5837C23.827 19.583 23.827 19.5822 23.827 19.5815C23.827 19.5807 23.827 19.58 23.827 19.5793C23.827 19.5785 23.827 19.5778 23.827 19.577C23.827 19.5763 23.827 19.5755 23.827 19.5748C23.827 19.574 23.827 19.5733 23.827 19.5725C23.827 19.5718 23.827 19.5711 23.827 19.5703C23.827 19.5696 23.827 19.5688 23.827 19.5681C23.827 19.5673 23.827 19.5666 23.827 19.5658C23.827 19.5651 23.827 19.5643 23.827 19.5636C23.827 19.5628 23.827 19.5621 23.827 19.5613C23.827 19.5606 23.827 19.5598 23.827 19.5591C23.827 19.5583 23.827 19.5576 23.827 19.5568C23.827 19.5561 23.827 19.5553 23.827 19.5546C23.827 19.5538 23.827 19.5531 23.827 19.5523C23.827 19.5515 23.827 19.5508 23.827 19.55C23.827 19.5493 23.827 19.5485 23.827 19.5478C23.827 19.547 23.827 19.5463 23.827 19.5455C23.827 19.5448 23.827 19.544 23.827 19.5432C23.827 19.5425 23.827 19.5417 23.827 19.541C23.827 19.5402 23.827 19.5395 23.827 19.5387C23.827 19.5379 23.827 19.5372 23.827 19.5364C23.827 19.5357 23.827 19.5349 23.827 19.5342C23.827 19.5334 23.827 19.5326 23.827 19.5319C23.827 19.5311 23.827 19.5304 23.827 19.5296C23.827 19.5288 23.827 19.5281 23.827 19.5273C23.827 19.5265 23.827 19.5258 23.827 19.525C23.827 19.5243 23.827 19.5235 23.827 19.5227C23.827 19.522 23.827 19.5212 23.827 19.5204C23.827 19.5197 23.827 19.5189 23.827 19.5181C23.827 19.5174 23.827 19.5166 23.827 19.5159C23.827 19.5151 23.827 19.5143 23.827 19.5136C23.827 19.5128 23.827 19.512 23.827 19.5113C23.827 19.5105 23.827 19.5097 23.827 19.509C23.827 19.5082 23.827 19.5074 23.827 19.5066C23.827 19.5059 23.827 19.5051 23.827 19.5043C23.827 19.5036 23.827 19.5028 23.827 19.502C23.827 19.5013 23.827 19.5005 23.827 19.4997C23.827 19.4989 23.827 19.4982 23.827 19.4974C23.827 19.4966 23.827 19.4959 23.827 19.4951C23.827 19.4943 23.827 19.4935 23.827 19.4928C23.827 19.492 23.827 19.4912 23.827 19.4904C23.827 19.4897 23.827 19.4889 23.827 19.4881C23.827 19.4874 23.827 19.4866 23.827 19.4858C23.827 19.485 23.827 19.4842 23.827 19.4835C23.827 19.4827 23.827 19.4819 23.827 19.4811C23.827 19.4804 23.827 19.4796 23.827 19.4788C23.827 19.478 23.827 19.4773 23.827 19.4765C23.827 19.4757 23.827 19.4749 23.827 19.4741C23.827 19.4734 23.827 19.4726 23.827 19.4718C23.827 19.471 23.827 19.4702 23.827 19.4695C23.827 19.4687 23.827 19.4679 23.827 19.4671C23.827 19.4663 23.827 19.4655 23.827 19.4648C23.827 19.464 23.827 19.4632 23.827 19.4624C23.827 19.4616 23.827 19.4608 23.827 19.4601C23.827 19.4593 23.827 19.4585 23.827 19.4577C23.827 19.4569 23.827 19.4561 23.827 19.4554C23.827 19.4546 23.827 19.4538 23.827 19.453C23.827 19.4522 23.827 19.4514 23.827 19.4506C23.827 19.4498 23.827 19.4491 23.827 19.4483C23.827 19.4475 23.827 19.4467 23.827 19.4459C23.827 19.4451 23.827 19.4443 23.827 19.4435C23.827 19.4428 23.827 19.442 23.827 19.4412C23.827 19.4404 23.827 19.4396 23.827 19.4388C23.827 19.438 23.827 19.4372 23.827 19.4364C23.827 19.4356 23.827 19.4348 23.827 19.434C23.827 19.4333 23.827 19.4325 23.827 19.4317C23.827 19.4309 23.827 19.4301 23.827 19.4293C23.827 19.4285 23.827 19.4277 23.827 19.4269C23.827 19.4261 23.827 19.4253 23.827 19.4245C23.827 19.4237 23.827 19.4229 23.827 19.4221C23.827 19.4213 23.827 19.4205 23.827 19.4197C23.827 19.4189 23.827 19.4181 23.827 19.4173C23.827 19.4165 23.827 19.4158 23.827 19.415C23.827 19.4142 23.827 19.4134 23.827 19.4126C23.827 19.4118 23.827 19.411 23.827 19.4102C23.827 19.4094 23.827 19.4086 23.827 19.4078C23.827 19.407 23.827 19.4062 23.827 19.4053C23.827 19.4045 23.827 19.4037 23.827 19.4029C23.827 19.4021 23.827 19.4013 23.827 19.4005C23.827 19.3997 23.827 19.3989 23.827 19.3981C23.827 19.3973 23.827 19.3965 23.827 19.3957C23.827 19.3949 23.827 19.3941 23.827 19.3933C23.827 19.3925 23.827 19.3917 23.827 19.3909C23.827 19.3901 23.827 19.3893 23.827 19.3885C23.827 19.3876 23.827 19.3868 23.827 19.386C23.827 19.3852 23.827 19.3844 23.827 19.3836C23.827 19.3828 23.827 19.382 23.827 19.3812C23.827 19.3804 23.827 19.3796 23.827 19.3787C23.827 19.3779 23.827 19.3771 23.827 19.3763C23.827 19.3755 23.827 19.3747 23.827 19.3739C23.827 19.3731 23.827 19.3723 23.827 19.3714C23.827 19.3706 23.827 19.3698 23.827 19.369C23.827 19.3682 23.827 19.3674 23.827 19.3666C23.827 19.3657 23.827 19.3649 23.827 19.3641C23.827 19.3633 23.827 19.3625 23.827 19.3617C23.827 19.3609 23.827 19.36 23.827 19.3592C23.827 19.3584 23.827 19.3576 23.827 19.3568C23.827 19.356 23.827 19.3551 23.827 19.3543C23.827 19.3535 23.827 19.3527 23.827 19.3519C23.827 19.351 23.827 19.3502 23.827 19.3494C23.827 19.3486 23.827 19.3478 23.827 19.3469C23.827 19.3461 23.827 19.3453 23.827 19.3445C23.827 19.3437 23.827 19.3428 23.827 19.342C23.827 19.3412 23.827 19.3404 23.827 19.3396C23.827 19.3387 23.827 19.3379 23.827 19.3371C23.827 19.3363 23.827 19.3354 23.827 19.3346C23.827 19.3338 23.827 19.333 23.827 19.3321C23.827 19.3313 23.827 19.3305 23.827 19.3297C23.827 19.3288 23.827 19.328 23.827 19.3272C23.827 19.3264 23.827 19.3255 23.827 19.3247C23.827 19.3239 23.827 19.323 23.827 19.3222C23.827 19.3214 23.827 19.3206 23.827 19.3197C23.827 19.3189 23.827 19.3181 23.827 19.3172C23.827 19.3164 23.827 19.3156 23.827 19.3148C23.827 19.3139 23.827 19.3131 23.827 19.3123C23.827 19.3114 23.827 19.3106 23.827 19.3098C23.827 19.3089 23.827 19.3081 23.827 19.3073C23.827 19.3064 23.827 19.3056 23.827 19.3048C23.827 19.3039 23.827 19.3031 23.827 19.3023C23.827 19.3014 23.827 19.3006 23.827 19.2998C23.827 19.2989 23.827 19.2981 23.827 19.2973C23.827 19.2964 23.827 19.2956 23.827 19.2948C23.827 19.2939 23.827 19.2931 23.827 19.2922C23.827 19.2914 23.827 19.2906 23.827 19.2897C23.827 19.2889 23.827 19.288 23.827 19.2872C23.827 19.2864 23.827 19.2855 23.827 19.2847C23.827 19.2839 23.827 19.283 23.827 19.2822C23.827 19.2813 23.827 19.2805 23.827 19.2796C23.827 19.2788 23.827 19.278 23.827 19.2771C23.827 19.2763 23.827 19.2754 23.827 19.2746C23.827 19.2738 23.827 19.2729 23.827 19.2721C23.827 19.2712 23.827 19.2704 23.827 19.2695C23.827 19.2687 23.827 19.2678 23.827 19.267C23.827 19.2662 23.827 19.2653 23.827 19.2645C23.827 19.2636 23.827 19.2628 23.827 19.2619C23.827 19.2611 23.827 19.2602 23.827 19.2594C23.827 19.2585 23.827 19.2577 23.827 19.2568C23.827 19.256 23.827 19.2551 23.827 19.2543C23.827 19.2534 23.827 19.2526 23.827 19.2517C23.827 19.2509 23.827 19.25 23.827 19.2492C23.827 19.2483 23.827 19.2475 23.827 19.2466C23.827 19.2458 23.827 19.2449 23.827 19.2441C23.827 19.2432 23.827 19.2424 23.827 19.2415C23.827 19.2407 23.827 19.2398 23.827 19.239C23.827 19.2381 23.827 19.2373 23.827 19.2364C23.827 19.2356 23.827 19.2347 23.827 19.2338C23.827 19.233 23.827 19.2321 23.827 19.2313C23.827 19.2304 23.827 19.2296 23.827 19.2287C23.827 19.2279 23.827 19.227 23.827 19.2261C23.827 19.2253 23.827 19.2244 23.827 19.2236C23.827 19.2227 23.827 19.2218 23.827 19.221C23.827 19.2201 23.827 19.2193 23.827 19.2184C23.827 19.2176 23.827 19.2167 23.827 19.2158C23.827 19.215 23.827 19.2141 23.827 19.2132C23.827 19.2124 23.827 19.2115 23.827 19.2107C23.827 19.2098 23.827 19.2089 23.827 19.2081C23.827 19.2072 23.827 19.2064 23.827 19.2055C23.827 19.2046 23.827 19.2038 23.827 19.2029C23.827 19.202 23.827 19.2012 23.827 19.2003C23.827 19.1994 23.827 19.1986 23.827 19.1977C23.827 19.1968 23.827 19.196 23.827 19.1951C23.827 19.1942 23.827 19.1934 23.827 19.1925C23.827 19.1916 23.827 19.1908 23.827 19.1899C23.827 19.189 23.827 19.1882 23.827 19.1873C23.827 19.1864 23.827 19.1856 23.827 19.1847C23.827 19.1838 23.827 19.1829 23.827 19.1821C23.827 19.1812 23.827 19.1803 23.827 19.1795C23.827 19.1786 23.827 19.1777 23.827 19.1768C23.827 19.176 23.827 19.1751 23.827 19.1742C23.827 19.1734 23.827 19.1725 23.827 19.1716C23.827 19.1707 23.827 19.1699 23.827 19.169C23.827 19.1681 23.827 19.1672 23.827 19.1664C23.827 19.1655 23.827 19.1646 23.827 19.1637C23.827 19.1629 23.827 19.162 23.827 19.1611C23.827 19.1602 23.827 19.1594 23.827 19.1585C23.827 19.1576 23.827 19.1567 23.827 19.1558C23.827 19.155 23.827 19.1541 23.827 19.1532C23.827 19.1523 23.827 19.1514 23.827 19.1506C23.827 19.1497 23.827 19.1488 23.827 19.1479C23.827 19.147 23.827 19.1462 23.827 19.1453C23.827 19.1444 23.827 19.1435 23.827 19.1426C23.827 19.1418 23.827 19.1409 23.827 19.14C23.827 19.1391 23.827 19.1382 23.827 19.1373C23.827 19.1365 23.827 19.1356 23.827 19.1347C23.827 19.1338 23.827 19.1329 23.827 19.132C23.827 19.1311 23.827 19.1303 23.827 19.1294C23.827 19.1285 23.827 19.1276 23.827 19.1267C23.827 19.1258 23.827 19.1249 23.827 19.1241C23.827 19.1232 23.827 19.1223 23.827 19.1214C23.827 19.1205 23.827 19.1196 23.827 19.1187C23.827 19.1178 23.827 19.1169 23.827 19.1161C23.827 19.1152 23.827 19.1143 23.827 19.1134C23.827 19.1125 23.827 19.1116 23.827 19.1107C23.827 19.1098 23.827 19.1089 23.827 19.108C23.827 19.1071 23.827 19.1062 23.827 19.1054C23.827 19.1045 23.827 19.1036 23.827 19.1027C23.827 19.1018 23.827 19.1009 23.827 19.1C23.827 19.0991 23.827 19.0982 23.827 19.0973C23.827 19.0964 23.827 19.0955 23.827 19.0946C23.827 19.0937 23.827 19.0928 23.827 19.0919C23.827 19.091 23.827 19.0901 23.827 19.0892C23.827 19.0883 23.827 19.0874 23.827 19.0865C23.827 19.0856 23.827 19.0848 23.827 19.0839C23.827 19.083 23.827 19.0821 23.827 19.0812C23.827 19.0803 23.827 19.0794 23.827 19.0785C23.827 19.0776 23.827 19.0766 23.827 19.0757C23.827 19.0748 23.827 19.0739 23.827 19.073C23.827 19.0721 23.827 19.0712 23.827 19.0703C23.827 19.0694 23.827 19.0685 23.827 19.0676C23.827 19.0667 23.827 19.0658 23.827 19.0649C23.827 19.064 23.827 19.0631 23.827 19.0622C23.827 19.0613 23.827 19.0604 23.827 19.0595C23.827 19.0586 23.827 19.0577 23.827 19.0568C23.827 19.0559 23.827 19.0549 23.827 19.054C23.827 19.0531 23.827 19.0522 23.827 19.0513C23.827 19.0504 23.827 19.0495 23.827 19.0486C23.827 19.0477 23.827 19.0468 23.827 19.0459C23.827 19.0449 23.827 19.044 23.827 19.0431C23.827 19.0422 23.827 19.0413 23.827 19.0404C23.827 19.0395 23.827 19.0386 23.827 19.0377C23.827 19.0367 23.827 19.0358 23.827 19.0349C23.827 19.034 23.827 19.0331 23.827 19.0322C23.827 19.0313 23.827 19.0304 23.827 19.0294C23.827 19.0285 23.827 19.0276 23.827 19.0267C23.827 19.0258 23.827 19.0249 23.827 19.0239C23.827 19.023 23.827 19.0221 23.827 19.0212C23.827 19.0203 23.827 19.0194 23.827 19.0184C23.827 19.0175 23.827 19.0166 23.827 19.0157C23.827 19.0148 23.827 19.0139 23.827 19.0129C23.827 19.012 23.827 19.0111 23.827 19.0102C23.827 19.0093 23.827 19.0083 23.827 19.0074C23.827 19.0065 23.827 19.0056 23.827 19.0046C23.827 19.0037 23.827 19.0028 23.827 19.0019C23.827 19.001 23.827 19 23.827 18.9991C23.827 18.9982 23.827 18.9973 23.827 18.9963C23.827 18.9954 23.827 18.9945 23.827 18.9936C23.827 18.9926 23.827 18.9917 23.827 18.9908C23.827 18.9899 23.827 18.9889 23.827 18.988C23.827 18.9871 23.827 18.9862 23.827 18.9852C23.827 18.9843 23.827 18.9834 23.827 18.9825C23.827 18.9815 23.827 18.9806 23.827 18.9797C23.827 18.9787 23.827 18.9778 23.827 18.9769C23.827 18.976 23.827 18.975 23.827 18.9741C23.827 18.9732 23.827 18.9722 23.827 18.9713C23.827 18.9704 23.827 18.9694 23.827 18.9685C23.827 18.9676 23.827 18.9666 23.827 18.9657C23.827 18.9648 23.827 18.9638 23.827 18.9629C23.827 18.962 23.827 18.961 23.827 18.9601C23.827 18.9592 23.827 18.9582 23.827 18.9573C23.827 18.9564 23.827 18.9554 23.827 18.9545C23.827 18.9536 23.827 18.9526 23.827 18.9517C23.827 18.9508 23.827 18.9498 23.827 18.9489C23.827 18.948 23.827 18.947 23.827 18.9461C23.827 18.9451 23.827 18.9442 23.827 18.9433C23.827 18.9423 23.827 18.9414 23.827 18.9404C23.827 18.9395 23.827 18.9386 23.827 18.9376C23.827 18.9367 23.827 18.9357 23.827 18.9348C23.827 18.9339 23.827 18.9329 23.827 18.932C23.827 18.931 23.827 18.9301 23.827 18.9292C23.827 18.9282 23.827 18.9273 23.827 18.9263C23.827 18.9254 23.827 18.9244 23.827 18.9235C23.827 18.9226 23.827 18.9216 23.827 18.9207C23.827 18.9197 23.827 18.9188 23.827 18.9178C23.827 18.9169 23.827 18.9159 23.827 18.915C23.827 18.914 23.827 18.9131 23.827 18.9121C23.827 18.9112 23.827 18.9103 23.827 18.9093C23.827 18.9084 23.827 18.9074 23.827 18.9065C23.827 18.9055 23.827 18.9046 23.827 18.9036C23.827 18.9027 23.827 18.9017 23.827 18.9008C23.827 18.8998 23.827 18.8989 23.827 18.8979C23.827 18.897 23.827 18.896 23.827 18.8951C23.827 18.8941 23.827 18.8932 23.827 18.8922C23.827 18.8913 23.827 18.8903 23.827 18.8893C23.827 18.8884 23.827 18.8874 23.827 18.8865C23.827 18.8855 23.827 18.8846 23.827 18.8836C23.827 18.8827 23.827 18.8817 23.827 18.8808C23.827 18.8798 23.827 18.8788 23.827 18.8779C23.827 18.8769 23.827 18.876 23.827 18.875C23.827 18.8741 23.827 18.8731 23.827 18.8721C23.827 18.8712 23.827 18.8702 23.827 18.8693C23.827 18.8683 23.827 18.8674 23.827 18.8664C23.827 18.8654 23.827 18.8645 23.827 18.8635C23.827 18.8626 23.827 18.8616 23.827 18.8606C23.827 18.8597 23.827 18.8587 23.827 18.8577C23.827 18.8568 23.827 18.8558 23.827 18.8549C23.827 18.8539 23.827 18.8529 23.827 18.852C23.827 18.851 23.827 18.85 23.827 18.8491C23.827 18.8481 23.827 18.8472 23.827 18.8462C23.827 18.8452 23.827 18.8443 23.827 18.8433C23.827 18.8423 23.827 18.8414 23.827 18.8404C23.827 18.8394 23.827 18.8385 23.827 18.8375C23.827 18.8365 23.827 18.8356 23.827 18.8346C23.827 18.8336 23.827 18.8327 23.827 18.8317C23.827 18.8307 23.827 18.8298 23.827 18.8288C23.827 18.8278 23.827 18.8268 23.827 18.8259C23.827 18.8249 23.827 18.8239 23.827 18.823C23.827 18.822 23.827 18.821 23.827 18.82C23.827 18.8191 23.827 18.8181 23.827 18.8171C23.827 18.8162 23.827 18.8152 23.827 18.8142C23.827 18.8132 23.827 18.8123 23.827 18.8113C23.827 18.8103 23.827 18.8093 23.827 18.8084C23.827 18.8074 23.827 18.8064 23.827 18.8054C23.827 18.8045 23.827 18.8035 23.827 18.8025C23.827 18.8015 23.827 18.8006 23.827 18.7996C23.827 18.7986 23.827 18.7976 23.827 18.7966C23.827 18.7957 23.827 18.7947 23.827 18.7937C23.827 18.7927 23.827 18.7918 23.827 18.7908C23.827 18.7898 23.827 18.7888 23.827 18.7878C23.827 18.7869 23.827 18.7859 23.827 18.7849C23.827 18.7839 23.827 18.7829 23.827 18.7819C23.827 18.781 23.827 18.78 23.827 18.779C23.827 18.778 23.827 18.777 23.827 18.7761C23.827 18.7751 23.827 18.7741 23.827 18.7731C23.827 18.7721 23.827 18.7711 23.827 18.7701C23.827 18.7692 23.827 18.7682 23.827 18.7672C23.827 18.7662 23.827 18.7652 23.827 18.7642C23.827 18.7632 23.827 18.7623 23.827 18.7613C23.827 18.7603 23.827 18.7593 23.827 18.7583C23.827 18.7573 23.827 18.7563 23.827 18.7553C23.827 18.7544 23.827 18.7534 23.827 18.7524C23.827 18.7514 23.827 18.7504 23.827 18.7494C23.827 18.7484 23.827 18.7474 23.827 18.7464C23.827 18.7454 23.827 18.7445 23.827 18.7435C23.827 18.7425 23.827 18.7415 23.827 18.7405C23.827 18.7395 23.827 18.7385 23.827 18.7375C23.827 18.7365 23.827 18.7355 23.827 18.7345C23.827 18.7335 23.827 18.7325 23.827 18.7315C23.827 18.7305 23.827 18.7296 23.827 18.7286C23.827 18.7276 23.827 18.7266 23.827 18.7256C23.827 18.7246 23.827 18.7236 23.827 18.7226C23.827 18.7216 23.827 18.7206 23.827 18.7196C23.827 18.7186 23.827 18.7176 23.827 18.7166C23.827 18.7156 23.827 18.7146 23.827 18.7136C23.827 18.7126 23.827 18.7116 23.827 18.7106C23.827 18.7096 23.827 18.7086 23.827 18.7076C23.827 18.7066 23.827 18.7056 23.827 18.7046C23.827 18.7036 23.827 18.7026 23.827 18.7016C23.827 18.7006 23.827 18.6996 23.827 18.6986C23.827 18.6976 23.827 18.6966 23.827 18.6956C23.827 18.6946 23.827 18.6935 23.827 18.6925C23.827 18.6915 23.827 18.6905 23.827 18.6895C23.827 18.6885 23.827 18.6875 23.827 18.6865C23.827 18.6855 23.827 18.6845 23.827 18.6835C23.827 18.6825 23.827 18.6815 23.827 18.6805C23.827 18.6795 23.827 18.6784 23.827 18.6774C23.827 18.6764 23.827 18.6754 23.827 18.6744C23.827 18.6734 23.827 18.6724 23.827 18.6714C23.827 18.6704 23.827 18.6694 23.827 18.6683C23.827 18.6673 23.827 18.6663 23.827 18.6653C23.827 18.6643 23.827 18.6633 23.827 18.6623C23.827 18.6613 23.827 18.6603 23.827 18.6592C23.827 18.6582 23.827 18.6572 23.827 18.6562C23.827 18.6552 23.827 18.6542 23.827 18.6532C23.827 18.6521 23.827 18.6511 23.827 18.6501C23.827 18.6491 23.827 18.6481 23.827 18.6471C23.827 18.646 23.827 18.645 23.827 18.644C23.827 18.643 23.827 18.642 23.827 18.641C23.827 18.6399 23.827 18.6389 23.827 18.6379C23.827 18.6369 23.827 18.6359 23.827 18.6348C23.827 18.6338 23.827 18.6328 23.827 18.6318C23.827 18.6308 23.827 18.6297 23.827 18.6287C23.827 18.6277 23.827 18.6267 23.827 18.6257C23.827 18.6246 23.827 18.6236 23.827 18.6226C23.827 18.6216 23.827 18.6205 23.827 18.6195C23.827 18.6185 23.827 18.6175 23.827 18.6164C23.827 18.6154 23.827 18.6144 23.827 18.6134C23.827 18.6123 23.827 18.6113 23.827 18.6103C23.827 18.6093 23.827 18.6082 23.827 18.6072C23.827 18.6062 23.827 18.6052 23.827 18.6041C23.827 18.6031 23.827 18.6021 23.827 18.6011H23.3931ZM23.3936 19.891C23.4138 20.1943 23.4442 20.6697 23.4847 21.3175L23.9177 21.2905C23.8772 20.6425 23.8468 20.1664 23.8265 19.8622L23.3936 19.891ZM23.4852 21.3243C23.5466 21.9799 23.6395 22.5307 23.7659 22.9732L24.1831 22.8541C24.0666 22.4462 23.9772 21.924 23.9172 21.2838L23.4852 21.3243ZM23.7667 22.976C23.8911 23.3906 24.0563 23.834 24.2615 24.3061L24.6594 24.1331C24.4597 23.6738 24.3009 23.2466 24.1823 22.8513L23.7667 22.976ZM24.2615 24.3061C24.4779 24.8038 24.7861 25.1934 25.1905 25.463L25.4311 25.102C25.1066 24.8857 24.8479 24.5667 24.6594 24.1331L24.2615 24.3061ZM25.1977 25.4676C25.5992 25.713 26.0541 25.8335 26.556 25.8335V25.3997C26.1265 25.3997 25.7513 25.2975 25.4239 25.0974L25.1977 25.4676ZM41.5988 14.7136L41.4071 14.6121L41.4056 14.6151L41.5988 14.7136ZM45.304 23.9766L45.1419 23.8325L45.1415 23.8329L45.304 23.9766ZM46.367 24.9788L46.5564 24.8732L46.4944 24.7619H46.367V24.9788ZM46.3062 24.9788V24.7619H46.209L46.1443 24.8345L46.3062 24.9788ZM37.2862 24.7966L37.1213 24.9376L37.1238 24.9404L37.2862 24.7966ZM37.5899 13.8936L37.4259 13.7517L37.4248 13.753L37.5899 13.8936ZM45.9722 12.4966L45.8343 12.6641L45.8943 12.7135H45.9722V12.4966ZM46.0329 12.4966V12.7135H46.2498V12.4966H46.0329ZM44.1499 6.11881V5.90188L44.1022 6.33041L44.1499 6.11881ZM50.7707 6.11881H50.9876V5.90188H50.7707V6.11881ZM51.3477 24.0374L51.1943 24.1908L51.1983 24.1946L51.3477 24.0374ZM54.2329 24.4322L54.4281 24.5269L54.6263 24.1188L54.1841 24.2208L54.2329 24.4322ZM52.4411 26.0418L52.5242 26.2422L52.5265 26.2412L52.4411 26.0418ZM46.2498 21.5774V16.1107H45.816V21.5774H46.2498ZM46.2498 16.1107C46.2498 15.1063 46.0541 14.313 45.6266 13.7674C45.1913 13.2118 44.5436 12.9478 43.7248 12.9478V13.3817C44.4447 13.3817 44.9511 13.6087 45.2851 14.035C45.627 14.4714 45.816 15.1511 45.816 16.1107H46.2498ZM43.7248 12.9478C42.7464 12.9478 41.9765 13.5366 41.4071 14.6121L41.7906 14.8151C42.3145 13.8255 42.9619 13.3817 43.7248 13.3817V12.9478ZM41.4056 14.6151C40.8558 15.6936 40.5923 17.2837 40.5923 19.3603H41.0261C41.0261 17.3065 41.2891 15.7989 41.7921 14.8122L41.4056 14.6151ZM40.5923 19.3603C40.5923 21.1734 40.8178 22.5655 41.2909 23.5118C41.529 23.988 41.8333 24.3582 42.2093 24.6089C42.5866 24.8604 43.0237 24.9832 43.5122 24.9832V24.5493C43.0996 24.5493 42.7483 24.4468 42.45 24.2479C42.1502 24.048 41.8914 23.7425 41.679 23.3177C41.2511 22.4621 41.0261 21.1512 41.0261 19.3603H40.5923ZM43.5122 24.9832C44.3006 24.9832 44.9579 24.6952 45.4665 24.1203L45.1415 23.8329C44.7187 24.3108 44.1815 24.5493 43.5122 24.5493V24.9832ZM45.4662 24.1207C46.0002 23.52 46.2498 22.6603 46.2498 21.5774H45.816C45.816 22.6001 45.5797 23.3399 45.1419 23.8325L45.4662 24.1207ZM46.367 24.7619H46.3062V25.1958H46.367V24.7619ZM46.1443 24.8345C45.2054 25.8884 43.795 26.4323 41.8722 26.4323V26.8661C43.8773 26.8661 45.4229 26.2964 46.4682 25.1231L46.1443 24.8345ZM41.8722 26.4323C39.9574 26.4323 38.493 25.8325 37.4487 24.6528L37.1238 24.9404C38.2662 26.2309 39.8591 26.8661 41.8722 26.8661V26.4323ZM37.4511 24.6557C36.4231 23.4531 35.8935 21.7187 35.8935 19.4211H35.4597C35.4597 21.7802 36.0032 23.6295 37.1213 24.9376L37.4511 24.6557ZM35.8935 19.4211C35.8935 17.2798 36.5167 15.4889 37.7551 14.0343L37.4248 13.753C36.112 15.295 35.4597 17.189 35.4597 19.4211H35.8935ZM37.754 14.0355C39.0045 12.5897 40.6732 11.8632 42.7833 11.8632V11.4293C40.5605 11.4293 38.767 12.201 37.4259 13.7517L37.754 14.0355ZM42.7833 11.8632C44.1992 11.8632 45.2023 12.1436 45.8343 12.6641L46.1101 12.3291C45.3653 11.7158 44.2424 11.4293 42.7833 11.4293V11.8632ZM45.9722 12.7135H46.0329V12.2797H45.9722V12.7135ZM46.2498 12.4966V8.51807H45.816V12.4966H46.2498ZM46.2498 8.51807C46.2498 7.82591 46.0845 7.24535 45.7328 6.79729C45.3808 6.34868 44.8608 6.05694 44.1977 5.90721L44.1022 6.33041C44.6944 6.46414 45.1159 6.714 45.3915 7.06515C45.6675 7.41684 45.816 7.89418 45.816 8.51807H46.2498ZM44.1499 6.33574H50.7707V5.90188H44.1499V6.33574ZM50.5538 6.11881V22.4581H50.9876V6.11881H50.5538ZM50.5538 22.4581C50.5538 23.1698 50.7601 23.7565 51.1943 24.1907L51.5011 23.884C51.166 23.5489 50.9876 23.0827 50.9876 22.4581H50.5538ZM51.1983 24.1946C51.6487 24.6225 52.2208 24.8313 52.8966 24.8313V24.3975C52.3171 24.3975 51.8567 24.2216 51.4971 23.8801L51.1983 24.1946ZM52.8966 24.8313C53.2833 24.8313 53.7462 24.7671 54.2817 24.6435L54.1841 24.2208C53.6668 24.3402 53.2388 24.3975 52.8966 24.3975V24.8313ZM54.0378 24.3374C53.7203 24.9911 53.1669 25.4947 52.3556 25.8424L52.5265 26.2412C53.416 25.86 54.0572 25.2905 54.4281 24.5269L54.0378 24.3374ZM52.358 25.8414C51.5546 26.1745 50.7122 26.3412 49.8292 26.3412V26.775C50.7684 26.775 51.6673 26.5975 52.5242 26.2422L52.358 25.8414ZM49.8292 26.3412C48.1493 26.3412 47.09 25.8298 46.5564 24.8732L46.1775 25.0845C46.8183 26.2335 48.0671 26.775 49.8292 26.775V26.3412ZM62.8769 21.8811L62.6599 21.88L62.66 21.8859L62.8769 21.8811ZM62.9072 15.4729L63.1242 15.4739V15.4729H62.9072ZM62.2391 24.007L62.0762 23.8636L62.073 23.8675L62.2391 24.007ZM63.3628 24.9788L63.5454 24.8617L63.4814 24.7619H63.3628V24.9788ZM63.3021 24.9788V24.7619H63.2122L63.1487 24.8254L63.3021 24.9788ZM54.1909 24.827L54.0258 24.9677L54.0283 24.9706L54.1909 24.827ZM54.7376 13.681L54.5801 13.5319L54.58 13.532L54.7376 13.681ZM67.6754 13.5292H67.8923V13.4217L67.8067 13.3566L67.6754 13.5292ZM68.2524 24.1285L68.1032 24.2859L68.2524 24.1285ZM71.1376 24.4929L71.3351 24.5827L71.5518 24.1059L71.0614 24.2898L71.1376 24.4929ZM69.4672 26.0418L69.3782 25.844L69.3763 25.8448L69.4672 26.0418ZM63.0938 21.8821L63.1242 15.4739L62.6903 15.4719L62.6599 21.88L63.0938 21.8821ZM63.1242 15.4729C63.1242 14.5324 62.9051 13.7898 62.4264 13.2883L62.1125 13.5879C62.4842 13.9772 62.6903 14.5912 62.6903 15.4729H63.1242ZM62.4264 13.2883C61.9609 12.8006 61.3882 12.553 60.7206 12.553V12.9869C61.2678 12.9869 61.7276 13.1846 62.1125 13.5879L62.4264 13.2883ZM60.7206 12.553C60.1822 12.553 59.7025 12.7016 59.2904 13.0029C58.8807 13.3025 58.5499 13.7442 58.2909 14.3124C57.7754 15.4434 57.5273 17.1133 57.5273 19.2996H57.9612C57.9612 17.1327 58.2092 15.5378 58.6857 14.4923C58.9228 13.9722 59.2121 13.5977 59.5465 13.3531C59.8785 13.1104 60.2668 12.9869 60.7206 12.9869V12.553ZM57.5273 19.2996C57.5273 21.1329 57.7553 22.5401 58.2336 23.4966C58.4742 23.9779 58.7816 24.3519 59.1614 24.6051C59.5426 24.8592 59.9841 24.9832 60.4776 24.9832V24.5493C60.06 24.5493 59.7043 24.4455 59.4021 24.2441C59.0986 24.0417 58.8365 23.7324 58.6216 23.3026C58.1887 22.4368 57.9612 21.1107 57.9612 19.2996H57.5273ZM60.4776 24.9832C61.2812 24.9832 61.933 24.7086 62.4052 24.1465L62.073 23.8675C61.6948 24.3177 61.1722 24.5493 60.4776 24.5493V24.9832ZM62.4019 24.1503C62.8944 23.5907 63.1148 22.8223 63.0937 21.8762L62.66 21.8859C62.6795 22.762 62.4747 23.4109 62.0762 23.8637L62.4019 24.1503ZM63.3628 24.7619H63.3021V25.1958H63.3628V24.7619ZM63.1487 24.8254C62.0865 25.8876 60.579 26.4323 58.5946 26.4323V26.8661C60.6597 26.8661 62.2905 26.2972 63.4554 25.1322L63.1487 24.8254ZM58.5946 26.4323C56.7838 26.4323 55.3791 25.8444 54.3535 24.6834L54.0283 24.9706C55.149 26.2392 56.68 26.8661 58.5946 26.8661V26.4323ZM54.356 24.6863C53.3481 23.5039 52.8286 21.7998 52.8286 19.5425H52.3947C52.3947 21.8611 52.9281 23.68 54.0258 24.9677L54.356 24.6863ZM52.8286 19.5425C52.8286 17.1786 53.5224 15.2814 54.8952 13.8301L54.58 13.532C53.1183 15.0772 52.3947 17.0877 52.3947 19.5425H52.8286ZM54.8951 13.8302C56.2813 12.3659 58.2627 11.6202 60.8724 11.6202V11.1863C58.1774 11.1863 56.0689 11.9592 54.5801 13.5319L54.8951 13.8302ZM60.8724 11.6202C63.5046 11.6202 65.7243 12.3173 67.544 13.7018L67.8067 13.3566C65.901 11.9065 63.5854 11.1863 60.8724 11.1863V11.6202ZM67.4585 13.5292V22.5796H67.8923V13.5292H67.4585ZM67.4585 22.5796C67.4585 23.2908 67.6646 23.8704 68.1032 24.2859L68.4016 23.971C68.0708 23.6576 67.8923 23.2047 67.8923 22.5796H67.4585ZM68.1032 24.2859C68.538 24.6978 69.1232 24.8921 69.8317 24.8921V24.4582C69.2039 24.4582 68.7362 24.288 68.4016 23.971L68.1032 24.2859ZM69.8317 24.8921C70.3911 24.8921 70.8555 24.8304 71.2138 24.696L71.0614 24.2898C70.7718 24.3984 70.3657 24.4582 69.8317 24.4582V24.8921ZM70.9401 24.4031C70.6626 25.0137 70.1506 25.4964 69.3782 25.844L69.5563 26.2396C70.4036 25.8583 71.0052 25.3084 71.3351 24.5827L70.9401 24.4031ZM69.3763 25.8448C68.6159 26.1958 67.8068 26.3715 66.9465 26.3715V26.8054C67.868 26.8054 68.7393 26.6167 69.5582 26.2388L69.3763 25.8448ZM66.9465 26.3715C65.2921 26.3715 64.181 25.8525 63.5454 24.8617L63.1802 25.096C63.9214 26.2513 65.1994 26.8054 66.9465 26.8054V26.3715Z" fill="#41413E"/>
</svg>
