<svg width="66" height="27" viewBox="0 0 66 27" fill="none" xmlns="http://www.w3.org/2000/svg">
<path d="M14.9 15.4V20C14.9 22.3 14.2 23.9 12.9 24.9C11.5 25.9 9.8 26.4 7.7 26.4C5 26.4 3.1 25.5 1.9 23.8C3.1 24.3 4.6 24.6 6.5 24.6C7.5 24.6 8.4 24.3 9.2 23.8C10 23.3 10.4 22.4 10.4 21.3V20.3C9.4 20.7 8.2 21 6.8 21C5.2 21 4 20.6 3.1 19.9C2.2 19.1 1.8 18 1.8 16.6V9.9C1.8 8.6 1.2 7.9 0 7.7H6.1V16.5C6.1 18.5 6.9 19.5 8.6 19.5C9.3 19.5 9.8 19.4 10.4 19.1L10.5 7.8H14.9V15.4ZM10.4 2.9L5.4 5.1H5.2L9 0.8C9.5 0.2 10.1 0 10.7 0C11 0 11.3 0.1 11.5 0.4C11.7 0.6 11.9 0.9 11.9 1.2C11.9 1.9 11.4 2.4 10.4 2.9Z" fill="#41413E"/>
<path d="M31.8 14.1C31.8 16.3 31.1 18.1 29.6 19.4C28.1 20.7 26.3 21.3 24 21.3C21.8 21.3 20 20.7 18.7 19.4C17.4 18.1 16.7 16.4 16.7 14.2C16.7 12 17.4 10.3 18.9 9C20.3 7.7 22.2 7 24.4 7C26.6 7 28.4 7.6 29.8 8.9C31.1 10.1 31.8 11.8 31.8 14.1ZM24.3 20.2C26.2 20.2 27.1 18.2 27.1 14.1C27.1 10 26.2 8 24.4 8C23.8 8 23.3 8.2 22.9 8.6C22.5 9 22.2 9.5 22 10.2C21.8 10.9 21.7 11.5 21.6 12C21.5 12.5 21.5 13.1 21.5 13.7C21.5 14.2 21.5 14.6 21.5 14.9C21.5 15.2 21.5 15.6 21.6 16.2C21.7 16.8 21.7 17.3 21.9 17.7C22 18.1 22.2 18.5 22.3 18.9C22.5 19.3 22.7 19.7 23.1 19.9C23.4 20.1 23.8 20.2 24.3 20.2Z" fill="#41413E"/>
<path d="M42.2 16.5002V11.5002C42.2 9.7002 41.5 8.8002 40.1 8.8002C39.3 8.8002 38.6 9.3002 38.1 10.2002C37.6 11.2002 37.4 12.6002 37.4 14.5002C37.4 17.8002 38.2 19.5002 39.9 19.5002C40.6 19.5002 41.1 19.3002 41.6 18.8002C42 18.2002 42.2 17.5002 42.2 16.5002ZM42.5 19.6002C41.5 20.6002 40.2 21.1002 38.4 21.1002C36.6 21.1002 35.2 20.5002 34.2 19.4002C33.2 18.2002 32.7 16.6002 32.7 14.4002C32.7 12.4002 33.3 10.7002 34.5 9.3002C35.7 7.9002 37.3 7.2002 39.3 7.2002C40.6 7.2002 41.6 7.5002 42.2 8.0002H42.3V4.4002C42.3 3.2002 41.7 2.4002 40.6 2.2002H46.7V17.3002C46.7 17.9002 46.9 18.4002 47.2 18.8002C47.6 19.2002 48 19.3002 48.6 19.3002C48.9 19.3002 49.3 19.2002 49.8 19.1002C49.5 19.8002 48.9 20.2002 48.1 20.6002C47.3 20.9002 46.5 21.1002 45.7 21.1002C44.1 21.1002 43.1 20.6002 42.5 19.6002Z" fill="#41413E"/>
<path d="M57.7 16.8V10.9C57.7 10.1 57.5 9.4 57.1 9C56.7 8.6 56.2 8.4 55.7 8.4C53.9 8.4 53 10.4 53 14.4C53 17.8 53.8 19.4 55.5 19.4C56.2 19.4 56.7 19.2 57.1 18.7C57.6 18.3 57.8 17.6 57.7 16.8ZM58.2 19.6C57.1 20.6 55.7 21.1 53.8 21.1C52.1 21.1 50.7 20.5 49.7 19.4C48.7 18.3 48.2 16.6 48.2 14.5C48.2 12.3 48.9 10.5 50.2 9.1C51.5 7.7 53.4 7 55.9 7C58.4 7 60.5 7.7 62.2 9V17.3C62.2 17.9 62.4 18.4 62.7 18.7C63.1 19 63.5 19.2 64.2 19.2C64.7 19.2 65.1 19.1 65.4 19C65.1 19.6 64.6 20.1 63.9 20.4C63.2 20.7 62.4 20.9 61.6 20.9C59.9 21.1 58.8 20.6 58.2 19.6Z" fill="#41413E"/>
</svg>
