<svg width="105" height="18" viewBox="0 0 105 18" fill="none" xmlns="http://www.w3.org/2000/svg">
<path d="M8.2 2.8998V4.3998H7.9C7.7 4.3998 7.6 4.3998 7.5 4.3998C6 4.3998 4.7 4.7998 3.7 5.6998C2.7 6.5998 2.2 7.6998 2.2 8.9998V16.9998H0.800003V3.0998H2.2V5.5998C2.5 5.0998 3 4.5998 3.6 4.0998C4.5 3.2998 6 2.7998 7.7 2.7998L8.2 2.8998Z" fill="#41413E"/>
<path d="M21.3 5C20 3.6 18.3 3 16.3 3C14.3 3 12.7 3.7 11.3 5C9.99999 6.4 9.29999 8.1 9.29999 10.1C9.29999 12.1 9.99999 13.8 11.3 15.2C12.7 16.5 14.4 17.2 16.5 17.2C19 17.2 21.3 16 22.6 13.9L22.7 13.7L21.4 13.2L21.3 13.3C20.3 15 18.7 15.8 16.5 15.8C14.9 15.8 13.5 15.3 12.4 14.2C11.4 13.2 10.8 11.9 10.7 10.4H23.2V10.3C23.2 10.2 23.2 10.1 23.2 10C23.3 8 22.6 6.3 21.3 5ZM16.3 4.3C17.8 4.3 19.1 4.8 20.1 5.8C21.1 6.7 21.7 7.9 21.9 9.3H10.8C11 7.9 11.5 6.8 12.6 5.8C13.5 4.7 14.8 4.3 16.3 4.3Z" fill="#41413E"/>
<path d="M35.5 13.2999C35.5 14.3999 35 15.3999 34.1 16.0999C33.2 16.7999 32 17.0999 30.6 17.0999C28 17.0999 26 15.7999 25.6 13.8999V13.6999L26.9 13.3999V13.5999C27.2 14.8999 28.7 15.7999 30.6 15.7999C32.7 15.7999 34.2 14.7999 34.2 13.2999C34.2 12.2999 33.6 11.4999 32.2 11.0999L28.5 9.6999C26.8 9.0999 26 7.9999 26 6.4999C26 4.3999 27.9 2.8999 30.6 2.8999C33 2.8999 34.8 3.9999 35.2 5.7999V5.9999L33.9 6.2999V6.0999C33.6 4.8999 32.3 4.1999 30.6 4.1999C28.7 4.1999 27.4 5.1999 27.4 6.4999C27.4 7.3999 27.9 8.0999 29 8.4999L32.8 9.8999C34.6 10.5999 35.5 11.6999 35.5 13.2999Z" fill="#41413E"/>
<path d="M41.1 4.3998V13.0998C41.1 14.4998 42 15.5998 43.2 15.5998H45.3V16.8998H43.1C42.1 16.8998 41.3 16.4998 40.7 15.7998C40 15.0998 39.7 14.1998 39.7 13.0998V4.3998H37.2V3.0998H39.7V0.299805H41.1V3.0998H45.3V4.3998H41.1Z" fill="#41413E"/>
<path d="M59.6 5C58.2 3.6 56.5 3 54.5 3C52.5 3 50.8 3.7 49.4 5C48.1 6.3 47.4 8 47.4 10.1C47.4 12.1 48.1 13.8 49.4 15.2C50.8 16.5 52.5 17.2 54.5 17.2C56.5 17.2 58.2 16.5 59.6 15.2C61 13.9 61.6 12.1 61.6 10.1C61.6 8 60.9 6.3 59.6 5ZM54.5 15.8C52.9 15.8 51.5 15.2 50.4 14.2C49.3 13.1 48.8 11.8 48.8 10.1C48.8 8.4 49.3 7.1 50.4 6C51.5 4.9 52.9 4.4 54.5 4.4C56.1 4.4 57.5 4.9 58.6 6C59.7 7.1 60.2 8.5 60.2 10.1C60.2 11.7 59.6 13.1 58.6 14.2C57.5 15.2 56.1 15.8 54.5 15.8Z" fill="#41413E"/>
<path d="M72.4 2.8998V4.3998H72C71.9 4.3998 71.7 4.3998 71.6 4.3998C70.1 4.3998 68.8 4.7998 67.8 5.6998C66.8 6.5998 66.3 7.6998 66.3 8.9998V16.9998H64.9V3.0998H66.3V5.5998C66.6 5.0998 67.1 4.5998 67.7 4.0998C68.6 3.2998 70.1 2.7998 71.8 2.7998L72.4 2.8998Z" fill="#41413E"/>
<path d="M86.1 3.0999V5.8999C84.8 3.9999 82.8 2.8999 80.4 2.8999C78.4 2.8999 76.8 3.5999 75.5 4.8999C74.2 6.1999 73.5 7.9999 73.5 9.9999C73.5 11.9999 74.2 13.6999 75.5 15.0999C76.8 16.3999 78.4 17.0999 80.4 17.0999C82.8 17.0999 84.8 15.9999 86.1 14.0999V16.8999H87.5V3.0999H86.1ZM80.5 15.7999C78.9 15.7999 77.6 15.2999 76.5 14.1999C75.4 13.0999 74.9 11.6999 74.9 10.0999C74.9 8.4999 75.4 7.0999 76.5 5.9999C77.6 4.8999 78.9 4.3999 80.5 4.3999C82.1 4.3999 83.4 4.8999 84.5 5.9999C85.6 7.0999 86.1 8.4999 86.1 10.0999C86.1 11.6999 85.6 13.0999 84.5 14.1999C83.3 15.1999 82 15.7999 80.5 15.7999Z" fill="#41413E"/>
<path d="M104.4 8.5999V16.8999H103V8.7999C103 7.4999 102.6 6.3999 101.7 5.5999C100.9 4.6999 99.8 4.2999 98.5 4.2999C97 4.2999 95.8 4.7999 94.7 5.5999C93.7 6.4999 93.2 7.5999 93.2 8.8999V16.9999H91.8V3.0999H93.2V5.5999C93.5 5.0999 94 4.5999 94.6 4.0999C95.5 3.2999 97 2.8999 98.7 2.8999C100.3 2.8999 101.7 3.3999 102.8 4.4999C103.8 5.5999 104.4 6.9999 104.4 8.5999Z" fill="#41413E"/>
</svg>
