<svg width="183" height="27" viewBox="0 0 183 27" fill="none" xmlns="http://www.w3.org/2000/svg">
<g clip-path="url(#clip0_5267_874)">
<path d="M14.9 15.4V20C14.9 22.3 14.2 23.9 12.9 24.9C11.5 25.9 9.8 26.4 7.7 26.4C5 26.4 3.1 25.5 1.9 23.8C3.1 24.3 4.6 24.6 6.5 24.6C7.5 24.6 8.4 24.3 9.2 23.8C10 23.3 10.4 22.4 10.4 21.3V20.3C9.4 20.7 8.2 21 6.8 21C5.2 21 4 20.6 3.1 19.9C2.2 19.1 1.8 18 1.8 16.6V9.9C1.8 8.6 1.2 7.9 0 7.7H6.1V16.5C6.1 18.5 6.9 19.5 8.6 19.5C9.3 19.5 9.8 19.4 10.4 19.1L10.5 7.8H14.9V15.4ZM10.4 2.9L5.4 5.1H5.2L9 0.8C9.5 0.2 10.1 0 10.7 0C11 0 11.3 0.1 11.5 0.4C11.7 0.6 11.9 0.9 11.9 1.2C11.9 1.9 11.4 2.4 10.4 2.9Z" fill="white"/>
<path d="M31.8002 14.1C31.8002 16.3 31.1002 18.1 29.6002 19.4C28.1002 20.7 26.3002 21.3 24.0002 21.3C21.8002 21.3 20.0002 20.7 18.7002 19.4C17.4002 18.1 16.7002 16.4 16.7002 14.2C16.7002 12 17.4002 10.3 18.9002 9C20.3002 7.7 22.2002 7 24.4002 7C26.6002 7 28.4002 7.6 29.8002 8.9C31.1002 10.1 31.8002 11.8 31.8002 14.1ZM24.3002 20.2C26.2002 20.2 27.1002 18.2 27.1002 14.1C27.1002 10 26.2002 8 24.4002 8C23.8002 8 23.3002 8.2 22.9002 8.6C22.5002 9 22.2002 9.5 22.0002 10.2C21.8002 10.9 21.7002 11.5 21.6002 12C21.5002 12.5 21.5002 13.1 21.5002 13.7C21.5002 14.2 21.5002 14.6 21.5002 14.9C21.5002 15.2 21.5002 15.6 21.6002 16.2C21.7002 16.8 21.7002 17.3 21.9002 17.7C22.0002 18.1 22.2002 18.5 22.3002 18.9C22.5002 19.3 22.7002 19.7 23.1002 19.9C23.4002 20.1 23.8002 20.2 24.3002 20.2Z" fill="white"/>
<path d="M42.2002 16.5V11.5C42.2002 9.69995 41.5002 8.79995 40.1002 8.79995C39.3002 8.79995 38.6002 9.29995 38.1002 10.2C37.6002 11.2 37.4002 12.6 37.4002 14.5C37.4002 17.8 38.2002 19.5 39.9002 19.5C40.6002 19.5 41.1002 19.2999 41.6002 18.7999C42.0002 18.1999 42.2002 17.5 42.2002 16.5ZM42.5002 19.6C41.5002 20.6 40.2002 21.1 38.4002 21.1C36.6002 21.1 35.2002 20.5 34.2002 19.4C33.2002 18.2 32.7002 16.6 32.7002 14.4C32.7002 12.4 33.3002 10.7 34.5002 9.29995C35.7002 7.89995 37.3002 7.19995 39.3002 7.19995C40.6002 7.19995 41.6002 7.49995 42.2002 7.99995H42.3002V4.39995C42.3002 3.19995 41.7002 2.39995 40.6002 2.19995H46.7002V17.3C46.7002 17.9 46.9002 18.4 47.2002 18.7999C47.6002 19.1999 48.0002 19.2999 48.6002 19.2999C48.9002 19.2999 49.3002 19.2 49.8002 19.1C49.5002 19.8 48.9002 20.2 48.1002 20.6C47.3002 20.9 46.5002 21.1 45.7002 21.1C44.1002 21.1 43.1002 20.6 42.5002 19.6Z" fill="white"/>
<path d="M57.7002 16.8V10.9C57.7002 10.1 57.5002 9.4 57.1002 9C56.7002 8.6 56.2002 8.4 55.7002 8.4C53.9002 8.4 53.0002 10.4 53.0002 14.4C53.0002 17.8 53.8002 19.4 55.5002 19.4C56.2002 19.4 56.7002 19.2 57.1002 18.7C57.6002 18.3 57.8002 17.6 57.7002 16.8ZM58.2002 19.6C57.1002 20.6 55.7002 21.1 53.8002 21.1C52.1002 21.1 50.7002 20.5 49.7002 19.4C48.7002 18.3 48.2002 16.6 48.2002 14.5C48.2002 12.3 48.9002 10.5 50.2002 9.1C51.5002 7.7 53.4002 7 55.9002 7C58.4002 7 60.5002 7.7 62.2002 9V17.3C62.2002 17.9 62.4002 18.4 62.7002 18.7C63.1002 19 63.5002 19.2 64.2002 19.2C64.7002 19.2 65.1002 19.1 65.4002 19C65.1002 19.6 64.6002 20.1 63.9002 20.4C63.2002 20.7 62.4002 20.9 61.6002 20.9C59.9002 21.1 58.8002 20.6 58.2002 19.6Z" fill="white"/>
<path d="M73.7002 14.8C73.7002 16.5 72.4002 17.8 70.7002 17.8C69.0002 17.8 67.7002 16.5 67.7002 14.8C67.7002 13.1 69.0002 11.8 70.7002 11.8C72.4002 11.8 73.7002 13.1 73.7002 14.8Z" fill="#FF891D"/>
<path d="M86.1998 6.90005V8.40005H85.8998C85.6998 8.40005 85.5998 8.40005 85.4998 8.40005C83.9998 8.40005 82.6998 8.80005 81.6998 9.70005C80.6998 10.6 80.1998 11.7 80.1998 13V21H78.7998V7.10005H80.1998V9.60005C80.4998 9.10005 80.9998 8.60005 81.5998 8.10005C82.4998 7.30005 83.9998 6.80005 85.6998 6.80005L86.1998 6.90005Z" fill="white"/>
<path d="M99.2998 9C97.9998 7.6 96.2998 7 94.2998 7C92.2998 7 90.6998 7.7 89.2998 9C87.9998 10.4 87.2998 12.1 87.2998 14.1C87.2998 16.1 87.9998 17.8 89.2998 19.2C90.6998 20.5 92.3998 21.2 94.4998 21.2C96.9998 21.2 99.2998 20 100.6 17.9L100.7 17.7L99.3998 17.2L99.2998 17.3C98.2998 19 96.6998 19.8 94.4998 19.8C92.8998 19.8 91.4998 19.3 90.3998 18.2C89.3998 17.2 88.7998 15.9 88.6998 14.4H101.2V14.3C101.2 14.2 101.2 14.1 101.2 14C101.3 12 100.6 10.3 99.2998 9ZM94.2998 8.3C95.7998 8.3 97.0998 8.8 98.0998 9.8C99.0998 10.7 99.6998 11.9 99.8998 13.3H88.7998C88.9998 11.9 89.4998 10.8 90.5998 9.8C91.4998 8.7 92.7998 8.3 94.2998 8.3Z" fill="white"/>
<path d="M113.5 17.3001C113.5 18.4001 113 19.4001 112.1 20.1001C111.2 20.8001 110 21.1001 108.6 21.1001C106 21.1001 104 19.8001 103.6 17.9001V17.7001L104.9 17.4001V17.6001C105.2 18.9001 106.7 19.8001 108.6 19.8001C110.7 19.8001 112.2 18.8001 112.2 17.3001C112.2 16.3001 111.6 15.5001 110.2 15.1001L106.5 13.7001C104.8 13.1001 104 12.0001 104 10.5001C104 8.40015 105.9 6.90015 108.6 6.90015C111 6.90015 112.8 8.00015 113.2 9.80015V10.0001L111.9 10.3001V10.1001C111.6 8.90015 110.3 8.20015 108.6 8.20015C106.7 8.20015 105.4 9.20015 105.4 10.5001C105.4 11.4001 105.9 12.1001 107 12.5001L110.8 13.9001C112.6 14.6001 113.5 15.7001 113.5 17.3001Z" fill="white"/>
<path d="M119.1 8.40005V17.1C119.1 18.5 120 19.6 121.2 19.6H123.3V20.9H121.1C120.1 20.9 119.3 20.5 118.7 19.8C118 19.1 117.7 18.2 117.7 17.1V8.40005H115.2V7.10005H117.7V4.30005H119.1V7.10005H123.3V8.40005H119.1Z" fill="white"/>
<path d="M137.6 9C136.2 7.6 134.5 7 132.5 7C130.5 7 128.8 7.7 127.4 9C126.1 10.3 125.4 12 125.4 14.1C125.4 16.1 126.1 17.8 127.4 19.2C128.8 20.5 130.5 21.2 132.5 21.2C134.5 21.2 136.2 20.5 137.6 19.2C139 17.9 139.6 16.1 139.6 14.1C139.6 12 138.9 10.3 137.6 9ZM132.5 19.8C130.9 19.8 129.5 19.2 128.4 18.2C127.3 17.1 126.8 15.8 126.8 14.1C126.8 12.4 127.3 11.1 128.4 10C129.5 8.9 130.9 8.4 132.5 8.4C134.1 8.4 135.5 8.9 136.6 10C137.7 11.1 138.2 12.5 138.2 14.1C138.2 15.7 137.6 17.1 136.6 18.2C135.5 19.2 134.1 19.8 132.5 19.8Z" fill="white"/>
<path d="M150.4 6.90005V8.40005H150C149.9 8.40005 149.7 8.40005 149.6 8.40005C148.1 8.40005 146.8 8.80005 145.8 9.70005C144.8 10.6 144.3 11.7 144.3 13V21H142.9V7.10005H144.3V9.60005C144.6 9.10005 145.1 8.60005 145.7 8.10005C146.6 7.30005 148.1 6.80005 149.8 6.80005L150.4 6.90005Z" fill="white"/>
<path d="M164.1 7.10015V9.90015C162.8 8.00015 160.8 6.90015 158.4 6.90015C156.4 6.90015 154.8 7.60015 153.5 8.90015C152.2 10.2001 151.5 12.0001 151.5 14.0001C151.5 16.0001 152.2 17.7001 153.5 19.1001C154.8 20.4001 156.4 21.1001 158.4 21.1001C160.8 21.1001 162.8 20.0001 164.1 18.1001V20.9001H165.5V7.10015H164.1ZM158.5 19.8001C156.9 19.8001 155.6 19.3001 154.5 18.2001C153.4 17.1001 152.9 15.7001 152.9 14.1001C152.9 12.5001 153.4 11.1001 154.5 10.0001C155.6 8.90015 156.9 8.40015 158.5 8.40015C160.1 8.40015 161.4 8.90015 162.5 10.0001C163.6 11.1001 164.1 12.5001 164.1 14.1001C164.1 15.7001 163.6 17.1001 162.5 18.2001C161.3 19.2001 160 19.8001 158.5 19.8001Z" fill="white"/>
<path d="M182.4 12.6001V20.9001H181V12.8001C181 11.5001 180.6 10.4001 179.7 9.60015C178.9 8.70015 177.8 8.30015 176.5 8.30015C175 8.30015 173.8 8.80015 172.7 9.60015C171.7 10.5001 171.2 11.6001 171.2 12.9001V21.0001H169.8V7.10015H171.2V9.60015C171.5 9.10015 172 8.60015 172.6 8.10015C173.5 7.30015 175 6.90015 176.7 6.90015C178.3 6.90015 179.7 7.40015 180.8 8.50015C181.8 9.60015 182.4 11.0001 182.4 12.6001Z" fill="white"/>
</g>
<defs>
<clipPath id="clip0_5267_874">
<rect width="182.4" height="26.4" fill="white"/>
</clipPath>
</defs>
</svg>
