<svg width="25" height="25" viewBox="0 0 25 25" fill="none" xmlns="http://www.w3.org/2000/svg">
<path d="M21.0938 7.03125H5.46875C5.26155 7.03125 5.06284 6.94894 4.91632 6.80243C4.76981 6.65591 4.6875 6.4572 4.6875 6.25C4.6875 6.0428 4.76981 5.84409 4.91632 5.69757C5.06284 5.55106 5.26155 5.46875 5.46875 5.46875H18.75C18.9572 5.46875 19.1559 5.38644 19.3024 5.23993C19.4489 5.09341 19.5312 4.8947 19.5312 4.6875C19.5312 4.4803 19.4489 4.28159 19.3024 4.13507C19.1559 3.98856 18.9572 3.90625 18.75 3.90625H5.46875C4.84794 3.90882 4.25329 4.15658 3.81431 4.59556C3.37533 5.03454 3.12757 5.62919 3.125 6.25V18.75C3.12757 19.3708 3.37533 19.9655 3.81431 20.4044C4.25329 20.8434 4.84794 21.0912 5.46875 21.0937H21.0938C21.5082 21.0937 21.9056 20.9291 22.1986 20.6361C22.4916 20.3431 22.6562 19.9456 22.6562 19.5312V8.59375C22.6562 8.17935 22.4916 7.78192 22.1986 7.4889C21.9056 7.19587 21.5082 7.03125 21.0938 7.03125ZM17.5781 15.2344C17.3463 15.2344 17.1198 15.1656 16.9271 15.0369C16.7344 14.9081 16.5842 14.7251 16.4955 14.511C16.4068 14.2968 16.3835 14.0612 16.4288 13.8339C16.474 13.6066 16.5856 13.3977 16.7495 13.2339C16.9134 13.07 17.1222 12.9584 17.3495 12.9131C17.5768 12.8679 17.8124 12.8911 18.0266 12.9798C18.2407 13.0685 18.4237 13.2187 18.5525 13.4114C18.6813 13.6042 18.75 13.8307 18.75 14.0625C18.75 14.3733 18.6265 14.6714 18.4068 14.8911C18.187 15.1109 17.8889 15.2344 17.5781 15.2344Z" fill="#41413E"/>
</svg>
