<svg width="184" height="40" viewBox="0 0 184 40" fill="none" xmlns="http://www.w3.org/2000/svg">
<rect width="40" height="40" rx="8" fill="white"/>
<circle cx="19.9996" cy="20.0001" r="10.4" fill="#FF891D"/>
<path d="M103.648 19.3065V25.3018H102.854V14.9788H103.648V17.2816C103.887 16.7853 104.244 16.3287 104.899 15.7729C105.554 15.217 106.646 14.8398 107.936 14.8398H108.214V15.6935C108.036 15.6736 107.897 15.6538 107.797 15.6538C106.626 15.6538 105.634 16.0111 104.84 16.7059C104.045 17.4007 103.648 18.2543 103.648 19.3065ZM119.676 20.3189H110.088C110.128 21.5696 110.584 22.6218 111.438 23.4555C112.291 24.2695 113.383 24.6864 114.674 24.6864C116.321 24.6864 117.592 24.0312 118.446 22.721L119.22 22.9989C118.267 24.5077 116.599 25.4407 114.674 25.4407C113.125 25.4407 111.835 24.9444 110.803 23.932C109.79 22.9195 109.274 21.649 109.274 20.1403C109.274 18.6315 109.77 17.3809 110.763 16.3684C111.775 15.356 113.006 14.8398 114.495 14.8398C115.984 14.8398 117.215 15.356 118.207 16.3684C119.2 17.3809 119.696 18.6315 119.696 20.1403C119.696 20.2197 119.696 20.2792 119.676 20.3189ZM110.108 19.6241H118.862C118.763 18.4529 118.287 17.5 117.453 16.7456C116.639 15.9714 115.646 15.5942 114.475 15.5942C113.304 15.5942 112.311 15.9714 111.497 16.7456C110.683 17.5 110.207 18.4529 110.108 19.6241ZM128.786 16.9441L128.032 17.1426C127.814 16.2096 126.762 15.5743 125.392 15.5743C123.903 15.5743 122.791 16.3684 122.791 17.4206C122.791 18.1948 123.228 18.7506 124.101 19.0881L127.04 20.1403C128.37 20.6366 129.045 21.4703 129.045 22.6416C129.045 23.4754 128.707 24.1503 128.012 24.6665C127.317 25.1826 126.444 25.4407 125.392 25.4407C123.426 25.4407 122.017 24.5077 121.719 23.0982L122.474 22.9195C122.692 23.9717 123.824 24.7062 125.392 24.7062C127.059 24.7062 128.27 23.8526 128.27 22.6615C128.27 21.8078 127.734 21.2123 126.682 20.8351L123.863 19.7631C122.632 19.3065 122.017 18.5521 122.017 17.4603C122.017 15.892 123.446 14.8398 125.432 14.8398C127.178 14.8398 128.489 15.6736 128.786 16.9441ZM130.642 15.7133V14.9788H132.528V12.8745H133.322V14.9788H136.538V15.7133H133.322V22.4629C133.322 23.6342 134.076 24.5275 135.049 24.5275H136.518V25.3018H135.009C134.315 25.3018 133.719 25.0437 133.243 24.5077C132.766 23.9717 132.528 23.2967 132.528 22.5225V15.7133H130.642ZM139.882 23.932C138.87 22.9195 138.373 21.649 138.373 20.1403C138.373 18.6315 138.87 17.3809 139.882 16.3684C140.894 15.356 142.165 14.8398 143.674 14.8398C145.182 14.8398 146.433 15.356 147.446 16.3684C148.458 17.3809 148.974 18.6315 148.974 20.1403C148.974 21.649 148.458 22.9195 147.446 23.932C146.433 24.9444 145.182 25.4407 143.674 25.4407C142.165 25.4407 140.894 24.9444 139.882 23.932ZM140.458 16.9243C139.604 17.7779 139.187 18.8499 139.187 20.1403C139.187 21.4306 139.604 22.5026 140.458 23.3563C141.311 24.2099 142.383 24.6466 143.674 24.6466C144.964 24.6466 146.016 24.2099 146.87 23.3563C147.723 22.5026 148.16 21.4306 148.16 20.1403C148.16 18.8499 147.723 17.7779 146.87 16.9243C146.016 16.0706 144.964 15.6339 143.674 15.6339C142.383 15.6339 141.311 16.0706 140.458 16.9243ZM152.658 19.3065V25.3018H151.864V14.9788H152.658V17.2816C152.896 16.7853 153.253 16.3287 153.908 15.7729C154.564 15.217 155.655 14.8398 156.946 14.8398H157.224V15.6935C157.045 15.6736 156.906 15.6538 156.807 15.6538C155.636 15.6538 154.643 16.0111 153.849 16.7059C153.055 17.4007 152.658 18.2543 152.658 19.3065ZM163.405 14.8398C165.331 14.8398 166.998 15.8523 167.872 17.4603V14.9788H168.666V25.3018H167.872V22.8203C166.998 24.4283 165.331 25.4407 163.405 25.4407C161.956 25.4407 160.725 24.9444 159.752 23.932C158.78 22.9195 158.283 21.649 158.283 20.1403C158.283 18.6315 158.78 17.3809 159.752 16.3684C160.725 15.356 161.956 14.8398 163.405 14.8398ZM166.581 16.9243C165.748 16.0706 164.715 15.6339 163.465 15.6339C162.214 15.6339 161.182 16.0706 160.348 16.9243C159.514 17.7779 159.097 18.8499 159.097 20.1403C159.097 21.4306 159.514 22.5026 160.348 23.3563C161.182 24.2099 162.214 24.6466 163.465 24.6466C164.715 24.6466 165.748 24.2099 166.581 23.3563C167.415 22.5026 167.832 21.4306 167.832 20.1403C167.832 18.8499 167.415 17.7779 166.581 16.9243ZM172.278 25.3018V14.9788H173.072V17.2618C173.33 16.7655 173.687 16.3089 174.342 15.753C174.997 15.1972 176.089 14.8398 177.36 14.8398C178.571 14.8398 179.563 15.2369 180.377 16.0508C181.191 16.8449 181.588 17.8573 181.588 19.0683V25.3018H180.794V19.2072C180.794 18.1948 180.457 17.3412 179.762 16.6463C179.087 15.9515 178.233 15.614 177.221 15.614C176.05 15.614 175.057 15.9714 174.263 16.6662C173.469 17.361 173.072 18.2146 173.072 19.2668V25.3018H172.278Z" fill="white"/>
<path d="M103.648 25.3018V25.4436H103.79V25.3018H103.648ZM102.854 25.3018H102.713V25.4436H102.854V25.3018ZM102.854 14.9788V14.837H102.713V14.9788H102.854ZM103.648 14.9788H103.79V14.837H103.648V14.9788ZM103.648 17.2816H103.507L103.776 17.343L103.648 17.2816ZM104.899 15.7729L104.807 15.6647L104.899 15.7729ZM108.214 14.8398H108.356V14.698H108.214V14.8398ZM108.214 15.6935L108.199 15.8344L108.356 15.8519V15.6935H108.214ZM104.84 16.7059L104.933 16.8126L104.84 16.7059ZM103.507 19.3065V25.3018H103.79V19.3065H103.507ZM103.648 25.16H102.854V25.4436H103.648V25.16ZM102.996 25.3018V14.9788H102.713V25.3018H102.996ZM102.854 15.1206H103.648V14.837H102.854V15.1206ZM103.507 14.9788V17.2816H103.79V14.9788H103.507ZM103.776 17.343C104.004 16.8692 104.346 16.4277 104.991 15.881L104.807 15.6647C104.142 16.2297 103.77 16.7014 103.521 17.2202L103.776 17.343ZM104.991 15.881C105.614 15.3523 106.67 14.9816 107.936 14.9816V14.698C106.622 14.698 105.495 15.0817 104.807 15.6647L104.991 15.881ZM107.936 14.9816H108.214V14.698H107.936V14.9816ZM108.073 14.8398V15.6935H108.356V14.8398H108.073ZM108.23 15.5525C108.06 15.5337 107.907 15.512 107.797 15.512V15.7956C107.886 15.7956 108.011 15.8135 108.199 15.8344L108.23 15.5525ZM107.797 15.512C106.595 15.512 105.569 15.8796 104.746 16.5992L104.933 16.8126C105.699 16.1426 106.657 15.7956 107.797 15.7956V15.512ZM104.746 16.5992C103.922 17.3202 103.507 18.2124 103.507 19.3065H103.79C103.79 18.2963 104.169 17.4812 104.933 16.8126L104.746 16.5992ZM119.676 20.3189V20.4607H119.764L119.803 20.3824L119.676 20.3189ZM110.088 20.3189V20.1771H109.942L109.946 20.3234L110.088 20.3189ZM111.438 23.4555L111.339 23.557L111.34 23.5582L111.438 23.4555ZM118.446 22.721L118.493 22.5876L118.388 22.5497L118.327 22.6436L118.446 22.721ZM119.22 22.9989L119.34 23.0747L119.434 22.9252L119.268 22.8655L119.22 22.9989ZM110.803 23.932L110.702 24.0323L110.703 24.0332L110.803 23.932ZM110.763 16.3684L110.663 16.2681L110.662 16.2691L110.763 16.3684ZM118.207 16.3684L118.106 16.4677L118.207 16.3684ZM110.108 19.6241L109.966 19.6122L109.953 19.7659H110.108V19.6241ZM118.862 19.6241V19.7659H119.017L119.004 19.6122L118.862 19.6241ZM117.453 16.7456L117.355 16.8484L117.358 16.8508L117.453 16.7456ZM111.497 16.7456L111.594 16.8496L111.595 16.8483L111.497 16.7456ZM119.676 20.1771H110.088V20.4607H119.676V20.1771ZM109.946 20.3234C109.987 21.6092 110.458 22.6966 111.339 23.557L111.537 23.3541C110.711 22.5469 110.268 21.53 110.23 20.3144L109.946 20.3234ZM111.34 23.5582C112.222 24.3996 113.35 24.8281 114.674 24.8281V24.5446C113.416 24.5446 112.36 24.1394 111.536 23.3529L111.34 23.5582ZM114.674 24.8281C116.366 24.8281 117.683 24.1519 118.564 22.7984L118.327 22.6436C117.501 23.9106 116.277 24.5446 114.674 24.5446V24.8281ZM118.398 22.8545L119.172 23.1324L119.268 22.8655L118.493 22.5876L118.398 22.8545ZM119.1 22.9232C118.174 24.3897 116.552 25.2989 114.674 25.2989V25.5825C116.647 25.5825 118.36 24.6257 119.34 23.0747L119.1 22.9232ZM114.674 25.2989C113.159 25.2989 111.905 24.8148 110.902 23.8307L110.703 24.0332C111.765 25.0741 113.092 25.5825 114.674 25.5825V25.2989ZM110.903 23.8317C109.918 22.8471 109.416 21.6132 109.416 20.1403H109.132C109.132 21.6848 109.662 22.9919 110.702 24.0322L110.903 23.8317ZM109.416 20.1403C109.416 18.6663 109.899 17.452 110.864 16.4677L110.662 16.2691C109.641 17.3097 109.132 18.5968 109.132 20.1403H109.416ZM110.863 16.4687C111.849 15.4831 113.043 14.9816 114.495 14.9816V14.698C112.969 14.698 111.702 15.2288 110.663 16.2682L110.863 16.4687ZM114.495 14.9816C115.947 14.9816 117.141 15.4832 118.106 16.4677L118.309 16.2691C117.289 15.2287 116.021 14.698 114.495 14.698V14.9816ZM118.106 16.4677C119.071 17.452 119.554 18.6663 119.554 20.1403H119.838C119.838 18.5968 119.329 17.3097 118.309 16.2691L118.106 16.4677ZM119.554 20.1403C119.554 20.1818 119.554 20.2101 119.552 20.2327C119.55 20.2559 119.547 20.2596 119.55 20.2555L119.803 20.3824C119.825 20.3386 119.832 20.2927 119.835 20.2563C119.838 20.2194 119.838 20.1781 119.838 20.1403H119.554ZM110.108 19.7659H118.862V19.4823H110.108V19.7659ZM119.004 19.6122C118.901 18.4056 118.409 17.4193 117.548 16.6405L117.358 16.8508C118.165 17.5807 118.625 18.5001 118.721 19.6361L119.004 19.6122ZM117.551 16.6429C116.709 15.8418 115.68 15.4524 114.475 15.4524V15.736C115.613 15.736 116.569 16.1009 117.355 16.8483L117.551 16.6429ZM114.475 15.4524C113.27 15.4524 112.242 15.8418 111.4 16.6429L111.595 16.8483C112.381 16.1009 113.338 15.736 114.475 15.736V15.4524ZM111.401 16.6416C110.561 17.4201 110.069 18.4058 109.966 19.6122L110.249 19.6361C110.345 18.4999 110.806 17.5799 111.594 16.8496L111.401 16.6416ZM128.786 16.9441L128.823 17.0813L128.956 17.0461L128.925 16.9118L128.786 16.9441ZM128.032 17.1426L127.894 17.175L127.927 17.3169L128.068 17.2798L128.032 17.1426ZM124.101 19.0881L124.05 19.2204L124.054 19.2216L124.101 19.0881ZM127.04 20.1403L127.089 20.0074L127.087 20.0068L127.04 20.1403ZM128.012 24.6665L127.928 24.5527L128.012 24.6665ZM121.719 23.0982L121.687 22.9602L121.552 22.9921L121.58 23.1275L121.719 23.0982ZM122.474 22.9195L122.612 22.8907L122.583 22.7479L122.441 22.7816L122.474 22.9195ZM126.682 20.8351L126.632 20.9677L126.634 20.9686L126.682 20.8351ZM123.863 19.7631L123.914 19.6305L123.913 19.6301L123.863 19.7631ZM128.75 16.807L127.996 17.0055L128.068 17.2798L128.823 17.0813L128.75 16.807ZM128.17 17.1103C127.93 16.0847 126.793 15.4325 125.392 15.4325V15.7161C126.73 15.7161 127.697 16.3345 127.894 17.175L128.17 17.1103ZM125.392 15.4325C124.624 15.4325 123.943 15.6373 123.451 15.9873C122.958 16.3383 122.649 16.8396 122.649 17.4206H122.933C122.933 16.9494 123.181 16.5276 123.615 16.2185C124.051 15.9085 124.671 15.7161 125.392 15.7161V15.4325ZM122.649 17.4206C122.649 17.8362 122.767 18.2004 123.007 18.5057C123.246 18.8092 123.597 19.0454 124.05 19.2204L124.153 18.9559C123.732 18.7934 123.429 18.5829 123.23 18.3305C123.033 18.08 122.933 17.7791 122.933 17.4206H122.649ZM124.054 19.2216L126.992 20.2738L127.087 20.0068L124.149 18.9546L124.054 19.2216ZM126.99 20.2731C127.639 20.5152 128.116 20.8352 128.43 21.2267C128.743 21.6161 128.903 22.0852 128.903 22.6416H129.186C129.186 22.0267 129.008 21.4934 128.651 21.049C128.296 20.6067 127.77 20.2616 127.089 20.0074L126.99 20.2731ZM128.903 22.6416C128.903 23.4298 128.587 24.0628 127.928 24.5527L128.097 24.7803C128.827 24.2379 129.186 23.521 129.186 22.6416H128.903ZM127.928 24.5527C127.262 25.047 126.42 25.2989 125.392 25.2989V25.5825C126.468 25.5825 127.373 25.3183 128.097 24.7803L127.928 24.5527ZM125.392 25.2989C123.465 25.2989 122.137 24.3887 121.858 23.0689L121.58 23.1275C121.897 24.6267 123.388 25.5825 125.392 25.5825V25.2989ZM121.752 23.2362L122.506 23.0575L122.441 22.7816L121.687 22.9602L121.752 23.2362ZM122.335 22.9483C122.573 24.094 123.789 24.848 125.392 24.848V24.5644C123.858 24.5644 122.811 23.8493 122.612 22.8907L122.335 22.9483ZM125.392 24.848C126.248 24.848 126.998 24.629 127.538 24.2462C128.081 23.8619 128.412 23.3105 128.412 22.6615H128.129C128.129 23.2036 127.855 23.6745 127.374 24.0148C126.892 24.3566 126.203 24.5644 125.392 24.5644V24.848ZM128.412 22.6615C128.412 22.2019 128.267 21.806 127.977 21.4761C127.691 21.1492 127.27 20.8951 126.73 20.7016L126.634 20.9686C127.147 21.1523 127.52 21.3845 127.764 21.6631C128.006 21.9387 128.129 22.2673 128.129 22.6615H128.412ZM126.733 20.7025L123.914 19.6305L123.813 19.8956L126.632 20.9676L126.733 20.7025ZM123.913 19.6301C123.313 19.4077 122.876 19.1173 122.589 18.761C122.304 18.4068 122.159 17.9775 122.159 17.4603H121.875C121.875 18.0348 122.038 18.5287 122.368 18.9388C122.697 19.3468 123.183 19.6619 123.814 19.896L123.913 19.6301ZM122.159 17.4603C122.159 16.7238 122.493 16.1093 123.065 15.6749C123.641 15.2385 124.463 14.9816 125.432 14.9816V14.698C124.415 14.698 123.53 14.9672 122.894 15.4489C122.256 15.9327 121.875 16.6284 121.875 17.4603H122.159ZM125.432 14.9816C127.14 14.9816 128.371 15.7937 128.648 16.9765L128.925 16.9118C128.606 15.5535 127.216 14.698 125.432 14.698V14.9816ZM130.642 15.7133H130.5V15.8551H130.642V15.7133ZM130.642 14.9788V14.837H130.5V14.9788H130.642ZM132.528 14.9788V15.1206H132.67V14.9788H132.528ZM132.528 12.8745V12.7327H132.386V12.8745H132.528ZM133.322 12.8745H133.464V12.7327H133.322V12.8745ZM133.322 14.9788H133.18V15.1206H133.322V14.9788ZM136.538 14.9788H136.68V14.837H136.538V14.9788ZM136.538 15.7133V15.8551H136.68V15.7133H136.538ZM133.322 15.7133V15.5715H133.18V15.7133H133.322ZM136.518 24.5275H136.66V24.3857H136.518V24.5275ZM136.518 25.3018V25.4436H136.66V25.3018H136.518ZM133.243 24.5077L133.349 24.4135L133.243 24.5077ZM132.528 15.7133H132.67V15.5715H132.528V15.7133ZM130.784 15.7133V14.9788H130.5V15.7133H130.784ZM130.642 15.1206H132.528V14.837H130.642V15.1206ZM132.67 14.9788V12.8745H132.386V14.9788H132.67ZM132.528 13.0163H133.322V12.7327H132.528V13.0163ZM133.18 12.8745V14.9788H133.464V12.8745H133.18ZM133.322 15.1206H136.538V14.837H133.322V15.1206ZM136.396 14.9788V15.7133H136.68V14.9788H136.396ZM136.538 15.5715H133.322V15.8551H136.538V15.5715ZM133.18 15.7133V22.4629H133.464V15.7133H133.18ZM133.18 22.4629C133.18 23.6882 133.976 24.6693 135.049 24.6693V24.3857C134.177 24.3857 133.464 23.5802 133.464 22.4629H133.18ZM135.049 24.6693H136.518V24.3857H135.049V24.6693ZM136.376 24.5275V25.3018H136.66V24.5275H136.376ZM136.518 25.16H135.009V25.4436H136.518V25.16ZM135.009 25.16C134.354 25.16 133.798 24.9187 133.349 24.4135L133.137 24.6019C133.64 25.1686 134.275 25.4436 135.009 25.4436V25.16ZM133.349 24.4135C132.898 23.9063 132.67 23.266 132.67 22.5225H132.386C132.386 23.3274 132.635 24.0371 133.137 24.6019L133.349 24.4135ZM132.67 22.5225V15.7133H132.386V22.5225H132.67ZM132.528 15.5715H130.642V15.8551H132.528V15.5715ZM139.882 23.932L139.982 23.8317L139.882 23.932ZM139.882 16.3684L139.982 16.4687L139.882 16.3684ZM147.446 16.3684L147.345 16.4687L147.446 16.3684ZM147.446 23.932L147.345 23.8317L147.446 23.932ZM140.458 16.9243L140.558 17.0245L140.458 16.9243ZM140.458 23.3563L140.558 23.256L140.458 23.3563ZM146.87 23.3563L146.77 23.256L146.87 23.3563ZM146.87 16.9243L146.77 17.0245L146.87 16.9243ZM139.982 23.8317C138.999 22.8481 138.515 21.6147 138.515 20.1403H138.231C138.231 21.6834 138.74 22.991 139.782 24.0322L139.982 23.8317ZM138.515 20.1403C138.515 18.6665 138.998 17.4527 139.982 16.4687L139.782 16.2682C138.741 17.309 138.231 18.5966 138.231 20.1403H138.515ZM139.982 16.4687C140.967 15.4841 142.201 14.9816 143.674 14.9816V14.698C142.129 14.698 140.822 15.2279 139.782 16.2682L139.982 16.4687ZM143.674 14.9816C145.146 14.9816 146.36 15.4837 147.345 16.4687L147.546 16.2682C146.506 15.2282 145.219 14.698 143.674 14.698V14.9816ZM147.345 16.4687C148.33 17.4537 148.832 18.6679 148.832 20.1403H149.116C149.116 18.5952 148.586 17.3081 147.546 16.2682L147.345 16.4687ZM148.832 20.1403C148.832 21.6132 148.33 22.8471 147.345 23.8317L147.546 24.0322C148.586 22.9919 149.116 21.6848 149.116 20.1403H148.832ZM147.345 23.8317C146.361 24.8157 145.147 25.2989 143.674 25.2989V25.5825C145.217 25.5825 146.505 25.0731 147.546 24.0322L147.345 23.8317ZM143.674 25.2989C142.199 25.2989 140.966 24.8154 139.982 23.8317L139.782 24.0322C140.823 25.0735 142.131 25.5825 143.674 25.5825V25.2989ZM140.357 16.824C139.475 17.7067 139.045 18.816 139.045 20.1403H139.329C139.329 18.8838 139.733 17.8491 140.558 17.0245L140.357 16.824ZM139.045 20.1403C139.045 21.4645 139.475 22.5738 140.357 23.4565L140.558 23.256C139.733 22.4315 139.329 21.3968 139.329 20.1403H139.045ZM140.357 23.4565C141.239 24.3382 142.348 24.7884 143.674 24.7884V24.5048C142.419 24.5048 141.384 24.0816 140.558 23.256L140.357 23.4565ZM143.674 24.7884C145 24.7884 146.089 24.3377 146.97 23.4565L146.77 23.256C145.943 24.0821 144.928 24.5048 143.674 24.5048V24.7884ZM146.97 23.4565C147.852 22.5749 148.302 21.4662 148.302 20.1403H148.018C148.018 21.3951 147.595 22.4304 146.77 23.256L146.97 23.4565ZM148.302 20.1403C148.302 18.8143 147.852 17.7056 146.97 16.824L146.77 17.0245C147.595 17.8502 148.018 18.8855 148.018 20.1403H148.302ZM146.97 16.824C146.089 15.9428 145 15.4921 143.674 15.4921V15.7757C144.928 15.7757 145.943 16.1984 146.77 17.0245L146.97 16.824ZM143.674 15.4921C142.348 15.4921 141.239 15.9424 140.357 16.824L140.558 17.0245C141.384 16.1989 142.419 15.7757 143.674 15.7757V15.4921ZM152.658 25.3018V25.4436H152.8V25.3018H152.658ZM151.864 25.3018H151.722V25.4436H151.864V25.3018ZM151.864 14.9788V14.837H151.722V14.9788H151.864ZM152.658 14.9788H152.8V14.837H152.658V14.9788ZM152.658 17.2816H152.516L152.786 17.343L152.658 17.2816ZM153.908 15.7729L153.817 15.6647L153.908 15.7729ZM157.224 14.8398H157.365V14.698H157.224V14.8398ZM157.224 15.6935L157.208 15.8344L157.365 15.8519V15.6935H157.224ZM153.849 16.7059L153.942 16.8126L153.849 16.7059ZM152.516 19.3065V25.3018H152.8V19.3065H152.516ZM152.658 25.16H151.864V25.4436H152.658V25.16ZM152.005 25.3018V14.9788H151.722V25.3018H152.005ZM151.864 15.1206H152.658V14.837H151.864V15.1206ZM152.516 14.9788V17.2816H152.8V14.9788H152.516ZM152.786 17.343C153.013 16.8692 153.356 16.4277 154 15.881L153.817 15.6647C153.151 16.2297 152.779 16.7014 152.53 17.2202L152.786 17.343ZM154 15.881C154.623 15.3523 155.679 14.9816 156.946 14.9816V14.698C155.631 14.698 154.504 15.0817 153.817 15.6647L154 15.881ZM156.946 14.9816H157.224V14.698H156.946V14.9816ZM157.082 14.8398V15.6935H157.365V14.8398H157.082ZM157.239 15.5525C157.07 15.5337 156.916 15.512 156.807 15.512V15.7956C156.896 15.7956 157.02 15.8135 157.208 15.8344L157.239 15.5525ZM156.807 15.512C155.605 15.512 154.578 15.8796 153.755 16.5992L153.942 16.8126C154.708 16.1426 155.666 15.7956 156.807 15.7956V15.512ZM153.755 16.5992C152.931 17.3202 152.516 18.2124 152.516 19.3065H152.8C152.8 18.2963 153.178 17.4812 153.942 16.8126L153.755 16.5992ZM167.872 17.4603L167.747 17.528L168.014 17.4603H167.872ZM167.872 14.9788V14.837H167.73V14.9788H167.872ZM168.666 14.9788H168.808V14.837H168.666V14.9788ZM168.666 25.3018V25.4436H168.808V25.3018H168.666ZM167.872 25.3018H167.73V25.4436H167.872V25.3018ZM167.872 22.8203H168.014L167.747 22.7526L167.872 22.8203ZM159.752 23.932L159.855 23.8337L159.752 23.932ZM159.752 16.3684L159.855 16.4667L159.752 16.3684ZM166.581 16.9243L166.48 17.0234L166.581 16.9243ZM160.348 16.9243L160.449 17.0234L160.348 16.9243ZM160.348 23.3563L160.449 23.2572L160.348 23.3563ZM166.581 23.3563L166.48 23.2572L166.581 23.3563ZM163.405 14.9816C165.279 14.9816 166.899 15.966 167.747 17.528L167.996 17.3926C167.098 15.7385 165.382 14.698 163.405 14.698V14.9816ZM168.014 17.4603V14.9788H167.73V17.4603H168.014ZM167.872 15.1206H168.666V14.837H167.872V15.1206ZM168.524 14.9788V25.3018H168.808V14.9788H168.524ZM168.666 25.16H167.872V25.4436H168.666V25.16ZM168.014 25.3018V22.8203H167.73V25.3018H168.014ZM167.747 22.7526C166.899 24.3145 165.279 25.2989 163.405 25.2989V25.5825C165.382 25.5825 167.098 24.542 167.996 22.888L167.747 22.7526ZM163.405 25.2989C161.992 25.2989 160.799 24.8164 159.855 23.8337L159.65 24.0302C160.651 25.0724 161.92 25.5825 163.405 25.5825V25.2989ZM159.855 23.8337C158.909 22.8495 158.425 21.615 158.425 20.1403H158.141C158.141 21.6831 158.65 22.9896 159.65 24.0302L159.855 23.8337ZM158.425 20.1403C158.425 18.6662 158.909 17.4513 159.855 16.4667L159.65 16.2702C158.651 17.3104 158.141 18.5969 158.141 20.1403H158.425ZM159.855 16.4667C160.8 15.483 161.993 14.9816 163.405 14.9816V14.698C161.919 14.698 160.65 15.229 159.65 16.2702L159.855 16.4667ZM166.683 16.8252C165.822 15.9436 164.753 15.4921 163.465 15.4921V15.7757C164.678 15.7757 165.673 16.1976 166.48 17.0234L166.683 16.8252ZM163.465 15.4921C162.177 15.4921 161.107 15.9436 160.246 16.8252L160.449 17.0234C161.256 16.1976 162.251 15.7757 163.465 15.7757V15.4921ZM160.246 16.8252C159.385 17.7076 158.955 18.8162 158.955 20.1403H159.239C159.239 18.8836 159.644 17.8482 160.449 17.0234L160.246 16.8252ZM158.955 20.1403C158.955 21.4644 159.385 22.573 160.246 23.4554L160.449 23.2572C159.644 22.4323 159.239 21.3969 159.239 20.1403H158.955ZM160.246 23.4554C161.107 24.3369 162.177 24.7884 163.465 24.7884V24.5048C162.251 24.5048 161.256 24.0829 160.449 23.2572L160.246 23.4554ZM163.465 24.7884C164.753 24.7884 165.822 24.3369 166.683 23.4554L166.48 23.2572C165.673 24.0829 164.678 24.5048 163.465 24.5048V24.7884ZM166.683 23.4554C167.545 22.573 167.974 21.4644 167.974 20.1403H167.69C167.69 21.3969 167.286 22.4323 166.48 23.2572L166.683 23.4554ZM167.974 20.1403C167.974 18.8162 167.545 17.7076 166.683 16.8252L166.48 17.0234C167.286 17.8482 167.69 18.8836 167.69 20.1403H167.974ZM172.278 25.3018H172.136V25.4436H172.278V25.3018ZM172.278 14.9788V14.837H172.136V14.9788H172.278ZM173.072 14.9788H173.214V14.837H173.072V14.9788ZM173.072 17.2618H172.93L173.198 17.3272L173.072 17.2618ZM174.342 15.753L174.251 15.6449L174.342 15.753ZM180.377 16.0508L180.277 16.1511L180.278 16.1523L180.377 16.0508ZM181.588 25.3018V25.4436H181.73V25.3018H181.588ZM180.794 25.3018H180.652V25.4436H180.794V25.3018ZM179.762 16.6463L179.66 16.7452L179.662 16.7466L179.762 16.6463ZM174.263 16.6662L174.17 16.5595L174.263 16.6662ZM173.072 25.3018V25.4436H173.214V25.3018H173.072ZM172.42 25.3018V14.9788H172.136V25.3018H172.42ZM172.278 15.1206H173.072V14.837H172.278V15.1206ZM172.93 14.9788V17.2618H173.214V14.9788H172.93ZM173.198 17.3272C173.446 16.8502 173.79 16.4075 174.434 15.8611L174.251 15.6449C173.584 16.2102 173.214 16.6807 172.946 17.1963L173.198 17.3272ZM174.434 15.8611C175.056 15.3333 176.112 14.9816 177.36 14.9816V14.698C176.067 14.698 174.939 15.061 174.251 15.6449L174.434 15.8611ZM177.36 14.9816C178.536 14.9816 179.491 15.3653 180.277 16.1511L180.478 15.9505C179.635 15.1084 178.606 14.698 177.36 14.698V14.9816ZM180.278 16.1523C181.062 16.917 181.446 17.8915 181.446 19.0683H181.73C181.73 17.8231 181.32 16.7727 180.476 15.9493L180.278 16.1523ZM181.446 19.0683V25.3018H181.73V19.0683H181.446ZM181.588 25.16H180.794V25.4436H181.588V25.16ZM180.936 25.3018V19.2072H180.652V25.3018H180.936ZM180.936 19.2072C180.936 18.1595 180.585 17.2691 179.862 16.5461L179.662 16.7466C180.328 17.4132 180.652 18.2301 180.652 19.2072H180.936ZM179.864 16.5475C179.16 15.8229 178.268 15.4722 177.221 15.4722V15.7558C178.198 15.7558 179.014 16.0802 179.66 16.7451L179.864 16.5475ZM177.221 15.4722C176.019 15.4722 174.992 15.8399 174.17 16.5595L174.356 16.7729C175.122 16.1029 176.08 15.7558 177.221 15.7558V15.4722ZM174.17 16.5595C173.345 17.2805 172.93 18.1727 172.93 19.2668H173.214C173.214 18.2566 173.592 17.4415 174.356 16.7729L174.17 16.5595ZM172.93 19.2668V25.3018H173.214V19.2668H172.93ZM173.072 25.16H172.278V25.4436H173.072V25.16Z" fill="white"/>
<path d="M60.045 21.5774V24.8332C60.045 26.4345 59.562 27.5992 58.5959 28.3271C57.6297 29.055 56.4122 29.4189 54.9431 29.4189C53.0506 29.4189 51.6742 28.8035 50.8139 27.5727C51.6345 27.9565 52.7131 28.1484 54.0498 28.1484C54.7644 28.1484 55.4063 27.9565 55.9754 27.5727C56.5577 27.2021 56.8489 26.6066 56.8489 25.786V25.0912C56.1078 25.4089 55.2674 25.5677 54.3277 25.5677C53.1895 25.5677 52.3094 25.2964 51.6874 24.7537C51.0654 24.1979 50.7544 23.4104 50.7544 22.3914V17.6666C50.7544 16.7667 50.3375 16.2439 49.5037 16.0983L53.8513 16.0785V22.2921C53.8513 23.7082 54.4336 24.4163 55.5982 24.4163C56.0614 24.4163 56.4783 24.317 56.8489 24.1185L56.9482 16.0785H60.045V21.5774ZM56.8687 12.7037L53.3153 14.2521H53.216L55.9159 11.1751C56.2864 10.778 56.6768 10.5795 57.0871 10.5795C57.3121 10.5795 57.5106 10.6722 57.6827 10.8574C57.8547 11.0295 57.9407 11.228 57.9407 11.453C57.9407 11.9956 57.5834 12.4125 56.8687 12.7037ZM72.0649 20.6444C72.0649 22.2193 71.5421 23.47 70.4966 24.3964C69.4643 25.3096 68.1474 25.7662 66.5461 25.7662C64.9711 25.7662 63.7072 25.3228 62.7544 24.4361C61.8147 23.5362 61.3449 22.3054 61.3449 20.7437C61.3449 19.1952 61.8544 17.9644 62.8735 17.0512C63.8925 16.1248 65.1895 15.6616 66.7644 15.6616C68.3393 15.6616 69.6165 16.105 70.5958 16.9917C71.5752 17.8652 72.0649 19.0827 72.0649 20.6444ZM66.7049 25.0118C68.0283 25.0118 68.6901 23.5759 68.6901 20.704C68.6901 17.8321 68.0614 16.3961 66.8041 16.3961C66.3806 16.3961 66.0233 16.5351 65.7321 16.813C65.441 17.0909 65.2292 17.4615 65.0969 17.9247C64.9778 18.3879 64.8917 18.818 64.8388 19.2151C64.7991 19.5989 64.7792 20.0025 64.7792 20.426C64.7792 20.7701 64.7792 21.0481 64.7792 21.2598C64.7925 21.4583 64.8123 21.7694 64.8388 22.1929C64.8785 22.6164 64.9381 22.9671 65.0175 23.245C65.0969 23.5097 65.2028 23.7942 65.3351 24.0986C65.4674 24.403 65.6527 24.6346 65.891 24.7935C66.1292 24.939 66.4005 25.0118 66.7049 25.0118ZM79.4361 22.3715V18.7982C79.4361 17.5144 78.9332 16.8726 77.9274 16.8726C77.3583 16.8726 76.8951 17.21 76.5378 17.885C76.1937 18.56 76.0216 19.5724 76.0216 20.9223C76.0216 23.2781 76.6105 24.456 77.7884 24.456C78.2649 24.456 78.6553 24.2839 78.9597 23.9398C79.2773 23.5825 79.4361 23.0597 79.4361 22.3715ZM79.6545 24.5949H79.6148C78.9663 25.3228 78.0002 25.6868 76.7164 25.6868C75.4327 25.6868 74.4335 25.2831 73.7188 24.4758C73.0174 23.6553 72.6666 22.484 72.6666 20.962C72.6666 19.5327 73.0835 18.3284 73.9173 17.349C74.7643 16.3696 75.8959 15.88 77.312 15.88C78.2516 15.88 78.9464 16.0652 79.3964 16.4358H79.4361V13.8352C79.4361 12.975 79.0259 12.4522 78.2053 12.2669H82.533V22.9472C82.533 23.384 82.6587 23.7281 82.9102 23.9795C83.1749 24.231 83.5124 24.3567 83.9226 24.3567C84.1609 24.3567 84.452 24.317 84.7961 24.2376C84.5711 24.7008 84.1807 25.0515 83.6249 25.2897C83.0823 25.5147 82.5132 25.6272 81.9176 25.6272C80.7927 25.6272 80.0383 25.2831 79.6545 24.5949ZM90.4463 22.57L90.4662 18.3813C90.4662 17.7857 90.3272 17.3424 90.0493 17.0512C89.7713 16.7601 89.4339 16.6145 89.0368 16.6145C87.7398 16.6145 87.0913 18.0372 87.0913 20.8826C87.0913 23.2649 87.6869 24.456 88.878 24.456C89.3677 24.456 89.7515 24.2905 90.0294 23.9597C90.3206 23.6288 90.4595 23.1656 90.4463 22.57ZM90.7639 24.5949H90.7242C89.9963 25.3228 88.9707 25.6868 87.6472 25.6868C86.4296 25.6868 85.4701 25.2897 84.7687 24.4957C84.0805 23.6884 83.7364 22.537 83.7364 21.0414C83.7364 19.4665 84.1996 18.1894 85.126 17.21C86.0657 16.2174 87.4024 15.7211 89.1361 15.7211C90.8831 15.7211 92.3653 16.1844 93.5829 17.1108V23.0266C93.5829 23.4634 93.7086 23.8009 93.9601 24.0391C94.2116 24.2773 94.5556 24.3964 94.9924 24.3964C95.3497 24.3964 95.6343 24.3567 95.846 24.2773C95.6475 24.714 95.2836 25.0515 94.7542 25.2897C94.238 25.528 93.6888 25.6471 93.1065 25.6471C91.9948 25.6471 91.2139 25.2964 90.7639 24.5949Z" fill="white"/>
<path d="M58.5959 28.3271L58.6812 28.4403L58.5959 28.3271ZM50.8139 27.5727L50.874 27.4443L50.3943 27.2199L50.6977 27.6539L50.8139 27.5727ZM55.9754 27.5727L55.8993 27.453L55.8961 27.4552L55.9754 27.5727ZM56.8489 25.0912H56.9907V24.8762L56.793 24.9609L56.8489 25.0912ZM51.6874 24.7537L51.5929 24.8595L51.5942 24.8606L51.6874 24.7537ZM49.5037 16.0983L49.5031 15.9565L49.4793 16.238L49.5037 16.0983ZM53.8513 16.0785H53.9931V15.936L53.8506 15.9367L53.8513 16.0785ZM56.8489 24.1185L56.9159 24.2435L56.9896 24.2039L56.9907 24.1202L56.8489 24.1185ZM56.9482 16.0785V15.9367H56.8081L56.8064 16.0767L56.9482 16.0785ZM60.045 16.0785H60.1868V15.9367H60.045V16.0785ZM56.8687 12.7037L56.8152 12.5723L56.8121 12.5737L56.8687 12.7037ZM53.3153 14.2521V14.3939H53.3448L53.3719 14.3821L53.3153 14.2521ZM53.216 14.2521L53.1094 14.1586L52.9029 14.3939H53.216V14.2521ZM55.9159 11.1751L55.8121 11.0783L55.8093 11.0816L55.9159 11.1751ZM57.6827 10.8574L57.5787 10.954L57.5824 10.9577L57.6827 10.8574ZM59.9032 21.5774V24.8332H60.1868V21.5774H59.9032ZM59.9032 24.8332C59.9032 26.4057 59.4302 27.5209 58.5105 28.2138L58.6812 28.4403C59.6938 27.6774 60.1868 26.4634 60.1868 24.8332H59.9032ZM58.5105 28.2138C57.5739 28.9195 56.3881 29.2771 54.9431 29.2771V29.5607C56.4362 29.5607 57.6856 29.1905 58.6812 28.4403L58.5105 28.2138ZM54.9431 29.2771C53.0834 29.2771 51.757 28.6745 50.9302 27.4915L50.6977 27.6539C51.5914 28.9326 53.0178 29.5607 54.9431 29.5607V29.2771ZM50.7538 27.7012C51.6 28.0969 52.7014 28.2902 54.0498 28.2902V28.0066C52.7248 28.0066 51.669 27.8161 50.874 27.4443L50.7538 27.7012ZM54.0498 28.2902C54.7915 28.2902 55.4612 28.0905 56.0547 27.6903L55.8961 27.4552C55.3515 27.8225 54.7374 28.0066 54.0498 28.0066V28.2902ZM56.0515 27.6923C56.683 27.2905 56.9907 26.6444 56.9907 25.786H56.7071C56.7071 26.5687 56.4325 27.1138 55.8993 27.4531L56.0515 27.6923ZM56.9907 25.786V25.0912H56.7071V25.786H56.9907ZM56.793 24.9609C56.0722 25.2698 55.2513 25.4259 54.3277 25.4259V25.7095C55.2834 25.7095 56.1433 25.5479 56.9048 25.2216L56.793 24.9609ZM54.3277 25.4259C53.2108 25.4259 52.3685 25.1597 51.7806 24.6469L51.5942 24.8606C52.2504 25.433 53.1683 25.7095 54.3277 25.7095V25.4259ZM51.7819 24.648C51.1965 24.1249 50.8962 23.3798 50.8962 22.3914H50.6126C50.6126 23.4411 50.9343 24.2709 51.5929 24.8595L51.7819 24.648ZM50.8962 22.3914V17.6666H50.6126V22.3914H50.8962ZM50.8962 17.6666C50.8962 17.1956 50.787 16.8052 50.5526 16.5112C50.3173 16.2161 49.9697 16.0358 49.5281 15.9586L49.4793 16.238C49.8715 16.3065 50.1493 16.4603 50.3308 16.688C50.5133 16.9168 50.6126 17.2377 50.6126 17.6666H50.8962ZM49.5044 16.2401L53.8519 16.2203L53.8506 15.9367L49.5031 15.9565L49.5044 16.2401ZM53.7095 16.0785V22.2921H53.9931V16.0785H53.7095ZM53.7095 22.2921C53.7095 23.016 53.8577 23.5853 54.1785 23.9753C54.5036 24.3706 54.9859 24.5581 55.5982 24.5581V24.2745C55.0459 24.2745 54.6547 24.1079 54.3975 23.7952C54.1359 23.4771 53.9931 22.9843 53.9931 22.2921H53.7095ZM55.5982 24.5581C56.0824 24.5581 56.5227 24.4541 56.9159 24.2435L56.7819 23.9935C56.434 24.1799 56.0405 24.2745 55.5982 24.2745V24.5581ZM56.9907 24.1202L57.0899 16.0802L56.8064 16.0767L56.7071 24.1167L56.9907 24.1202ZM56.9482 16.2203H60.045V15.9367H56.9482V16.2203ZM59.9032 16.0785V21.5774H60.1868V16.0785H59.9032ZM56.8121 12.5737L53.2586 14.1221L53.3719 14.3821L56.9254 12.8337L56.8121 12.5737ZM53.3153 14.1103H53.216V14.3939H53.3153V14.1103ZM53.3226 14.3456L56.0224 11.2686L55.8093 11.0816L53.1094 14.1586L53.3226 14.3456ZM56.0195 11.2718C56.3724 10.8938 56.7277 10.7213 57.0871 10.7213V10.4377C56.6259 10.4377 56.2005 10.6623 55.8122 11.0783L56.0195 11.2718ZM57.0871 10.7213C57.2676 10.7213 57.4299 10.7936 57.5788 10.9539L57.7866 10.761C57.5914 10.5507 57.3566 10.4377 57.0871 10.4377V10.7213ZM57.5824 10.9577C57.7303 11.1056 57.7989 11.2689 57.7989 11.453H58.0825C58.0825 11.1872 57.9792 10.9534 57.7829 10.7572L57.5824 10.9577ZM57.7989 11.453C57.7989 11.9137 57.5032 12.2921 56.8152 12.5723L56.9222 12.835C57.6636 12.5329 58.0825 12.0775 58.0825 11.453H57.7989ZM70.4966 24.3964L70.5905 24.5026L70.5906 24.5025L70.4966 24.3964ZM62.7544 24.4361L62.6563 24.5385L62.6578 24.5399L62.7544 24.4361ZM62.8735 17.0512L62.9681 17.1568L62.9689 17.1561L62.8735 17.0512ZM70.5958 16.9917L70.5007 17.0968L70.5015 17.0975L70.5958 16.9917ZM65.0969 17.9247L64.9605 17.8857L64.9595 17.8894L65.0969 17.9247ZM64.8388 19.2151L64.6982 19.1963L64.6978 19.2005L64.8388 19.2151ZM64.7792 21.2598H64.6371L64.6378 21.2693L64.7792 21.2598ZM64.8388 22.1929L64.6972 22.2017L64.6976 22.2061L64.8388 22.1929ZM65.0175 23.245L64.8811 23.284L64.8817 23.2858L65.0175 23.245ZM65.3351 24.0986L65.2051 24.1552L65.3351 24.0986ZM65.891 24.7935L65.8122 24.9115L65.817 24.9144L65.891 24.7935ZM71.9231 20.6444C71.9231 22.1845 71.4136 23.3944 70.4025 24.2903L70.5906 24.5025C71.6706 23.5456 72.2067 22.2542 72.2067 20.6444H71.9231ZM70.4026 24.2902C69.4004 25.1768 68.1188 25.6244 66.5461 25.6244V25.908C68.1761 25.908 69.5282 25.4424 70.5905 24.5026L70.4026 24.2902ZM66.5461 25.6244C64.999 25.6244 63.7723 25.1897 62.851 24.3323L62.6578 24.5399C63.6422 25.456 64.9433 25.908 66.5461 25.908V25.6244ZM62.8524 24.3337C61.9462 23.4658 61.4867 22.275 61.4867 20.7437H61.2031C61.2031 22.3357 61.6832 23.6066 62.6563 24.5385L62.8524 24.3337ZM61.4867 20.7437C61.4867 19.2296 61.9832 18.0394 62.9681 17.1568L62.7788 16.9456C61.7256 17.8894 61.2031 19.1608 61.2031 20.7437H61.4867ZM62.9689 17.1561C63.9581 16.2569 65.2194 15.8034 66.7644 15.8034V15.5198C65.1597 15.5198 63.827 15.9927 62.7781 16.9463L62.9689 17.1561ZM66.7644 15.8034C68.3113 15.8034 69.5522 16.2381 70.5007 17.0968L70.691 16.8866C69.6807 15.9718 68.3674 15.5198 66.7644 15.5198V15.8034ZM70.5015 17.0975C71.4449 17.9389 71.9231 19.1148 71.9231 20.6444H72.2067C72.2067 19.0507 71.7055 17.7914 70.6902 16.8858L70.5015 17.0975ZM66.7049 25.1536C67.0631 25.1536 67.3822 25.0559 67.6565 24.8575C67.9293 24.6601 68.1498 24.3691 68.3226 23.9942C68.6664 23.2481 68.8319 22.1463 68.8319 20.704H68.5483C68.5483 22.1335 68.3829 23.1857 68.065 23.8755C67.9069 24.2186 67.7138 24.466 67.4903 24.6277C67.2683 24.7883 67.0084 24.87 66.7049 24.87V25.1536ZM68.8319 20.704C68.8319 19.262 68.6747 18.1614 68.3485 17.4162C68.1847 17.042 67.9753 16.7506 67.7151 16.5525C67.4531 16.3531 67.1475 16.2543 66.8041 16.2543V16.5379C67.0894 16.5379 67.3338 16.6187 67.5433 16.7782C67.7547 16.9391 67.9382 17.1862 68.0887 17.5299C68.3911 18.2207 68.5483 19.274 68.5483 20.704H68.8319ZM66.8041 16.2543C66.3463 16.2543 65.9532 16.4059 65.6342 16.7104L65.83 16.9156C66.0933 16.6642 66.415 16.5379 66.8041 16.5379V16.2543ZM65.6342 16.7104C65.3215 17.0089 65.0984 17.4031 64.9605 17.8858L65.2332 17.9637C65.36 17.5199 65.5604 17.1729 65.83 16.9156L65.6342 16.7104ZM64.9595 17.8894C64.8393 18.357 64.7521 18.7928 64.6982 19.1963L64.9794 19.2338C65.0314 18.8433 65.1162 18.4188 65.2342 17.96L64.9595 17.8894ZM64.6978 19.2005C64.6575 19.5896 64.6374 19.9981 64.6374 20.426H64.921C64.921 20.0069 64.9407 19.6082 64.9798 19.2297L64.6978 19.2005ZM64.6374 20.426C64.6374 20.4267 64.6374 20.4274 64.6374 20.4281C64.6374 20.4287 64.6374 20.4294 64.6374 20.4301C64.6374 20.4307 64.6374 20.4314 64.6374 20.4321C64.6374 20.4328 64.6374 20.4334 64.6374 20.4341C64.6374 20.4348 64.6374 20.4354 64.6374 20.4361C64.6374 20.4368 64.6374 20.4374 64.6374 20.4381C64.6374 20.4388 64.6374 20.4394 64.6374 20.4401C64.6374 20.4408 64.6374 20.4415 64.6374 20.4421C64.6374 20.4428 64.6374 20.4435 64.6374 20.4441C64.6374 20.4448 64.6374 20.4455 64.6374 20.4461C64.6374 20.4468 64.6374 20.4475 64.6374 20.4481C64.6374 20.4488 64.6374 20.4495 64.6374 20.4501C64.6374 20.4508 64.6374 20.4515 64.6374 20.4521C64.6374 20.4528 64.6374 20.4535 64.6374 20.4541C64.6374 20.4548 64.6374 20.4554 64.6374 20.4561C64.6374 20.4568 64.6374 20.4574 64.6374 20.4581C64.6374 20.4588 64.6374 20.4594 64.6374 20.4601C64.6374 20.4608 64.6374 20.4614 64.6374 20.4621C64.6374 20.4628 64.6374 20.4634 64.6374 20.4641C64.6374 20.4647 64.6374 20.4654 64.6374 20.4661C64.6374 20.4667 64.6374 20.4674 64.6374 20.468C64.6374 20.4687 64.6374 20.4694 64.6374 20.47C64.6374 20.4707 64.6374 20.4714 64.6374 20.472C64.6374 20.4727 64.6374 20.4733 64.6374 20.474C64.6374 20.4747 64.6374 20.4753 64.6374 20.476C64.6374 20.4766 64.6374 20.4773 64.6374 20.478C64.6374 20.4786 64.6374 20.4793 64.6374 20.4799C64.6374 20.4806 64.6374 20.4812 64.6374 20.4819C64.6374 20.4826 64.6374 20.4832 64.6374 20.4839C64.6374 20.4845 64.6374 20.4852 64.6374 20.4858C64.6374 20.4865 64.6374 20.4872 64.6374 20.4878C64.6374 20.4885 64.6374 20.4891 64.6374 20.4898C64.6374 20.4904 64.6374 20.4911 64.6374 20.4918C64.6374 20.4924 64.6374 20.4931 64.6374 20.4937C64.6374 20.4944 64.6374 20.495 64.6374 20.4957C64.6374 20.4963 64.6374 20.497 64.6374 20.4976C64.6374 20.4983 64.6374 20.499 64.6374 20.4996C64.6374 20.5003 64.6374 20.5009 64.6374 20.5016C64.6374 20.5022 64.6374 20.5029 64.6374 20.5035C64.6374 20.5042 64.6374 20.5048 64.6374 20.5055C64.6374 20.5061 64.6374 20.5068 64.6374 20.5074C64.6374 20.5081 64.6374 20.5087 64.6374 20.5094C64.6374 20.51 64.6374 20.5107 64.6374 20.5113C64.6374 20.512 64.6374 20.5126 64.6374 20.5133C64.6374 20.5139 64.6374 20.5146 64.6374 20.5152C64.6374 20.5159 64.6374 20.5165 64.6374 20.5172C64.6374 20.5178 64.6374 20.5185 64.6374 20.5191C64.6374 20.5198 64.6374 20.5204 64.6374 20.5211C64.6374 20.5217 64.6374 20.5224 64.6374 20.523C64.6374 20.5237 64.6374 20.5243 64.6374 20.525C64.6374 20.5256 64.6374 20.5263 64.6374 20.5269C64.6374 20.5275 64.6374 20.5282 64.6374 20.5288C64.6374 20.5295 64.6374 20.5301 64.6374 20.5308C64.6374 20.5314 64.6374 20.5321 64.6374 20.5327C64.6374 20.5334 64.6374 20.534 64.6374 20.5346C64.6374 20.5353 64.6374 20.5359 64.6374 20.5366C64.6374 20.5372 64.6374 20.5379 64.6374 20.5385C64.6374 20.5391 64.6374 20.5398 64.6374 20.5404C64.6374 20.5411 64.6374 20.5417 64.6374 20.5424C64.6374 20.543 64.6374 20.5436 64.6374 20.5443C64.6374 20.5449 64.6374 20.5456 64.6374 20.5462C64.6374 20.5469 64.6374 20.5475 64.6374 20.5481C64.6374 20.5488 64.6374 20.5494 64.6374 20.5501C64.6374 20.5507 64.6374 20.5513 64.6374 20.552C64.6374 20.5526 64.6374 20.5533 64.6374 20.5539C64.6374 20.5545 64.6374 20.5552 64.6374 20.5558C64.6374 20.5565 64.6374 20.5571 64.6374 20.5577C64.6374 20.5584 64.6374 20.559 64.6374 20.5596C64.6374 20.5603 64.6374 20.5609 64.6374 20.5616C64.6374 20.5622 64.6374 20.5628 64.6374 20.5635C64.6374 20.5641 64.6374 20.5647 64.6374 20.5654C64.6374 20.566 64.6374 20.5666 64.6374 20.5673C64.6374 20.5679 64.6374 20.5686 64.6374 20.5692C64.6374 20.5698 64.6374 20.5705 64.6374 20.5711C64.6374 20.5717 64.6374 20.5724 64.6374 20.573C64.6374 20.5736 64.6374 20.5743 64.6374 20.5749C64.6374 20.5755 64.6374 20.5762 64.6374 20.5768C64.6374 20.5774 64.6374 20.5781 64.6374 20.5787C64.6374 20.5793 64.6374 20.58 64.6374 20.5806C64.6374 20.5812 64.6374 20.5819 64.6374 20.5825C64.6374 20.5831 64.6374 20.5838 64.6374 20.5844C64.6374 20.585 64.6374 20.5856 64.6374 20.5863C64.6374 20.5869 64.6374 20.5875 64.6374 20.5882C64.6374 20.5888 64.6374 20.5894 64.6374 20.5901C64.6374 20.5907 64.6374 20.5913 64.6374 20.5919C64.6374 20.5926 64.6374 20.5932 64.6374 20.5938C64.6374 20.5945 64.6374 20.5951 64.6374 20.5957C64.6374 20.5963 64.6374 20.597 64.6374 20.5976C64.6374 20.5982 64.6374 20.5989 64.6374 20.5995C64.6374 20.6001 64.6374 20.6007 64.6374 20.6014C64.6374 20.602 64.6374 20.6026 64.6374 20.6032C64.6374 20.6039 64.6374 20.6045 64.6374 20.6051C64.6374 20.6057 64.6374 20.6064 64.6374 20.607C64.6374 20.6076 64.6374 20.6082 64.6374 20.6089C64.6374 20.6095 64.6374 20.6101 64.6374 20.6107C64.6374 20.6114 64.6374 20.612 64.6374 20.6126C64.6374 20.6132 64.6374 20.6139 64.6374 20.6145C64.6374 20.6151 64.6374 20.6157 64.6374 20.6164C64.6374 20.617 64.6374 20.6176 64.6374 20.6182C64.6374 20.6188 64.6374 20.6195 64.6374 20.6201C64.6374 20.6207 64.6374 20.6213 64.6374 20.622C64.6374 20.6226 64.6374 20.6232 64.6374 20.6238C64.6374 20.6244 64.6374 20.6251 64.6374 20.6257C64.6374 20.6263 64.6374 20.6269 64.6374 20.6275C64.6374 20.6282 64.6374 20.6288 64.6374 20.6294C64.6374 20.63 64.6374 20.6306 64.6374 20.6313C64.6374 20.6319 64.6374 20.6325 64.6374 20.6331C64.6374 20.6337 64.6374 20.6343 64.6374 20.635C64.6374 20.6356 64.6374 20.6362 64.6374 20.6368C64.6374 20.6374 64.6374 20.638 64.6374 20.6387C64.6374 20.6393 64.6374 20.6399 64.6374 20.6405C64.6374 20.6411 64.6374 20.6417 64.6374 20.6424C64.6374 20.643 64.6374 20.6436 64.6374 20.6442C64.6374 20.6448 64.6374 20.6454 64.6374 20.646C64.6374 20.6467 64.6374 20.6473 64.6374 20.6479C64.6374 20.6485 64.6374 20.6491 64.6374 20.6497C64.6374 20.6503 64.6374 20.651 64.6374 20.6516C64.6374 20.6522 64.6374 20.6528 64.6374 20.6534C64.6374 20.654 64.6374 20.6546 64.6374 20.6552C64.6374 20.6559 64.6374 20.6565 64.6374 20.6571C64.6374 20.6577 64.6374 20.6583 64.6374 20.6589C64.6374 20.6595 64.6374 20.6601 64.6374 20.6607C64.6374 20.6614 64.6374 20.662 64.6374 20.6626C64.6374 20.6632 64.6374 20.6638 64.6374 20.6644C64.6374 20.665 64.6374 20.6656 64.6374 20.6662C64.6374 20.6668 64.6374 20.6675 64.6374 20.6681C64.6374 20.6687 64.6374 20.6693 64.6374 20.6699C64.6374 20.6705 64.6374 20.6711 64.6374 20.6717C64.6374 20.6723 64.6374 20.6729 64.6374 20.6735C64.6374 20.6741 64.6374 20.6747 64.6374 20.6753C64.6374 20.676 64.6374 20.6766 64.6374 20.6772C64.6374 20.6778 64.6374 20.6784 64.6374 20.679C64.6374 20.6796 64.6374 20.6802 64.6374 20.6808C64.6374 20.6814 64.6374 20.682 64.6374 20.6826C64.6374 20.6832 64.6374 20.6838 64.6374 20.6844C64.6374 20.685 64.6374 20.6856 64.6374 20.6862C64.6374 20.6868 64.6374 20.6874 64.6374 20.688C64.6374 20.6887 64.6374 20.6893 64.6374 20.6899C64.6374 20.6905 64.6374 20.6911 64.6374 20.6917C64.6374 20.6923 64.6374 20.6929 64.6374 20.6935C64.6374 20.6941 64.6374 20.6947 64.6374 20.6953C64.6374 20.6959 64.6374 20.6965 64.6374 20.6971C64.6374 20.6977 64.6374 20.6983 64.6374 20.6989C64.6374 20.6995 64.6374 20.7001 64.6374 20.7007C64.6374 20.7013 64.6374 20.7019 64.6374 20.7025C64.6374 20.7031 64.6374 20.7037 64.6374 20.7043C64.6374 20.7049 64.6374 20.7055 64.6374 20.7061C64.6374 20.7067 64.6374 20.7073 64.6374 20.7079C64.6374 20.7084 64.6374 20.709 64.6374 20.7096C64.6374 20.7102 64.6374 20.7108 64.6374 20.7114C64.6374 20.712 64.6374 20.7126 64.6374 20.7132C64.6374 20.7138 64.6374 20.7144 64.6374 20.715C64.6374 20.7156 64.6374 20.7162 64.6374 20.7168C64.6374 20.7174 64.6374 20.718 64.6374 20.7186C64.6374 20.7192 64.6374 20.7198 64.6374 20.7204C64.6374 20.721 64.6374 20.7215 64.6374 20.7221C64.6374 20.7227 64.6374 20.7233 64.6374 20.7239C64.6374 20.7245 64.6374 20.7251 64.6374 20.7257C64.6374 20.7263 64.6374 20.7269 64.6374 20.7275C64.6374 20.7281 64.6374 20.7287 64.6374 20.7292C64.6374 20.7298 64.6374 20.7304 64.6374 20.731C64.6374 20.7316 64.6374 20.7322 64.6374 20.7328C64.6374 20.7334 64.6374 20.734 64.6374 20.7346C64.6374 20.7352 64.6374 20.7357 64.6374 20.7363C64.6374 20.7369 64.6374 20.7375 64.6374 20.7381C64.6374 20.7387 64.6374 20.7393 64.6374 20.7399C64.6374 20.7405 64.6374 20.741 64.6374 20.7416C64.6374 20.7422 64.6374 20.7428 64.6374 20.7434C64.6374 20.744 64.6374 20.7446 64.6374 20.7452C64.6374 20.7457 64.6374 20.7463 64.6374 20.7469C64.6374 20.7475 64.6374 20.7481 64.6374 20.7487C64.6374 20.7493 64.6374 20.7498 64.6374 20.7504C64.6374 20.751 64.6374 20.7516 64.6374 20.7522C64.6374 20.7528 64.6374 20.7533 64.6374 20.7539C64.6374 20.7545 64.6374 20.7551 64.6374 20.7557C64.6374 20.7563 64.6374 20.7569 64.6374 20.7574C64.6374 20.758 64.6374 20.7586 64.6374 20.7592C64.6374 20.7598 64.6374 20.7603 64.6374 20.7609C64.6374 20.7615 64.6374 20.7621 64.6374 20.7627C64.6374 20.7633 64.6374 20.7638 64.6374 20.7644C64.6374 20.765 64.6374 20.7656 64.6374 20.7662C64.6374 20.7667 64.6374 20.7673 64.6374 20.7679C64.6374 20.7685 64.6374 20.7691 64.6374 20.7696C64.6374 20.7702 64.6374 20.7708 64.6374 20.7714C64.6374 20.772 64.6374 20.7725 64.6374 20.7731C64.6374 20.7737 64.6374 20.7743 64.6374 20.7749C64.6374 20.7754 64.6374 20.776 64.6374 20.7766C64.6374 20.7772 64.6374 20.7777 64.6374 20.7783C64.6374 20.7789 64.6374 20.7795 64.6374 20.7801C64.6374 20.7806 64.6374 20.7812 64.6374 20.7818C64.6374 20.7824 64.6374 20.7829 64.6374 20.7835C64.6374 20.7841 64.6374 20.7847 64.6374 20.7852C64.6374 20.7858 64.6374 20.7864 64.6374 20.787C64.6374 20.7875 64.6374 20.7881 64.6374 20.7887C64.6374 20.7893 64.6374 20.7898 64.6374 20.7904C64.6374 20.791 64.6374 20.7916 64.6374 20.7921C64.6374 20.7927 64.6374 20.7933 64.6374 20.7938C64.6374 20.7944 64.6374 20.795 64.6374 20.7956C64.6374 20.7961 64.6374 20.7967 64.6374 20.7973C64.6374 20.7978 64.6374 20.7984 64.6374 20.799C64.6374 20.7996 64.6374 20.8001 64.6374 20.8007C64.6374 20.8013 64.6374 20.8018 64.6374 20.8024C64.6374 20.803 64.6374 20.8036 64.6374 20.8041C64.6374 20.8047 64.6374 20.8053 64.6374 20.8058C64.6374 20.8064 64.6374 20.807 64.6374 20.8075C64.6374 20.8081 64.6374 20.8087 64.6374 20.8092C64.6374 20.8098 64.6374 20.8104 64.6374 20.8109C64.6374 20.8115 64.6374 20.8121 64.6374 20.8126C64.6374 20.8132 64.6374 20.8138 64.6374 20.8143C64.6374 20.8149 64.6374 20.8155 64.6374 20.816C64.6374 20.8166 64.6374 20.8172 64.6374 20.8177C64.6374 20.8183 64.6374 20.8189 64.6374 20.8194C64.6374 20.82 64.6374 20.8206 64.6374 20.8211C64.6374 20.8217 64.6374 20.8223 64.6374 20.8228C64.6374 20.8234 64.6374 20.824 64.6374 20.8245C64.6374 20.8251 64.6374 20.8256 64.6374 20.8262C64.6374 20.8268 64.6374 20.8273 64.6374 20.8279C64.6374 20.8285 64.6374 20.829 64.6374 20.8296C64.6374 20.8301 64.6374 20.8307 64.6374 20.8313C64.6374 20.8318 64.6374 20.8324 64.6374 20.833C64.6374 20.8335 64.6374 20.8341 64.6374 20.8346C64.6374 20.8352 64.6374 20.8358 64.6374 20.8363C64.6374 20.8369 64.6374 20.8374 64.6374 20.838C64.6374 20.8386 64.6374 20.8391 64.6374 20.8397C64.6374 20.8402 64.6374 20.8408 64.6374 20.8413C64.6374 20.8419 64.6374 20.8425 64.6374 20.843C64.6374 20.8436 64.6374 20.8441 64.6374 20.8447C64.6374 20.8453 64.6374 20.8458 64.6374 20.8464C64.6374 20.8469 64.6374 20.8475 64.6374 20.848C64.6374 20.8486 64.6374 20.8492 64.6374 20.8497C64.6374 20.8503 64.6374 20.8508 64.6374 20.8514C64.6374 20.8519 64.6374 20.8525 64.6374 20.853C64.6374 20.8536 64.6374 20.8541 64.6374 20.8547C64.6374 20.8553 64.6374 20.8558 64.6374 20.8564C64.6374 20.8569 64.6374 20.8575 64.6374 20.858C64.6374 20.8586 64.6374 20.8591 64.6374 20.8597C64.6374 20.8602 64.6374 20.8608 64.6374 20.8613C64.6374 20.8619 64.6374 20.8624 64.6374 20.863C64.6374 20.8636 64.6374 20.8641 64.6374 20.8647C64.6374 20.8652 64.6374 20.8658 64.6374 20.8663C64.6374 20.8669 64.6374 20.8674 64.6374 20.868C64.6374 20.8685 64.6374 20.8691 64.6374 20.8696C64.6374 20.8702 64.6374 20.8707 64.6374 20.8713C64.6374 20.8718 64.6374 20.8724 64.6374 20.8729C64.6374 20.8735 64.6374 20.874 64.6374 20.8746C64.6374 20.8751 64.6374 20.8757 64.6374 20.8762C64.6374 20.8767 64.6374 20.8773 64.6374 20.8778C64.6374 20.8784 64.6374 20.8789 64.6374 20.8795C64.6374 20.88 64.6374 20.8806 64.6374 20.8811C64.6374 20.8817 64.6374 20.8822 64.6374 20.8828C64.6374 20.8833 64.6374 20.8839 64.6374 20.8844C64.6374 20.8849 64.6374 20.8855 64.6374 20.886C64.6374 20.8866 64.6374 20.8871 64.6374 20.8877C64.6374 20.8882 64.6374 20.8888 64.6374 20.8893C64.6374 20.8898 64.6374 20.8904 64.6374 20.8909C64.6374 20.8915 64.6374 20.892 64.6374 20.8926C64.6374 20.8931 64.6374 20.8936 64.6374 20.8942C64.6374 20.8947 64.6374 20.8953 64.6374 20.8958C64.6374 20.8964 64.6374 20.8969 64.6374 20.8974C64.6374 20.898 64.6374 20.8985 64.6374 20.8991C64.6374 20.8996 64.6374 20.9001 64.6374 20.9007C64.6374 20.9012 64.6374 20.9018 64.6374 20.9023C64.6374 20.9028 64.6374 20.9034 64.6374 20.9039C64.6374 20.9045 64.6374 20.905 64.6374 20.9055C64.6374 20.9061 64.6374 20.9066 64.6374 20.9072C64.6374 20.9077 64.6374 20.9082 64.6374 20.9088C64.6374 20.9093 64.6374 20.9098 64.6374 20.9104C64.6374 20.9109 64.6374 20.9115 64.6374 20.912C64.6374 20.9125 64.6374 20.9131 64.6374 20.9136C64.6374 20.9141 64.6374 20.9147 64.6374 20.9152C64.6374 20.9157 64.6374 20.9163 64.6374 20.9168C64.6374 20.9174 64.6374 20.9179 64.6374 20.9184C64.6374 20.919 64.6374 20.9195 64.6374 20.92C64.6374 20.9206 64.6374 20.9211 64.6374 20.9216C64.6374 20.9222 64.6374 20.9227 64.6374 20.9232C64.6374 20.9238 64.6374 20.9243 64.6374 20.9248C64.6374 20.9254 64.6374 20.9259 64.6374 20.9264C64.6374 20.927 64.6374 20.9275 64.6374 20.928C64.6374 20.9286 64.6374 20.9291 64.6374 20.9296C64.6374 20.9301 64.6374 20.9307 64.6374 20.9312C64.6374 20.9317 64.6374 20.9323 64.6374 20.9328C64.6374 20.9333 64.6374 20.9339 64.6374 20.9344C64.6374 20.9349 64.6374 20.9354 64.6374 20.936C64.6374 20.9365 64.6374 20.937 64.6374 20.9376C64.6374 20.9381 64.6374 20.9386 64.6374 20.9391C64.6374 20.9397 64.6374 20.9402 64.6374 20.9407C64.6374 20.9413 64.6374 20.9418 64.6374 20.9423C64.6374 20.9428 64.6374 20.9434 64.6374 20.9439C64.6374 20.9444 64.6374 20.9449 64.6374 20.9455C64.6374 20.946 64.6374 20.9465 64.6374 20.9471C64.6374 20.9476 64.6374 20.9481 64.6374 20.9486C64.6374 20.9492 64.6374 20.9497 64.6374 20.9502C64.6374 20.9507 64.6374 20.9513 64.6374 20.9518C64.6374 20.9523 64.6374 20.9528 64.6374 20.9533C64.6374 20.9539 64.6374 20.9544 64.6374 20.9549C64.6374 20.9554 64.6374 20.956 64.6374 20.9565C64.6374 20.957 64.6374 20.9575 64.6374 20.9581C64.6374 20.9586 64.6374 20.9591 64.6374 20.9596C64.6374 20.9601 64.6374 20.9607 64.6374 20.9612C64.6374 20.9617 64.6374 20.9622 64.6374 20.9627C64.6374 20.9633 64.6374 20.9638 64.6374 20.9643C64.6374 20.9648 64.6374 20.9653 64.6374 20.9659C64.6374 20.9664 64.6374 20.9669 64.6374 20.9674C64.6374 20.9679 64.6374 20.9685 64.6374 20.969C64.6374 20.9695 64.6374 20.97 64.6374 20.9705C64.6374 20.9711 64.6374 20.9716 64.6374 20.9721C64.6374 20.9726 64.6374 20.9731 64.6374 20.9736C64.6374 20.9742 64.6374 20.9747 64.6374 20.9752C64.6374 20.9757 64.6374 20.9762 64.6374 20.9767C64.6374 20.9773 64.6374 20.9778 64.6374 20.9783C64.6374 20.9788 64.6374 20.9793 64.6374 20.9798C64.6374 20.9804 64.6374 20.9809 64.6374 20.9814C64.6374 20.9819 64.6374 20.9824 64.6374 20.9829C64.6374 20.9834 64.6374 20.984 64.6374 20.9845C64.6374 20.985 64.6374 20.9855 64.6374 20.986C64.6374 20.9865 64.6374 20.987 64.6374 20.9875C64.6374 20.9881 64.6374 20.9886 64.6374 20.9891C64.6374 20.9896 64.6374 20.9901 64.6374 20.9906C64.6374 20.9911 64.6374 20.9916 64.6374 20.9921C64.6374 20.9927 64.6374 20.9932 64.6374 20.9937C64.6374 20.9942 64.6374 20.9947 64.6374 20.9952C64.6374 20.9957 64.6374 20.9962 64.6374 20.9967C64.6374 20.9972 64.6374 20.9978 64.6374 20.9983C64.6374 20.9988 64.6374 20.9993 64.6374 20.9998C64.6374 21.0003 64.6374 21.0008 64.6374 21.0013C64.6374 21.0018 64.6374 21.0023 64.6374 21.0028C64.6374 21.0033 64.6374 21.0039 64.6374 21.0044C64.6374 21.0049 64.6374 21.0054 64.6374 21.0059C64.6374 21.0064 64.6374 21.0069 64.6374 21.0074C64.6374 21.0079 64.6374 21.0084 64.6374 21.0089C64.6374 21.0094 64.6374 21.0099 64.6374 21.0104C64.6374 21.0109 64.6374 21.0114 64.6374 21.0119C64.6374 21.0125 64.6374 21.013 64.6374 21.0135C64.6374 21.014 64.6374 21.0145 64.6374 21.015C64.6374 21.0155 64.6374 21.016 64.6374 21.0165C64.6374 21.017 64.6374 21.0175 64.6374 21.018C64.6374 21.0185 64.6374 21.019 64.6374 21.0195C64.6374 21.02 64.6374 21.0205 64.6374 21.021C64.6374 21.0215 64.6374 21.022 64.6374 21.0225C64.6374 21.023 64.6374 21.0235 64.6374 21.024C64.6374 21.0245 64.6374 21.025 64.6374 21.0255C64.6374 21.026 64.6374 21.0265 64.6374 21.027C64.6374 21.0275 64.6374 21.028 64.6374 21.0285C64.6374 21.029 64.6374 21.0295 64.6374 21.03C64.6374 21.0305 64.6374 21.031 64.6374 21.0315C64.6374 21.032 64.6374 21.0325 64.6374 21.033C64.6374 21.0335 64.6374 21.034 64.6374 21.0345C64.6374 21.035 64.6374 21.0355 64.6374 21.036C64.6374 21.0365 64.6374 21.037 64.6374 21.0375C64.6374 21.038 64.6374 21.0384 64.6374 21.0389C64.6374 21.0394 64.6374 21.0399 64.6374 21.0404C64.6374 21.0409 64.6374 21.0414 64.6374 21.0419C64.6374 21.0424 64.6374 21.0429 64.6374 21.0434C64.6374 21.0439 64.6374 21.0444 64.6374 21.0449C64.6374 21.0454 64.6374 21.0459 64.6374 21.0464C64.6374 21.0468 64.6374 21.0473 64.6374 21.0478C64.6374 21.0483 64.6374 21.0488 64.6374 21.0493C64.6374 21.0498 64.6374 21.0503 64.6374 21.0508C64.6374 21.0513 64.6374 21.0518 64.6374 21.0523C64.6374 21.0527 64.6374 21.0532 64.6374 21.0537C64.6374 21.0542 64.6374 21.0547 64.6374 21.0552C64.6374 21.0557 64.6374 21.0562 64.6374 21.0567C64.6374 21.0572 64.6374 21.0576 64.6374 21.0581C64.6374 21.0586 64.6374 21.0591 64.6374 21.0596C64.6374 21.0601 64.6374 21.0606 64.6374 21.0611C64.6374 21.0616 64.6374 21.062 64.6374 21.0625C64.6374 21.063 64.6374 21.0635 64.6374 21.064C64.6374 21.0645 64.6374 21.065 64.6374 21.0654C64.6374 21.0659 64.6374 21.0664 64.6374 21.0669C64.6374 21.0674 64.6374 21.0679 64.6374 21.0684C64.6374 21.0688 64.6374 21.0693 64.6374 21.0698C64.6374 21.0703 64.6374 21.0708 64.6374 21.0713C64.6374 21.0718 64.6374 21.0722 64.6374 21.0727C64.6374 21.0732 64.6374 21.0737 64.6374 21.0742C64.6374 21.0747 64.6374 21.0751 64.6374 21.0756C64.6374 21.0761 64.6374 21.0766 64.6374 21.0771C64.6374 21.0776 64.6374 21.078 64.6374 21.0785C64.6374 21.079 64.6374 21.0795 64.6374 21.08C64.6374 21.0804 64.6374 21.0809 64.6374 21.0814C64.6374 21.0819 64.6374 21.0824 64.6374 21.0828C64.6374 21.0833 64.6374 21.0838 64.6374 21.0843C64.6374 21.0848 64.6374 21.0852 64.6374 21.0857C64.6374 21.0862 64.6374 21.0867 64.6374 21.0872C64.6374 21.0876 64.6374 21.0881 64.6374 21.0886C64.6374 21.0891 64.6374 21.0896 64.6374 21.09C64.6374 21.0905 64.6374 21.091 64.6374 21.0915C64.6374 21.0919 64.6374 21.0924 64.6374 21.0929C64.6374 21.0934 64.6374 21.0938 64.6374 21.0943C64.6374 21.0948 64.6374 21.0953 64.6374 21.0958C64.6374 21.0962 64.6374 21.0967 64.6374 21.0972C64.6374 21.0977 64.6374 21.0981 64.6374 21.0986C64.6374 21.0991 64.6374 21.0996 64.6374 21.1C64.6374 21.1005 64.6374 21.101 64.6374 21.1014C64.6374 21.1019 64.6374 21.1024 64.6374 21.1029C64.6374 21.1033 64.6374 21.1038 64.6374 21.1043C64.6374 21.1048 64.6374 21.1052 64.6374 21.1057C64.6374 21.1062 64.6374 21.1066 64.6374 21.1071C64.6374 21.1076 64.6374 21.1081 64.6374 21.1085C64.6374 21.109 64.6374 21.1095 64.6374 21.1099C64.6374 21.1104 64.6374 21.1109 64.6374 21.1114C64.6374 21.1118 64.6374 21.1123 64.6374 21.1128C64.6374 21.1132 64.6374 21.1137 64.6374 21.1142C64.6374 21.1146 64.6374 21.1151 64.6374 21.1156C64.6374 21.116 64.6374 21.1165 64.6374 21.117C64.6374 21.1175 64.6374 21.1179 64.6374 21.1184C64.6374 21.1189 64.6374 21.1193 64.6374 21.1198C64.6374 21.1203 64.6374 21.1207 64.6374 21.1212C64.6374 21.1217 64.6374 21.1221 64.6374 21.1226C64.6374 21.1231 64.6374 21.1235 64.6374 21.124C64.6374 21.1245 64.6374 21.1249 64.6374 21.1254C64.6374 21.1258 64.6374 21.1263 64.6374 21.1268C64.6374 21.1272 64.6374 21.1277 64.6374 21.1282C64.6374 21.1286 64.6374 21.1291 64.6374 21.1296C64.6374 21.13 64.6374 21.1305 64.6374 21.131C64.6374 21.1314 64.6374 21.1319 64.6374 21.1323C64.6374 21.1328 64.6374 21.1333 64.6374 21.1337C64.6374 21.1342 64.6374 21.1347 64.6374 21.1351C64.6374 21.1356 64.6374 21.136 64.6374 21.1365C64.6374 21.137 64.6374 21.1374 64.6374 21.1379C64.6374 21.1383 64.6374 21.1388 64.6374 21.1393C64.6374 21.1397 64.6374 21.1402 64.6374 21.1406C64.6374 21.1411 64.6374 21.1416 64.6374 21.142C64.6374 21.1425 64.6374 21.1429 64.6374 21.1434C64.6374 21.1439 64.6374 21.1443 64.6374 21.1448C64.6374 21.1452 64.6374 21.1457 64.6374 21.1461C64.6374 21.1466 64.6374 21.1471 64.6374 21.1475C64.6374 21.148 64.6374 21.1484 64.6374 21.1489C64.6374 21.1493 64.6374 21.1498 64.6374 21.1503C64.6374 21.1507 64.6374 21.1512 64.6374 21.1516C64.6374 21.1521 64.6374 21.1525 64.6374 21.153C64.6374 21.1534 64.6374 21.1539 64.6374 21.1544C64.6374 21.1548 64.6374 21.1553 64.6374 21.1557C64.6374 21.1562 64.6374 21.1566 64.6374 21.1571C64.6374 21.1575 64.6374 21.158 64.6374 21.1584C64.6374 21.1589 64.6374 21.1593 64.6374 21.1598C64.6374 21.1602 64.6374 21.1607 64.6374 21.1611C64.6374 21.1616 64.6374 21.1621 64.6374 21.1625C64.6374 21.163 64.6374 21.1634 64.6374 21.1639C64.6374 21.1643 64.6374 21.1648 64.6374 21.1652C64.6374 21.1657 64.6374 21.1661 64.6374 21.1666C64.6374 21.167 64.6374 21.1675 64.6374 21.1679C64.6374 21.1684 64.6374 21.1688 64.6374 21.1693C64.6374 21.1697 64.6374 21.1702 64.6374 21.1706C64.6374 21.1711 64.6374 21.1715 64.6374 21.1719C64.6374 21.1724 64.6374 21.1728 64.6374 21.1733C64.6374 21.1737 64.6374 21.1742 64.6374 21.1746C64.6374 21.1751 64.6374 21.1755 64.6374 21.176C64.6374 21.1764 64.6374 21.1769 64.6374 21.1773C64.6374 21.1778 64.6374 21.1782 64.6374 21.1786C64.6374 21.1791 64.6374 21.1795 64.6374 21.18C64.6374 21.1804 64.6374 21.1809 64.6374 21.1813C64.6374 21.1818 64.6374 21.1822 64.6374 21.1826C64.6374 21.1831 64.6374 21.1835 64.6374 21.184C64.6374 21.1844 64.6374 21.1849 64.6374 21.1853C64.6374 21.1858 64.6374 21.1862 64.6374 21.1866C64.6374 21.1871 64.6374 21.1875 64.6374 21.188C64.6374 21.1884 64.6374 21.1888 64.6374 21.1893C64.6374 21.1897 64.6374 21.1902 64.6374 21.1906C64.6374 21.1911 64.6374 21.1915 64.6374 21.1919C64.6374 21.1924 64.6374 21.1928 64.6374 21.1933C64.6374 21.1937 64.6374 21.1941 64.6374 21.1946C64.6374 21.195 64.6374 21.1954 64.6374 21.1959C64.6374 21.1963 64.6374 21.1968 64.6374 21.1972C64.6374 21.1976 64.6374 21.1981 64.6374 21.1985C64.6374 21.199 64.6374 21.1994 64.6374 21.1998C64.6374 21.2003 64.6374 21.2007 64.6374 21.2011C64.6374 21.2016 64.6374 21.202 64.6374 21.2025C64.6374 21.2029 64.6374 21.2033 64.6374 21.2038C64.6374 21.2042 64.6374 21.2046 64.6374 21.2051C64.6374 21.2055 64.6374 21.2059 64.6374 21.2064C64.6374 21.2068 64.6374 21.2072 64.6374 21.2077C64.6374 21.2081 64.6374 21.2085 64.6374 21.209C64.6374 21.2094 64.6374 21.2098 64.6374 21.2103C64.6374 21.2107 64.6374 21.2111 64.6374 21.2116C64.6374 21.212 64.6374 21.2124 64.6374 21.2129C64.6374 21.2133 64.6374 21.2137 64.6374 21.2142C64.6374 21.2146 64.6374 21.215 64.6374 21.2155C64.6374 21.2159 64.6374 21.2163 64.6374 21.2168C64.6374 21.2172 64.6374 21.2176 64.6374 21.2181C64.6374 21.2185 64.6374 21.2189 64.6374 21.2193C64.6374 21.2198 64.6374 21.2202 64.6374 21.2206C64.6374 21.2211 64.6374 21.2215 64.6374 21.2219C64.6374 21.2223 64.6374 21.2228 64.6374 21.2232C64.6374 21.2236 64.6374 21.2241 64.6374 21.2245C64.6374 21.2249 64.6374 21.2253 64.6374 21.2258C64.6374 21.2262 64.6374 21.2266 64.6374 21.227C64.6374 21.2275 64.6374 21.2279 64.6374 21.2283C64.6374 21.2288 64.6374 21.2292 64.6374 21.2296C64.6374 21.23 64.6374 21.2305 64.6374 21.2309C64.6374 21.2313 64.6374 21.2317 64.6374 21.2322C64.6374 21.2326 64.6374 21.233 64.6374 21.2334C64.6374 21.2339 64.6374 21.2343 64.6374 21.2347C64.6374 21.2351 64.6374 21.2355 64.6374 21.236C64.6374 21.2364 64.6374 21.2368 64.6374 21.2372C64.6374 21.2377 64.6374 21.2381 64.6374 21.2385C64.6374 21.2389 64.6374 21.2394 64.6374 21.2398C64.6374 21.2402 64.6374 21.2406 64.6374 21.241C64.6374 21.2415 64.6374 21.2419 64.6374 21.2423C64.6374 21.2427 64.6374 21.2431 64.6374 21.2436C64.6374 21.244 64.6374 21.2444 64.6374 21.2448C64.6374 21.2452 64.6374 21.2457 64.6374 21.2461C64.6374 21.2465 64.6374 21.2469 64.6374 21.2473C64.6374 21.2478 64.6374 21.2482 64.6374 21.2486C64.6374 21.249 64.6374 21.2494 64.6374 21.2498C64.6374 21.2503 64.6374 21.2507 64.6374 21.2511C64.6374 21.2515 64.6374 21.2519 64.6374 21.2523C64.6374 21.2528 64.6374 21.2532 64.6374 21.2536C64.6374 21.254 64.6374 21.2544 64.6374 21.2548C64.6374 21.2553 64.6374 21.2557 64.6374 21.2561C64.6374 21.2565 64.6374 21.2569 64.6374 21.2573C64.6374 21.2577 64.6374 21.2582 64.6374 21.2586C64.6374 21.259 64.6374 21.2594 64.6374 21.2598H64.921C64.921 21.2594 64.921 21.259 64.921 21.2586C64.921 21.2582 64.921 21.2577 64.921 21.2573C64.921 21.2569 64.921 21.2565 64.921 21.2561C64.921 21.2557 64.921 21.2553 64.921 21.2548C64.921 21.2544 64.921 21.254 64.921 21.2536C64.921 21.2532 64.921 21.2528 64.921 21.2523C64.921 21.2519 64.921 21.2515 64.921 21.2511C64.921 21.2507 64.921 21.2503 64.921 21.2498C64.921 21.2494 64.921 21.249 64.921 21.2486C64.921 21.2482 64.921 21.2478 64.921 21.2473C64.921 21.2469 64.921 21.2465 64.921 21.2461C64.921 21.2457 64.921 21.2452 64.921 21.2448C64.921 21.2444 64.921 21.244 64.921 21.2436C64.921 21.2431 64.921 21.2427 64.921 21.2423C64.921 21.2419 64.921 21.2415 64.921 21.241C64.921 21.2406 64.921 21.2402 64.921 21.2398C64.921 21.2394 64.921 21.2389 64.921 21.2385C64.921 21.2381 64.921 21.2377 64.921 21.2372C64.921 21.2368 64.921 21.2364 64.921 21.236C64.921 21.2355 64.921 21.2351 64.921 21.2347C64.921 21.2343 64.921 21.2339 64.921 21.2334C64.921 21.233 64.921 21.2326 64.921 21.2322C64.921 21.2317 64.921 21.2313 64.921 21.2309C64.921 21.2305 64.921 21.23 64.921 21.2296C64.921 21.2292 64.921 21.2288 64.921 21.2283C64.921 21.2279 64.921 21.2275 64.921 21.227C64.921 21.2266 64.921 21.2262 64.921 21.2258C64.921 21.2253 64.921 21.2249 64.921 21.2245C64.921 21.2241 64.921 21.2236 64.921 21.2232C64.921 21.2228 64.921 21.2223 64.921 21.2219C64.921 21.2215 64.921 21.2211 64.921 21.2206C64.921 21.2202 64.921 21.2198 64.921 21.2193C64.921 21.2189 64.921 21.2185 64.921 21.2181C64.921 21.2176 64.921 21.2172 64.921 21.2168C64.921 21.2163 64.921 21.2159 64.921 21.2155C64.921 21.215 64.921 21.2146 64.921 21.2142C64.921 21.2137 64.921 21.2133 64.921 21.2129C64.921 21.2124 64.921 21.212 64.921 21.2116C64.921 21.2111 64.921 21.2107 64.921 21.2103C64.921 21.2098 64.921 21.2094 64.921 21.209C64.921 21.2085 64.921 21.2081 64.921 21.2077C64.921 21.2072 64.921 21.2068 64.921 21.2064C64.921 21.2059 64.921 21.2055 64.921 21.2051C64.921 21.2046 64.921 21.2042 64.921 21.2038C64.921 21.2033 64.921 21.2029 64.921 21.2025C64.921 21.202 64.921 21.2016 64.921 21.2011C64.921 21.2007 64.921 21.2003 64.921 21.1998C64.921 21.1994 64.921 21.199 64.921 21.1985C64.921 21.1981 64.921 21.1976 64.921 21.1972C64.921 21.1968 64.921 21.1963 64.921 21.1959C64.921 21.1954 64.921 21.195 64.921 21.1946C64.921 21.1941 64.921 21.1937 64.921 21.1933C64.921 21.1928 64.921 21.1924 64.921 21.1919C64.921 21.1915 64.921 21.1911 64.921 21.1906C64.921 21.1902 64.921 21.1897 64.921 21.1893C64.921 21.1888 64.921 21.1884 64.921 21.188C64.921 21.1875 64.921 21.1871 64.921 21.1866C64.921 21.1862 64.921 21.1858 64.921 21.1853C64.921 21.1849 64.921 21.1844 64.921 21.184C64.921 21.1835 64.921 21.1831 64.921 21.1826C64.921 21.1822 64.921 21.1818 64.921 21.1813C64.921 21.1809 64.921 21.1804 64.921 21.18C64.921 21.1795 64.921 21.1791 64.921 21.1786C64.921 21.1782 64.921 21.1778 64.921 21.1773C64.921 21.1769 64.921 21.1764 64.921 21.176C64.921 21.1755 64.921 21.1751 64.921 21.1746C64.921 21.1742 64.921 21.1737 64.921 21.1733C64.921 21.1728 64.921 21.1724 64.921 21.1719C64.921 21.1715 64.921 21.1711 64.921 21.1706C64.921 21.1702 64.921 21.1697 64.921 21.1693C64.921 21.1688 64.921 21.1684 64.921 21.1679C64.921 21.1675 64.921 21.167 64.921 21.1666C64.921 21.1661 64.921 21.1657 64.921 21.1652C64.921 21.1648 64.921 21.1643 64.921 21.1639C64.921 21.1634 64.921 21.163 64.921 21.1625C64.921 21.1621 64.921 21.1616 64.921 21.1611C64.921 21.1607 64.921 21.1602 64.921 21.1598C64.921 21.1593 64.921 21.1589 64.921 21.1584C64.921 21.158 64.921 21.1575 64.921 21.1571C64.921 21.1566 64.921 21.1562 64.921 21.1557C64.921 21.1553 64.921 21.1548 64.921 21.1544C64.921 21.1539 64.921 21.1534 64.921 21.153C64.921 21.1525 64.921 21.1521 64.921 21.1516C64.921 21.1512 64.921 21.1507 64.921 21.1503C64.921 21.1498 64.921 21.1493 64.921 21.1489C64.921 21.1484 64.921 21.148 64.921 21.1475C64.921 21.1471 64.921 21.1466 64.921 21.1461C64.921 21.1457 64.921 21.1452 64.921 21.1448C64.921 21.1443 64.921 21.1439 64.921 21.1434C64.921 21.1429 64.921 21.1425 64.921 21.142C64.921 21.1416 64.921 21.1411 64.921 21.1406C64.921 21.1402 64.921 21.1397 64.921 21.1393C64.921 21.1388 64.921 21.1383 64.921 21.1379C64.921 21.1374 64.921 21.137 64.921 21.1365C64.921 21.136 64.921 21.1356 64.921 21.1351C64.921 21.1347 64.921 21.1342 64.921 21.1337C64.921 21.1333 64.921 21.1328 64.921 21.1323C64.921 21.1319 64.921 21.1314 64.921 21.131C64.921 21.1305 64.921 21.13 64.921 21.1296C64.921 21.1291 64.921 21.1286 64.921 21.1282C64.921 21.1277 64.921 21.1272 64.921 21.1268C64.921 21.1263 64.921 21.1258 64.921 21.1254C64.921 21.1249 64.921 21.1245 64.921 21.124C64.921 21.1235 64.921 21.1231 64.921 21.1226C64.921 21.1221 64.921 21.1217 64.921 21.1212C64.921 21.1207 64.921 21.1203 64.921 21.1198C64.921 21.1193 64.921 21.1189 64.921 21.1184C64.921 21.1179 64.921 21.1175 64.921 21.117C64.921 21.1165 64.921 21.116 64.921 21.1156C64.921 21.1151 64.921 21.1146 64.921 21.1142C64.921 21.1137 64.921 21.1132 64.921 21.1128C64.921 21.1123 64.921 21.1118 64.921 21.1114C64.921 21.1109 64.921 21.1104 64.921 21.1099C64.921 21.1095 64.921 21.109 64.921 21.1085C64.921 21.1081 64.921 21.1076 64.921 21.1071C64.921 21.1066 64.921 21.1062 64.921 21.1057C64.921 21.1052 64.921 21.1048 64.921 21.1043C64.921 21.1038 64.921 21.1033 64.921 21.1029C64.921 21.1024 64.921 21.1019 64.921 21.1014C64.921 21.101 64.921 21.1005 64.921 21.1C64.921 21.0996 64.921 21.0991 64.921 21.0986C64.921 21.0981 64.921 21.0977 64.921 21.0972C64.921 21.0967 64.921 21.0962 64.921 21.0958C64.921 21.0953 64.921 21.0948 64.921 21.0943C64.921 21.0938 64.921 21.0934 64.921 21.0929C64.921 21.0924 64.921 21.0919 64.921 21.0915C64.921 21.091 64.921 21.0905 64.921 21.09C64.921 21.0896 64.921 21.0891 64.921 21.0886C64.921 21.0881 64.921 21.0876 64.921 21.0872C64.921 21.0867 64.921 21.0862 64.921 21.0857C64.921 21.0852 64.921 21.0848 64.921 21.0843C64.921 21.0838 64.921 21.0833 64.921 21.0828C64.921 21.0824 64.921 21.0819 64.921 21.0814C64.921 21.0809 64.921 21.0804 64.921 21.08C64.921 21.0795 64.921 21.079 64.921 21.0785C64.921 21.078 64.921 21.0776 64.921 21.0771C64.921 21.0766 64.921 21.0761 64.921 21.0756C64.921 21.0751 64.921 21.0747 64.921 21.0742C64.921 21.0737 64.921 21.0732 64.921 21.0727C64.921 21.0722 64.921 21.0718 64.921 21.0713C64.921 21.0708 64.921 21.0703 64.921 21.0698C64.921 21.0693 64.921 21.0688 64.921 21.0684C64.921 21.0679 64.921 21.0674 64.921 21.0669C64.921 21.0664 64.921 21.0659 64.921 21.0654C64.921 21.065 64.921 21.0645 64.921 21.064C64.921 21.0635 64.921 21.063 64.921 21.0625C64.921 21.062 64.921 21.0616 64.921 21.0611C64.921 21.0606 64.921 21.0601 64.921 21.0596C64.921 21.0591 64.921 21.0586 64.921 21.0581C64.921 21.0576 64.921 21.0572 64.921 21.0567C64.921 21.0562 64.921 21.0557 64.921 21.0552C64.921 21.0547 64.921 21.0542 64.921 21.0537C64.921 21.0532 64.921 21.0527 64.921 21.0523C64.921 21.0518 64.921 21.0513 64.921 21.0508C64.921 21.0503 64.921 21.0498 64.921 21.0493C64.921 21.0488 64.921 21.0483 64.921 21.0478C64.921 21.0473 64.921 21.0468 64.921 21.0464C64.921 21.0459 64.921 21.0454 64.921 21.0449C64.921 21.0444 64.921 21.0439 64.921 21.0434C64.921 21.0429 64.921 21.0424 64.921 21.0419C64.921 21.0414 64.921 21.0409 64.921 21.0404C64.921 21.0399 64.921 21.0394 64.921 21.0389C64.921 21.0384 64.921 21.038 64.921 21.0375C64.921 21.037 64.921 21.0365 64.921 21.036C64.921 21.0355 64.921 21.035 64.921 21.0345C64.921 21.034 64.921 21.0335 64.921 21.033C64.921 21.0325 64.921 21.032 64.921 21.0315C64.921 21.031 64.921 21.0305 64.921 21.03C64.921 21.0295 64.921 21.029 64.921 21.0285C64.921 21.028 64.921 21.0275 64.921 21.027C64.921 21.0265 64.921 21.026 64.921 21.0255C64.921 21.025 64.921 21.0245 64.921 21.024C64.921 21.0235 64.921 21.023 64.921 21.0225C64.921 21.022 64.921 21.0215 64.921 21.021C64.921 21.0205 64.921 21.02 64.921 21.0195C64.921 21.019 64.921 21.0185 64.921 21.018C64.921 21.0175 64.921 21.017 64.921 21.0165C64.921 21.016 64.921 21.0155 64.921 21.015C64.921 21.0145 64.921 21.014 64.921 21.0135C64.921 21.013 64.921 21.0125 64.921 21.0119C64.921 21.0114 64.921 21.0109 64.921 21.0104C64.921 21.0099 64.921 21.0094 64.921 21.0089C64.921 21.0084 64.921 21.0079 64.921 21.0074C64.921 21.0069 64.921 21.0064 64.921 21.0059C64.921 21.0054 64.921 21.0049 64.921 21.0044C64.921 21.0039 64.921 21.0033 64.921 21.0028C64.921 21.0023 64.921 21.0018 64.921 21.0013C64.921 21.0008 64.921 21.0003 64.921 20.9998C64.921 20.9993 64.921 20.9988 64.921 20.9983C64.921 20.9978 64.921 20.9972 64.921 20.9967C64.921 20.9962 64.921 20.9957 64.921 20.9952C64.921 20.9947 64.921 20.9942 64.921 20.9937C64.921 20.9932 64.921 20.9927 64.921 20.9921C64.921 20.9916 64.921 20.9911 64.921 20.9906C64.921 20.9901 64.921 20.9896 64.921 20.9891C64.921 20.9886 64.921 20.9881 64.921 20.9875C64.921 20.987 64.921 20.9865 64.921 20.986C64.921 20.9855 64.921 20.985 64.921 20.9845C64.921 20.984 64.921 20.9834 64.921 20.9829C64.921 20.9824 64.921 20.9819 64.921 20.9814C64.921 20.9809 64.921 20.9804 64.921 20.9798C64.921 20.9793 64.921 20.9788 64.921 20.9783C64.921 20.9778 64.921 20.9773 64.921 20.9767C64.921 20.9762 64.921 20.9757 64.921 20.9752C64.921 20.9747 64.921 20.9742 64.921 20.9736C64.921 20.9731 64.921 20.9726 64.921 20.9721C64.921 20.9716 64.921 20.9711 64.921 20.9705C64.921 20.97 64.921 20.9695 64.921 20.969C64.921 20.9685 64.921 20.9679 64.921 20.9674C64.921 20.9669 64.921 20.9664 64.921 20.9659C64.921 20.9653 64.921 20.9648 64.921 20.9643C64.921 20.9638 64.921 20.9633 64.921 20.9627C64.921 20.9622 64.921 20.9617 64.921 20.9612C64.921 20.9607 64.921 20.9601 64.921 20.9596C64.921 20.9591 64.921 20.9586 64.921 20.9581C64.921 20.9575 64.921 20.957 64.921 20.9565C64.921 20.956 64.921 20.9554 64.921 20.9549C64.921 20.9544 64.921 20.9539 64.921 20.9533C64.921 20.9528 64.921 20.9523 64.921 20.9518C64.921 20.9513 64.921 20.9507 64.921 20.9502C64.921 20.9497 64.921 20.9492 64.921 20.9486C64.921 20.9481 64.921 20.9476 64.921 20.9471C64.921 20.9465 64.921 20.946 64.921 20.9455C64.921 20.9449 64.921 20.9444 64.921 20.9439C64.921 20.9434 64.921 20.9428 64.921 20.9423C64.921 20.9418 64.921 20.9413 64.921 20.9407C64.921 20.9402 64.921 20.9397 64.921 20.9391C64.921 20.9386 64.921 20.9381 64.921 20.9376C64.921 20.937 64.921 20.9365 64.921 20.936C64.921 20.9354 64.921 20.9349 64.921 20.9344C64.921 20.9339 64.921 20.9333 64.921 20.9328C64.921 20.9323 64.921 20.9317 64.921 20.9312C64.921 20.9307 64.921 20.9301 64.921 20.9296C64.921 20.9291 64.921 20.9286 64.921 20.928C64.921 20.9275 64.921 20.927 64.921 20.9264C64.921 20.9259 64.921 20.9254 64.921 20.9248C64.921 20.9243 64.921 20.9238 64.921 20.9232C64.921 20.9227 64.921 20.9222 64.921 20.9216C64.921 20.9211 64.921 20.9206 64.921 20.92C64.921 20.9195 64.921 20.919 64.921 20.9184C64.921 20.9179 64.921 20.9174 64.921 20.9168C64.921 20.9163 64.921 20.9157 64.921 20.9152C64.921 20.9147 64.921 20.9141 64.921 20.9136C64.921 20.9131 64.921 20.9125 64.921 20.912C64.921 20.9115 64.921 20.9109 64.921 20.9104C64.921 20.9098 64.921 20.9093 64.921 20.9088C64.921 20.9082 64.921 20.9077 64.921 20.9072C64.921 20.9066 64.921 20.9061 64.921 20.9055C64.921 20.905 64.921 20.9045 64.921 20.9039C64.921 20.9034 64.921 20.9028 64.921 20.9023C64.921 20.9018 64.921 20.9012 64.921 20.9007C64.921 20.9001 64.921 20.8996 64.921 20.8991C64.921 20.8985 64.921 20.898 64.921 20.8974C64.921 20.8969 64.921 20.8964 64.921 20.8958C64.921 20.8953 64.921 20.8947 64.921 20.8942C64.921 20.8936 64.921 20.8931 64.921 20.8926C64.921 20.892 64.921 20.8915 64.921 20.8909C64.921 20.8904 64.921 20.8898 64.921 20.8893C64.921 20.8888 64.921 20.8882 64.921 20.8877C64.921 20.8871 64.921 20.8866 64.921 20.886C64.921 20.8855 64.921 20.8849 64.921 20.8844C64.921 20.8839 64.921 20.8833 64.921 20.8828C64.921 20.8822 64.921 20.8817 64.921 20.8811C64.921 20.8806 64.921 20.88 64.921 20.8795C64.921 20.8789 64.921 20.8784 64.921 20.8778C64.921 20.8773 64.921 20.8767 64.921 20.8762C64.921 20.8757 64.921 20.8751 64.921 20.8746C64.921 20.874 64.921 20.8735 64.921 20.8729C64.921 20.8724 64.921 20.8718 64.921 20.8713C64.921 20.8707 64.921 20.8702 64.921 20.8696C64.921 20.8691 64.921 20.8685 64.921 20.868C64.921 20.8674 64.921 20.8669 64.921 20.8663C64.921 20.8658 64.921 20.8652 64.921 20.8647C64.921 20.8641 64.921 20.8636 64.921 20.863C64.921 20.8624 64.921 20.8619 64.921 20.8613C64.921 20.8608 64.921 20.8602 64.921 20.8597C64.921 20.8591 64.921 20.8586 64.921 20.858C64.921 20.8575 64.921 20.8569 64.921 20.8564C64.921 20.8558 64.921 20.8553 64.921 20.8547C64.921 20.8541 64.921 20.8536 64.921 20.853C64.921 20.8525 64.921 20.8519 64.921 20.8514C64.921 20.8508 64.921 20.8503 64.921 20.8497C64.921 20.8492 64.921 20.8486 64.921 20.848C64.921 20.8475 64.921 20.8469 64.921 20.8464C64.921 20.8458 64.921 20.8453 64.921 20.8447C64.921 20.8441 64.921 20.8436 64.921 20.843C64.921 20.8425 64.921 20.8419 64.921 20.8413C64.921 20.8408 64.921 20.8402 64.921 20.8397C64.921 20.8391 64.921 20.8386 64.921 20.838C64.921 20.8374 64.921 20.8369 64.921 20.8363C64.921 20.8358 64.921 20.8352 64.921 20.8346C64.921 20.8341 64.921 20.8335 64.921 20.833C64.921 20.8324 64.921 20.8318 64.921 20.8313C64.921 20.8307 64.921 20.8301 64.921 20.8296C64.921 20.829 64.921 20.8285 64.921 20.8279C64.921 20.8273 64.921 20.8268 64.921 20.8262C64.921 20.8256 64.921 20.8251 64.921 20.8245C64.921 20.824 64.921 20.8234 64.921 20.8228C64.921 20.8223 64.921 20.8217 64.921 20.8211C64.921 20.8206 64.921 20.82 64.921 20.8194C64.921 20.8189 64.921 20.8183 64.921 20.8177C64.921 20.8172 64.921 20.8166 64.921 20.816C64.921 20.8155 64.921 20.8149 64.921 20.8143C64.921 20.8138 64.921 20.8132 64.921 20.8126C64.921 20.8121 64.921 20.8115 64.921 20.8109C64.921 20.8104 64.921 20.8098 64.921 20.8092C64.921 20.8087 64.921 20.8081 64.921 20.8075C64.921 20.807 64.921 20.8064 64.921 20.8058C64.921 20.8053 64.921 20.8047 64.921 20.8041C64.921 20.8036 64.921 20.803 64.921 20.8024C64.921 20.8018 64.921 20.8013 64.921 20.8007C64.921 20.8001 64.921 20.7996 64.921 20.799C64.921 20.7984 64.921 20.7978 64.921 20.7973C64.921 20.7967 64.921 20.7961 64.921 20.7956C64.921 20.795 64.921 20.7944 64.921 20.7938C64.921 20.7933 64.921 20.7927 64.921 20.7921C64.921 20.7916 64.921 20.791 64.921 20.7904C64.921 20.7898 64.921 20.7893 64.921 20.7887C64.921 20.7881 64.921 20.7875 64.921 20.787C64.921 20.7864 64.921 20.7858 64.921 20.7852C64.921 20.7847 64.921 20.7841 64.921 20.7835C64.921 20.7829 64.921 20.7824 64.921 20.7818C64.921 20.7812 64.921 20.7806 64.921 20.7801C64.921 20.7795 64.921 20.7789 64.921 20.7783C64.921 20.7777 64.921 20.7772 64.921 20.7766C64.921 20.776 64.921 20.7754 64.921 20.7749C64.921 20.7743 64.921 20.7737 64.921 20.7731C64.921 20.7725 64.921 20.772 64.921 20.7714C64.921 20.7708 64.921 20.7702 64.921 20.7696C64.921 20.7691 64.921 20.7685 64.921 20.7679C64.921 20.7673 64.921 20.7667 64.921 20.7662C64.921 20.7656 64.921 20.765 64.921 20.7644C64.921 20.7638 64.921 20.7633 64.921 20.7627C64.921 20.7621 64.921 20.7615 64.921 20.7609C64.921 20.7603 64.921 20.7598 64.921 20.7592C64.921 20.7586 64.921 20.758 64.921 20.7574C64.921 20.7569 64.921 20.7563 64.921 20.7557C64.921 20.7551 64.921 20.7545 64.921 20.7539C64.921 20.7533 64.921 20.7528 64.921 20.7522C64.921 20.7516 64.921 20.751 64.921 20.7504C64.921 20.7498 64.921 20.7493 64.921 20.7487C64.921 20.7481 64.921 20.7475 64.921 20.7469C64.921 20.7463 64.921 20.7457 64.921 20.7452C64.921 20.7446 64.921 20.744 64.921 20.7434C64.921 20.7428 64.921 20.7422 64.921 20.7416C64.921 20.741 64.921 20.7405 64.921 20.7399C64.921 20.7393 64.921 20.7387 64.921 20.7381C64.921 20.7375 64.921 20.7369 64.921 20.7363C64.921 20.7357 64.921 20.7352 64.921 20.7346C64.921 20.734 64.921 20.7334 64.921 20.7328C64.921 20.7322 64.921 20.7316 64.921 20.731C64.921 20.7304 64.921 20.7298 64.921 20.7292C64.921 20.7287 64.921 20.7281 64.921 20.7275C64.921 20.7269 64.921 20.7263 64.921 20.7257C64.921 20.7251 64.921 20.7245 64.921 20.7239C64.921 20.7233 64.921 20.7227 64.921 20.7221C64.921 20.7215 64.921 20.721 64.921 20.7204C64.921 20.7198 64.921 20.7192 64.921 20.7186C64.921 20.718 64.921 20.7174 64.921 20.7168C64.921 20.7162 64.921 20.7156 64.921 20.715C64.921 20.7144 64.921 20.7138 64.921 20.7132C64.921 20.7126 64.921 20.712 64.921 20.7114C64.921 20.7108 64.921 20.7102 64.921 20.7096C64.921 20.709 64.921 20.7084 64.921 20.7079C64.921 20.7073 64.921 20.7067 64.921 20.7061C64.921 20.7055 64.921 20.7049 64.921 20.7043C64.921 20.7037 64.921 20.7031 64.921 20.7025C64.921 20.7019 64.921 20.7013 64.921 20.7007C64.921 20.7001 64.921 20.6995 64.921 20.6989C64.921 20.6983 64.921 20.6977 64.921 20.6971C64.921 20.6965 64.921 20.6959 64.921 20.6953C64.921 20.6947 64.921 20.6941 64.921 20.6935C64.921 20.6929 64.921 20.6923 64.921 20.6917C64.921 20.6911 64.921 20.6905 64.921 20.6899C64.921 20.6893 64.921 20.6887 64.921 20.688C64.921 20.6874 64.921 20.6868 64.921 20.6862C64.921 20.6856 64.921 20.685 64.921 20.6844C64.921 20.6838 64.921 20.6832 64.921 20.6826C64.921 20.682 64.921 20.6814 64.921 20.6808C64.921 20.6802 64.921 20.6796 64.921 20.679C64.921 20.6784 64.921 20.6778 64.921 20.6772C64.921 20.6766 64.921 20.676 64.921 20.6753C64.921 20.6747 64.921 20.6741 64.921 20.6735C64.921 20.6729 64.921 20.6723 64.921 20.6717C64.921 20.6711 64.921 20.6705 64.921 20.6699C64.921 20.6693 64.921 20.6687 64.921 20.6681C64.921 20.6675 64.921 20.6668 64.921 20.6662C64.921 20.6656 64.921 20.665 64.921 20.6644C64.921 20.6638 64.921 20.6632 64.921 20.6626C64.921 20.662 64.921 20.6614 64.921 20.6607C64.921 20.6601 64.921 20.6595 64.921 20.6589C64.921 20.6583 64.921 20.6577 64.921 20.6571C64.921 20.6565 64.921 20.6559 64.921 20.6552C64.921 20.6546 64.921 20.654 64.921 20.6534C64.921 20.6528 64.921 20.6522 64.921 20.6516C64.921 20.651 64.921 20.6503 64.921 20.6497C64.921 20.6491 64.921 20.6485 64.921 20.6479C64.921 20.6473 64.921 20.6467 64.921 20.646C64.921 20.6454 64.921 20.6448 64.921 20.6442C64.921 20.6436 64.921 20.643 64.921 20.6424C64.921 20.6417 64.921 20.6411 64.921 20.6405C64.921 20.6399 64.921 20.6393 64.921 20.6387C64.921 20.638 64.921 20.6374 64.921 20.6368C64.921 20.6362 64.921 20.6356 64.921 20.635C64.921 20.6343 64.921 20.6337 64.921 20.6331C64.921 20.6325 64.921 20.6319 64.921 20.6313C64.921 20.6306 64.921 20.63 64.921 20.6294C64.921 20.6288 64.921 20.6282 64.921 20.6275C64.921 20.6269 64.921 20.6263 64.921 20.6257C64.921 20.6251 64.921 20.6244 64.921 20.6238C64.921 20.6232 64.921 20.6226 64.921 20.622C64.921 20.6213 64.921 20.6207 64.921 20.6201C64.921 20.6195 64.921 20.6188 64.921 20.6182C64.921 20.6176 64.921 20.617 64.921 20.6164C64.921 20.6157 64.921 20.6151 64.921 20.6145C64.921 20.6139 64.921 20.6132 64.921 20.6126C64.921 20.612 64.921 20.6114 64.921 20.6107C64.921 20.6101 64.921 20.6095 64.921 20.6089C64.921 20.6082 64.921 20.6076 64.921 20.607C64.921 20.6064 64.921 20.6057 64.921 20.6051C64.921 20.6045 64.921 20.6039 64.921 20.6032C64.921 20.6026 64.921 20.602 64.921 20.6014C64.921 20.6007 64.921 20.6001 64.921 20.5995C64.921 20.5989 64.921 20.5982 64.921 20.5976C64.921 20.597 64.921 20.5963 64.921 20.5957C64.921 20.5951 64.921 20.5945 64.921 20.5938C64.921 20.5932 64.921 20.5926 64.921 20.5919C64.921 20.5913 64.921 20.5907 64.921 20.5901C64.921 20.5894 64.921 20.5888 64.921 20.5882C64.921 20.5875 64.921 20.5869 64.921 20.5863C64.921 20.5856 64.921 20.585 64.921 20.5844C64.921 20.5838 64.921 20.5831 64.921 20.5825C64.921 20.5819 64.921 20.5812 64.921 20.5806C64.921 20.58 64.921 20.5793 64.921 20.5787C64.921 20.5781 64.921 20.5774 64.921 20.5768C64.921 20.5762 64.921 20.5755 64.921 20.5749C64.921 20.5743 64.921 20.5736 64.921 20.573C64.921 20.5724 64.921 20.5717 64.921 20.5711C64.921 20.5705 64.921 20.5698 64.921 20.5692C64.921 20.5686 64.921 20.5679 64.921 20.5673C64.921 20.5666 64.921 20.566 64.921 20.5654C64.921 20.5647 64.921 20.5641 64.921 20.5635C64.921 20.5628 64.921 20.5622 64.921 20.5616C64.921 20.5609 64.921 20.5603 64.921 20.5596C64.921 20.559 64.921 20.5584 64.921 20.5577C64.921 20.5571 64.921 20.5565 64.921 20.5558C64.921 20.5552 64.921 20.5545 64.921 20.5539C64.921 20.5533 64.921 20.5526 64.921 20.552C64.921 20.5513 64.921 20.5507 64.921 20.5501C64.921 20.5494 64.921 20.5488 64.921 20.5481C64.921 20.5475 64.921 20.5469 64.921 20.5462C64.921 20.5456 64.921 20.5449 64.921 20.5443C64.921 20.5436 64.921 20.543 64.921 20.5424C64.921 20.5417 64.921 20.5411 64.921 20.5404C64.921 20.5398 64.921 20.5391 64.921 20.5385C64.921 20.5379 64.921 20.5372 64.921 20.5366C64.921 20.5359 64.921 20.5353 64.921 20.5346C64.921 20.534 64.921 20.5334 64.921 20.5327C64.921 20.5321 64.921 20.5314 64.921 20.5308C64.921 20.5301 64.921 20.5295 64.921 20.5288C64.921 20.5282 64.921 20.5275 64.921 20.5269C64.921 20.5263 64.921 20.5256 64.921 20.525C64.921 20.5243 64.921 20.5237 64.921 20.523C64.921 20.5224 64.921 20.5217 64.921 20.5211C64.921 20.5204 64.921 20.5198 64.921 20.5191C64.921 20.5185 64.921 20.5178 64.921 20.5172C64.921 20.5165 64.921 20.5159 64.921 20.5152C64.921 20.5146 64.921 20.5139 64.921 20.5133C64.921 20.5126 64.921 20.512 64.921 20.5113C64.921 20.5107 64.921 20.51 64.921 20.5094C64.921 20.5087 64.921 20.5081 64.921 20.5074C64.921 20.5068 64.921 20.5061 64.921 20.5055C64.921 20.5048 64.921 20.5042 64.921 20.5035C64.921 20.5029 64.921 20.5022 64.921 20.5016C64.921 20.5009 64.921 20.5003 64.921 20.4996C64.921 20.499 64.921 20.4983 64.921 20.4976C64.921 20.497 64.921 20.4963 64.921 20.4957C64.921 20.495 64.921 20.4944 64.921 20.4937C64.921 20.4931 64.921 20.4924 64.921 20.4918C64.921 20.4911 64.921 20.4904 64.921 20.4898C64.921 20.4891 64.921 20.4885 64.921 20.4878C64.921 20.4872 64.921 20.4865 64.921 20.4858C64.921 20.4852 64.921 20.4845 64.921 20.4839C64.921 20.4832 64.921 20.4826 64.921 20.4819C64.921 20.4812 64.921 20.4806 64.921 20.4799C64.921 20.4793 64.921 20.4786 64.921 20.478C64.921 20.4773 64.921 20.4766 64.921 20.476C64.921 20.4753 64.921 20.4747 64.921 20.474C64.921 20.4733 64.921 20.4727 64.921 20.472C64.921 20.4714 64.921 20.4707 64.921 20.47C64.921 20.4694 64.921 20.4687 64.921 20.468C64.921 20.4674 64.921 20.4667 64.921 20.4661C64.921 20.4654 64.921 20.4647 64.921 20.4641C64.921 20.4634 64.921 20.4628 64.921 20.4621C64.921 20.4614 64.921 20.4608 64.921 20.4601C64.921 20.4594 64.921 20.4588 64.921 20.4581C64.921 20.4574 64.921 20.4568 64.921 20.4561C64.921 20.4554 64.921 20.4548 64.921 20.4541C64.921 20.4535 64.921 20.4528 64.921 20.4521C64.921 20.4515 64.921 20.4508 64.921 20.4501C64.921 20.4495 64.921 20.4488 64.921 20.4481C64.921 20.4475 64.921 20.4468 64.921 20.4461C64.921 20.4455 64.921 20.4448 64.921 20.4441C64.921 20.4435 64.921 20.4428 64.921 20.4421C64.921 20.4415 64.921 20.4408 64.921 20.4401C64.921 20.4394 64.921 20.4388 64.921 20.4381C64.921 20.4374 64.921 20.4368 64.921 20.4361C64.921 20.4354 64.921 20.4348 64.921 20.4341C64.921 20.4334 64.921 20.4328 64.921 20.4321C64.921 20.4314 64.921 20.4307 64.921 20.4301C64.921 20.4294 64.921 20.4287 64.921 20.4281C64.921 20.4274 64.921 20.4267 64.921 20.426H64.6374ZM64.6378 21.2693C64.651 21.4675 64.6708 21.7782 64.6973 22.2017L64.9803 22.184C64.9539 21.7605 64.934 21.4492 64.9207 21.2504L64.6378 21.2693ZM64.6976 22.2061C64.7378 22.6346 64.7985 22.9947 64.8811 23.284L65.1538 23.2061C65.0776 22.9395 65.0192 22.5981 64.98 22.1796L64.6976 22.2061ZM64.8817 23.2858C64.963 23.5568 65.0709 23.8466 65.2051 24.1552L65.4651 24.0421C65.3346 23.7419 65.2308 23.4626 65.1533 23.2043L64.8817 23.2858ZM65.2051 24.1552C65.3465 24.4805 65.548 24.7352 65.8123 24.9114L65.9696 24.6755C65.7575 24.5341 65.5884 24.3256 65.4651 24.0421L65.2051 24.1552ZM65.817 24.9144C66.0795 25.0748 66.3768 25.1536 66.7049 25.1536V24.87C66.4241 24.87 66.1789 24.8032 65.9649 24.6725L65.817 24.9144ZM76.5378 17.885L76.4124 17.8186L76.4114 17.8206L76.5378 17.885ZM78.9597 23.9398L78.8537 23.8456L78.8535 23.8459L78.9597 23.9398ZM79.6545 24.5949L79.7783 24.5259L79.7378 24.4531H79.6545V24.5949ZM79.6148 24.5949V24.4531H79.5512L79.5089 24.5006L79.6148 24.5949ZM73.7188 24.4758L73.611 24.568L73.6126 24.5698L73.7188 24.4758ZM73.9173 17.349L73.8101 17.2562L73.8093 17.2571L73.9173 17.349ZM79.3964 16.4358L79.3063 16.5453L79.3456 16.5776H79.3964V16.4358ZM79.4361 16.4358V16.5776H79.5779V16.4358H79.4361ZM78.2053 12.2669V12.1251L78.1741 12.4052L78.2053 12.2669ZM82.533 12.2669H82.6748V12.1251H82.533V12.2669ZM82.9102 23.9795L82.8099 24.0798L82.8125 24.0823L82.9102 23.9795ZM84.7961 24.2376L84.9237 24.2996L85.0533 24.0327L84.7642 24.0994L84.7961 24.2376ZM83.6249 25.2897L83.6792 25.4207L83.6807 25.4201L83.6249 25.2897ZM79.5779 22.3715V18.7982H79.2943V22.3715H79.5779ZM79.5779 18.7982C79.5779 18.1417 79.45 17.6231 79.1706 17.2665C78.886 16.9033 78.4626 16.7308 77.9274 16.7308V17.0144C78.398 17.0144 78.729 17.1628 78.9473 17.4414C79.1708 17.7267 79.2943 18.171 79.2943 18.7982H79.5779ZM77.9274 16.7308C77.2879 16.7308 76.7846 17.1156 76.4124 17.8187L76.6631 17.9513C77.0055 17.3045 77.4287 17.0144 77.9274 17.0144V16.7308ZM76.4114 17.8206C76.052 18.5255 75.8798 19.565 75.8798 20.9223H76.1634C76.1634 19.5799 76.3353 18.5944 76.6641 17.9494L76.4114 17.8206ZM75.8798 20.9223C75.8798 22.1075 76.0272 23.0174 76.3365 23.636C76.4921 23.9473 76.691 24.1893 76.9368 24.3531C77.1834 24.5175 77.4691 24.5978 77.7884 24.5978V24.3142C77.5188 24.3142 77.2891 24.2472 77.0941 24.1171C76.8982 23.9865 76.729 23.7868 76.5901 23.5091C76.3105 22.9498 76.1634 22.093 76.1634 20.9223H75.8798ZM77.7884 24.5978C78.3038 24.5978 78.7335 24.4096 79.0659 24.0338L78.8535 23.8459C78.5771 24.1583 78.226 24.3142 77.7884 24.3142V24.5978ZM79.0657 24.034C79.4147 23.6413 79.5779 23.0794 79.5779 22.3715H79.2943C79.2943 23.0401 79.1399 23.5236 78.8537 23.8456L79.0657 24.034ZM79.6545 24.4531H79.6148V24.7367H79.6545V24.4531ZM79.5089 24.5006C78.8952 25.1895 77.9733 25.545 76.7164 25.545V25.8286C78.0271 25.8286 79.0374 25.4562 79.7207 24.6893L79.5089 24.5006ZM76.7164 25.545C75.4648 25.545 74.5076 25.1529 73.825 24.3818L73.6126 24.5698C74.3593 25.4133 75.4005 25.8286 76.7164 25.8286V25.545ZM73.8266 24.3837C73.1546 23.5976 72.8084 22.4639 72.8084 20.962H72.5248C72.5248 22.5041 72.8801 23.713 73.611 24.568L73.8266 24.3837ZM72.8084 20.962C72.8084 19.5624 73.2158 18.3917 74.0253 17.4409L73.8093 17.2571C72.9513 18.265 72.5248 19.503 72.5248 20.962H72.8084ZM74.0246 17.4418C74.8419 16.4967 75.9327 16.0218 77.312 16.0218V15.7382C75.859 15.7382 74.6867 16.2426 73.8101 17.2562L74.0246 17.4418ZM77.312 16.0218C78.2375 16.0218 78.8932 16.2051 79.3063 16.5453L79.4866 16.3264C78.9997 15.9254 78.2657 15.7382 77.312 15.7382V16.0218ZM79.3964 16.5776H79.4361V16.294H79.3964V16.5776ZM79.5779 16.4358V13.8352H79.2943V16.4358H79.5779ZM79.5779 13.8352C79.5779 13.3828 79.4698 13.0033 79.24 12.7104C79.0098 12.4172 78.67 12.2265 78.2365 12.1286L78.1741 12.4052C78.5612 12.4926 78.8367 12.656 79.0169 12.8855C79.1973 13.1154 79.2943 13.4274 79.2943 13.8352H79.5779ZM78.2053 12.4087H82.533V12.1251H78.2053V12.4087ZM82.3912 12.2669V22.9472H82.6748V12.2669H82.3912ZM82.3912 22.9472C82.3912 23.4125 82.5261 23.7959 82.8099 24.0798L83.0105 23.8793C82.7914 23.6602 82.6748 23.3555 82.6748 22.9472H82.3912ZM82.8125 24.0823C83.1069 24.362 83.4809 24.4985 83.9226 24.4985V24.2149C83.5439 24.2149 83.2429 24.1 83.0079 23.8767L82.8125 24.0823ZM83.9226 24.4985C84.1754 24.4985 84.478 24.4565 84.828 24.3758L84.7642 24.0994C84.4261 24.1775 84.1463 24.2149 83.9226 24.2149V24.4985ZM84.6686 24.1756C84.461 24.603 84.0993 24.9322 83.569 25.1594L83.6807 25.4201C84.2622 25.1709 84.6813 24.7986 84.9237 24.2996L84.6686 24.1756ZM83.5706 25.1588C83.0454 25.3765 82.4948 25.4854 81.9176 25.4854V25.769C82.5315 25.769 83.1191 25.653 83.6792 25.4207L83.5706 25.1588ZM81.9176 25.4854C80.8195 25.4854 80.1271 25.1512 79.7783 24.5259L79.5307 24.664C79.9495 25.4151 80.7658 25.769 81.9176 25.769V25.4854ZM90.4463 22.57L90.3045 22.5694L90.3046 22.5732L90.4463 22.57ZM90.4662 18.3813L90.608 18.382V18.3813H90.4662ZM90.0294 23.9597L89.9229 23.866L89.9208 23.8685L90.0294 23.9597ZM90.7639 24.5949L90.8833 24.5184L90.8414 24.4531H90.7639V24.5949ZM90.7242 24.5949V24.4531H90.6655L90.624 24.4947L90.7242 24.5949ZM84.7687 24.4957L84.6608 24.5877L84.6624 24.5895L84.7687 24.4957ZM85.126 17.21L85.023 17.1126L85.023 17.1126L85.126 17.21ZM93.5829 17.1108H93.7247V17.0405L93.6688 16.9979L93.5829 17.1108ZM93.9601 24.0391L93.8626 24.142L93.9601 24.0391ZM95.846 24.2773L95.9751 24.336L96.1168 24.0243L95.7962 24.1445L95.846 24.2773ZM94.7542 25.2897L94.696 25.1604L94.6947 25.161L94.7542 25.2897ZM90.5881 22.5707L90.608 18.382L90.3244 18.3806L90.3045 22.5694L90.5881 22.5707ZM90.608 18.3813C90.608 17.7665 90.4648 17.2811 90.1518 16.9533L89.9467 17.1491C90.1896 17.4036 90.3244 17.805 90.3244 18.3813H90.608ZM90.1518 16.9533C89.8476 16.6346 89.4732 16.4727 89.0368 16.4727V16.7563C89.3945 16.7563 89.6951 16.8856 89.9467 17.1491L90.1518 16.9533ZM89.0368 16.4727C88.6849 16.4727 88.3713 16.5698 88.102 16.7668C87.8342 16.9626 87.618 17.2513 87.4487 17.6227C87.1117 18.362 86.9496 19.4536 86.9496 20.8826H87.2331C87.2331 19.4662 87.3952 18.4237 87.7067 17.7403C87.8617 17.4004 88.0508 17.1555 88.2694 16.9957C88.4864 16.837 88.7402 16.7563 89.0368 16.7563V16.4727ZM86.9496 20.8826C86.9496 22.081 87.0986 23.0009 87.4112 23.626C87.5685 23.9406 87.7694 24.1851 88.0177 24.3506C88.2668 24.5167 88.5554 24.5978 88.878 24.5978V24.3142C88.605 24.3142 88.3725 24.2463 88.175 24.1147C87.9766 23.9824 87.8053 23.7802 87.6648 23.4992C87.3819 22.9333 87.2331 22.0665 87.2331 20.8826H86.9496ZM88.878 24.5978C89.4033 24.5978 89.8293 24.4183 90.138 24.0509L89.9208 23.8685C89.6736 24.1628 89.3321 24.3142 88.878 24.3142V24.5978ZM90.1359 24.0533C90.4578 23.6876 90.6018 23.1853 90.5881 22.5669L90.3046 22.5732C90.3173 23.1459 90.1834 23.57 89.923 23.866L90.1359 24.0533ZM90.7639 24.4531H90.7242V24.7367H90.7639V24.4531ZM90.624 24.4947C89.9297 25.189 88.9443 25.545 87.6472 25.545V25.8286C88.997 25.8286 90.063 25.4567 90.8245 24.6952L90.624 24.4947ZM87.6472 25.545C86.4636 25.545 85.5453 25.1607 84.875 24.4018L84.6624 24.5895C85.3949 25.4188 86.3957 25.8286 87.6472 25.8286V25.545ZM84.8766 24.4037C84.2177 23.6308 83.8782 22.5169 83.8782 21.0414H83.5946C83.5946 22.557 83.9432 23.7459 84.6608 24.5877L84.8766 24.4037ZM83.8782 21.0414C83.8782 19.4963 84.3317 18.2561 85.229 17.3075L85.023 17.1126C84.0675 18.1227 83.5946 19.4368 83.5946 21.0414H83.8782ZM85.229 17.3075C86.1351 16.3504 87.4302 15.8629 89.1361 15.8629V15.5793C87.3745 15.5793 85.9962 16.0845 85.023 17.1126L85.229 17.3075ZM89.1361 15.8629C90.8566 15.8629 92.3076 16.3186 93.497 17.2236L93.6688 16.9979C92.4231 16.0501 90.9095 15.5793 89.1361 15.5793V15.8629ZM93.4411 17.1108V23.0266H93.7247V17.1108H93.4411ZM93.4411 23.0266C93.4411 23.4915 93.5759 23.8704 93.8626 24.142L94.0576 23.9361C93.8414 23.7313 93.7247 23.4352 93.7247 23.0266H93.4411ZM93.8626 24.142C94.1468 24.4113 94.5293 24.5382 94.9924 24.5382V24.2546C94.582 24.2546 94.2763 24.1434 94.0576 23.9361L93.8626 24.142ZM94.9924 24.5382C95.358 24.5382 95.6616 24.4979 95.8958 24.4101L95.7962 24.1445C95.6069 24.2155 95.3414 24.2546 94.9924 24.2546V24.5382ZM95.7169 24.2186C95.5355 24.6177 95.2008 24.9332 94.696 25.1604L94.8124 25.4191C95.3663 25.1698 95.7595 24.8104 95.9751 24.336L95.7169 24.2186ZM94.6947 25.161C94.1977 25.3904 93.6688 25.5053 93.1065 25.5053V25.7889C93.7088 25.7889 94.2784 25.6655 94.8136 25.4185L94.6947 25.161ZM93.1065 25.5053C92.0251 25.5053 91.2988 25.166 90.8833 24.5184L90.6446 24.6715C91.1291 25.4267 91.9645 25.7889 93.1065 25.7889V25.5053Z" fill="white"/>
</svg>
