<svg width="222" height="35" viewBox="0 0 222 35" fill="none" xmlns="http://www.w3.org/2000/svg">
<path d="M19.216 20.016V25.92C19.216 28.824 18.34 30.936 16.588 32.256C14.836 33.576 12.628 34.236 9.964 34.236C6.532 34.236 4.036 33.12 2.476 30.888C3.964 31.584 5.92 31.932 8.344 31.932C9.64 31.932 10.804 31.584 11.836 30.888C12.892 30.216 13.42 29.136 13.42 27.648V26.388C12.076 26.964 10.552 27.252 8.848 27.252C6.784 27.252 5.188 26.76 4.06 25.776C2.932 24.768 2.368 23.34 2.368 21.492V12.924C2.368 11.292 1.612 10.344 0.1 10.08L7.984 10.044V21.312C7.984 23.88 9.04 25.164 11.152 25.164C11.992 25.164 12.748 24.984 13.42 24.624L13.6 10.044H19.216V20.016ZM13.456 3.924L7.012 6.732H6.832L11.728 1.152C12.4 0.431999 13.108 0.0719991 13.852 0.0719991C14.26 0.0719991 14.62 0.239999 14.932 0.575999C15.244 0.887999 15.4 1.248 15.4 1.656C15.4 2.64 14.752 3.396 13.456 3.924ZM41.0132 18.324C41.0132 21.18 40.0652 23.448 38.1692 25.128C36.2972 26.784 33.9092 27.612 31.0052 27.612C28.1492 27.612 25.8572 26.808 24.1292 25.2C22.4252 23.568 21.5732 21.336 21.5732 18.504C21.5732 15.696 22.4972 13.464 24.3452 11.808C26.1932 10.128 28.5452 9.288 31.4012 9.288C34.2572 9.288 36.5732 10.092 38.3492 11.7C40.1252 13.284 41.0132 15.492 41.0132 18.324ZM31.2932 26.244C33.6932 26.244 34.8932 23.64 34.8932 18.432C34.8932 13.224 33.7532 10.62 31.4732 10.62C30.7052 10.62 30.0572 10.872 29.5292 11.376C29.0012 11.88 28.6172 12.552 28.3772 13.392C28.1612 14.232 28.0052 15.012 27.9092 15.732C27.8372 16.428 27.8012 17.16 27.8012 17.928C27.8012 18.552 27.8012 19.056 27.8012 19.44C27.8252 19.8 27.8612 20.364 27.9092 21.132C27.9812 21.9 28.0892 22.536 28.2332 23.04C28.3772 23.52 28.5692 24.036 28.8092 24.588C29.0492 25.14 29.3852 25.56 29.8172 25.848C30.2492 26.112 30.7412 26.244 31.2932 26.244ZM54.3804 21.456V14.976C54.3804 12.648 53.4684 11.484 51.6444 11.484C50.6124 11.484 49.7724 12.096 49.1244 13.32C48.5004 14.544 48.1884 16.38 48.1884 18.828C48.1884 23.1 49.2564 25.236 51.3924 25.236C52.2564 25.236 52.9644 24.924 53.5164 24.3C54.0924 23.652 54.3804 22.704 54.3804 21.456ZM54.7764 25.488H54.7044C53.5284 26.808 51.7764 27.468 49.4484 27.468C47.1204 27.468 45.3084 26.736 44.0124 25.272C42.7404 23.784 42.1044 21.66 42.1044 18.9C42.1044 16.308 42.8604 14.124 44.3724 12.348C45.9084 10.572 47.9604 9.684 50.5284 9.684C52.2324 9.684 53.4924 10.02 54.3084 10.692H54.3804V5.976C54.3804 4.416 53.6364 3.468 52.1484 3.132H59.9964V22.5C59.9964 23.292 60.2244 23.916 60.6804 24.372C61.1604 24.828 61.7724 25.056 62.5164 25.056C62.9484 25.056 63.4764 24.984 64.1004 24.84C63.6924 25.68 62.9844 26.316 61.9764 26.748C60.9924 27.156 59.9604 27.36 58.8804 27.36C56.8404 27.36 55.4724 26.736 54.7764 25.488ZM74.3466 21.816L74.3826 14.22C74.3826 13.14 74.1306 12.336 73.6266 11.808C73.1226 11.28 72.5106 11.016 71.7906 11.016C69.4386 11.016 68.2626 13.596 68.2626 18.756C68.2626 23.076 69.3426 25.236 71.5026 25.236C72.3906 25.236 73.0866 24.936 73.5906 24.336C74.1186 23.736 74.3706 22.896 74.3466 21.816ZM74.9226 25.488H74.8506C73.5306 26.808 71.6706 27.468 69.2706 27.468C67.0626 27.468 65.3226 26.748 64.0506 25.308C62.8026 23.844 62.1786 21.756 62.1786 19.044C62.1786 16.188 63.0186 13.872 64.6986 12.096C66.4026 10.296 68.8266 9.396 71.9706 9.396C75.1386 9.396 77.8266 10.236 80.0346 11.916V22.644C80.0346 23.436 80.2626 24.048 80.7186 24.48C81.1746 24.912 81.7986 25.128 82.5906 25.128C83.2386 25.128 83.7546 25.056 84.1386 24.912C83.7786 25.704 83.1186 26.316 82.1586 26.748C81.2226 27.18 80.2266 27.396 79.1706 27.396C77.1546 27.396 75.7386 26.76 74.9226 25.488ZM88.2682 22.284C88.8682 22.86 89.1682 23.568 89.1682 24.408C89.1682 25.248 88.8682 25.968 88.2682 26.568C87.6922 27.144 86.9842 27.432 86.1442 27.432C85.3042 27.432 84.5842 27.144 83.9842 26.568C83.4082 25.968 83.1202 25.248 83.1202 24.408C83.1202 23.568 83.4082 22.86 83.9842 22.284C84.5842 21.684 85.3042 21.384 86.1442 21.384C86.9842 21.384 87.6922 21.684 88.2682 22.284ZM97.4207 27H91.9487V12.78C91.9487 11.196 91.2167 10.284 89.7527 10.044H97.4207V12.852H97.4927C97.9247 11.94 98.5247 11.196 99.2927 10.62C100.085 10.02 100.925 9.72 101.813 9.72C102.245 9.72 102.605 9.756 102.893 9.828C103.181 9.9 103.409 9.984 103.577 10.08C103.745 10.176 103.961 10.332 104.225 10.548L103.433 15.156C102.593 13.524 101.513 12.708 100.193 12.708C99.4007 12.708 98.7407 13.104 98.2127 13.896C97.6847 14.688 97.4207 15.588 97.4207 16.596V27ZM120.48 22.932C120.216 23.628 119.928 24.132 119.616 24.444C117.936 26.484 115.428 27.504 112.092 27.504C109.428 27.504 107.316 26.748 105.756 25.236C104.22 23.724 103.452 21.636 103.452 18.972C103.452 16.236 104.376 13.98 106.224 12.204C108.096 10.428 110.46 9.54 113.316 9.54C114.108 9.54 114.864 9.612 115.584 9.756C116.304 9.876 117.024 10.08 117.744 10.368C118.464 10.656 119.028 11.112 119.436 11.736C119.868 12.336 120.084 13.056 120.084 13.896C120.084 14.952 119.712 15.876 118.968 16.668C118.224 17.436 117.228 18.048 115.98 18.504C114.756 18.936 113.64 19.26 112.632 19.476C111.648 19.692 110.604 19.86 109.5 19.98C109.668 21.564 110.208 22.776 111.12 23.616C112.056 24.456 113.328 24.876 114.936 24.876C117.048 24.876 118.896 24.228 120.48 22.932ZM109.392 18.54C110.496 18.492 111.528 18.276 112.488 17.892C113.4 17.556 114.036 17.052 114.396 16.38C114.78 15.708 114.972 14.844 114.972 13.788C114.972 13.044 114.768 12.408 114.36 11.88C113.952 11.328 113.376 11.052 112.632 11.052C111.96 11.052 111.384 11.292 110.904 11.772C110.448 12.228 110.112 12.84 109.896 13.608C109.704 14.376 109.56 15.084 109.464 15.732C109.392 16.356 109.356 16.992 109.356 17.64C109.356 18.048 109.368 18.348 109.392 18.54ZM121.216 26.388L121.504 21.132C121.888 22.548 122.584 23.748 123.592 24.732C124.6 25.716 125.92 26.208 127.552 26.208C128.44 26.208 129.136 26.016 129.64 25.632C130.168 25.248 130.432 24.708 130.432 24.012C130.432 23.46 130.216 22.968 129.784 22.536C129.352 22.08 128.8 21.708 128.128 21.42C127.48 21.108 126.772 20.748 126.004 20.34C125.26 19.932 124.552 19.512 123.88 19.08C123.232 18.648 122.692 18.06 122.26 17.316C121.828 16.572 121.612 15.72 121.612 14.76C121.612 12.984 122.26 11.652 123.556 10.764C124.852 9.852 126.484 9.396 128.452 9.396C130.54 9.396 132.328 9.756 133.816 10.476L133.168 14.688C132.832 13.512 132.256 12.6 131.44 11.952C130.624 11.28 129.64 10.944 128.488 10.944C127.768 10.944 127.192 11.112 126.76 11.448C126.328 11.76 126.112 12.18 126.112 12.708C126.112 13.26 126.412 13.764 127.012 14.22C127.636 14.676 128.38 15.096 129.244 15.48C130.132 15.84 131.008 16.26 131.872 16.74C132.736 17.196 133.468 17.856 134.068 18.72C134.692 19.584 135.004 20.604 135.004 21.78C135.004 23.604 134.344 25.044 133.024 26.1C131.704 27.156 129.868 27.684 127.516 27.684C125.452 27.684 123.352 27.252 121.216 26.388ZM136.919 22.32V13.644C136.919 12.276 136.127 11.52 134.543 11.376L142.643 5.904V10.044H146.243L145.199 11.988H142.643V21.492C142.643 22.5 142.943 23.328 143.543 23.976C144.143 24.624 145.031 24.948 146.207 24.948C147.071 24.948 147.863 24.792 148.583 24.48C148.175 25.32 147.443 26.04 146.387 26.64C145.331 27.216 144.059 27.504 142.571 27.504C140.747 27.504 139.343 27.048 138.359 26.136C137.399 25.2 136.919 23.928 136.919 22.32ZM165.642 18.324C165.642 21.18 164.694 23.448 162.798 25.128C160.926 26.784 158.538 27.612 155.634 27.612C152.778 27.612 150.486 26.808 148.758 25.2C147.054 23.568 146.202 21.336 146.202 18.504C146.202 15.696 147.126 13.464 148.974 11.808C150.822 10.128 153.174 9.288 156.03 9.288C158.886 9.288 161.202 10.092 162.978 11.7C164.754 13.284 165.642 15.492 165.642 18.324ZM155.922 26.244C158.322 26.244 159.522 23.64 159.522 18.432C159.522 13.224 158.382 10.62 156.102 10.62C155.334 10.62 154.686 10.872 154.158 11.376C153.63 11.88 153.246 12.552 153.006 13.392C152.79 14.232 152.634 15.012 152.538 15.732C152.466 16.428 152.43 17.16 152.43 17.928C152.43 18.552 152.43 19.056 152.43 19.44C152.454 19.8 152.49 20.364 152.538 21.132C152.61 21.9 152.718 22.536 152.862 23.04C153.006 23.52 153.198 24.036 153.438 24.588C153.678 25.14 154.014 25.56 154.446 25.848C154.878 26.112 155.37 26.244 155.922 26.244ZM172.866 27H167.394V12.78C167.394 11.196 166.662 10.284 165.198 10.044H172.866V12.852H172.938C173.37 11.94 173.97 11.196 174.738 10.62C175.53 10.02 176.37 9.72 177.258 9.72C177.69 9.72 178.05 9.756 178.338 9.828C178.626 9.9 178.854 9.984 179.022 10.08C179.19 10.176 179.406 10.332 179.67 10.548L178.878 15.156C178.038 13.524 176.958 12.708 175.638 12.708C174.846 12.708 174.186 13.104 173.658 13.896C173.13 14.688 172.866 15.588 172.866 16.596V27ZM191.417 21.816L191.453 14.22C191.453 13.14 191.201 12.336 190.697 11.808C190.193 11.28 189.581 11.016 188.861 11.016C186.509 11.016 185.333 13.596 185.333 18.756C185.333 23.076 186.413 25.236 188.573 25.236C189.461 25.236 190.157 24.936 190.661 24.336C191.189 23.736 191.441 22.896 191.417 21.816ZM191.993 25.488H191.921C190.601 26.808 188.741 27.468 186.341 27.468C184.133 27.468 182.393 26.748 181.121 25.308C179.873 23.844 179.249 21.756 179.249 19.044C179.249 16.188 180.089 13.872 181.769 12.096C183.473 10.296 185.897 9.396 189.041 9.396C192.209 9.396 194.897 10.236 197.105 11.916V22.644C197.105 23.436 197.333 24.048 197.789 24.48C198.245 24.912 198.869 25.128 199.661 25.128C200.309 25.128 200.825 25.056 201.209 24.912C200.849 25.704 200.189 26.316 199.229 26.748C198.293 27.18 197.297 27.396 196.241 27.396C194.225 27.396 192.809 26.76 191.993 25.488ZM211.675 22.86V15.552C211.675 13.344 210.835 12.24 209.155 12.24C208.267 12.24 207.523 12.588 206.923 13.284C206.347 13.956 206.059 14.916 206.059 16.164V27H200.443V12.888C200.443 11.256 199.687 10.308 198.175 10.044H206.059V12.132C207.523 10.548 209.395 9.756 211.675 9.756C213.307 9.756 214.651 10.2 215.707 11.088C216.763 11.976 217.291 13.296 217.291 15.048V22.68C217.291 23.376 217.495 23.952 217.903 24.408C218.311 24.864 218.899 25.092 219.667 25.092C220.483 25.092 221.071 25.032 221.431 24.912C221.071 25.68 220.459 26.304 219.595 26.784C218.731 27.24 217.663 27.468 216.391 27.468C214.807 27.468 213.619 27.036 212.827 26.172C212.059 25.284 211.675 24.18 211.675 22.86Z" fill="#41413E"/>
</svg>
